G04 #@! TF.GenerationSoftware,KiCad,Pcbnew,9.0.5*
G04 #@! TF.CreationDate,2026-02-03T11:17:28+09:00*
G04 #@! TF.ProjectId,leafony-stm32n6,6c656166-6f6e-4792-9d73-746d33326e36,v1.0*
G04 #@! TF.SameCoordinates,Original*
G04 #@! TF.FileFunction,Copper,L1,Top*
G04 #@! TF.FilePolarity,Positive*
%FSLAX46Y46*%
G04 Gerber Fmt 4.6, Leading zero omitted, Abs format (unit mm)*
G04 Created by KiCad (PCBNEW 9.0.5) date 2026-02-03 11:17:28*
%MOMM*%
%LPD*%
G01*
G04 APERTURE LIST*
G04 Aperture macros list*
%AMRoundRect*
0 Rectangle with rounded corners*
0 $1 Rounding radius*
0 $2 $3 $4 $5 $6 $7 $8 $9 X,Y pos of 4 corners*
0 Add a 4 corners polygon primitive as box body*
4,1,4,$2,$3,$4,$5,$6,$7,$8,$9,$2,$3,0*
0 Add four circle primitives for the rounded corners*
1,1,$1+$1,$2,$3*
1,1,$1+$1,$4,$5*
1,1,$1+$1,$6,$7*
1,1,$1+$1,$8,$9*
0 Add four rect primitives between the rounded corners*
20,1,$1+$1,$2,$3,$4,$5,0*
20,1,$1+$1,$4,$5,$6,$7,0*
20,1,$1+$1,$6,$7,$8,$9,0*
20,1,$1+$1,$8,$9,$2,$3,0*%
%AMFreePoly0*
4,1,14,0.168536,0.153536,0.170000,0.150000,0.170000,0.030000,0.168536,0.026464,-0.011464,-0.153536,-0.015000,-0.155000,-0.165000,-0.155000,-0.168536,-0.153536,-0.170000,-0.150000,-0.170000,0.150000,-0.168536,0.153536,-0.165000,0.155000,0.165000,0.155000,0.168536,0.153536,0.168536,0.153536,$1*%
%AMFreePoly1*
4,1,14,-0.011464,0.153536,0.168536,-0.026464,0.170000,-0.030000,0.170000,-0.150000,0.168536,-0.153536,0.165000,-0.155000,-0.165000,-0.155000,-0.168536,-0.153536,-0.170000,-0.150000,-0.170000,0.150000,-0.168536,0.153536,-0.165000,0.155000,-0.015000,0.155000,-0.011464,0.153536,-0.011464,0.153536,$1*%
%AMFreePoly2*
4,1,14,0.168536,0.153536,0.170000,0.150000,0.170000,-0.150000,0.168536,-0.153536,0.165000,-0.155000,-0.165000,-0.155000,-0.168536,-0.153536,-0.170000,-0.150000,-0.170000,-0.030000,-0.168536,-0.026464,0.011464,0.153536,0.015000,0.155000,0.165000,0.155000,0.168536,0.153536,0.168536,0.153536,$1*%
%AMFreePoly3*
4,1,14,0.168536,0.153536,0.170000,0.150000,0.170000,-0.150000,0.168536,-0.153536,0.165000,-0.155000,0.015000,-0.155000,0.011464,-0.153536,-0.168536,0.026464,-0.170000,0.030000,-0.170000,0.150000,-0.168536,0.153536,-0.165000,0.155000,0.165000,0.155000,0.168536,0.153536,0.168536,0.153536,$1*%
%AMFreePoly4*
4,1,14,0.003536,0.399517,0.399517,0.003536,0.400981,0.000000,0.399517,-0.003536,0.003536,-0.399517,0.000000,-0.400981,-0.003536,-0.399517,-0.328805,-0.074245,-0.330269,-0.070709,-0.330269,0.070709,-0.328805,0.074245,-0.003536,0.399517,0.000000,0.400981,0.003536,0.399517,0.003536,0.399517,$1*%
%AMFreePoly5*
4,1,23,0.114805,0.852164,0.182628,0.813006,0.238006,0.757628,0.277164,0.689805,0.297433,0.614158,0.297433,0.535842,0.277164,0.460195,0.238006,0.392372,0.225000,0.379366,0.225000,-0.575000,-0.225000,-0.575000,-0.225000,0.379366,-0.238006,0.392372,-0.277164,0.460195,-0.297433,0.535842,-0.297433,0.614158,-0.277164,0.689805,-0.238006,0.757628,-0.182628,0.813006,-0.114805,0.852164,
-0.039158,0.872433,0.039158,0.872433,0.114805,0.852164,0.114805,0.852164,$1*%
G04 Aperture macros list end*
G04 #@! TA.AperFunction,SMDPad,CuDef*
%ADD10RoundRect,0.150000X-0.625000X0.150000X-0.625000X-0.150000X0.625000X-0.150000X0.625000X0.150000X0*%
G04 #@! TD*
G04 #@! TA.AperFunction,SMDPad,CuDef*
%ADD11RoundRect,0.250000X-0.650000X0.350000X-0.650000X-0.350000X0.650000X-0.350000X0.650000X0.350000X0*%
G04 #@! TD*
G04 #@! TA.AperFunction,SMDPad,CuDef*
%ADD12R,0.700000X0.200000*%
G04 #@! TD*
G04 #@! TA.AperFunction,SMDPad,CuDef*
%ADD13RoundRect,0.200000X-0.275000X0.200000X-0.275000X-0.200000X0.275000X-0.200000X0.275000X0.200000X0*%
G04 #@! TD*
G04 #@! TA.AperFunction,SMDPad,CuDef*
%ADD14RoundRect,0.135000X-0.185000X0.135000X-0.185000X-0.135000X0.185000X-0.135000X0.185000X0.135000X0*%
G04 #@! TD*
G04 #@! TA.AperFunction,SMDPad,CuDef*
%ADD15RoundRect,0.140000X0.140000X0.170000X-0.140000X0.170000X-0.140000X-0.170000X0.140000X-0.170000X0*%
G04 #@! TD*
G04 #@! TA.AperFunction,SMDPad,CuDef*
%ADD16RoundRect,0.135000X0.185000X-0.135000X0.185000X0.135000X-0.185000X0.135000X-0.185000X-0.135000X0*%
G04 #@! TD*
G04 #@! TA.AperFunction,SMDPad,CuDef*
%ADD17RoundRect,0.225000X-0.225000X-0.250000X0.225000X-0.250000X0.225000X0.250000X-0.225000X0.250000X0*%
G04 #@! TD*
G04 #@! TA.AperFunction,ComponentPad*
%ADD18C,4.400000*%
G04 #@! TD*
G04 #@! TA.AperFunction,SMDPad,CuDef*
%ADD19RoundRect,0.135000X-0.135000X-0.185000X0.135000X-0.185000X0.135000X0.185000X-0.135000X0.185000X0*%
G04 #@! TD*
G04 #@! TA.AperFunction,SMDPad,CuDef*
%ADD20R,0.203200X0.330200*%
G04 #@! TD*
G04 #@! TA.AperFunction,SMDPad,CuDef*
%ADD21RoundRect,0.150000X-0.150000X-0.200000X0.150000X-0.200000X0.150000X0.200000X-0.150000X0.200000X0*%
G04 #@! TD*
G04 #@! TA.AperFunction,SMDPad,CuDef*
%ADD22RoundRect,0.200000X-0.200000X-0.275000X0.200000X-0.275000X0.200000X0.275000X-0.200000X0.275000X0*%
G04 #@! TD*
G04 #@! TA.AperFunction,SMDPad,CuDef*
%ADD23R,0.599999X0.249999*%
G04 #@! TD*
G04 #@! TA.AperFunction,SMDPad,CuDef*
%ADD24R,1.100000X0.299999*%
G04 #@! TD*
G04 #@! TA.AperFunction,SMDPad,CuDef*
%ADD25RoundRect,0.140000X-0.140000X-0.170000X0.140000X-0.170000X0.140000X0.170000X-0.140000X0.170000X0*%
G04 #@! TD*
G04 #@! TA.AperFunction,SMDPad,CuDef*
%ADD26FreePoly0,270.000000*%
G04 #@! TD*
G04 #@! TA.AperFunction,SMDPad,CuDef*
%ADD27FreePoly1,270.000000*%
G04 #@! TD*
G04 #@! TA.AperFunction,SMDPad,CuDef*
%ADD28FreePoly2,270.000000*%
G04 #@! TD*
G04 #@! TA.AperFunction,SMDPad,CuDef*
%ADD29FreePoly3,270.000000*%
G04 #@! TD*
G04 #@! TA.AperFunction,SMDPad,CuDef*
%ADD30FreePoly4,270.000000*%
G04 #@! TD*
G04 #@! TA.AperFunction,SMDPad,CuDef*
%ADD31C,0.370000*%
G04 #@! TD*
G04 #@! TA.AperFunction,SMDPad,CuDef*
%ADD32RoundRect,0.135000X0.135000X0.185000X-0.135000X0.185000X-0.135000X-0.185000X0.135000X-0.185000X0*%
G04 #@! TD*
G04 #@! TA.AperFunction,SMDPad,CuDef*
%ADD33RoundRect,0.200000X0.275000X-0.200000X0.275000X0.200000X-0.275000X0.200000X-0.275000X-0.200000X0*%
G04 #@! TD*
G04 #@! TA.AperFunction,SMDPad,CuDef*
%ADD34R,0.482600X1.168400*%
G04 #@! TD*
G04 #@! TA.AperFunction,SMDPad,CuDef*
%ADD35RoundRect,0.225000X-0.250000X0.225000X-0.250000X-0.225000X0.250000X-0.225000X0.250000X0.225000X0*%
G04 #@! TD*
G04 #@! TA.AperFunction,SMDPad,CuDef*
%ADD36RoundRect,0.218750X-0.218750X-0.256250X0.218750X-0.256250X0.218750X0.256250X-0.218750X0.256250X0*%
G04 #@! TD*
G04 #@! TA.AperFunction,SMDPad,CuDef*
%ADD37C,1.000000*%
G04 #@! TD*
G04 #@! TA.AperFunction,SMDPad,CuDef*
%ADD38R,0.600000X0.800000*%
G04 #@! TD*
G04 #@! TA.AperFunction,SMDPad,CuDef*
%ADD39R,0.750000X0.650000*%
G04 #@! TD*
G04 #@! TA.AperFunction,SMDPad,CuDef*
%ADD40R,1.250000X1.000000*%
G04 #@! TD*
G04 #@! TA.AperFunction,BGAPad,CuDef*
%ADD41C,0.200000*%
G04 #@! TD*
G04 #@! TA.AperFunction,SMDPad,CuDef*
%ADD42RoundRect,0.225000X0.225000X0.250000X-0.225000X0.250000X-0.225000X-0.250000X0.225000X-0.250000X0*%
G04 #@! TD*
G04 #@! TA.AperFunction,SMDPad,CuDef*
%ADD43R,1.498600X0.711200*%
G04 #@! TD*
G04 #@! TA.AperFunction,SMDPad,CuDef*
%ADD44R,0.812800X0.990600*%
G04 #@! TD*
G04 #@! TA.AperFunction,SMDPad,CuDef*
%ADD45R,0.900000X1.450000*%
G04 #@! TD*
G04 #@! TA.AperFunction,SMDPad,CuDef*
%ADD46FreePoly5,0.000000*%
G04 #@! TD*
G04 #@! TA.AperFunction,SMDPad,CuDef*
%ADD47FreePoly5,180.000000*%
G04 #@! TD*
G04 #@! TA.AperFunction,SMDPad,CuDef*
%ADD48RoundRect,0.225000X0.250000X-0.225000X0.250000X0.225000X-0.250000X0.225000X-0.250000X-0.225000X0*%
G04 #@! TD*
G04 #@! TA.AperFunction,SMDPad,CuDef*
%ADD49R,1.000000X1.400000*%
G04 #@! TD*
G04 #@! TA.AperFunction,SMDPad,CuDef*
%ADD50R,0.584200X0.355600*%
G04 #@! TD*
G04 #@! TA.AperFunction,SMDPad,CuDef*
%ADD51RoundRect,0.218750X0.218750X0.256250X-0.218750X0.256250X-0.218750X-0.256250X0.218750X-0.256250X0*%
G04 #@! TD*
G04 #@! TA.AperFunction,SMDPad,CuDef*
%ADD52C,0.254000*%
G04 #@! TD*
G04 #@! TA.AperFunction,SMDPad,CuDef*
%ADD53R,0.680000X0.200000*%
G04 #@! TD*
G04 #@! TA.AperFunction,SMDPad,CuDef*
%ADD54R,0.200000X0.680000*%
G04 #@! TD*
G04 #@! TA.AperFunction,SMDPad,CuDef*
%ADD55R,0.900000X0.300000*%
G04 #@! TD*
G04 #@! TA.AperFunction,ComponentPad*
%ADD56O,2.600000X1.300000*%
G04 #@! TD*
G04 #@! TA.AperFunction,ComponentPad*
%ADD57O,2.450000X1.225000*%
G04 #@! TD*
G04 #@! TA.AperFunction,SMDPad,CuDef*
%ADD58R,1.803400X1.168400*%
G04 #@! TD*
G04 #@! TA.AperFunction,SMDPad,CuDef*
%ADD59RoundRect,0.140000X-0.170000X0.140000X-0.170000X-0.140000X0.170000X-0.140000X0.170000X0.140000X0*%
G04 #@! TD*
G04 #@! TA.AperFunction,SMDPad,CuDef*
%ADD60RoundRect,0.100000X-0.130000X-0.100000X0.130000X-0.100000X0.130000X0.100000X-0.130000X0.100000X0*%
G04 #@! TD*
G04 #@! TA.AperFunction,SMDPad,CuDef*
%ADD61R,2.729998X0.739998*%
G04 #@! TD*
G04 #@! TA.AperFunction,SMDPad,CuDef*
%ADD62R,2.729996X0.739996*%
G04 #@! TD*
G04 #@! TA.AperFunction,SMDPad,CuDef*
%ADD63R,2.730000X0.740000*%
G04 #@! TD*
G04 #@! TA.AperFunction,SMDPad,CuDef*
%ADD64R,2.790000X0.740000*%
G04 #@! TD*
G04 #@! TA.AperFunction,SMDPad,CuDef*
%ADD65R,0.228600X0.254000*%
G04 #@! TD*
G04 #@! TA.AperFunction,SMDPad,CuDef*
%ADD66R,1.397000X0.330200*%
G04 #@! TD*
G04 #@! TA.AperFunction,SMDPad,CuDef*
%ADD67RoundRect,0.100000X0.130000X0.100000X-0.130000X0.100000X-0.130000X-0.100000X0.130000X-0.100000X0*%
G04 #@! TD*
G04 #@! TA.AperFunction,SMDPad,CuDef*
%ADD68R,1.295400X0.304800*%
G04 #@! TD*
G04 #@! TA.AperFunction,SMDPad,CuDef*
%ADD69R,2.209800X1.803400*%
G04 #@! TD*
G04 #@! TA.AperFunction,SMDPad,CuDef*
%ADD70RoundRect,0.100000X-0.100000X0.130000X-0.100000X-0.130000X0.100000X-0.130000X0.100000X0.130000X0*%
G04 #@! TD*
G04 #@! TA.AperFunction,SMDPad,CuDef*
%ADD71R,0.800000X0.600000*%
G04 #@! TD*
G04 #@! TA.AperFunction,ViaPad*
%ADD72C,0.330000*%
G04 #@! TD*
G04 #@! TA.AperFunction,ViaPad*
%ADD73C,0.500000*%
G04 #@! TD*
G04 #@! TA.AperFunction,Conductor*
%ADD74C,0.127000*%
G04 #@! TD*
G04 #@! TA.AperFunction,Conductor*
%ADD75C,0.254000*%
G04 #@! TD*
G04 #@! TA.AperFunction,Conductor*
%ADD76C,0.200000*%
G04 #@! TD*
G04 #@! TA.AperFunction,Conductor*
%ADD77C,0.500000*%
G04 #@! TD*
G04 #@! TA.AperFunction,Conductor*
%ADD78C,0.150000*%
G04 #@! TD*
G04 APERTURE END LIST*
D10*
X93055000Y-131270000D03*
X93055000Y-132270000D03*
X93055000Y-133270000D03*
X93055000Y-134270000D03*
X93055000Y-135270000D03*
X93055000Y-136270000D03*
D11*
X95580000Y-129970000D03*
X95580000Y-137570000D03*
D12*
X88497100Y-108434000D03*
X88497100Y-108034000D03*
X88497100Y-107634000D03*
X87447100Y-107634000D03*
X87447100Y-108034000D03*
X87447100Y-108434000D03*
D13*
X61230600Y-128511200D03*
X61230600Y-130161200D03*
D14*
X79570198Y-152607918D03*
X79570198Y-153627918D03*
D15*
X88816800Y-119772909D03*
X87856800Y-119772909D03*
D16*
X90168200Y-134352400D03*
X90168200Y-133332400D03*
D17*
X65725000Y-136700000D03*
X67275000Y-136700000D03*
D18*
X94038737Y-141484913D03*
D19*
X67603000Y-116784200D03*
X68623000Y-116784200D03*
D17*
X65725000Y-135200000D03*
X67275000Y-135200000D03*
D20*
X88815600Y-117163486D03*
X88415600Y-117163486D03*
D21*
X85612000Y-124929000D03*
X84212000Y-124929000D03*
D22*
X63034000Y-98055600D03*
X64684000Y-98055600D03*
D23*
X68150001Y-139699999D03*
X68150001Y-139200000D03*
X68150001Y-138700001D03*
D24*
X67050001Y-138700001D03*
X67050001Y-139200000D03*
X67050001Y-139699999D03*
D25*
X67430800Y-124674800D03*
X68390800Y-124674800D03*
D15*
X66171600Y-114631200D03*
X65211600Y-114631200D03*
D26*
X78925000Y-138825000D03*
D27*
X78275000Y-138825000D03*
D28*
X78275000Y-139575000D03*
D29*
X78925000Y-139575000D03*
D30*
X78600000Y-139200000D03*
D20*
X88822000Y-114391257D03*
X88422000Y-114391257D03*
D16*
X67148800Y-113477400D03*
X67148800Y-112457400D03*
D31*
X70981400Y-95192000D03*
X71981400Y-95192000D03*
X72981400Y-95192000D03*
X73981400Y-95192000D03*
X69981400Y-96192000D03*
X70981400Y-96192000D03*
X71981400Y-96192000D03*
X72981400Y-96192000D03*
X73981400Y-96192000D03*
X69981400Y-97192000D03*
X70981400Y-97192000D03*
X71981400Y-97192000D03*
X72981400Y-97192000D03*
X73981400Y-97192000D03*
X69981400Y-98192000D03*
X70981400Y-98192000D03*
X71981400Y-98192000D03*
X72981400Y-98192000D03*
X73981400Y-98192000D03*
X69981400Y-99192000D03*
X70981400Y-99192000D03*
X71981400Y-99192000D03*
X72981400Y-99192000D03*
X73981400Y-99192000D03*
D16*
X78433400Y-153631000D03*
X78433400Y-152611000D03*
D32*
X93332000Y-123529000D03*
X92312000Y-123529000D03*
D33*
X78782000Y-104480800D03*
X78782000Y-102830800D03*
D34*
X91750000Y-99617600D03*
X91750000Y-97382400D03*
D35*
X56736200Y-122604800D03*
X56736200Y-124154800D03*
D33*
X65345400Y-133716200D03*
X65345400Y-132066200D03*
D19*
X69432800Y-121880800D03*
X70452800Y-121880800D03*
D20*
X87520200Y-116470429D03*
X87120200Y-116470429D03*
D16*
X68241000Y-113477400D03*
X68241000Y-112457400D03*
D19*
X86692000Y-125129000D03*
X87712000Y-125129000D03*
X79770600Y-122033200D03*
X80790600Y-122033200D03*
D32*
X80788600Y-123404800D03*
X79768600Y-123404800D03*
D36*
X67707500Y-127418000D03*
X69282500Y-127418000D03*
D37*
X57674600Y-133488600D03*
D38*
X78255600Y-163736200D03*
X76755600Y-163736200D03*
D25*
X67430800Y-120356800D03*
X68390800Y-120356800D03*
D26*
X83925000Y-138825000D03*
D27*
X83275000Y-138825000D03*
D28*
X83275000Y-139575000D03*
D29*
X83925000Y-139575000D03*
D30*
X83600000Y-139200000D03*
D37*
X68000000Y-132200000D03*
D18*
X55999999Y-141489049D03*
D14*
X64964400Y-112457400D03*
X64964400Y-113477400D03*
D39*
X65065000Y-116606400D03*
X66115000Y-116606400D03*
X66115000Y-115856400D03*
X65065000Y-115856400D03*
D40*
X67910800Y-121765800D03*
X67910800Y-123265800D03*
D37*
X63000000Y-125000000D03*
D41*
X58834809Y-128514916D03*
X59184809Y-128514916D03*
X58834809Y-128864916D03*
X59184809Y-128864916D03*
D42*
X56786200Y-127379800D03*
X55236200Y-127379800D03*
D20*
X88815000Y-115777371D03*
X88415000Y-115777371D03*
D14*
X66056600Y-112457400D03*
X66056600Y-113477400D03*
D43*
X81284600Y-156690003D03*
X81284600Y-153690000D03*
X81284600Y-152190000D03*
D44*
X81984601Y-158090000D03*
X84084599Y-158089980D03*
X84084599Y-150790020D03*
X81984601Y-150790000D03*
D37*
X79100000Y-132200000D03*
D23*
X54236200Y-122879802D03*
X54236200Y-123379801D03*
X54236200Y-123879800D03*
D24*
X55336200Y-123879800D03*
X55336200Y-123379801D03*
X55336200Y-122879802D03*
D20*
X87501200Y-113698200D03*
X87101200Y-113698200D03*
X87520200Y-115084314D03*
X87120200Y-115084314D03*
D45*
X68925000Y-148475000D03*
D46*
X68700000Y-146675000D03*
D47*
X70050000Y-148325000D03*
D46*
X69600000Y-146675000D03*
D47*
X70950000Y-148325000D03*
D46*
X70500000Y-146675000D03*
D47*
X71850000Y-148325000D03*
D46*
X71400000Y-146675000D03*
D47*
X72750000Y-148325000D03*
D46*
X72300000Y-146675000D03*
D47*
X73650000Y-148325000D03*
D46*
X73200000Y-146675000D03*
D47*
X74550000Y-148325000D03*
D46*
X74100000Y-146675000D03*
D47*
X75450000Y-148325000D03*
D46*
X75000000Y-146675000D03*
D47*
X76350000Y-148325000D03*
D46*
X75900000Y-146675000D03*
D47*
X77250000Y-148325000D03*
D46*
X76800000Y-146675000D03*
D47*
X78150000Y-148325000D03*
D46*
X77700000Y-146675000D03*
D47*
X79050000Y-148325000D03*
D46*
X78600000Y-146675000D03*
D47*
X79950000Y-148325000D03*
D46*
X79500000Y-146675000D03*
D45*
X81075000Y-148475000D03*
D46*
X80400000Y-146675000D03*
X81300000Y-146675000D03*
D22*
X86957600Y-121122376D03*
X88607600Y-121122376D03*
D31*
X83363400Y-95166600D03*
X84363400Y-95166600D03*
X85363400Y-95166600D03*
X86363400Y-95166600D03*
X82363400Y-96166600D03*
X83363400Y-96166600D03*
X84363400Y-96166600D03*
X85363400Y-96166600D03*
X86363400Y-96166600D03*
X82363400Y-97166600D03*
X83363400Y-97166600D03*
X84363400Y-97166600D03*
X85363400Y-97166600D03*
X86363400Y-97166600D03*
X82363400Y-98166600D03*
X83363400Y-98166600D03*
X84363400Y-98166600D03*
X85363400Y-98166600D03*
X86363400Y-98166600D03*
X82363400Y-99166600D03*
X83363400Y-99166600D03*
X84363400Y-99166600D03*
X85363400Y-99166600D03*
X86363400Y-99166600D03*
D25*
X58439609Y-130584116D03*
X59399609Y-130584116D03*
D48*
X65500000Y-139975000D03*
X65500000Y-138425000D03*
D19*
X67603000Y-115683200D03*
X68623000Y-115683200D03*
D37*
X61205200Y-133158400D03*
D49*
X82700000Y-163500000D03*
X84100000Y-163500000D03*
X84100000Y-159900000D03*
X82700000Y-159900000D03*
D15*
X79080000Y-140700000D03*
X78120000Y-140700000D03*
D12*
X75922000Y-156718482D03*
X75922000Y-157118482D03*
X75922000Y-157518482D03*
X76972000Y-157518482D03*
X76972000Y-157118482D03*
X76972000Y-156718482D03*
X88497100Y-112599600D03*
X88497100Y-112199600D03*
X88497100Y-111799600D03*
X87447100Y-111799600D03*
X87447100Y-112199600D03*
X87447100Y-112599600D03*
D33*
X75022800Y-136662600D03*
X75022800Y-135012600D03*
D15*
X84080000Y-137700000D03*
X83120000Y-137700000D03*
D42*
X56786200Y-125879800D03*
X55236200Y-125879800D03*
D50*
X89688000Y-123029001D03*
X89688000Y-124028999D03*
X91212000Y-123529000D03*
D20*
X87520200Y-117856543D03*
X87120200Y-117856543D03*
D25*
X65142200Y-117791400D03*
X66102200Y-117791400D03*
D51*
X69282500Y-129069000D03*
X67707500Y-129069000D03*
D15*
X84080000Y-140700000D03*
X83120000Y-140700000D03*
D52*
X70500000Y-119500000D03*
X70500000Y-119000000D03*
X70500000Y-118500000D03*
X70500000Y-118000000D03*
X70500000Y-117500000D03*
X70500000Y-117000000D03*
X70500000Y-116500000D03*
X70500000Y-116000000D03*
X70500000Y-115500000D03*
X70500000Y-115000000D03*
X70500000Y-114500000D03*
X70500000Y-114000000D03*
X70500000Y-113500000D03*
X70500000Y-113000000D03*
X70500000Y-112500000D03*
X70500000Y-112000000D03*
X70500000Y-111500000D03*
X70500000Y-111000000D03*
X70500000Y-110500000D03*
X71000000Y-119500000D03*
X71000000Y-119000000D03*
X71000000Y-118500000D03*
X71000000Y-118000000D03*
X71000000Y-117500000D03*
X71000000Y-117000000D03*
X71000000Y-116500000D03*
X71000000Y-116000000D03*
X71000000Y-115500000D03*
X71000000Y-115000000D03*
X71000000Y-114500000D03*
X71000000Y-114000000D03*
X71000000Y-113500000D03*
X71000000Y-113000000D03*
X71000000Y-112500000D03*
X71000000Y-112000000D03*
X71000000Y-111500000D03*
X71000000Y-111000000D03*
X71000000Y-110500000D03*
X71500000Y-119500000D03*
X71500000Y-119000000D03*
X71500000Y-118500000D03*
X71500000Y-111500000D03*
X71500000Y-111000000D03*
X71500000Y-110500000D03*
X72000000Y-119500000D03*
X72000000Y-119000000D03*
X72000000Y-118000000D03*
X72000000Y-117500000D03*
X72000000Y-117000000D03*
X72000000Y-116500000D03*
X72000000Y-116000000D03*
X72000000Y-115500000D03*
X72000000Y-115000000D03*
X72000000Y-114500000D03*
X72000000Y-114000000D03*
X72000000Y-113500000D03*
X72000000Y-113000000D03*
X72000000Y-112500000D03*
X72000000Y-112000000D03*
X72000000Y-111000000D03*
X72000000Y-110500000D03*
X72500000Y-119500000D03*
X72500000Y-119000000D03*
X72500000Y-118000000D03*
X72500000Y-112000000D03*
X72500000Y-111000000D03*
X72500000Y-110500000D03*
X73000000Y-119500000D03*
X73000000Y-119000000D03*
X73000000Y-118000000D03*
X73000000Y-117000000D03*
X73000000Y-116500000D03*
X73000000Y-116000000D03*
X73000000Y-115500000D03*
X73000000Y-115000000D03*
X73000000Y-114500000D03*
X73000000Y-114000000D03*
X73000000Y-113500000D03*
X73000000Y-113000000D03*
X73000000Y-112000000D03*
X73000000Y-111000000D03*
X73000000Y-110500000D03*
X73500000Y-119500000D03*
X73500000Y-119000000D03*
X73500000Y-118000000D03*
X73500000Y-117000000D03*
X73500000Y-113000000D03*
X73500000Y-112000000D03*
X73500000Y-111000000D03*
X73500000Y-110500000D03*
X74000000Y-119500000D03*
X74000000Y-119000000D03*
X74000000Y-118000000D03*
X74000000Y-117000000D03*
X74000000Y-113000000D03*
X74000000Y-112000000D03*
X74000000Y-111000000D03*
X74000000Y-110500000D03*
X74500000Y-119500000D03*
X74500000Y-119000000D03*
X74500000Y-118500000D03*
X74500000Y-118000000D03*
X74500000Y-117500000D03*
X74500000Y-113000000D03*
X74500000Y-112000000D03*
X74500000Y-111000000D03*
X74500000Y-110500000D03*
X75000000Y-119500000D03*
X75000000Y-119000000D03*
X75000000Y-118500000D03*
X75000000Y-118000000D03*
X75000000Y-117500000D03*
X75000000Y-113000000D03*
X75000000Y-112000000D03*
X75000000Y-111000000D03*
X75000000Y-110500000D03*
X75500000Y-119500000D03*
X75500000Y-119000000D03*
X75500000Y-118500000D03*
X75500000Y-118000000D03*
X75500000Y-117500000D03*
X75500000Y-113000000D03*
X75500000Y-112000000D03*
X75500000Y-111000000D03*
X75500000Y-110500000D03*
X76000000Y-119500000D03*
X76000000Y-119000000D03*
X76000000Y-118000000D03*
X76000000Y-117000000D03*
X76000000Y-113000000D03*
X76000000Y-112000000D03*
X76000000Y-111000000D03*
X76000000Y-110500000D03*
X76500000Y-119500000D03*
X76500000Y-119000000D03*
X76500000Y-118000000D03*
X76500000Y-117000000D03*
X76500000Y-113000000D03*
X76500000Y-112000000D03*
X76500000Y-111000000D03*
X76500000Y-110500000D03*
X77000000Y-119500000D03*
X77000000Y-119000000D03*
X77000000Y-118000000D03*
X77000000Y-117000000D03*
X77000000Y-116500000D03*
X77000000Y-116000000D03*
X77000000Y-115500000D03*
X77000000Y-115000000D03*
X77000000Y-114500000D03*
X77000000Y-114000000D03*
X77000000Y-113500000D03*
X77000000Y-113000000D03*
X77000000Y-112000000D03*
X77000000Y-111000000D03*
X77000000Y-110500000D03*
X77500000Y-119500000D03*
X77500000Y-119000000D03*
X77500000Y-118000000D03*
X77500000Y-112000000D03*
X77500000Y-111000000D03*
X77500000Y-110500000D03*
X78000000Y-119500000D03*
X78000000Y-119000000D03*
X78000000Y-118000000D03*
X78000000Y-117500000D03*
X78000000Y-117000000D03*
X78000000Y-116500000D03*
X78000000Y-116000000D03*
X78000000Y-115500000D03*
X78000000Y-115000000D03*
X78000000Y-114500000D03*
X78000000Y-114000000D03*
X78000000Y-113500000D03*
X78000000Y-113000000D03*
X78000000Y-112500000D03*
X78000000Y-112000000D03*
X78000000Y-111000000D03*
X78000000Y-110500000D03*
X78500000Y-119500000D03*
X78500000Y-119000000D03*
X78500000Y-118500000D03*
X78500000Y-111500000D03*
X78500000Y-111000000D03*
X78500000Y-110500000D03*
X79000000Y-119500000D03*
X79000000Y-119000000D03*
X79000000Y-118500000D03*
X79000000Y-118000000D03*
X79000000Y-117500000D03*
X79000000Y-117000000D03*
X79000000Y-116500000D03*
X79000000Y-116000000D03*
X79000000Y-115500000D03*
X79000000Y-115000000D03*
X79000000Y-114500000D03*
X79000000Y-114000000D03*
X79000000Y-113500000D03*
X79000000Y-113000000D03*
X79000000Y-112500000D03*
X79000000Y-112000000D03*
X79000000Y-111500000D03*
X79000000Y-111000000D03*
X79000000Y-110500000D03*
X79500000Y-119500000D03*
X79500000Y-119000000D03*
X79500000Y-118500000D03*
X79500000Y-118000000D03*
X79500000Y-117500000D03*
X79500000Y-117000000D03*
X79500000Y-116500000D03*
X79500000Y-116000000D03*
X79500000Y-115500000D03*
X79500000Y-115000000D03*
X79500000Y-114500000D03*
X79500000Y-114000000D03*
X79500000Y-113500000D03*
X79500000Y-113000000D03*
X79500000Y-112500000D03*
X79500000Y-112000000D03*
X79500000Y-111500000D03*
X79500000Y-111000000D03*
X79500000Y-110500000D03*
D16*
X81068000Y-114108600D03*
X81068000Y-113088600D03*
D53*
X91096999Y-127329001D03*
X91096999Y-126928999D03*
X91096999Y-126529000D03*
X91096999Y-126129001D03*
X91096999Y-125728999D03*
D54*
X90462063Y-125644001D03*
X89961937Y-125644001D03*
D53*
X89327001Y-125728999D03*
X89327001Y-126129001D03*
X89327001Y-126529000D03*
X89327001Y-126928999D03*
X89327001Y-127329001D03*
D54*
X89961937Y-127413999D03*
X90462063Y-127413999D03*
D55*
X71469802Y-153352082D03*
X71469802Y-154352082D03*
X71469802Y-155352082D03*
X71469802Y-156352082D03*
X71469802Y-157852082D03*
X71469802Y-158852082D03*
X71469802Y-159852082D03*
X71469802Y-160852082D03*
X71469802Y-160352082D03*
X71469802Y-159352082D03*
X71469802Y-158352082D03*
X71469802Y-157352082D03*
X71469802Y-156852082D03*
X71469802Y-155852082D03*
X71469802Y-154852082D03*
X71469802Y-153852082D03*
X71469802Y-152852082D03*
X71469802Y-161352082D03*
D56*
X70849802Y-151702082D03*
X70849802Y-162502082D03*
D57*
X67619802Y-151702082D03*
X67619802Y-162502082D03*
D42*
X73574999Y-137261800D03*
X72024999Y-137261800D03*
D58*
X59236200Y-123503500D03*
X59236200Y-125256100D03*
D59*
X81500000Y-162620000D03*
X81500000Y-163580000D03*
D15*
X87672000Y-126173400D03*
X86712000Y-126173400D03*
D33*
X85309800Y-136587400D03*
X85309800Y-134937400D03*
D60*
X89647000Y-128535600D03*
X90287000Y-128535600D03*
D18*
X93909961Y-93409961D03*
X55906429Y-93395356D03*
D58*
X63523750Y-139477601D03*
X63523750Y-137725001D03*
D37*
X84060500Y-132167800D03*
D20*
X88822000Y-118549600D03*
X88422000Y-118549600D03*
D61*
X55964601Y-108945001D03*
D62*
X60094598Y-108945002D03*
D63*
X55964600Y-110215000D03*
X60094600Y-110215000D03*
D64*
X55994600Y-111485000D03*
X60064600Y-111485000D03*
X55994600Y-112755000D03*
X60064600Y-112755000D03*
X55994600Y-114025000D03*
X60064600Y-114025000D03*
D63*
X55964600Y-115295000D03*
X60094600Y-115295000D03*
X55964600Y-116565000D03*
X60094600Y-116565000D03*
D65*
X73799999Y-138959850D03*
X73400000Y-138959850D03*
X73000000Y-138959850D03*
X72600001Y-138959850D03*
X72600001Y-139798050D03*
X73000000Y-139798050D03*
X73400000Y-139798050D03*
X73799999Y-139798050D03*
D66*
X73200000Y-139378950D03*
D17*
X71040000Y-91380000D03*
X72590000Y-91380000D03*
D33*
X80306000Y-136638200D03*
X80306000Y-134988200D03*
D13*
X56754340Y-128904400D03*
X56754340Y-130554400D03*
D67*
X73275200Y-120839400D03*
X72635200Y-120839400D03*
D12*
X88497100Y-110516800D03*
X88497100Y-110116800D03*
X88497100Y-109716800D03*
X87447100Y-109716800D03*
X87447100Y-110116800D03*
X87447100Y-110516800D03*
D35*
X66310600Y-96506200D03*
X66310600Y-98056200D03*
D32*
X73993600Y-155600882D03*
X72973600Y-155600882D03*
D68*
X90346598Y-108554799D03*
X90346598Y-109054798D03*
X90346598Y-109554800D03*
X90346598Y-110054799D03*
X90346598Y-110554798D03*
X90346598Y-111054799D03*
X90346598Y-111554798D03*
X90346598Y-112054800D03*
X90346598Y-112554799D03*
X90346598Y-113054798D03*
X90346598Y-113554799D03*
X90346598Y-114054799D03*
X90346598Y-114554800D03*
X90346598Y-115054799D03*
X90346598Y-115554798D03*
X90346598Y-116054800D03*
X90346598Y-116554799D03*
X90346598Y-117054800D03*
X90346598Y-117554799D03*
X90346598Y-118054798D03*
X90346598Y-118554800D03*
X90346598Y-119054799D03*
D69*
X93596599Y-120954800D03*
X93596599Y-106654798D03*
D32*
X85732000Y-126173400D03*
X84712000Y-126173400D03*
D70*
X67504400Y-97522200D03*
X67504400Y-98162200D03*
D15*
X79080000Y-136700000D03*
X78120000Y-136700000D03*
D19*
X89119800Y-97141200D03*
X90139800Y-97141200D03*
D42*
X73574999Y-141261800D03*
X72024999Y-141261800D03*
D71*
X81100400Y-112250400D03*
X81100400Y-110750400D03*
D16*
X92574200Y-126639000D03*
X92574200Y-125619000D03*
D37*
X73800000Y-132200000D03*
D15*
X79080000Y-137700000D03*
X78120000Y-137700000D03*
D67*
X74380000Y-91760000D03*
X73740000Y-91760000D03*
D15*
X84100000Y-136700000D03*
X83140000Y-136700000D03*
D32*
X73993600Y-158598082D03*
X72973600Y-158598082D03*
D19*
X69432800Y-123023800D03*
X70452800Y-123023800D03*
X66540000Y-94200000D03*
X67560000Y-94200000D03*
D72*
X76602474Y-112453571D03*
X87196400Y-119557797D03*
X83125400Y-150532000D03*
X54330200Y-125944800D03*
X88034600Y-114358600D03*
X74210000Y-139330600D03*
X60036800Y-130415200D03*
X79391600Y-120661600D03*
X57581400Y-124547800D03*
X57581400Y-124014400D03*
X59500000Y-144000000D03*
X82446600Y-144000400D03*
X64405600Y-114362400D03*
X74487129Y-120460671D03*
X79000000Y-119000000D03*
X89246800Y-143191400D03*
X76623000Y-114250000D03*
X74652000Y-155880282D03*
X71873200Y-122498203D03*
X64405600Y-114845000D03*
X71873200Y-122033200D03*
X66945600Y-116470600D03*
X82127800Y-161450800D03*
X75066600Y-158987000D03*
X81619800Y-161450800D03*
X84105000Y-162372200D03*
X80500000Y-143500000D03*
X61000000Y-95500000D03*
X88277100Y-107234000D03*
X87242100Y-111399600D03*
X78756600Y-122947600D03*
X93006000Y-122261800D03*
X88542600Y-115273000D03*
X75048200Y-158304400D03*
X84105000Y-160975200D03*
X77987600Y-162543000D03*
X86000000Y-91500000D03*
X78756600Y-121830000D03*
X88967400Y-124319200D03*
X72228800Y-161377800D03*
X82500000Y-140900000D03*
X83150800Y-157796400D03*
X85500000Y-129000000D03*
X55500000Y-97500000D03*
X67435200Y-138082200D03*
X70730200Y-141794400D03*
X77486600Y-140887803D03*
X68022600Y-163728882D03*
X62526000Y-107453600D03*
X67082800Y-163728882D03*
X79696400Y-124116000D03*
X72239000Y-160858682D03*
X87094800Y-113215600D03*
X83386400Y-143086000D03*
X95500000Y-102500000D03*
X88967400Y-123836600D03*
X72264400Y-152857682D03*
X77500000Y-136700000D03*
X68926800Y-120610800D03*
X69130000Y-117689800D03*
X75066600Y-159520400D03*
X86579800Y-98843000D03*
X89417979Y-124809530D03*
X87849800Y-126910000D03*
X82500000Y-136700000D03*
X79975800Y-110603200D03*
X55500000Y-102000000D03*
X95530600Y-129040600D03*
X92921599Y-105429800D03*
X69917400Y-110019000D03*
X78223200Y-125735109D03*
X71416000Y-112228800D03*
X74718000Y-119925000D03*
X75251400Y-153376800D03*
X68926800Y-120145797D03*
X91278800Y-117556000D03*
X54278000Y-111488400D03*
X72178000Y-139330600D03*
X77080200Y-118528000D03*
X64971400Y-111818600D03*
X95580000Y-138528700D03*
X90800000Y-131800000D03*
X54000000Y-119500000D03*
X66300000Y-95750000D03*
X54303400Y-115273000D03*
X62526000Y-102424400D03*
X68012400Y-135639600D03*
X74693838Y-116650011D03*
X77700000Y-139200000D03*
X60500000Y-135500000D03*
X93593803Y-122262208D03*
X74238440Y-116615534D03*
X78858200Y-120661600D03*
X67421175Y-137590365D03*
X74558600Y-159520400D03*
X75120000Y-91970000D03*
X95500000Y-97000000D03*
X78756600Y-122388800D03*
X73000000Y-99750000D03*
X88727100Y-107234000D03*
X88747100Y-109326800D03*
X70435743Y-141434508D03*
D73*
X81050000Y-148200000D03*
D72*
X72264400Y-153873682D03*
X59383513Y-129375425D03*
X82500000Y-140448200D03*
X70450800Y-96430000D03*
X82700000Y-139200000D03*
X67997200Y-150495482D03*
X87700000Y-135800000D03*
X82911603Y-144000400D03*
X75110000Y-91500000D03*
X88180000Y-98563600D03*
X73016200Y-138467000D03*
X91278800Y-116057400D03*
X87692100Y-111399600D03*
X71890797Y-128637200D03*
X72239000Y-160333085D03*
X55185997Y-124725600D03*
X76684000Y-158039282D03*
X75708600Y-153376800D03*
X54685800Y-124725600D03*
D73*
X81050000Y-148900000D03*
D72*
X84776400Y-95634797D03*
X68977600Y-124311397D03*
X74998433Y-115829968D03*
X95921599Y-115729800D03*
X71670000Y-139330600D03*
X86688400Y-117863800D03*
X68500000Y-143000000D03*
X87120200Y-116847800D03*
X69587200Y-133768000D03*
X65800000Y-95750000D03*
X66952600Y-138082200D03*
X77500000Y-91500000D03*
X81245800Y-97123603D03*
X81245800Y-96658600D03*
X70070000Y-91350000D03*
X83368129Y-143543781D03*
X87692100Y-109326800D03*
X76438767Y-117471464D03*
X54320000Y-127480000D03*
X88942000Y-128383200D03*
X82903201Y-143535473D03*
X83250000Y-138300000D03*
X69769208Y-117754907D03*
X76500000Y-112000000D03*
X69917400Y-120366594D03*
X88840400Y-125208200D03*
X71974800Y-136409600D03*
X63500000Y-118500000D03*
X59681200Y-129018200D03*
X95921599Y-105729800D03*
X88747100Y-111399600D03*
X83150800Y-158431400D03*
X91278800Y-114558800D03*
X70070000Y-91850000D03*
X66564600Y-117359600D03*
X89500000Y-102500000D03*
X79000000Y-100000000D03*
X54000000Y-138000000D03*
X68012400Y-135139600D03*
X60036800Y-130880203D03*
X94321599Y-105429800D03*
X69333200Y-118172400D03*
X89881800Y-124776400D03*
X91300000Y-108542000D03*
X86840800Y-115095200D03*
X61000000Y-91500000D03*
X74652000Y-155372282D03*
X77080200Y-151624200D03*
X77950000Y-126560000D03*
X87207098Y-107234213D03*
X69917400Y-121296600D03*
X68977600Y-124776400D03*
X84351600Y-113977600D03*
X77613600Y-133463200D03*
X88297100Y-109326800D03*
X70334000Y-163728882D03*
X66437600Y-138060600D03*
X82946797Y-113977600D03*
X87196400Y-120022800D03*
X70070000Y-90850000D03*
X66800000Y-95750000D03*
X77613600Y-151624200D03*
X91278800Y-111536200D03*
X77500000Y-137700000D03*
X79271600Y-162364600D03*
X71273800Y-150495482D03*
X67057400Y-150495482D03*
X79500000Y-139200000D03*
X75000000Y-114900000D03*
X75465003Y-114900000D03*
X75244400Y-163990800D03*
X74996748Y-116294968D03*
X88942000Y-128891200D03*
X77486600Y-140422800D03*
X79000000Y-96500000D03*
X75244400Y-163508200D03*
X87242100Y-109326800D03*
X78484200Y-154287400D03*
X90000000Y-91500000D03*
X82421200Y-144457600D03*
X74032200Y-118500000D03*
X74575800Y-158293282D03*
X78401000Y-106767800D03*
X54290000Y-126960000D03*
X74558600Y-158987000D03*
X86833800Y-143191400D03*
X55500000Y-106000000D03*
X87552000Y-117051000D03*
X91304200Y-110063000D03*
X82500000Y-137700000D03*
X66956301Y-137601306D03*
X87958400Y-118549600D03*
X70308600Y-150495482D03*
X72533600Y-136409600D03*
X74995160Y-115364977D03*
X93015400Y-136884600D03*
X83125400Y-151065400D03*
X67300000Y-96700000D03*
X72355800Y-128637200D03*
X77512000Y-116242000D03*
X73803600Y-113300000D03*
X72264400Y-153365682D03*
X91253400Y-113060200D03*
X88180000Y-99028603D03*
X74514800Y-114946600D03*
X66844000Y-116953200D03*
X67750000Y-96700000D03*
X95500000Y-99500000D03*
X93621599Y-105429800D03*
X54330200Y-125436800D03*
X82693600Y-96836400D03*
X55651000Y-124725600D03*
X71299200Y-163728882D03*
X72838400Y-128637200D03*
X87672100Y-107234000D03*
X83049200Y-127164000D03*
X78250000Y-138300000D03*
X76218997Y-158039282D03*
X69917400Y-120831597D03*
X63821400Y-114845000D03*
X84500000Y-139200000D03*
X78197800Y-119950400D03*
X79696400Y-122744400D03*
X84776400Y-96099800D03*
X88297100Y-111399600D03*
X65225000Y-137651300D03*
X95921599Y-120729800D03*
X78278806Y-126231194D03*
X63000000Y-136000000D03*
X82500000Y-133500000D03*
X77512000Y-115073600D03*
X54278000Y-112733000D03*
X65825000Y-137651300D03*
X73371800Y-114260800D03*
X94225200Y-122261800D03*
X71378104Y-122711376D03*
X84314500Y-133641000D03*
X84314500Y-134106003D03*
X74750000Y-113300000D03*
X81964000Y-111513800D03*
X69333200Y-111898600D03*
X86427400Y-124065200D03*
X80790000Y-151520000D03*
X81280000Y-151522600D03*
X90923200Y-128357800D03*
X83831900Y-134106003D03*
X57648397Y-110574000D03*
X91388203Y-128357800D03*
X71365200Y-123176200D03*
X58113400Y-110574000D03*
X75250000Y-113300000D03*
X94257600Y-117863800D03*
X94047400Y-123768203D03*
X85962397Y-124065200D03*
X82429003Y-111513800D03*
X94047400Y-123303200D03*
X73346400Y-115759400D03*
X83831900Y-133641000D03*
X90923200Y-128815000D03*
X73321000Y-116250000D03*
X94257600Y-118930600D03*
X91388203Y-128822803D03*
X68850600Y-111898600D03*
X75750000Y-113397200D03*
X83912800Y-143750200D03*
X81024597Y-160804718D03*
X72729403Y-159360082D03*
X72736800Y-159853800D03*
X72264400Y-159360082D03*
X72747000Y-154864282D03*
X81489600Y-160804718D03*
X81482203Y-160311000D03*
X72264400Y-154864282D03*
X81017200Y-160311000D03*
X72264400Y-154356282D03*
X73194000Y-159371200D03*
X72729403Y-154356282D03*
X73229600Y-154864282D03*
X73194000Y-159853800D03*
X73229600Y-154356282D03*
X72254200Y-159853800D03*
X74464000Y-143623200D03*
X69333200Y-112635200D03*
X73346400Y-113750000D03*
D73*
X79950000Y-148900000D03*
X74550000Y-148900000D03*
D72*
X91837600Y-126859200D03*
X77004000Y-130364400D03*
X83106876Y-120581188D03*
X76623000Y-130694600D03*
X78528000Y-115403800D03*
X83129211Y-121045653D03*
X65980400Y-127519600D03*
X70069800Y-115988000D03*
D73*
X71850000Y-148900000D03*
D72*
X61281400Y-142073800D03*
X63161000Y-128561000D03*
X79000000Y-116000000D03*
X77283400Y-128484800D03*
D73*
X76350000Y-148900000D03*
D72*
X72432000Y-116597600D03*
X62729200Y-129196000D03*
X66031200Y-128078400D03*
X71339800Y-115759400D03*
D73*
X72750000Y-148900000D03*
D72*
X60824200Y-140880000D03*
X79000000Y-115500000D03*
X78299400Y-129246800D03*
X79874200Y-126148000D03*
X73346400Y-114743400D03*
X74832300Y-143204100D03*
X70069800Y-114997400D03*
D73*
X77700000Y-146100000D03*
D72*
X79720000Y-124979600D03*
X79848800Y-116267400D03*
X82218000Y-118981400D03*
X61720200Y-110497800D03*
X70019000Y-130999400D03*
X82548200Y-114409400D03*
X86434400Y-111107400D03*
X78451800Y-116515204D03*
X84859600Y-127693600D03*
X61669400Y-111132800D03*
X73295600Y-144004200D03*
X70069800Y-115480000D03*
D73*
X77250000Y-148900000D03*
D72*
X64481800Y-127367200D03*
X65955000Y-126910000D03*
X69409400Y-113143200D03*
X74006800Y-143343800D03*
D73*
X79050000Y-148900000D03*
D72*
X71339800Y-113676600D03*
X78481741Y-116013400D03*
X79163000Y-127341800D03*
X79874200Y-115784800D03*
X79112200Y-127900600D03*
X78500000Y-118500000D03*
D73*
X73650000Y-148900000D03*
D72*
X75810200Y-130212000D03*
X73270200Y-144994800D03*
X70387300Y-135507900D03*
X81423600Y-114819600D03*
X79518600Y-129907200D03*
X72324868Y-115791573D03*
D73*
X75450000Y-148900000D03*
D72*
X78420868Y-113542827D03*
X83709600Y-128053000D03*
X77791400Y-141438800D03*
X91990000Y-133270000D03*
X76500000Y-118500000D03*
X70069800Y-112508200D03*
X78274000Y-141819800D03*
X70958800Y-140219600D03*
X91910000Y-134330000D03*
X83430200Y-124547800D03*
X84319200Y-128027600D03*
X79000000Y-113500000D03*
D73*
X78150000Y-148900000D03*
D72*
X66031200Y-128543403D03*
X72381200Y-114768800D03*
X63135600Y-141438800D03*
X63313400Y-129831000D03*
X75403800Y-127621200D03*
X76623000Y-113752800D03*
X75886400Y-127621200D03*
X76623000Y-115734000D03*
X74895800Y-128078400D03*
X76623350Y-114742600D03*
X75403800Y-128078400D03*
X77000000Y-116500000D03*
X76617140Y-115207561D03*
X79848800Y-116775400D03*
X74895800Y-127621200D03*
X75886400Y-128078400D03*
X73498800Y-118578800D03*
X82261800Y-106971000D03*
X84039800Y-97369800D03*
X79213800Y-106996400D03*
X77207200Y-112330400D03*
X86249600Y-107504400D03*
X84522400Y-98538200D03*
X83633400Y-106996400D03*
X80915600Y-106971000D03*
X83277800Y-98462000D03*
X86249600Y-107021800D03*
X85817800Y-97268200D03*
X85030400Y-98411200D03*
X78500000Y-111000000D03*
X83684200Y-96455400D03*
X85030400Y-106971000D03*
X79000000Y-111000000D03*
X86021000Y-98487400D03*
X84141400Y-99503400D03*
X77738609Y-111365200D03*
X83277800Y-99528800D03*
X77273606Y-111365200D03*
X82033200Y-99503400D03*
X76808603Y-111365200D03*
X72330400Y-95515600D03*
X73956000Y-109739600D03*
X72686000Y-112432000D03*
X71720800Y-97496800D03*
X73295600Y-111365200D03*
X71670000Y-95769600D03*
X72362573Y-111370732D03*
X74315812Y-111372076D03*
X71466800Y-96226800D03*
X73803600Y-111365200D03*
X71771600Y-98487400D03*
X71263600Y-97801600D03*
X72827537Y-111364680D03*
X74870400Y-111365200D03*
X72736800Y-97522200D03*
X72914600Y-106971000D03*
X72965400Y-98589000D03*
X74286200Y-106971000D03*
X74337000Y-98436600D03*
X71746200Y-106996400D03*
X71822400Y-99579600D03*
X70146000Y-106971000D03*
X70654000Y-98868400D03*
X68799800Y-106945600D03*
X69815800Y-98766800D03*
X67428200Y-106971000D03*
X70654000Y-96861800D03*
X69663400Y-96582400D03*
X65929600Y-107021800D03*
X71898600Y-111339800D03*
X70501600Y-95210800D03*
X77080200Y-106945600D03*
X73371800Y-95033000D03*
X76343600Y-111365200D03*
X74337000Y-94931400D03*
X73194000Y-95795000D03*
X76013400Y-106971000D03*
X74413200Y-96201400D03*
X75800406Y-111365200D03*
X75335403Y-111365200D03*
X74413200Y-97522200D03*
X79366200Y-121423600D03*
X76902400Y-117435800D03*
X73600400Y-120077400D03*
X74438600Y-140905400D03*
X85517200Y-121178800D03*
X85517200Y-120713797D03*
X70654000Y-125106600D03*
X94180000Y-132490000D03*
X86053400Y-121191200D03*
X94677600Y-132487200D03*
X94180000Y-132024997D03*
X58131800Y-131532800D03*
X74438600Y-141370403D03*
X57242800Y-131543940D03*
X74895800Y-141370403D03*
X57242800Y-132008943D03*
X86053400Y-120726197D03*
X70196800Y-125106600D03*
X95160200Y-132022197D03*
X95160200Y-132487200D03*
X85517200Y-121653597D03*
X94677600Y-132022197D03*
X74902928Y-140905455D03*
X86053400Y-121665997D03*
X58131800Y-131997803D03*
X71974800Y-118528000D03*
X80188004Y-119436479D03*
X80229800Y-119899600D03*
X84554406Y-111887714D03*
X78553400Y-111924000D03*
X87907600Y-113554799D03*
X70069800Y-112000200D03*
X89158458Y-114054799D03*
X84123000Y-112301200D03*
X78659756Y-114422711D03*
X85551750Y-114657050D03*
X63288000Y-112889200D03*
X88650000Y-117856543D03*
X91800000Y-117950000D03*
X71339800Y-116292800D03*
X85799400Y-115400000D03*
X78553400Y-112686000D03*
X89152200Y-118554800D03*
X69358600Y-115353000D03*
X91768400Y-118651200D03*
X62716500Y-113003500D03*
X63516600Y-110400000D03*
X88100000Y-116554799D03*
X73019940Y-117464940D03*
X70704800Y-127621200D03*
X70247600Y-127164000D03*
X70704800Y-127164000D03*
X74128400Y-120082800D03*
X70247600Y-127621200D03*
X63300700Y-112038300D03*
X86561400Y-115958800D03*
X71339800Y-114768800D03*
X64242928Y-112318472D03*
X72355800Y-115327600D03*
X61821800Y-116361800D03*
X86815400Y-109050000D03*
X77639000Y-112736800D03*
X58088000Y-112631400D03*
X73879800Y-159396600D03*
X71365200Y-117308800D03*
X69638000Y-117308800D03*
X61891000Y-112051000D03*
X71339800Y-115276800D03*
X57707000Y-116974800D03*
X78423662Y-117606146D03*
X69993600Y-119163000D03*
X84711400Y-140435137D03*
X65523200Y-141113500D03*
X64710400Y-144334400D03*
X85182800Y-140905400D03*
X57530600Y-121601400D03*
X92594800Y-130658400D03*
X79655628Y-140464273D03*
X85164115Y-140422800D03*
D73*
X70050000Y-148900000D03*
D72*
X80163628Y-140464273D03*
X65015200Y-141113500D03*
X66025000Y-140626000D03*
X66031200Y-141113500D03*
X61768662Y-125254865D03*
X80153600Y-140930800D03*
X93052000Y-130193397D03*
X65675600Y-144309000D03*
X66539200Y-140605500D03*
X65675600Y-143775600D03*
X84700000Y-140900000D03*
X93534600Y-130658400D03*
X61780000Y-124790000D03*
X65210597Y-143775600D03*
X93052000Y-130658400D03*
X66539200Y-141113500D03*
X92587017Y-130197576D03*
X65525000Y-140626000D03*
X64710400Y-143775600D03*
X79645600Y-140930800D03*
X57530600Y-122566600D03*
X93534600Y-130193397D03*
X57530600Y-122058600D03*
X65193000Y-144309000D03*
X65025000Y-140626000D03*
X57073400Y-121601400D03*
X77258000Y-161631800D03*
X74702800Y-156515282D03*
X65350000Y-98050000D03*
X73600000Y-92400000D03*
X73150000Y-92400000D03*
X72700000Y-92400000D03*
X65950000Y-94200000D03*
X65350000Y-97600000D03*
X65350000Y-98500000D03*
X72981400Y-99192000D03*
X72990800Y-118604200D03*
X91075600Y-103237200D03*
X79805000Y-156268600D03*
X78172400Y-123938200D03*
X86021000Y-142454800D03*
D73*
X70950000Y-148900000D03*
D72*
X88593400Y-123079600D03*
X81068000Y-98436600D03*
X78680400Y-101433800D03*
X79137600Y-101433800D03*
X81068000Y-97971597D03*
X85792400Y-96074400D03*
X85792400Y-95609397D03*
X88205400Y-99808200D03*
X78680400Y-101916400D03*
X87849800Y-96887200D03*
X88205400Y-100265400D03*
X79137600Y-101916400D03*
X76242000Y-113397200D03*
X80792800Y-124574600D03*
X70933400Y-124319200D03*
X71416000Y-123862000D03*
X74108400Y-133641000D03*
X78274604Y-106014127D03*
X62042796Y-97785470D03*
X72482800Y-118451800D03*
X70933400Y-123854197D03*
X78629600Y-116978600D03*
X76216600Y-116673800D03*
X74083000Y-134098200D03*
X71416000Y-124319200D03*
X73498800Y-134098200D03*
X78731200Y-105540797D03*
X61586200Y-98258800D03*
X78731200Y-106005800D03*
X78266297Y-105550409D03*
X61577869Y-97793872D03*
X62042796Y-98250473D03*
X77410400Y-117435800D03*
X81271200Y-124573200D03*
X73498800Y-133641000D03*
X83252400Y-96734800D03*
X87062400Y-95185400D03*
X78375600Y-114819600D03*
X80800000Y-119950000D03*
X88459400Y-127443400D03*
X81830000Y-153148200D03*
X90462063Y-124776400D03*
X91096999Y-125157400D03*
X89450000Y-127849800D03*
X78400974Y-114007403D03*
X80382200Y-114032200D03*
X88434000Y-126935400D03*
X91913800Y-126122600D03*
X78200000Y-124540000D03*
X91151800Y-129399200D03*
X90168200Y-135270000D03*
X78832800Y-125640000D03*
X72381200Y-114235400D03*
X72484700Y-117484700D03*
X67148800Y-114565600D03*
X83876640Y-113965289D03*
X81113100Y-118867100D03*
X81322000Y-117918400D03*
X79000000Y-118000000D03*
X80744800Y-117279600D03*
X79000000Y-117500000D03*
X79000000Y-118500000D03*
X83411800Y-113977600D03*
X74832300Y-150976500D03*
X64481800Y-119594800D03*
X71000000Y-118500000D03*
X73754145Y-150506600D03*
X64380200Y-119061400D03*
X75226000Y-120433000D03*
X75226000Y-119950400D03*
X60875000Y-131507400D03*
D73*
X68900000Y-148150000D03*
D72*
X60875000Y-131024800D03*
X61510000Y-131024800D03*
X61510000Y-131507400D03*
D73*
X68900000Y-148900000D03*
D72*
X72467600Y-157328082D03*
X73699500Y-156959782D03*
X78875797Y-133691800D03*
X79340800Y-133691800D03*
X78867994Y-134149000D03*
X79332997Y-134149000D03*
X74006800Y-117385000D03*
X69790400Y-119874200D03*
X69860000Y-124000000D03*
X73524200Y-117486600D03*
X71543000Y-135901600D03*
X61300000Y-120980000D03*
X71268600Y-138945800D03*
X68164800Y-140195799D03*
X75683200Y-123938200D03*
X75835600Y-117500000D03*
X70704800Y-129203803D03*
X70196800Y-129668806D03*
X70196800Y-128746603D03*
X76597600Y-123430200D03*
X76605403Y-123938200D03*
X75500000Y-117000000D03*
X76148203Y-123938200D03*
X75734000Y-120052000D03*
X76000000Y-118500000D03*
X70196800Y-129211606D03*
X76199003Y-120052000D03*
X70704800Y-129661003D03*
X76140400Y-123430200D03*
X75675397Y-123430200D03*
X70704800Y-128738800D03*
D74*
X70289500Y-96883900D02*
X69981400Y-97192000D01*
D75*
X75110000Y-91500000D02*
X75110000Y-91750000D01*
X88942000Y-128637200D02*
X89545400Y-128637200D01*
D76*
X74000000Y-119000000D02*
X74500000Y-119000000D01*
D77*
X72305000Y-136409600D02*
X72152600Y-136562000D01*
D75*
X87196400Y-119557797D02*
X87196400Y-120022800D01*
D78*
X87552000Y-117051000D02*
X87679000Y-117051000D01*
D76*
X89327001Y-126529000D02*
X89721402Y-126529000D01*
D77*
X73423400Y-99750000D02*
X73000000Y-99750000D01*
D75*
X90346399Y-116057400D02*
X91278800Y-116057400D01*
D76*
X66852800Y-116606400D02*
X66945600Y-116699200D01*
X76597600Y-112432000D02*
X76597600Y-112457400D01*
D77*
X71314400Y-141261000D02*
X72024199Y-141261000D01*
D76*
X78255600Y-163736200D02*
X78255600Y-163380600D01*
D75*
X64107800Y-115476200D02*
X64107800Y-114888800D01*
D76*
X82100001Y-158100000D02*
X84199979Y-158100000D01*
D75*
X89545400Y-128637200D02*
X89647000Y-128535600D01*
D76*
X54281400Y-111485000D02*
X54278000Y-111488400D01*
D74*
X86503600Y-99026400D02*
X86363400Y-99166600D01*
D76*
X66115000Y-116606400D02*
X66115000Y-116630600D01*
D75*
X65065000Y-114777800D02*
X65211600Y-114631200D01*
D76*
X74235400Y-139376500D02*
X74232950Y-139378950D01*
X77000000Y-116000000D02*
X77270000Y-116000000D01*
X76597600Y-112457400D02*
X76902400Y-112762200D01*
D75*
X68977600Y-124522400D02*
X68977600Y-124776400D01*
X64151600Y-114845000D02*
X64405600Y-114845000D01*
D77*
X81245800Y-97123603D02*
X81245800Y-96658600D01*
D75*
X65065000Y-115504400D02*
X64405600Y-114845000D01*
D78*
X86695657Y-117856543D02*
X86688400Y-117863800D01*
D76*
X76500000Y-112000000D02*
X76500000Y-112334400D01*
D75*
X64488000Y-115856400D02*
X64107800Y-115476200D01*
X88967400Y-123836600D02*
X88967400Y-124090600D01*
X68715797Y-120356800D02*
X68926800Y-120145797D01*
D78*
X88415000Y-115777371D02*
X88415000Y-115400600D01*
D77*
X73981400Y-99192000D02*
X73423400Y-99750000D01*
D78*
X88415000Y-115400600D02*
X88542600Y-115273000D01*
D76*
X71644600Y-139356000D02*
X71644600Y-139376500D01*
X77270000Y-116000000D02*
X77512000Y-116242000D01*
D75*
X75110000Y-91960000D02*
X75120000Y-91970000D01*
D76*
X73000000Y-138959850D02*
X73000000Y-138483200D01*
D78*
X87101200Y-113222000D02*
X87094800Y-113215600D01*
D76*
X71670000Y-139330600D02*
X71644600Y-139356000D01*
X89961937Y-126288465D02*
X89961937Y-125644001D01*
X74550400Y-158598082D02*
X73993600Y-158598082D01*
X72823400Y-139378950D02*
X73200000Y-139378950D01*
X66945600Y-116699200D02*
X66945600Y-116851600D01*
X73000000Y-138483200D02*
X73016200Y-138467000D01*
D75*
X90346399Y-111536200D02*
X91278800Y-111536200D01*
D74*
X70450800Y-96430000D02*
X70450800Y-96549519D01*
D76*
X89417979Y-124809530D02*
X89848670Y-124809530D01*
X74870400Y-158293282D02*
X74591000Y-158572682D01*
X74750000Y-119750000D02*
X74500000Y-119500000D01*
D75*
X65065000Y-115856400D02*
X65065000Y-115504400D01*
X90346399Y-110063000D02*
X91304200Y-110063000D01*
X74652000Y-155372282D02*
X74652000Y-155626282D01*
D76*
X78255600Y-163380600D02*
X79271600Y-162364600D01*
X83150800Y-157796400D02*
X83150800Y-158431400D01*
D75*
X65201000Y-114641800D02*
X65211600Y-114631200D01*
D78*
X73361000Y-114250000D02*
X73250000Y-114250000D01*
D74*
X78600000Y-139200000D02*
X77700000Y-139200000D01*
D75*
X70730200Y-141794400D02*
X70730200Y-141728965D01*
D76*
X74500000Y-117500000D02*
X74500000Y-118000000D01*
D75*
X65065000Y-115856400D02*
X64488000Y-115856400D01*
D76*
X88840400Y-125208200D02*
X89019309Y-125208200D01*
D75*
X81619800Y-161898200D02*
X81500000Y-162018000D01*
X87657709Y-119772909D02*
X87856800Y-119772909D01*
D78*
X87120200Y-117856543D02*
X86695657Y-117856543D01*
D76*
X95580000Y-137451300D02*
X95568000Y-137439300D01*
X84199979Y-158100000D02*
X84199999Y-158099980D01*
X74575800Y-158293282D02*
X75037082Y-158293282D01*
D75*
X64405600Y-114641800D02*
X64405600Y-114845000D01*
D76*
X76404600Y-157518482D02*
X76972000Y-157518482D01*
X74591000Y-158572682D02*
X74575800Y-158572682D01*
D75*
X68926800Y-120145797D02*
X68926800Y-120610800D01*
D76*
X76218997Y-158039282D02*
X76430000Y-158039282D01*
X95580000Y-138528700D02*
X95580000Y-137451300D01*
X74693838Y-116650011D02*
X74500000Y-116843849D01*
X74500000Y-118000000D02*
X74500000Y-118500000D01*
X66945600Y-116470600D02*
X66945600Y-116699200D01*
X71644600Y-139376500D02*
X71647050Y-139378950D01*
X74500000Y-116843849D02*
X74500000Y-117500000D01*
D75*
X68390800Y-124674800D02*
X68825200Y-124674800D01*
D78*
X76623000Y-114250000D02*
X76750000Y-114250000D01*
D74*
X82693600Y-96836400D02*
X82363400Y-97166600D01*
D75*
X66446900Y-138051300D02*
X66437600Y-138060600D01*
X87196400Y-119768800D02*
X87653600Y-119768800D01*
D78*
X88422000Y-118549600D02*
X87958400Y-118549600D01*
D75*
X89791941Y-125644001D02*
X89417979Y-125270039D01*
D77*
X70953417Y-141621983D02*
X71314400Y-141261000D01*
D78*
X73250000Y-114250000D02*
X73000000Y-114000000D01*
D76*
X76430000Y-158039282D02*
X76684000Y-158039282D01*
X89848670Y-124809530D02*
X89881800Y-124776400D01*
D78*
X86840800Y-115095200D02*
X86866200Y-115069800D01*
D76*
X59478000Y-129221400D02*
X59681200Y-129018200D01*
D75*
X89626399Y-124090600D02*
X89688000Y-124028999D01*
D76*
X74487129Y-120460671D02*
X74108400Y-120839400D01*
X76404600Y-158013882D02*
X76430000Y-158039282D01*
D77*
X72305000Y-136409600D02*
X71974800Y-136409600D01*
D76*
X76500000Y-112334400D02*
X76597600Y-112432000D01*
D75*
X75100000Y-91760000D02*
X75110000Y-91750000D01*
X88967400Y-124090600D02*
X88967400Y-124319200D01*
X60036800Y-130643800D02*
X59459293Y-130643800D01*
X64971400Y-111818600D02*
X64964400Y-111825600D01*
D76*
X82100001Y-150800000D02*
X84199979Y-150800000D01*
X54300000Y-112755000D02*
X54278000Y-112733000D01*
D78*
X74238440Y-116615534D02*
X73884466Y-116615534D01*
D74*
X86579800Y-98843000D02*
X86503600Y-98919200D01*
D76*
X89327001Y-125728999D02*
X89876939Y-125728999D01*
D75*
X90527499Y-108542000D02*
X91300000Y-108542000D01*
D77*
X72024199Y-141261000D02*
X72024999Y-141261800D01*
D76*
X89876939Y-125728999D02*
X89961937Y-125644001D01*
X89721402Y-126529000D02*
X89961937Y-126288465D01*
D75*
X87653600Y-119768800D02*
X87657709Y-119772909D01*
D76*
X78433400Y-153631000D02*
X78433400Y-154236600D01*
D77*
X84776400Y-96099800D02*
X84776400Y-95634797D01*
D74*
X70289500Y-96710819D02*
X70289500Y-96883900D01*
D76*
X66945600Y-116851600D02*
X66844000Y-116953200D01*
X77000000Y-112950000D02*
X77000000Y-113000000D01*
D77*
X72152600Y-137134199D02*
X72024999Y-137261800D01*
X72533600Y-136409600D02*
X72305000Y-136409600D01*
D76*
X74235400Y-139356000D02*
X74235400Y-139376500D01*
X79975800Y-110603200D02*
X79603200Y-110603200D01*
X74750000Y-119893000D02*
X74750000Y-119750000D01*
X66115000Y-116606400D02*
X66115000Y-117778600D01*
X66640800Y-117156400D02*
X66844000Y-116953200D01*
X93120000Y-136247800D02*
X93120000Y-136780000D01*
X66115000Y-116606400D02*
X66852800Y-116606400D01*
D78*
X86906114Y-115084314D02*
X87120200Y-115084314D01*
D75*
X63821400Y-114845000D02*
X64151600Y-114845000D01*
X74652000Y-155626282D02*
X74652000Y-155880282D01*
D78*
X69917400Y-110019000D02*
X69993600Y-110019000D01*
D76*
X74232950Y-139378950D02*
X73200000Y-139378950D01*
D77*
X84363400Y-96106400D02*
X84363400Y-96166600D01*
D76*
X74210000Y-139330600D02*
X74235400Y-139356000D01*
D75*
X60036800Y-130643800D02*
X60036800Y-130415200D01*
D78*
X88422000Y-114391257D02*
X88067257Y-114391257D01*
D75*
X88967400Y-124090600D02*
X89626399Y-124090600D01*
X90320999Y-117556000D02*
X91278800Y-117556000D01*
X81619800Y-161450800D02*
X81619800Y-161898200D01*
D76*
X66564600Y-117232600D02*
X66640800Y-117156400D01*
X66115000Y-116630600D02*
X66640800Y-117156400D01*
X74500000Y-118500000D02*
X74500000Y-119000000D01*
D78*
X87791486Y-117163486D02*
X88415600Y-117163486D01*
D75*
X81500000Y-162018000D02*
X81500000Y-162620000D01*
D78*
X76750000Y-114250000D02*
X77000000Y-114000000D01*
D76*
X59184809Y-128864916D02*
X59184809Y-128928209D01*
X74108400Y-120839400D02*
X73275200Y-120839400D01*
X83125400Y-150532000D02*
X83125400Y-151065400D01*
D75*
X74626600Y-155600882D02*
X74652000Y-155626282D01*
D76*
X87849800Y-126910000D02*
X88230800Y-126529000D01*
X89961937Y-125644001D02*
X89791941Y-125644001D01*
X79603200Y-110603200D02*
X79500000Y-110500000D01*
X66564600Y-117359600D02*
X66564600Y-117232600D01*
D75*
X64405600Y-114362400D02*
X64405600Y-114641800D01*
D76*
X74718000Y-119925000D02*
X74750000Y-119893000D01*
D75*
X60036800Y-130880203D02*
X60036800Y-130643800D01*
D76*
X73000000Y-138959850D02*
X73000000Y-139178950D01*
X66102200Y-117791400D02*
X66132800Y-117791400D01*
D78*
X69993600Y-110019000D02*
X70474600Y-110500000D01*
D77*
X72152600Y-136562000D02*
X72152600Y-137134199D01*
D76*
X73000000Y-139178950D02*
X73200000Y-139378950D01*
D78*
X87679000Y-117051000D02*
X87791486Y-117163486D01*
D76*
X71647050Y-139378950D02*
X73200000Y-139378950D01*
X74500000Y-119000000D02*
X74500000Y-119500000D01*
D75*
X68977600Y-124311397D02*
X68977600Y-124522400D01*
X68825200Y-124674800D02*
X68977600Y-124522400D01*
D78*
X73803600Y-113246400D02*
X74000000Y-113050000D01*
X87101200Y-113698200D02*
X87101200Y-113222000D01*
D76*
X66132800Y-117791400D02*
X66564600Y-117359600D01*
D75*
X84100000Y-163500000D02*
X84100000Y-159900000D01*
D76*
X75037082Y-158293282D02*
X75048200Y-158304400D01*
D75*
X64107800Y-114888800D02*
X64151600Y-114845000D01*
D77*
X70623217Y-141621983D02*
X70953417Y-141621983D01*
D76*
X76902400Y-112762200D02*
X76902400Y-112852400D01*
D75*
X70623217Y-141621983D02*
X70435743Y-141434508D01*
D78*
X79000000Y-119000000D02*
X79500000Y-119500000D01*
D76*
X95530600Y-129040600D02*
X95569400Y-129079400D01*
D78*
X86866200Y-115069800D02*
X86891600Y-115069800D01*
D76*
X54325400Y-115295000D02*
X54303400Y-115273000D01*
D75*
X70730200Y-141728965D02*
X70623217Y-141621983D01*
D76*
X84199979Y-150800000D02*
X84199999Y-150800020D01*
X72600001Y-139602349D02*
X72823400Y-139378950D01*
D75*
X74380000Y-91760000D02*
X75100000Y-91760000D01*
D76*
X55994600Y-111485000D02*
X54281400Y-111485000D01*
X74575800Y-158572682D02*
X74550400Y-158598082D01*
D75*
X73993600Y-155600882D02*
X74626600Y-155600882D01*
D78*
X73803600Y-113300000D02*
X73803600Y-113246400D01*
D76*
X66115000Y-117778600D02*
X66102200Y-117791400D01*
X76902400Y-112852400D02*
X77000000Y-112950000D01*
D74*
X83600000Y-139200000D02*
X82700000Y-139200000D01*
D78*
X70474600Y-110500000D02*
X70500000Y-110500000D01*
D76*
X72600001Y-139798050D02*
X72600001Y-139602349D01*
D75*
X88942000Y-128383200D02*
X88942000Y-128637200D01*
D76*
X76404600Y-157518482D02*
X76404600Y-158013882D01*
X74032200Y-118500000D02*
X74500000Y-118500000D01*
D78*
X87120200Y-116847800D02*
X87120200Y-116470429D01*
D75*
X75110000Y-91750000D02*
X75110000Y-91960000D01*
D78*
X73884466Y-116615534D02*
X73500000Y-117000000D01*
D75*
X64964400Y-111825600D02*
X64964400Y-112457400D01*
D77*
X84776400Y-96099800D02*
X84370000Y-96099800D01*
D76*
X78433400Y-154236600D02*
X78484200Y-154287400D01*
D75*
X88942000Y-128637200D02*
X88942000Y-128891200D01*
X64405600Y-114641800D02*
X65201000Y-114641800D01*
X90371799Y-114558800D02*
X91278800Y-114558800D01*
D74*
X78600000Y-139200000D02*
X79500000Y-139200000D01*
D75*
X65065000Y-115856400D02*
X65065000Y-114777800D01*
D76*
X55964600Y-115295000D02*
X54325400Y-115295000D01*
X55994600Y-112755000D02*
X54300000Y-112755000D01*
D78*
X86891600Y-115069800D02*
X86906114Y-115084314D01*
D76*
X75922000Y-157518482D02*
X76404600Y-157518482D01*
D74*
X70450800Y-96549519D02*
X70289500Y-96710819D01*
D75*
X79696400Y-124116000D02*
X79696400Y-122744400D01*
D76*
X59184809Y-128928209D02*
X59478000Y-129221400D01*
D75*
X87196400Y-120022800D02*
X87196400Y-119768800D01*
X90371799Y-113060200D02*
X91253400Y-113060200D01*
D76*
X89019309Y-125208200D02*
X89417979Y-124809530D01*
D75*
X89417979Y-125270039D02*
X89417979Y-124809530D01*
D76*
X88230800Y-126529000D02*
X89327001Y-126529000D01*
D77*
X84370000Y-96099800D02*
X84363400Y-96106400D01*
D78*
X74000000Y-113050000D02*
X74000000Y-113000000D01*
D75*
X68390800Y-120356800D02*
X68715797Y-120356800D01*
D76*
X95569400Y-129079400D02*
X95569400Y-130028600D01*
D78*
X73371800Y-114260800D02*
X73361000Y-114250000D01*
D74*
X83600000Y-139200000D02*
X84500000Y-139200000D01*
D78*
X88067257Y-114391257D02*
X88034600Y-114358600D01*
D74*
X86503600Y-98919200D02*
X86503600Y-99026400D01*
D75*
X72461716Y-120839400D02*
X71365200Y-121935916D01*
D76*
X81060000Y-151810000D02*
X81060000Y-151606800D01*
X86492000Y-124929000D02*
X86692000Y-125129000D01*
X80792600Y-151522600D02*
X81144200Y-151522600D01*
D77*
X57631541Y-110541000D02*
X57314941Y-110224400D01*
D76*
X74500000Y-113000000D02*
X75500000Y-113000000D01*
X93385600Y-123582600D02*
X93332000Y-123529000D01*
X93821600Y-123529000D02*
X94047400Y-123303200D01*
X94233003Y-123488803D02*
X94233003Y-123582600D01*
X91388203Y-128822803D02*
X90931003Y-128822803D01*
X74750000Y-113300000D02*
X74750000Y-113250000D01*
X90462063Y-127413999D02*
X90462063Y-128360537D01*
D75*
X73016200Y-119874200D02*
X73000000Y-119858000D01*
D76*
X75000000Y-113050000D02*
X75250000Y-113300000D01*
D78*
X68850600Y-111898600D02*
X68799800Y-111898600D01*
D76*
X81964000Y-111513800D02*
X81430000Y-110979800D01*
X85962000Y-141701000D02*
X85962000Y-135589600D01*
X94047400Y-123582600D02*
X94047400Y-123768203D01*
D77*
X57648397Y-110574000D02*
X58113400Y-110574000D01*
D76*
X81370836Y-110900200D02*
X81350400Y-110900200D01*
D78*
X73346400Y-115759400D02*
X73337000Y-115750000D01*
D75*
X71365200Y-121935916D02*
X71365200Y-123176200D01*
D76*
X81350400Y-110900200D02*
X81200600Y-110750400D01*
D78*
X73321000Y-116250000D02*
X73250000Y-116250000D01*
D76*
X94047400Y-123303200D02*
X94233003Y-123488803D01*
X83912800Y-143750200D02*
X85962000Y-141701000D01*
X81200600Y-110750400D02*
X81100400Y-110750400D01*
D75*
X68799800Y-111898600D02*
X68241000Y-112457400D01*
D76*
X94047400Y-123303200D02*
X94047400Y-123582600D01*
D77*
X57314941Y-110224400D02*
X55955200Y-110224400D01*
D78*
X73337000Y-115750000D02*
X73250000Y-115750000D01*
D76*
X86224200Y-124065200D02*
X86224200Y-124878200D01*
X94233003Y-123582600D02*
X94047400Y-123768203D01*
X94047400Y-123582600D02*
X93385600Y-123582600D01*
X81430000Y-110979800D02*
X81430000Y-110959364D01*
D75*
X68241000Y-112457400D02*
X66056600Y-112457400D01*
D76*
X90923200Y-128815000D02*
X90923200Y-128357800D01*
X90462063Y-128360537D02*
X90287000Y-128535600D01*
X71378104Y-122711376D02*
X71374328Y-122715152D01*
X74750000Y-113250000D02*
X74500000Y-113000000D01*
D78*
X73250000Y-116250000D02*
X73000000Y-116500000D01*
D76*
X90923200Y-128357800D02*
X91388203Y-128357800D01*
D75*
X81964000Y-111513800D02*
X82429003Y-111513800D01*
D77*
X58080400Y-110541000D02*
X57631541Y-110541000D01*
D76*
X80790000Y-151520000D02*
X80792600Y-151522600D01*
X86224200Y-124065200D02*
X85962397Y-124065200D01*
D78*
X68850600Y-111898600D02*
X69333200Y-111898600D01*
D76*
X75750000Y-113397200D02*
X75750000Y-113300000D01*
X85962000Y-135589600D02*
X85309800Y-134937400D01*
X71378104Y-123163296D02*
X71365200Y-123176200D01*
X75750000Y-113300000D02*
X75500000Y-113050000D01*
D75*
X72635200Y-120839400D02*
X72461716Y-120839400D01*
X73000000Y-119858000D02*
X73000000Y-119500000D01*
D76*
X81060000Y-151606800D02*
X81144200Y-151522600D01*
X93332000Y-123529000D02*
X93821600Y-123529000D01*
D78*
X73000000Y-119500000D02*
X73008550Y-119491450D01*
D76*
X81294600Y-152200000D02*
X81284600Y-152190000D01*
X81400000Y-152200000D02*
X81294600Y-152200000D01*
D78*
X73250000Y-115750000D02*
X73000000Y-116000000D01*
D76*
X90745400Y-128535600D02*
X90923200Y-128357800D01*
X86173400Y-124929000D02*
X86492000Y-124929000D01*
D75*
X72635200Y-120839400D02*
X72635200Y-120255200D01*
D78*
X75000000Y-113000000D02*
X75000000Y-113050000D01*
D76*
X81430000Y-110959364D02*
X81370836Y-110900200D01*
D77*
X58113400Y-110574000D02*
X58080400Y-110541000D01*
D76*
X86427400Y-124065200D02*
X86224200Y-124065200D01*
X75500000Y-113050000D02*
X75500000Y-113000000D01*
X81144200Y-151522600D02*
X81280000Y-151522600D01*
X71378104Y-122711376D02*
X71378104Y-123163296D01*
X90287000Y-128535600D02*
X90745400Y-128535600D01*
X81284600Y-152034600D02*
X81060000Y-151810000D01*
X81284600Y-152190000D02*
X81284600Y-152034600D01*
D75*
X72635200Y-120255200D02*
X73016200Y-119874200D01*
D76*
X86224200Y-124878200D02*
X86173400Y-124929000D01*
X85612000Y-124929000D02*
X86173400Y-124929000D01*
X90931003Y-128822803D02*
X90923200Y-128815000D01*
D78*
X72729403Y-154686482D02*
X72729403Y-154846685D01*
X73229600Y-154864282D02*
X72264400Y-154864282D01*
X72264400Y-154356282D02*
X73229600Y-154356282D01*
X72729403Y-154356282D02*
X72729403Y-154686482D01*
X72729403Y-154846685D02*
X72747000Y-154864282D01*
X67148800Y-113477400D02*
X67571000Y-113055200D01*
X68506800Y-113055200D02*
X68926800Y-112635200D01*
X73000000Y-113500000D02*
X73096400Y-113500000D01*
X67571000Y-113055200D02*
X68506800Y-113055200D01*
X73096400Y-113500000D02*
X73346400Y-113750000D01*
X68926800Y-112635200D02*
X69333200Y-112635200D01*
D76*
X91609000Y-126859200D02*
X91539201Y-126928999D01*
X91837600Y-126859200D02*
X91609000Y-126859200D01*
X91539201Y-126928999D02*
X91096999Y-126928999D01*
D77*
X83106876Y-120984924D02*
X83106876Y-120606600D01*
D75*
X77004000Y-130364400D02*
X76673800Y-130694600D01*
D77*
X83129211Y-121045653D02*
X83129211Y-121007259D01*
D78*
X78517200Y-115403800D02*
X78421000Y-115500000D01*
D75*
X75734000Y-142108091D02*
X75734000Y-143699400D01*
D78*
X78421000Y-115500000D02*
X78000000Y-115500000D01*
D77*
X83106876Y-120606600D02*
X83081464Y-120606600D01*
D78*
X78528000Y-115403800D02*
X78517200Y-115403800D01*
D75*
X76496000Y-130821600D02*
X76496000Y-141346091D01*
X75734000Y-143699400D02*
X73333400Y-146100000D01*
X76496000Y-141346091D02*
X75734000Y-142108091D01*
X76673800Y-130694600D02*
X76623000Y-130694600D01*
D77*
X82772464Y-120915600D02*
X82769800Y-120915600D01*
D75*
X76623000Y-130694600D02*
X76496000Y-130821600D01*
D77*
X83129211Y-121007259D02*
X83106876Y-120984924D01*
X82769800Y-120915600D02*
X81652200Y-122033200D01*
X83081464Y-120606600D02*
X82772464Y-120915600D01*
X81652200Y-122033200D02*
X80790600Y-122033200D01*
D75*
X73333400Y-146100000D02*
X73200000Y-146100000D01*
D78*
X70107200Y-116000000D02*
X70500000Y-116000000D01*
X70095200Y-115988000D02*
X70107200Y-116000000D01*
X70069800Y-115988000D02*
X70095200Y-115988000D01*
X70476200Y-145629800D02*
X70929800Y-145629800D01*
X69917400Y-145071000D02*
X70476200Y-145629800D01*
X75911800Y-129831000D02*
X73168600Y-129831000D01*
X70929800Y-145629800D02*
X71400000Y-146100000D01*
X71797000Y-131202600D02*
X71797000Y-134707800D01*
X77283400Y-128484800D02*
X77258000Y-128484800D01*
X69917400Y-136587400D02*
X69917400Y-145071000D01*
X77258000Y-128484800D02*
X75911800Y-129831000D01*
X73168600Y-129831000D02*
X71797000Y-131202600D01*
X71797000Y-134707800D02*
X69917400Y-136587400D01*
X72432000Y-116597600D02*
X72533600Y-116597600D01*
X72533600Y-116597600D02*
X72700868Y-116430332D01*
X72700868Y-116430332D02*
X72700868Y-115799132D01*
X72700868Y-115799132D02*
X73000000Y-115500000D01*
X71212800Y-115759400D02*
X71339800Y-115759400D01*
X71000000Y-116000000D02*
X71000000Y-115972200D01*
X71085800Y-115886400D02*
X71212800Y-115759400D01*
X71000000Y-115997600D02*
X71000000Y-116000000D01*
X71000000Y-115972200D02*
X71085800Y-115886400D01*
X76853000Y-141615200D02*
X76089600Y-142378600D01*
X76089600Y-142378600D02*
X76089600Y-144055000D01*
X74100000Y-146044600D02*
X74100000Y-146100000D01*
X76089600Y-144055000D02*
X74100000Y-146044600D01*
X78147000Y-129399200D02*
X78147000Y-130008800D01*
X76853000Y-131302800D02*
X76853000Y-141615200D01*
X78147000Y-130008800D02*
X76853000Y-131302800D01*
X78299400Y-129246800D02*
X78147000Y-129399200D01*
X81322000Y-143785482D02*
X80076000Y-145031482D01*
X79874200Y-126148000D02*
X79874200Y-126198800D01*
X80076000Y-145031482D02*
X79531480Y-145576000D01*
X73250000Y-114750000D02*
X73000000Y-114500000D01*
X73346400Y-114743400D02*
X73339800Y-114750000D01*
X73339800Y-114750000D02*
X73250000Y-114750000D01*
X79124000Y-145576000D02*
X78600000Y-146100000D01*
X81322000Y-127646600D02*
X81322000Y-143785482D01*
X79874200Y-126198800D02*
X81322000Y-127646600D01*
X79531480Y-145576000D02*
X79124000Y-145576000D01*
X70072400Y-115000000D02*
X70069800Y-114997400D01*
X70500000Y-115000000D02*
X70072400Y-115000000D01*
X79500000Y-116500000D02*
X79500000Y-116438400D01*
X73159580Y-129197400D02*
X71342600Y-131014381D01*
X77195640Y-127679750D02*
X75677990Y-129197400D01*
X79569400Y-116369000D02*
X79671000Y-116267400D01*
X71317600Y-131039381D02*
X71317600Y-131014381D01*
X71342600Y-131014381D02*
X71342600Y-133647090D01*
X79340800Y-125157400D02*
X79340800Y-125801290D01*
X75677990Y-129197400D02*
X73159580Y-129197400D01*
X79500000Y-116438400D02*
X79569400Y-116369000D01*
X71277619Y-130999400D02*
X71317600Y-131039381D01*
X61720200Y-110497800D02*
X61517000Y-110294600D01*
X61517000Y-110294600D02*
X61517000Y-110218400D01*
X69132800Y-145667200D02*
X68700000Y-146100000D01*
X79340800Y-125801290D02*
X77462340Y-127679750D01*
X69132800Y-135856891D02*
X69132800Y-145667200D01*
X61517000Y-110218400D02*
X61513600Y-110215000D01*
X79518600Y-124979600D02*
X79340800Y-125157400D01*
X70019000Y-130999400D02*
X71277619Y-130999400D01*
X77462340Y-127679750D02*
X77195640Y-127679750D01*
X79720000Y-124979600D02*
X79518600Y-124979600D01*
X79671000Y-116267400D02*
X79848800Y-116267400D01*
X71342600Y-133647090D02*
X69132800Y-135856891D01*
X61513600Y-110215000D02*
X60094600Y-110215000D01*
X61669400Y-111132800D02*
X61317200Y-111485000D01*
X84859600Y-128023800D02*
X84705055Y-128178345D01*
X84859600Y-127693600D02*
X84859600Y-128023800D01*
X84700200Y-128178345D02*
X82003600Y-130874945D01*
X84705055Y-128178345D02*
X84700200Y-128178345D01*
D74*
X78996000Y-116496000D02*
X79000000Y-116500000D01*
X78610188Y-116496000D02*
X78996000Y-116496000D01*
D78*
X81300000Y-145248600D02*
X81300000Y-146100000D01*
X61317200Y-111485000D02*
X60064600Y-111485000D01*
X82003600Y-144545000D02*
X81300000Y-145248600D01*
D74*
X78590984Y-116515204D02*
X78610188Y-116496000D01*
X78451800Y-116515204D02*
X78590984Y-116515204D01*
D78*
X82003600Y-130874945D02*
X82003600Y-144545000D01*
X70089800Y-115500000D02*
X70069800Y-115480000D01*
X70500000Y-115500000D02*
X70089800Y-115500000D01*
X71163200Y-113500000D02*
X71000000Y-113500000D01*
X68241000Y-113477400D02*
X69075200Y-113477400D01*
X71339800Y-113676600D02*
X71163200Y-113500000D01*
X69075200Y-113477400D02*
X69409400Y-113143200D01*
X79163000Y-127341800D02*
X79010600Y-127341800D01*
X75453200Y-141745000D02*
X75453200Y-141990843D01*
X75454800Y-141992443D02*
X75454800Y-143572200D01*
X78401000Y-116013400D02*
X78387600Y-116000000D01*
X76186200Y-130166200D02*
X76186200Y-141012000D01*
X72897200Y-145502800D02*
X72300000Y-146100000D01*
X79010600Y-127341800D02*
X76186200Y-130166200D01*
X76186200Y-141012000D02*
X75453200Y-141745000D01*
X78481741Y-116013400D02*
X78401000Y-116013400D01*
X78387600Y-116000000D02*
X78000000Y-116000000D01*
X75454800Y-143572200D02*
X73524200Y-145502800D01*
X75453200Y-141990843D02*
X75454800Y-141992443D01*
X73524200Y-145502800D02*
X72897200Y-145502800D01*
X79594800Y-115607000D02*
X79772600Y-115784800D01*
X77080200Y-131456600D02*
X77080200Y-141812180D01*
X76319600Y-142589291D02*
X76319600Y-144460000D01*
X75000000Y-145779600D02*
X75000000Y-146100000D01*
X79010600Y-127900600D02*
X78731200Y-128180000D01*
X77080200Y-141812180D02*
X76345600Y-142546782D01*
X79500000Y-115512200D02*
X79594800Y-115607000D01*
X76345600Y-142546782D02*
X76345600Y-142563291D01*
X76319600Y-144460000D02*
X75000000Y-145779600D01*
X79112200Y-127900600D02*
X79010600Y-127900600D01*
X78731200Y-129805600D02*
X77080200Y-131456600D01*
X78731200Y-128180000D02*
X78731200Y-129805600D01*
X76345600Y-142563291D02*
X76319600Y-142589291D01*
X79772600Y-115784800D02*
X79874200Y-115784800D01*
X79500000Y-115500000D02*
X79500000Y-115512200D01*
X75810200Y-141007000D02*
X75226000Y-141591200D01*
X75810200Y-130212000D02*
X75810200Y-141007000D01*
X75226000Y-141591200D02*
X75226000Y-143420000D01*
X73651200Y-144994800D02*
X73270200Y-144994800D01*
X75226000Y-143420000D02*
X73651200Y-144994800D01*
X79594800Y-114083000D02*
X79583000Y-114083000D01*
X79583000Y-114083000D02*
X79500000Y-114000000D01*
X79950400Y-114413200D02*
X79925000Y-114413200D01*
X69612600Y-145248800D02*
X70463800Y-146100000D01*
X70387300Y-135507900D02*
X69612600Y-136282600D01*
X70463800Y-146100000D02*
X70500000Y-146100000D01*
X69612600Y-136282600D02*
X69612600Y-145248800D01*
X79925000Y-114413200D02*
X79594800Y-114083000D01*
X80356800Y-114819600D02*
X79950400Y-114413200D01*
X81423600Y-114819600D02*
X80356800Y-114819600D01*
X72116441Y-116000000D02*
X72000000Y-116000000D01*
X72324868Y-115791573D02*
X72116441Y-116000000D01*
X78352486Y-113500000D02*
X78000000Y-113500000D01*
X83709600Y-128053000D02*
X81549200Y-130213400D01*
X79505600Y-146100000D02*
X79500000Y-146100000D01*
X78420868Y-113542827D02*
X78395313Y-113542827D01*
X81549200Y-130213400D02*
X81549200Y-144056400D01*
X81549200Y-144056400D02*
X79505600Y-146100000D01*
X78395313Y-113542827D02*
X78352486Y-113500000D01*
X76572800Y-142657400D02*
X76546800Y-142683400D01*
X76572800Y-142640891D02*
X76572800Y-142657400D01*
X76291550Y-118223200D02*
X76290300Y-118223200D01*
X76143200Y-118099000D02*
X76044200Y-118000000D01*
X76044200Y-118000000D02*
X76000000Y-118000000D01*
X77637600Y-141592600D02*
X77621090Y-141592600D01*
X76500000Y-118431650D02*
X76291550Y-118223200D01*
X76290300Y-118223200D02*
X76166100Y-118099000D01*
X91990000Y-133270000D02*
X93055000Y-133270000D01*
X77791400Y-141438800D02*
X77637600Y-141592600D01*
X76546800Y-142683400D02*
X76546800Y-144613800D01*
X76546800Y-144613800D02*
X75900000Y-145260600D01*
X77621090Y-141592600D02*
X76572800Y-142640891D01*
X75900000Y-145260600D02*
X75900000Y-146087000D01*
X76500000Y-118500000D02*
X76500000Y-118431650D01*
X76166100Y-118099000D02*
X76143200Y-118099000D01*
X91910000Y-134330000D02*
X92995000Y-134330000D01*
X76800000Y-142735000D02*
X76800000Y-146675000D01*
X70078000Y-112500000D02*
X70069800Y-112508200D01*
X77715200Y-141819800D02*
X76800000Y-142735000D01*
X92995000Y-134330000D02*
X93055000Y-134270000D01*
X78274000Y-141819800D02*
X77715200Y-141819800D01*
X70500000Y-112500000D02*
X70078000Y-112500000D01*
X69360000Y-135951000D02*
X69360000Y-145860000D01*
X71569800Y-133741200D02*
X69360000Y-135951000D01*
X77289750Y-127906950D02*
X75772100Y-129424600D01*
X83430200Y-124547800D02*
X83430200Y-124624000D01*
X69360000Y-145860000D02*
X69600000Y-146100000D01*
X75772100Y-129424600D02*
X73253690Y-129424600D01*
X83430200Y-124624000D02*
X83105000Y-124949200D01*
X73253690Y-129424600D02*
X71569800Y-131108490D01*
X71569800Y-131108490D02*
X71569800Y-133741200D01*
X77556450Y-127906950D02*
X77289750Y-127906950D01*
X80514200Y-124949200D02*
X77556450Y-127906950D01*
X83105000Y-124949200D02*
X80514200Y-124949200D01*
X81776400Y-144289600D02*
X81776400Y-130570400D01*
X80400000Y-146100000D02*
X80400000Y-145666000D01*
X80400000Y-145666000D02*
X81776400Y-144289600D01*
X81776400Y-130570400D02*
X84319200Y-128027600D01*
X72178000Y-114845000D02*
X72023000Y-115000000D01*
X72023000Y-115000000D02*
X72000000Y-115000000D01*
X72305000Y-114845000D02*
X72178000Y-114845000D01*
X72381200Y-114768800D02*
X72305000Y-114845000D01*
X76716000Y-115734000D02*
X76950000Y-115500000D01*
X79500000Y-117000000D02*
X79624200Y-117000000D01*
X77283400Y-114216600D02*
X77000000Y-114500000D01*
X77283400Y-113783400D02*
X77283400Y-114216600D01*
X76750000Y-114750000D02*
X77000000Y-114500000D01*
X76742439Y-115207561D02*
X76950000Y-115000000D01*
X76630750Y-114750000D02*
X76750000Y-114750000D01*
X73500000Y-119000000D02*
X73500000Y-118580000D01*
X76950000Y-115000000D02*
X77000000Y-115000000D01*
X79624200Y-117000000D02*
X79848800Y-116775400D01*
X77000000Y-113500000D02*
X77283400Y-113783400D01*
X76950000Y-115500000D02*
X77000000Y-115500000D01*
X73500000Y-118580000D02*
X73498800Y-118578800D01*
X77000000Y-115500000D02*
X77000000Y-114500000D01*
X76623000Y-115734000D02*
X76716000Y-115734000D01*
X76623350Y-114742600D02*
X76630750Y-114750000D01*
X76617140Y-115207561D02*
X76742439Y-115207561D01*
X76623000Y-113752800D02*
X76697200Y-113752800D01*
X76950000Y-113500000D02*
X77000000Y-113500000D01*
X76697200Y-113752800D02*
X76950000Y-113500000D01*
D74*
X81652200Y-107580600D02*
X82261800Y-106971000D01*
X77512000Y-110069800D02*
X77918400Y-109663400D01*
X78502600Y-107580600D02*
X81652200Y-107580600D01*
X77918400Y-109663400D02*
X77918400Y-108164800D01*
X77500000Y-110500000D02*
X77500000Y-110183400D01*
X77918400Y-108164800D02*
X78502600Y-107580600D01*
X77500000Y-110183400D02*
X77512000Y-110171400D01*
X77512000Y-110171400D02*
X77512000Y-110069800D01*
X84363400Y-97166600D02*
X84243000Y-97166600D01*
X84243000Y-97166600D02*
X84039800Y-97369800D01*
X77000000Y-112123200D02*
X77207200Y-112330400D01*
X77000000Y-112000000D02*
X77000000Y-112123200D01*
X84522400Y-98538200D02*
X84522400Y-98325600D01*
X84522400Y-98325600D02*
X84363400Y-98166600D01*
X79239200Y-108114000D02*
X79569400Y-107783800D01*
X78000000Y-110115200D02*
X78401000Y-109714200D01*
X78401000Y-109714200D02*
X78934400Y-109714200D01*
X78000000Y-110500000D02*
X78000000Y-110115200D01*
X79239200Y-109409400D02*
X79239200Y-108114000D01*
X78934400Y-109714200D02*
X79239200Y-109409400D01*
X82846000Y-107783800D02*
X83633400Y-106996400D01*
X79569400Y-107783800D02*
X82846000Y-107783800D01*
X77588200Y-107885400D02*
X78121600Y-107352000D01*
X77000000Y-110500000D02*
X77000000Y-110023000D01*
X77588200Y-109434800D02*
X77588200Y-107885400D01*
X79053919Y-107352000D02*
X79062819Y-107360900D01*
X79062819Y-107360900D02*
X79364781Y-107360900D01*
X80534600Y-107352000D02*
X80915600Y-106971000D01*
X77000000Y-110023000D02*
X77588200Y-109434800D01*
X79373681Y-107352000D02*
X80534600Y-107352000D01*
X79364781Y-107360900D02*
X79373681Y-107352000D01*
X78121600Y-107352000D02*
X79053919Y-107352000D01*
X83277800Y-98208000D02*
X83319200Y-98166600D01*
X83277800Y-98462000D02*
X83277800Y-98208000D01*
X83319200Y-98166600D02*
X83363400Y-98166600D01*
X85157400Y-109587200D02*
X84597600Y-110147000D01*
X84597600Y-110147000D02*
X79353000Y-110147000D01*
X85665400Y-107021800D02*
X85157400Y-107529800D01*
X86249600Y-107021800D02*
X85665400Y-107021800D01*
X79353000Y-110147000D02*
X79000000Y-110500000D01*
X85157400Y-107529800D02*
X85157400Y-109587200D01*
X85817800Y-97268200D02*
X85589200Y-97268200D01*
X85589200Y-97268200D02*
X85487600Y-97166600D01*
X85487600Y-97166600D02*
X85363400Y-97166600D01*
X85198800Y-98166600D02*
X85363400Y-98166600D01*
X85030400Y-98335000D02*
X85198800Y-98166600D01*
X85030400Y-98411200D02*
X85030400Y-98335000D01*
X83395400Y-96166600D02*
X83684200Y-96455400D01*
X83363400Y-96166600D02*
X83395400Y-96166600D01*
X83785800Y-107860000D02*
X84243000Y-107402800D01*
X84598600Y-107402800D02*
X85030400Y-106971000D01*
X84243000Y-107402800D02*
X84598600Y-107402800D01*
X78528000Y-110472000D02*
X78528000Y-110247600D01*
X83531800Y-109942800D02*
X83785800Y-109688800D01*
X83785800Y-109688800D02*
X83785800Y-107860000D01*
X78832800Y-109942800D02*
X83531800Y-109942800D01*
X78528000Y-110247600D02*
X78832800Y-109942800D01*
X78500000Y-110500000D02*
X78528000Y-110472000D01*
X86341800Y-98166600D02*
X86021000Y-98487400D01*
X86363400Y-98166600D02*
X86341800Y-98166600D01*
X84141400Y-99503400D02*
X84141400Y-99388600D01*
X84141400Y-99388600D02*
X84363400Y-99166600D01*
D78*
X77816800Y-111287009D02*
X77816800Y-111162000D01*
X77816800Y-111162000D02*
X77978800Y-111000000D01*
X77738609Y-111365200D02*
X77816800Y-111287009D01*
X77978800Y-111000000D02*
X78000000Y-111000000D01*
D74*
X83363400Y-99443200D02*
X83277800Y-99528800D01*
X83363400Y-99166600D02*
X83363400Y-99443200D01*
D78*
X77359600Y-111279206D02*
X77359600Y-111138806D01*
X77273606Y-111365200D02*
X77359600Y-111279206D01*
X77498406Y-111000000D02*
X77500000Y-111000000D01*
X77359600Y-111138806D02*
X77498406Y-111000000D01*
D74*
X82363400Y-99166600D02*
X82363400Y-99173200D01*
X82363400Y-99173200D02*
X82033200Y-99503400D01*
D78*
X76808603Y-111365200D02*
X76902400Y-111271403D01*
X77000000Y-111064400D02*
X77000000Y-111000000D01*
X76902400Y-111162000D02*
X77000000Y-111064400D01*
X76902400Y-111271403D02*
X76902400Y-111162000D01*
D74*
X71981400Y-95192000D02*
X72006800Y-95192000D01*
D76*
X70989400Y-94200000D02*
X71981400Y-95192000D01*
D74*
X72006800Y-95192000D02*
X72330400Y-95515600D01*
D76*
X67560000Y-94200000D02*
X70989400Y-94200000D01*
D74*
X73000000Y-112000000D02*
X73000000Y-112118000D01*
X73000000Y-112118000D02*
X72686000Y-112432000D01*
X71981400Y-97236200D02*
X71720800Y-97496800D01*
X71981400Y-97192000D02*
X71981400Y-97236200D01*
X73295600Y-111314400D02*
X73500000Y-111110000D01*
X73295600Y-111365200D02*
X73295600Y-111314400D01*
X73500000Y-111110000D02*
X73500000Y-111000000D01*
X71670000Y-95769600D02*
X71847800Y-95947400D01*
X71847800Y-96049000D02*
X71981400Y-96182600D01*
X71981400Y-96182600D02*
X71981400Y-96192000D01*
X71847800Y-95947400D02*
X71847800Y-96049000D01*
X72362573Y-111370732D02*
X72381200Y-111352105D01*
X72381200Y-111212800D02*
X72500000Y-111094000D01*
X72500000Y-111094000D02*
X72500000Y-111000000D01*
X72381200Y-111352105D02*
X72381200Y-111212800D01*
X74315812Y-111372076D02*
X74500000Y-111187888D01*
X74500000Y-111187888D02*
X74500000Y-111000000D01*
X71009600Y-96226800D02*
X70981400Y-96198600D01*
X70981400Y-96198600D02*
X70981400Y-96192000D01*
X71466800Y-96226800D02*
X71009600Y-96226800D01*
X74000000Y-111168800D02*
X74000000Y-111000000D01*
X73803600Y-111365200D02*
X74000000Y-111168800D01*
X71771600Y-98487400D02*
X71981400Y-98277600D01*
X71981400Y-98277600D02*
X71981400Y-98192000D01*
X71263600Y-97909800D02*
X70981400Y-98192000D01*
X71263600Y-97801600D02*
X71263600Y-97909800D01*
X72827537Y-111311074D02*
X72889200Y-111249411D01*
X72827537Y-111364680D02*
X72827537Y-111311074D01*
X73000000Y-111027811D02*
X73000000Y-111000000D01*
X72889200Y-111138611D02*
X73000000Y-111027811D01*
X72889200Y-111249411D02*
X72889200Y-111138611D01*
X75000000Y-111083200D02*
X75000000Y-111000000D01*
D78*
X74870400Y-111365200D02*
X74870400Y-111212800D01*
D74*
X74870400Y-111212800D02*
X75000000Y-111083200D01*
X72981400Y-97277600D02*
X72981400Y-97192000D01*
X72736800Y-97522200D02*
X72981400Y-97277600D01*
X75000000Y-110500000D02*
X74819600Y-110319600D01*
X74819600Y-109104600D02*
X74616400Y-108901400D01*
X74616400Y-108901400D02*
X73600400Y-108901400D01*
X74819600Y-110319600D02*
X74819600Y-109104600D01*
X73600400Y-108901400D02*
X73422600Y-108723600D01*
X73422600Y-107479000D02*
X72914600Y-106971000D01*
X73422600Y-108723600D02*
X73422600Y-107479000D01*
X72981400Y-98192000D02*
X72981400Y-98573000D01*
X72981400Y-98573000D02*
X72965400Y-98589000D01*
X75500000Y-110445400D02*
X75204200Y-110149600D01*
X75204200Y-107889000D02*
X74286200Y-106971000D01*
X75500000Y-110500000D02*
X75500000Y-110445400D01*
X75204200Y-110149600D02*
X75204200Y-107889000D01*
X74337000Y-98436600D02*
X74226000Y-98436600D01*
X74226000Y-98436600D02*
X73981400Y-98192000D01*
X71746200Y-107072600D02*
X72025600Y-107352000D01*
X74500000Y-109724800D02*
X74500000Y-110500000D01*
X73600400Y-109333200D02*
X74108400Y-109333200D01*
X73194000Y-108926800D02*
X73600400Y-109333200D01*
X74108400Y-109333200D02*
X74500000Y-109724800D01*
X72025600Y-108723600D02*
X72228800Y-108926800D01*
X71746200Y-106996400D02*
X71746200Y-107072600D01*
X72025600Y-107352000D02*
X72025600Y-108723600D01*
X72228800Y-108926800D02*
X73194000Y-108926800D01*
X71981400Y-99420600D02*
X71822400Y-99579600D01*
X71981400Y-99192000D02*
X71981400Y-99420600D01*
X70628600Y-107453600D02*
X70628600Y-108799800D01*
X71035000Y-109206200D02*
X72706200Y-109206200D01*
X70628600Y-108799800D02*
X71035000Y-109206200D01*
X70146000Y-106971000D02*
X70628600Y-107453600D01*
X72706200Y-109206200D02*
X74000000Y-110500000D01*
X70977600Y-99192000D02*
X70981400Y-99192000D01*
X70654000Y-98868400D02*
X70977600Y-99192000D01*
X73500000Y-110288782D02*
X72646018Y-109434800D01*
X70222200Y-108825200D02*
X69638000Y-108825200D01*
X69130000Y-107275800D02*
X68799800Y-106945600D01*
X69130000Y-108317200D02*
X69130000Y-107275800D01*
X69638000Y-108825200D02*
X69130000Y-108317200D01*
X70831800Y-109434800D02*
X70222200Y-108825200D01*
X73500000Y-110500000D02*
X73500000Y-110288782D01*
X72646018Y-109434800D02*
X70831800Y-109434800D01*
X70019000Y-98970000D02*
X70019000Y-99154400D01*
X69815800Y-98766800D02*
X70019000Y-98970000D01*
X70019000Y-99154400D02*
X69981400Y-99192000D01*
X67631400Y-108266400D02*
X67631400Y-107174200D01*
X67631400Y-107174200D02*
X67428200Y-106971000D01*
X73000000Y-110500000D02*
X72138000Y-109638000D01*
X68444200Y-109079200D02*
X67631400Y-108266400D01*
X70069800Y-109079200D02*
X68444200Y-109079200D01*
X72138000Y-109638000D02*
X70628600Y-109638000D01*
X70628600Y-109638000D02*
X70069800Y-109079200D01*
X70981400Y-97113000D02*
X70981400Y-97192000D01*
X70730200Y-96861800D02*
X70981400Y-97113000D01*
X70654000Y-96861800D02*
X70730200Y-96861800D01*
X69663400Y-96510000D02*
X69981400Y-96192000D01*
X69663400Y-96582400D02*
X69663400Y-96510000D01*
X69841200Y-109384000D02*
X67098000Y-109384000D01*
X66310600Y-107402800D02*
X65929600Y-107021800D01*
X72500000Y-110500000D02*
X71841200Y-109841200D01*
X66310600Y-108596600D02*
X66310600Y-107402800D01*
X67098000Y-109384000D02*
X66310600Y-108596600D01*
X71841200Y-109841200D02*
X70298400Y-109841200D01*
X70298400Y-109841200D02*
X69841200Y-109384000D01*
X71984400Y-111000000D02*
X72000000Y-111000000D01*
X71898600Y-111339800D02*
X71873200Y-111314400D01*
X71873200Y-111314400D02*
X71873200Y-111111200D01*
X71873200Y-111111200D02*
X71984400Y-111000000D01*
X70962600Y-95210800D02*
X70981400Y-95192000D01*
X70501600Y-95210800D02*
X70962600Y-95210800D01*
X76496000Y-110496000D02*
X76500000Y-110500000D01*
X77080200Y-106945600D02*
X76496000Y-107529800D01*
X76496000Y-107529800D02*
X76496000Y-110496000D01*
X73371800Y-95033000D02*
X73270200Y-94931400D01*
X73242000Y-94931400D02*
X72981400Y-95192000D01*
X73270200Y-94931400D02*
X73242000Y-94931400D01*
X76343600Y-111365200D02*
X76343600Y-111162000D01*
X76500000Y-111005600D02*
X76500000Y-111000000D01*
X76343600Y-111162000D02*
X76500000Y-111005600D01*
X74248600Y-94931400D02*
X73988000Y-95192000D01*
X73988000Y-95192000D02*
X73981400Y-95192000D01*
X74337000Y-94931400D02*
X74248600Y-94931400D01*
X73016200Y-96157200D02*
X72981400Y-96192000D01*
X73194000Y-95795000D02*
X73016200Y-95972800D01*
X73016200Y-95972800D02*
X73016200Y-96157200D01*
X76216600Y-107174200D02*
X76216600Y-110283400D01*
X76013400Y-106971000D02*
X76216600Y-107174200D01*
X76216600Y-110283400D02*
X76000000Y-110500000D01*
X73997400Y-96192000D02*
X73981400Y-96192000D01*
X74413200Y-96201400D02*
X74006800Y-96201400D01*
X74006800Y-96201400D02*
X73997400Y-96192000D01*
X75800406Y-111365200D02*
X76000000Y-111165606D01*
X76000000Y-111165606D02*
X76000000Y-111000000D01*
X75429200Y-111162000D02*
X75500000Y-111091200D01*
X75429200Y-111271403D02*
X75429200Y-111162000D01*
X75500000Y-111091200D02*
X75500000Y-111000000D01*
D78*
X75335403Y-111365200D02*
X75429200Y-111271403D01*
D74*
X73981400Y-97192000D02*
X74083000Y-97192000D01*
X74083000Y-97192000D02*
X74413200Y-97522200D01*
D78*
X79770600Y-122033200D02*
X79770600Y-121828000D01*
D77*
X80767200Y-123404800D02*
X80763200Y-123400800D01*
D78*
X76902400Y-117435800D02*
X76902400Y-117334200D01*
D77*
X80763200Y-122998400D02*
X79798000Y-122033200D01*
X80788600Y-123404800D02*
X80767200Y-123404800D01*
D75*
X79770600Y-121828000D02*
X79366200Y-121423600D01*
D78*
X76568200Y-117000000D02*
X76500000Y-117000000D01*
D77*
X80763200Y-123400800D02*
X80763200Y-122998400D01*
D78*
X76902400Y-117334200D02*
X76568200Y-117000000D01*
D77*
X79798000Y-122033200D02*
X79770600Y-122033200D01*
D76*
X73600400Y-119600400D02*
X73500000Y-119500000D01*
X73600400Y-120077400D02*
X73600400Y-119600400D01*
X73500000Y-119500000D02*
X73508550Y-119491450D01*
X73574999Y-141261800D02*
X74329997Y-141261800D01*
X71946800Y-118500000D02*
X71974800Y-118528000D01*
D78*
X91230600Y-132270000D02*
X93055000Y-132270000D01*
X90168200Y-133332400D02*
X91230600Y-132270000D01*
D76*
X74329997Y-141261800D02*
X74438600Y-141370403D01*
X71500000Y-118500000D02*
X71946800Y-118500000D01*
X79848800Y-119264600D02*
X79584200Y-119000000D01*
X79950400Y-119315400D02*
X79899600Y-119264600D01*
X80188004Y-119436479D02*
X80066925Y-119315400D01*
X80188004Y-119436479D02*
X80188004Y-119857804D01*
X79584200Y-119000000D02*
X79500000Y-119000000D01*
X80066925Y-119315400D02*
X79950400Y-119315400D01*
X80188004Y-119857804D02*
X80229800Y-119899600D01*
X79899600Y-119264600D02*
X79848800Y-119264600D01*
X67430800Y-124674800D02*
X67430800Y-123745800D01*
X68152800Y-123023800D02*
X67910800Y-123265800D01*
X67430800Y-123745800D02*
X67910800Y-123265800D01*
X69432800Y-123023800D02*
X68152800Y-123023800D01*
X67910800Y-120836800D02*
X67430800Y-120356800D01*
X69432800Y-121880800D02*
X68025800Y-121880800D01*
X68025800Y-121880800D02*
X67910800Y-121765800D01*
X67910800Y-121765800D02*
X67910800Y-120836800D01*
X66171600Y-114631200D02*
X66171600Y-115799800D01*
X67603000Y-115683200D02*
X66288200Y-115683200D01*
D78*
X87644601Y-113554799D02*
X87501200Y-113698200D01*
X78629400Y-112000000D02*
X78553400Y-111924000D01*
X87907600Y-113554799D02*
X87644601Y-113554799D01*
X79000000Y-112000000D02*
X78629400Y-112000000D01*
X90346598Y-113554799D02*
X87907600Y-113554799D01*
X90346598Y-114054799D02*
X89158458Y-114054799D01*
X70069800Y-112000200D02*
X70374200Y-112000200D01*
X89158458Y-114054799D02*
X88822000Y-114391257D01*
X70374200Y-112000200D02*
X70374400Y-112000000D01*
X70374400Y-112000000D02*
X70500000Y-112000000D01*
D76*
X67603000Y-117616600D02*
X67603000Y-116784200D01*
X66844000Y-118375600D02*
X67603000Y-117616600D01*
X65726400Y-118375600D02*
X66844000Y-118375600D01*
X65065000Y-117714200D02*
X65142200Y-117791400D01*
X65142200Y-117791400D02*
X65726400Y-118375600D01*
X65065000Y-116606400D02*
X65065000Y-117714200D01*
X65065000Y-116606400D02*
X64946800Y-116724600D01*
D78*
X89457000Y-114892000D02*
X87712514Y-114892000D01*
X79000000Y-114500000D02*
X78737045Y-114500000D01*
X90336199Y-115044400D02*
X89609400Y-115044400D01*
X85551750Y-114657050D02*
X85608900Y-114714200D01*
X89609400Y-115044400D02*
X89457000Y-114892000D01*
X87321186Y-114714200D02*
X87520200Y-114913214D01*
X87520200Y-114913214D02*
X87520200Y-115084314D01*
X78737045Y-114500000D02*
X78659756Y-114422711D01*
X90346598Y-115054799D02*
X90336199Y-115044400D01*
X85608900Y-114714200D02*
X87321186Y-114714200D01*
X87712514Y-114892000D02*
X87520200Y-115084314D01*
X71132600Y-116500000D02*
X71000000Y-116500000D01*
X89597198Y-118054798D02*
X90346598Y-118054798D01*
X91602802Y-118054798D02*
X90346598Y-118054798D01*
X71339800Y-116292800D02*
X71132600Y-116500000D01*
X91800000Y-117950000D02*
X91707600Y-117950000D01*
X88650000Y-117856543D02*
X87520200Y-117856543D01*
X88650000Y-117856543D02*
X89398943Y-117856543D01*
X91707600Y-117950000D02*
X91602802Y-118054798D01*
X89398943Y-117856543D02*
X89597198Y-118054798D01*
X78994400Y-113000000D02*
X78680400Y-112686000D01*
X86002600Y-115577800D02*
X87524945Y-115577800D01*
X88866473Y-115554798D02*
X88815000Y-115606271D01*
X85799400Y-115400000D02*
X85824800Y-115400000D01*
X88822000Y-115784371D02*
X88815000Y-115777371D01*
X88822000Y-116085800D02*
X88822000Y-115784371D01*
X88815000Y-115606271D02*
X88815000Y-115777371D01*
X88083745Y-116136600D02*
X88771200Y-116136600D01*
X79000000Y-113000000D02*
X78994400Y-113000000D01*
X88771200Y-116136600D02*
X88822000Y-116085800D01*
X78680400Y-112686000D02*
X78553400Y-112686000D01*
X85824800Y-115400000D02*
X86002600Y-115577800D01*
X87524945Y-115577800D02*
X88083745Y-116136600D01*
X90346598Y-115554798D02*
X88866473Y-115554798D01*
X90346598Y-118554800D02*
X89152200Y-118554800D01*
X69561800Y-116165800D02*
X69561800Y-115556200D01*
X91672000Y-118554800D02*
X91768400Y-118651200D01*
X69561800Y-115556200D02*
X69358600Y-115353000D01*
X89152200Y-118554800D02*
X88827200Y-118554800D01*
X90346598Y-118554800D02*
X91672000Y-118554800D01*
X88827200Y-118554800D02*
X88822000Y-118549600D01*
X69896000Y-116500000D02*
X69561800Y-116165800D01*
X70500000Y-116500000D02*
X69896000Y-116500000D01*
X73041600Y-117087200D02*
X73000000Y-117045600D01*
X73041600Y-117384641D02*
X73041600Y-117087200D01*
X88100000Y-116554799D02*
X87604570Y-116554799D01*
X73019940Y-117464940D02*
X73041284Y-117443596D01*
X73041284Y-117443596D02*
X73041284Y-117384957D01*
X73041284Y-117384957D02*
X73041600Y-117384641D01*
X90346598Y-116554799D02*
X87604570Y-116554799D01*
X87604570Y-116554799D02*
X87520200Y-116470429D01*
X73000000Y-117045600D02*
X73000000Y-117000000D01*
D76*
X74128400Y-119628400D02*
X74000000Y-119500000D01*
D78*
X74000000Y-119500000D02*
X74008550Y-119491450D01*
D76*
X74128400Y-120082800D02*
X74128400Y-119628400D01*
D78*
X90346598Y-117054800D02*
X88924286Y-117054800D01*
X71187400Y-114768800D02*
X71339800Y-114768800D01*
X88847400Y-117195286D02*
X88815600Y-117163486D01*
X86914743Y-117480543D02*
X88621057Y-117480543D01*
X88847400Y-117254200D02*
X88847400Y-117195286D01*
X71060400Y-114895800D02*
X71187400Y-114768800D01*
X86561400Y-117127200D02*
X86914743Y-117480543D01*
X88924286Y-117054800D02*
X88815600Y-117163486D01*
X86561400Y-115958800D02*
X86561400Y-117127200D01*
X71000000Y-114956200D02*
X71060400Y-114895800D01*
X88621057Y-117480543D02*
X88847400Y-117254200D01*
X71000000Y-115000000D02*
X71000000Y-114956200D01*
X61821800Y-116361800D02*
X61618600Y-116565000D01*
X72355800Y-115327600D02*
X72172400Y-115327600D01*
X61618600Y-116565000D02*
X60094600Y-116565000D01*
X72172400Y-115327600D02*
X72000000Y-115500000D01*
D76*
X72482800Y-119759900D02*
X70958800Y-121283900D01*
X72500000Y-119500000D02*
X72482800Y-119517200D01*
X70958800Y-122211000D02*
X70452800Y-122717000D01*
X70452800Y-122717000D02*
X70452800Y-123023800D01*
X72482800Y-119517200D02*
X72482800Y-119759900D01*
X70958800Y-121283900D02*
X70958800Y-122211000D01*
X70476200Y-121880800D02*
X70552400Y-121804600D01*
X72000000Y-119620000D02*
X72000000Y-119500000D01*
X70552400Y-121804600D02*
X70552400Y-121067600D01*
X70552400Y-121067600D02*
X72000000Y-119620000D01*
X70452800Y-121880800D02*
X70476200Y-121880800D01*
D78*
X70373996Y-117333596D02*
X70221596Y-117333596D01*
X70221596Y-117333596D02*
X69180800Y-116292800D01*
X69180800Y-116292800D02*
X69180800Y-115886400D01*
X70500000Y-117500000D02*
X70500000Y-117459600D01*
X69180800Y-115886400D02*
X68977600Y-115683200D01*
X68977600Y-115683200D02*
X68623000Y-115683200D01*
X70500000Y-117459600D02*
X70373996Y-117333596D01*
X58211600Y-112755000D02*
X58088000Y-112631400D01*
X77902200Y-113000000D02*
X78000000Y-113000000D01*
X77639000Y-112736800D02*
X77902200Y-113000000D01*
X60064600Y-112755000D02*
X58211600Y-112755000D01*
D76*
X73081282Y-158598082D02*
X72973600Y-158598082D01*
X73879800Y-159396600D02*
X73081282Y-158598082D01*
X71469802Y-158352082D02*
X72727600Y-158352082D01*
X72727600Y-158352082D02*
X72973600Y-158598082D01*
X71072400Y-117500000D02*
X71000000Y-117500000D01*
X71263600Y-117308800D02*
X71072400Y-117500000D01*
D78*
X69638000Y-117308800D02*
X69511000Y-117308800D01*
X69003000Y-116800800D02*
X68639600Y-116800800D01*
D76*
X71365200Y-117308800D02*
X71263600Y-117308800D01*
D78*
X68639600Y-116800800D02*
X68623000Y-116784200D01*
X69511000Y-117308800D02*
X69003000Y-116800800D01*
X71000000Y-115500000D02*
X71000000Y-115464200D01*
X55964600Y-116565000D02*
X57297200Y-116565000D01*
X71085800Y-115378400D02*
X71187400Y-115276800D01*
X57297200Y-116565000D02*
X57707000Y-116974800D01*
X71187400Y-115276800D02*
X71339800Y-115276800D01*
X71000000Y-115464200D02*
X71085800Y-115378400D01*
D76*
X78066800Y-117000000D02*
X78000000Y-117000000D01*
X78423662Y-117356862D02*
X78066800Y-117000000D01*
X78423662Y-117606146D02*
X78423662Y-117356862D01*
X70500000Y-119000000D02*
X70156600Y-119000000D01*
X70156600Y-119000000D02*
X69993600Y-119163000D01*
X68451200Y-134932600D02*
X67841600Y-134323000D01*
X68163599Y-138700001D02*
X68451200Y-138412400D01*
X67841600Y-134323000D02*
X66038200Y-134323000D01*
X68150001Y-138700001D02*
X68163599Y-138700001D01*
X68451200Y-138412400D02*
X68451200Y-134932600D01*
X61768662Y-124801338D02*
X61780000Y-124790000D01*
X61768662Y-125254865D02*
X61768662Y-125020000D01*
X61768662Y-125020000D02*
X61768662Y-124801338D01*
X62980000Y-125020000D02*
X63000000Y-125000000D01*
X66045500Y-140605500D02*
X66025000Y-140626000D01*
D77*
X61768662Y-125020000D02*
X62980000Y-125020000D01*
D78*
X88822000Y-94724400D02*
X85805600Y-94724400D01*
X90139800Y-96042200D02*
X88822000Y-94724400D01*
X90139800Y-97141200D02*
X91508800Y-97141200D01*
X91508800Y-97141200D02*
X91750000Y-97382400D01*
X85805600Y-94724400D02*
X85363400Y-95166600D01*
X90139800Y-97141200D02*
X90139800Y-96042200D01*
D76*
X72724800Y-155352082D02*
X72973600Y-155600882D01*
X74499600Y-156312082D02*
X73684800Y-156312082D01*
X73684800Y-156312082D02*
X72973600Y-155600882D01*
X71469802Y-155352082D02*
X72724800Y-155352082D01*
X74702800Y-156515282D02*
X74499600Y-156312082D01*
X88497100Y-110516800D02*
X88880780Y-110516800D01*
X88880780Y-110516800D02*
X89369780Y-111005800D01*
X90297599Y-111005800D02*
X90346598Y-111054799D01*
X89369780Y-111005800D02*
X90297599Y-111005800D01*
X88898200Y-112275800D02*
X89533200Y-112275800D01*
X89754200Y-112054800D02*
X90346598Y-112054800D01*
X88822000Y-112199600D02*
X88898200Y-112275800D01*
X88497100Y-112199600D02*
X88822000Y-112199600D01*
X89533200Y-112275800D02*
X89754200Y-112054800D01*
X90346598Y-109554800D02*
X89733200Y-109554800D01*
X88612400Y-108434000D02*
X88497100Y-108434000D01*
X89733200Y-109554800D02*
X88612400Y-108434000D01*
D77*
X66310000Y-98055600D02*
X66310600Y-98056200D01*
X66310600Y-98056200D02*
X66416600Y-98162200D01*
X66416600Y-98162200D02*
X67504400Y-98162200D01*
X67504400Y-98162200D02*
X69951600Y-98162200D01*
D76*
X66540000Y-94200000D02*
X65950000Y-94200000D01*
D77*
X69951600Y-98162200D02*
X69981400Y-98192000D01*
D78*
X72990800Y-118604200D02*
X72990800Y-118756600D01*
X86046400Y-142454800D02*
X86351200Y-142150000D01*
X73000000Y-118765800D02*
X73000000Y-119000000D01*
X86351200Y-127812600D02*
X84712000Y-126173400D01*
X78807400Y-124573200D02*
X80229800Y-124573200D01*
X84212000Y-124288200D02*
X84212000Y-124929000D01*
X72990800Y-118756600D02*
X73000000Y-118765800D01*
X85279400Y-123079600D02*
X84212000Y-124147000D01*
D76*
X84212000Y-124929000D02*
X84212000Y-125673400D01*
D78*
X60094600Y-115295000D02*
X61286745Y-115295000D01*
X79805000Y-157705000D02*
X82000000Y-159900000D01*
X86351200Y-142150000D02*
X86351200Y-127812600D01*
X69287400Y-125355600D02*
X69912400Y-124730600D01*
D76*
X84212000Y-125673400D02*
X84712000Y-126173400D01*
D78*
X91075600Y-103237200D02*
X91750000Y-102562800D01*
X88593400Y-123079600D02*
X85279400Y-123079600D01*
X78420600Y-124960000D02*
X78807400Y-124573200D01*
X82000000Y-159900000D02*
X82700000Y-159900000D01*
D76*
X82700000Y-163500000D02*
X82700000Y-159900000D01*
D78*
X84212000Y-124147000D02*
X84212000Y-124929000D01*
X62456800Y-116465055D02*
X62456800Y-120643200D01*
X69912400Y-124730600D02*
X77789400Y-124730600D01*
X80661600Y-124141400D02*
X84065200Y-124141400D01*
X67169200Y-125355600D02*
X69287400Y-125355600D01*
X61286745Y-115295000D02*
X62456800Y-116465055D01*
X62456800Y-120643200D02*
X67169200Y-125355600D01*
X77789400Y-124730600D02*
X78018800Y-124960000D01*
X79805000Y-156268600D02*
X79805000Y-157705000D01*
X91750000Y-102562800D02*
X91750000Y-99617600D01*
X84065200Y-124141400D02*
X84212000Y-124288200D01*
D76*
X81500000Y-163580000D02*
X82380000Y-163580000D01*
D78*
X78018800Y-124960000D02*
X78420600Y-124960000D01*
X86021000Y-142454800D02*
X86046400Y-142454800D01*
X78172400Y-123938200D02*
X78807400Y-124573200D01*
X80229800Y-124573200D02*
X80661600Y-124141400D01*
D76*
X90346598Y-112554799D02*
X88945201Y-112554799D01*
X88900000Y-112600000D02*
X88899600Y-112599600D01*
X88899600Y-112599600D02*
X88497100Y-112599600D01*
X88945201Y-112554799D02*
X88900000Y-112600000D01*
X88712001Y-126129001D02*
X89327001Y-126129001D01*
X88712000Y-126129000D02*
X88712001Y-126129001D01*
X87672000Y-126129000D02*
X88712000Y-126129000D01*
X87712000Y-125129000D02*
X88712001Y-126129001D01*
D77*
X88205400Y-100265400D02*
X87951400Y-100011400D01*
D78*
X88103800Y-97141200D02*
X89119800Y-97141200D01*
D77*
X79137600Y-101433800D02*
X79137600Y-101916400D01*
X78680400Y-101916400D02*
X79137600Y-101916400D01*
X85792400Y-96074400D02*
X85792400Y-95609397D01*
X82363400Y-98166600D02*
X81338000Y-98166600D01*
X81338000Y-98166600D02*
X81068000Y-98436600D01*
X78655000Y-102703800D02*
X78782000Y-102830800D01*
D78*
X87849800Y-96887200D02*
X88103800Y-97141200D01*
D77*
X78680400Y-101433800D02*
X79137600Y-101433800D01*
X86208200Y-100011400D02*
X85363400Y-99166600D01*
X81068000Y-98436600D02*
X81068000Y-97971597D01*
X85792400Y-96074400D02*
X85700200Y-96166600D01*
X78680400Y-101433800D02*
X78680400Y-101916400D01*
X78782000Y-102830800D02*
X78782000Y-102272000D01*
X87951400Y-100011400D02*
X86208200Y-100011400D01*
X88205400Y-100265400D02*
X88205400Y-99808200D01*
X85700200Y-96166600D02*
X85363400Y-96166600D01*
X78782000Y-102272000D02*
X79137600Y-101916400D01*
D76*
X74000000Y-112000000D02*
X76000000Y-112000000D01*
D78*
X76216600Y-116673800D02*
X76216600Y-116733400D01*
X78978600Y-116978600D02*
X79000000Y-117000000D01*
X74083000Y-133666400D02*
X74108400Y-133641000D01*
X72031000Y-118000000D02*
X72482800Y-118451800D01*
D76*
X62034469Y-98258800D02*
X62042796Y-98250473D01*
D77*
X78782000Y-104480800D02*
X78782000Y-105489997D01*
D78*
X77334200Y-117359600D02*
X77334200Y-117234200D01*
X72000000Y-118000000D02*
X72031000Y-118000000D01*
X76250000Y-113389200D02*
X76250000Y-113250000D01*
X76242000Y-113397200D02*
X76250000Y-113389200D01*
D77*
X62034394Y-97793872D02*
X62042796Y-97785470D01*
D78*
X73498800Y-133641000D02*
X74108400Y-133641000D01*
D77*
X62237669Y-98055600D02*
X62034469Y-98258800D01*
X61577869Y-97793872D02*
X62034394Y-97793872D01*
D78*
X74083000Y-134098200D02*
X74083000Y-133666400D01*
D77*
X62042796Y-97785470D02*
X62042796Y-98250473D01*
X63034000Y-98055600D02*
X62237669Y-98055600D01*
X78782000Y-105489997D02*
X78721588Y-105550409D01*
X78707645Y-105970000D02*
X78252354Y-105970000D01*
X61577869Y-97793872D02*
X61577869Y-98250469D01*
D78*
X77100000Y-117000000D02*
X77000000Y-117000000D01*
D77*
X78721588Y-105550409D02*
X78266297Y-105550409D01*
D78*
X73498800Y-133641000D02*
X73498800Y-134098200D01*
X76250000Y-113250000D02*
X76000000Y-113000000D01*
X76000000Y-113000000D02*
X75000000Y-112000000D01*
X76216600Y-116733400D02*
X76000000Y-116950000D01*
X76000000Y-116950000D02*
X76000000Y-117000000D01*
X77410400Y-117435800D02*
X77334200Y-117359600D01*
X78629600Y-116978600D02*
X78978600Y-116978600D01*
X77334200Y-117234200D02*
X77100000Y-117000000D01*
D77*
X61577869Y-98250469D02*
X61586200Y-98258800D01*
X61586200Y-98258800D02*
X62034469Y-98258800D01*
D76*
X81100400Y-112905600D02*
X81068000Y-112938000D01*
X81100400Y-112250400D02*
X81100400Y-112905600D01*
X79570198Y-153627918D02*
X79551000Y-153647116D01*
X79551000Y-154536116D02*
X78662000Y-155425116D01*
X79551000Y-153647116D02*
X79551000Y-154536116D01*
X78662000Y-161301500D02*
X76755600Y-163207900D01*
X78662000Y-155425116D02*
X78662000Y-161301500D01*
X76755600Y-163207900D02*
X76755600Y-163736200D01*
X88497100Y-110116800D02*
X88872800Y-110116800D01*
X90200396Y-110701000D02*
X90346598Y-110554798D01*
X89457000Y-110701000D02*
X90200396Y-110701000D01*
X88872800Y-110116800D02*
X89457000Y-110701000D01*
D74*
X83363400Y-96769600D02*
X83363400Y-97166600D01*
X83252400Y-96734800D02*
X83328600Y-96734800D01*
X83328600Y-96734800D02*
X83363400Y-96769600D01*
D78*
X86382200Y-95185400D02*
X86363400Y-95166600D01*
X87062400Y-95185400D02*
X86382200Y-95185400D01*
X78000000Y-115000000D02*
X78195200Y-115000000D01*
X88573799Y-127329001D02*
X88459400Y-127443400D01*
X90462063Y-125474437D02*
X90462063Y-123803064D01*
X89043999Y-122385000D02*
X89688000Y-123029001D01*
X90462063Y-123803064D02*
X89688000Y-123029001D01*
D76*
X90462063Y-125644001D02*
X90462063Y-125474437D01*
X80970200Y-153700000D02*
X79878118Y-152607918D01*
D78*
X81499800Y-153478400D02*
X81499800Y-153600200D01*
X84326200Y-121546800D02*
X85164400Y-122385000D01*
X84326200Y-120632400D02*
X84326200Y-121546800D01*
X81830000Y-153148200D02*
X81499800Y-153478400D01*
D76*
X81400000Y-153700000D02*
X80970200Y-153700000D01*
D78*
X80800000Y-119950000D02*
X83643800Y-119950000D01*
X89327001Y-127329001D02*
X88573799Y-127329001D01*
X83643800Y-119950000D02*
X84326200Y-120632400D01*
D76*
X79878118Y-152607918D02*
X78570198Y-152607918D01*
D78*
X78195200Y-115000000D02*
X78375600Y-114819600D01*
X85164400Y-122385000D02*
X89043999Y-122385000D01*
X81499800Y-153600200D02*
X81400000Y-153700000D01*
D76*
X89526136Y-127849800D02*
X89450000Y-127849800D01*
X91096999Y-123644001D02*
X91212000Y-123529000D01*
X92312000Y-123529000D02*
X91212000Y-123529000D01*
X89961937Y-127413999D02*
X89526136Y-127849800D01*
X91096999Y-125728999D02*
X91096999Y-123644001D01*
X80993800Y-114032200D02*
X81068000Y-113958000D01*
X78400974Y-114007403D02*
X78393571Y-114000000D01*
X78393571Y-114000000D02*
X78000000Y-114000000D01*
X80382200Y-114032200D02*
X80993800Y-114032200D01*
X92417400Y-125619000D02*
X92574200Y-125619000D01*
X89320600Y-126935400D02*
X89327001Y-126928999D01*
X91913800Y-126122600D02*
X92417400Y-125619000D01*
X92498000Y-125619000D02*
X92574200Y-125619000D01*
X88434000Y-126935400D02*
X89320600Y-126935400D01*
D78*
X91151800Y-129399200D02*
X91343551Y-129399200D01*
D76*
X91096999Y-127329001D02*
X92282199Y-127329001D01*
X92574200Y-127037000D02*
X92574200Y-126639000D01*
D78*
X78200000Y-124540000D02*
X78012200Y-124540000D01*
X78012200Y-124540000D02*
X77385000Y-123912800D01*
X78578800Y-120331400D02*
X78578800Y-119578800D01*
X78578800Y-119578800D02*
X78500000Y-119500000D01*
X92282199Y-128460552D02*
X92282199Y-127329001D01*
X91343551Y-129399200D02*
X92282199Y-128460552D01*
X77385000Y-123912800D02*
X77385000Y-121525200D01*
X77385000Y-121525200D02*
X78578800Y-120331400D01*
D76*
X92282199Y-127329001D02*
X92574200Y-127037000D01*
D78*
X72381200Y-114235400D02*
X72116600Y-114500000D01*
X90168200Y-134352400D02*
X90168200Y-135270000D01*
X72116600Y-114500000D02*
X72000000Y-114500000D01*
X90168200Y-135270000D02*
X93055000Y-135270000D01*
X72484700Y-117590100D02*
X72894600Y-118000000D01*
X72894600Y-118000000D02*
X73000000Y-118000000D01*
X72484700Y-117484700D02*
X72484700Y-117590100D01*
X66890800Y-114311600D02*
X66056600Y-113477400D01*
X66894800Y-114311600D02*
X66890800Y-114311600D01*
X66056600Y-113477400D02*
X64964400Y-113477400D01*
X67148800Y-114565600D02*
X66894800Y-114311600D01*
D76*
X87400500Y-110470200D02*
X87447100Y-110516800D01*
X81113100Y-118867100D02*
X80732100Y-118867100D01*
X83841400Y-113736820D02*
X85258400Y-112319820D01*
X83812800Y-113896000D02*
X83812800Y-113811500D01*
X83876640Y-113965289D02*
X83876640Y-113959840D01*
X85291400Y-112275800D02*
X85291400Y-111683300D01*
X83802460Y-113801160D02*
X83841400Y-113762220D01*
X83812800Y-113811500D02*
X83802460Y-113801160D01*
X80732100Y-118867100D02*
X80365000Y-118500000D01*
X85258400Y-112319820D02*
X85258400Y-112308800D01*
X83876640Y-113959840D02*
X83812800Y-113896000D01*
X83841400Y-113762220D02*
X83841400Y-113736820D01*
X85258400Y-112308800D02*
X85291400Y-112275800D01*
X85291400Y-111683300D02*
X86504500Y-110470200D01*
X80365000Y-118500000D02*
X79500000Y-118500000D01*
X86504500Y-110470200D02*
X87400500Y-110470200D01*
X87447100Y-112199600D02*
X86891600Y-112199600D01*
X84818312Y-114272888D02*
X84818313Y-114272889D01*
X84511289Y-115749753D02*
X84307218Y-115545682D01*
X84024376Y-115262840D02*
X84024371Y-115262838D01*
X84307218Y-115545682D02*
X84024376Y-115262840D01*
X82696991Y-116394208D02*
X82470933Y-116620267D01*
X86891600Y-112199600D02*
X84818312Y-114272888D01*
X84024371Y-115262838D02*
X83741529Y-114979995D01*
X82470933Y-116620267D02*
X81322000Y-117769200D01*
X83741529Y-114979995D02*
X83537458Y-114775924D01*
X82838411Y-116252786D02*
X82696991Y-116394208D01*
X84818312Y-115034585D02*
X85022384Y-115238657D01*
X82775762Y-114775924D02*
X82634340Y-114917345D01*
X82634340Y-115679040D02*
X82838411Y-115883111D01*
X85022385Y-115608331D02*
X84880963Y-115749754D01*
X81322000Y-117769200D02*
X81322000Y-117918400D01*
X85022384Y-115238657D02*
G75*
G02*
X85022390Y-115608336I-184884J-184843D01*
G01*
X82838411Y-115883111D02*
G75*
G02*
X82838363Y-116252737I-184811J-184789D01*
G01*
X84880963Y-115749754D02*
G75*
G02*
X84511263Y-115749780I-184863J184854D01*
G01*
X83537458Y-114775924D02*
G75*
G03*
X82775762Y-114775924I-380848J-380849D01*
G01*
X82634340Y-114917345D02*
G75*
G03*
X82634332Y-115679047I380860J-380855D01*
G01*
X84818313Y-114272889D02*
G75*
G03*
X84818349Y-115034548I380887J-380811D01*
G01*
X82830350Y-115483030D02*
X83034421Y-115687101D01*
X81723000Y-117760220D02*
X81723000Y-118084500D01*
X83828364Y-115458851D02*
X83828362Y-115458847D01*
X83545519Y-115176005D02*
X83341448Y-114971934D01*
X83034421Y-116448796D02*
X82893001Y-116590218D01*
X86883620Y-112599600D02*
X85014322Y-114468898D01*
X85218393Y-115804342D02*
X85076973Y-115945763D01*
X82971772Y-114971934D02*
X82830350Y-115113355D01*
X82893001Y-116590218D02*
X82666943Y-116816277D01*
X85014322Y-114838574D02*
X85218394Y-115042646D01*
X83828362Y-115458847D02*
X83545519Y-115176005D01*
X84111206Y-115741693D02*
X83828364Y-115458851D01*
X80576420Y-118319400D02*
X80257020Y-118000000D01*
X82666943Y-116816277D02*
X81723000Y-117760220D01*
X80257020Y-118000000D02*
X79500000Y-118000000D01*
X81488100Y-118319400D02*
X80576420Y-118319400D01*
X84315277Y-115945764D02*
X84111206Y-115741693D01*
X87447100Y-112599600D02*
X86883620Y-112599600D01*
X81723000Y-118084500D02*
X81488100Y-118319400D01*
X85014322Y-114468898D02*
G75*
G03*
X85014358Y-114838538I184878J-184802D01*
G01*
X82830350Y-115113355D02*
G75*
G03*
X82830342Y-115483037I184850J-184845D01*
G01*
X85076973Y-115945763D02*
G75*
G02*
X84315253Y-115945789I-380873J380863D01*
G01*
X83034421Y-115687101D02*
G75*
G02*
X83034373Y-116448747I-380821J-380799D01*
G01*
X85218394Y-115042646D02*
G75*
G02*
X85218400Y-115804348I-380894J-380854D01*
G01*
X83341448Y-114971934D02*
G75*
G03*
X82971772Y-114971934I-184838J-184839D01*
G01*
X87447100Y-108034000D02*
X86524980Y-108034000D01*
X81824600Y-113369380D02*
X81824600Y-116199800D01*
X86524980Y-108034000D02*
X85570800Y-108988180D01*
X81824600Y-116199800D02*
X80744800Y-117279600D01*
X85570800Y-109623180D02*
X81824600Y-113369380D01*
X85570800Y-108988180D02*
X85570800Y-109623180D01*
X81145800Y-117270620D02*
X81145800Y-117445700D01*
X82101800Y-113484200D02*
X82101800Y-116314620D01*
X82101800Y-116314620D02*
X81145800Y-117270620D01*
X85848000Y-109738000D02*
X82101800Y-113484200D01*
X79680600Y-117680600D02*
X79500000Y-117500000D01*
X87324300Y-108311200D02*
X86639800Y-108311200D01*
X80910900Y-117680600D02*
X79680600Y-117680600D01*
X87447100Y-108434000D02*
X87324300Y-108311200D01*
X81145800Y-117445700D02*
X80910900Y-117680600D01*
X85848000Y-109103000D02*
X85848000Y-109738000D01*
X86639800Y-108311200D02*
X85848000Y-109103000D01*
X85014200Y-111587800D02*
X85014200Y-111568480D01*
X87370900Y-110193000D02*
X87447100Y-110116800D01*
X83411800Y-113977600D02*
X83411800Y-113774400D01*
X86389680Y-110193000D02*
X87370900Y-110193000D01*
X83411800Y-113774400D02*
X84981200Y-112205000D01*
X84981200Y-111620800D02*
X85014200Y-111587800D01*
X84981200Y-112205000D02*
X84981200Y-111620800D01*
X85014200Y-111568480D02*
X86389680Y-110193000D01*
X90316400Y-109024600D02*
X90346598Y-109054798D01*
X89609400Y-109024600D02*
X90316400Y-109024600D01*
X89050600Y-108465800D02*
X89609400Y-109024600D01*
X88497100Y-108034000D02*
X88822000Y-108034000D01*
X88822000Y-108034000D02*
X89050600Y-108262600D01*
X89050600Y-108262600D02*
X89050600Y-108465800D01*
D78*
X76424200Y-152568400D02*
X76424200Y-156925082D01*
X76424200Y-156925082D02*
X76617600Y-157118482D01*
X74832300Y-150976500D02*
X76424200Y-152568400D01*
X76617600Y-157118482D02*
X76972000Y-157118482D01*
X74997400Y-150506600D02*
X76972000Y-152481200D01*
X73754145Y-150506600D02*
X74997400Y-150506600D01*
X69155400Y-118985200D02*
X69511000Y-118629600D01*
X70370400Y-118629600D02*
X70500000Y-118500000D01*
X69511000Y-118629600D02*
X70370400Y-118629600D01*
X76972000Y-152481200D02*
X76972000Y-156718482D01*
X64456400Y-118985200D02*
X65218400Y-118985200D01*
X64380200Y-119061400D02*
X64456400Y-118985200D01*
X65218400Y-118985200D02*
X69155400Y-118985200D01*
D76*
X72600001Y-137968799D02*
X73307000Y-137261800D01*
X73307000Y-137261800D02*
X73574999Y-137261800D01*
X72600001Y-138959850D02*
X72600001Y-137968799D01*
D75*
X75000000Y-119500000D02*
X75000000Y-117500000D01*
D76*
X75250000Y-119926400D02*
X75250000Y-119732900D01*
X75226000Y-119950400D02*
X75250000Y-119926400D01*
X75250000Y-119732900D02*
X75000000Y-119482900D01*
X75226000Y-120433000D02*
X75226000Y-119950400D01*
X75517600Y-157118482D02*
X75922000Y-157118482D01*
X73636000Y-157852082D02*
X74784000Y-157852082D01*
X71469802Y-157852082D02*
X73636000Y-157852082D01*
X74784000Y-157852082D02*
X75517600Y-157118482D01*
X71469802Y-156852082D02*
X72636000Y-156852082D01*
X72636000Y-156852082D02*
X73636000Y-157852082D01*
X73699500Y-156959782D02*
X73091800Y-156352082D01*
X73091800Y-156352082D02*
X71469802Y-156352082D01*
X73699500Y-156959782D02*
X73737600Y-156921682D01*
X71469802Y-157352082D02*
X72443600Y-157352082D01*
X75033000Y-156921682D02*
X75236200Y-156718482D01*
X72443600Y-157352082D02*
X72467600Y-157328082D01*
X73737600Y-156921682D02*
X75033000Y-156921682D01*
X75236200Y-156718482D02*
X75922000Y-156718482D01*
D78*
X74000000Y-117378200D02*
X74000000Y-117000000D01*
X70120600Y-119874200D02*
X70494800Y-119500000D01*
X69790400Y-119874200D02*
X70120600Y-119874200D01*
X70494800Y-119500000D02*
X70500000Y-119500000D01*
X74006800Y-117385000D02*
X74000000Y-117378200D01*
X73500000Y-117460000D02*
X73500000Y-117462400D01*
X61260000Y-120940000D02*
X55870000Y-120940000D01*
X61300000Y-120980000D02*
X61260000Y-120940000D01*
X71951055Y-140219600D02*
X72774151Y-140219600D01*
X71268600Y-136557000D02*
X71268600Y-139537145D01*
X71543000Y-136282600D02*
X71268600Y-136557000D01*
X73500000Y-117510800D02*
X73500000Y-118000000D01*
X73500000Y-117462400D02*
X73524200Y-117486600D01*
X55870000Y-120940000D02*
X54236200Y-122573800D01*
X68164800Y-140195799D02*
X68164800Y-139714798D01*
X54236200Y-122573800D02*
X54236200Y-122879802D01*
X73000000Y-139798050D02*
X73000000Y-139993751D01*
X73000000Y-139993751D02*
X72774151Y-140219600D01*
X73524200Y-117486600D02*
X73500000Y-117510800D01*
X71543000Y-135901600D02*
X71543000Y-136282600D01*
X71268600Y-139537145D02*
X71951055Y-140219600D01*
X68164800Y-139714798D02*
X68150001Y-139699999D01*
D76*
X56786200Y-128256200D02*
X54431800Y-128256200D01*
X53847600Y-124268400D02*
X54236200Y-123879800D01*
X53847600Y-127672000D02*
X53847600Y-124268400D01*
X54431800Y-128256200D02*
X53847600Y-127672000D01*
D75*
X59112501Y-123379801D02*
X59236200Y-123503500D01*
X55336200Y-123379801D02*
X59112501Y-123379801D01*
D76*
X75500000Y-119482900D02*
X75500000Y-117000000D01*
X76000000Y-118500000D02*
X75500000Y-118500000D01*
X75750000Y-119915600D02*
X75750000Y-119732900D01*
X75835600Y-117500000D02*
X75500000Y-117500000D01*
X75734000Y-120052000D02*
X75734000Y-119931600D01*
X76199003Y-120052000D02*
X75734000Y-120052000D01*
D78*
X70569997Y-129069000D02*
X70704800Y-129203803D01*
D76*
X75750000Y-119732900D02*
X75500000Y-119482900D01*
X75734000Y-119931600D02*
X75750000Y-119915600D01*
X86712000Y-126173400D02*
X85732000Y-126173400D01*
G04 #@! TA.AperFunction,Conductor*
G36*
X91214627Y-127840493D02*
G01*
X91221136Y-127844308D01*
X91462860Y-127996089D01*
X91576339Y-128067343D01*
X91622647Y-128119663D01*
X91634400Y-128172357D01*
X91634400Y-128842453D01*
X91625755Y-128871893D01*
X91619232Y-128901880D01*
X91615477Y-128906895D01*
X91614715Y-128909492D01*
X91598081Y-128930134D01*
X91571734Y-128956481D01*
X91510411Y-128989966D01*
X91484053Y-128992800D01*
X91104057Y-128992800D01*
X91037018Y-128973115D01*
X90991263Y-128920311D01*
X90981319Y-128851153D01*
X90989495Y-128821349D01*
X91001556Y-128792229D01*
X91009012Y-128735600D01*
X90411000Y-128735600D01*
X90402314Y-128733049D01*
X90393353Y-128734338D01*
X90369312Y-128723359D01*
X90343961Y-128715915D01*
X90338033Y-128709074D01*
X90329797Y-128705313D01*
X90315507Y-128683078D01*
X90298206Y-128663111D01*
X90295918Y-128652596D01*
X90292023Y-128646535D01*
X90287000Y-128611600D01*
X90287000Y-128459600D01*
X90306685Y-128392561D01*
X90359489Y-128346806D01*
X90411000Y-128335600D01*
X91009010Y-128335600D01*
X91009011Y-128335598D01*
X91001557Y-128278972D01*
X91001555Y-128278966D01*
X90954519Y-128165409D01*
X90947050Y-128095940D01*
X90969814Y-128043645D01*
X91005415Y-127996089D01*
X91039019Y-127905992D01*
X91080890Y-127850058D01*
X91146354Y-127825641D01*
X91214627Y-127840493D01*
G37*
G04 #@! TD.AperFunction*
G04 #@! TA.AperFunction,Conductor*
G36*
X80706239Y-136251485D02*
G01*
X80751994Y-136304289D01*
X80763200Y-136355800D01*
X80763200Y-136991595D01*
X80743515Y-137058634D01*
X80724888Y-137081225D01*
X79450000Y-138300000D01*
X79449998Y-138300002D01*
X79449997Y-138300004D01*
X79264602Y-138619393D01*
X79264599Y-138619401D01*
X79176572Y-138911751D01*
X79162358Y-138933536D01*
X79151551Y-138957203D01*
X79143575Y-138962328D01*
X79138395Y-138970269D01*
X79114657Y-138980912D01*
X79092773Y-138994977D01*
X79078816Y-138996983D01*
X79074641Y-138998856D01*
X79057838Y-139000000D01*
X79001362Y-139000000D01*
X78934323Y-138980315D01*
X78913681Y-138963681D01*
X78787472Y-138837472D01*
X78753987Y-138776149D01*
X78751184Y-138747020D01*
X78754036Y-138619400D01*
X78804690Y-136353027D01*
X78825868Y-136286446D01*
X78879681Y-136241883D01*
X78928659Y-136231800D01*
X80639200Y-136231800D01*
X80706239Y-136251485D01*
G37*
G04 #@! TD.AperFunction*
G04 #@! TA.AperFunction,Conductor*
G36*
X66843039Y-97319685D02*
G01*
X66888794Y-97372489D01*
X66900000Y-97424000D01*
X66900000Y-98676000D01*
X66880315Y-98743039D01*
X66827511Y-98788794D01*
X66776000Y-98800000D01*
X64374000Y-98800000D01*
X64306961Y-98780315D01*
X64261206Y-98727511D01*
X64250000Y-98676000D01*
X64250000Y-97424000D01*
X64269685Y-97356961D01*
X64322489Y-97311206D01*
X64374000Y-97300000D01*
X66776000Y-97300000D01*
X66843039Y-97319685D01*
G37*
G04 #@! TD.AperFunction*
G04 #@! TA.AperFunction,Conductor*
G36*
X73339472Y-159213508D02*
G01*
X73385613Y-159265975D01*
X73397200Y-159318313D01*
X73397200Y-159883993D01*
X73377515Y-159951032D01*
X73324711Y-159996787D01*
X73275006Y-160007980D01*
X72417692Y-160020469D01*
X72415886Y-160020482D01*
X71575600Y-160020482D01*
X71508561Y-160000797D01*
X71462806Y-159947993D01*
X71451600Y-159896482D01*
X71451600Y-159330775D01*
X71471285Y-159263736D01*
X71524089Y-159217981D01*
X71574687Y-159206778D01*
X73272293Y-159194316D01*
X73339472Y-159213508D01*
G37*
G04 #@! TD.AperFunction*
G04 #@! TA.AperFunction,Conductor*
G36*
X84214088Y-139419685D02*
G01*
X84236617Y-139438247D01*
X84365568Y-139572937D01*
X84397711Y-139634974D01*
X84400000Y-139658689D01*
X84400000Y-140300000D01*
X85233200Y-140300000D01*
X85300239Y-140319685D01*
X85345994Y-140372489D01*
X85357200Y-140424000D01*
X85357200Y-140976000D01*
X85337515Y-141043039D01*
X85284711Y-141088794D01*
X85233200Y-141100000D01*
X83824000Y-141100000D01*
X83756961Y-141080315D01*
X83711206Y-141027511D01*
X83700000Y-140976000D01*
X83700000Y-140400000D01*
X83136319Y-139836319D01*
X83121615Y-139809391D01*
X83105023Y-139783573D01*
X83104131Y-139777372D01*
X83102834Y-139774996D01*
X83100000Y-139748638D01*
X83100000Y-139525027D01*
X83119685Y-139457988D01*
X83172489Y-139412233D01*
X83241647Y-139402289D01*
X83305203Y-139431314D01*
X83311681Y-139437346D01*
X83535154Y-139660820D01*
X83535158Y-139660823D01*
X83561656Y-139678529D01*
X83561658Y-139678530D01*
X83561663Y-139678533D01*
X83568734Y-139681462D01*
X83575433Y-139683900D01*
X83631266Y-139681462D01*
X83638337Y-139678533D01*
X83664842Y-139660823D01*
X83889346Y-139436319D01*
X83916273Y-139421615D01*
X83942092Y-139405023D01*
X83948292Y-139404131D01*
X83950669Y-139402834D01*
X83977027Y-139400000D01*
X84147049Y-139400000D01*
X84214088Y-139419685D01*
G37*
G04 #@! TD.AperFunction*
G04 #@! TA.AperFunction,Conductor*
G36*
X57675922Y-123729347D02*
G01*
X57722138Y-123781747D01*
X57733800Y-123834246D01*
X57733800Y-124975937D01*
X57714115Y-125042976D01*
X57661311Y-125088731D01*
X57629934Y-125098291D01*
X55727200Y-125411399D01*
X55727199Y-125411400D01*
X55703065Y-127752478D01*
X55682691Y-127819311D01*
X55629418Y-127864519D01*
X55579072Y-127875200D01*
X54958175Y-127875200D01*
X54922214Y-127869871D01*
X54904552Y-127864519D01*
X54755366Y-127819311D01*
X54189639Y-127647878D01*
X54131189Y-127609597D01*
X54102714Y-127545793D01*
X54101600Y-127529207D01*
X54101600Y-125036340D01*
X54116492Y-124977422D01*
X54733807Y-123834246D01*
X54752606Y-123799432D01*
X54801779Y-123749798D01*
X54860622Y-123734357D01*
X57608714Y-123710251D01*
X57675922Y-123729347D01*
G37*
G04 #@! TD.AperFunction*
G04 #@! TA.AperFunction,Conductor*
G36*
X78393039Y-136319685D02*
G01*
X78438794Y-136372489D01*
X78450000Y-136424000D01*
X78450000Y-138748638D01*
X78441355Y-138778078D01*
X78434832Y-138808065D01*
X78431077Y-138813080D01*
X78430315Y-138815677D01*
X78413681Y-138836319D01*
X78311681Y-138938319D01*
X78250358Y-138971804D01*
X78180666Y-138966820D01*
X78124733Y-138924948D01*
X78100316Y-138859484D01*
X78100000Y-138850638D01*
X78100000Y-138650000D01*
X77336319Y-137886319D01*
X77302834Y-137824996D01*
X77300000Y-137798638D01*
X77300000Y-136424000D01*
X77319685Y-136356961D01*
X77372489Y-136311206D01*
X77424000Y-136300000D01*
X78326000Y-136300000D01*
X78393039Y-136319685D01*
G37*
G04 #@! TD.AperFunction*
G04 #@! TA.AperFunction,Conductor*
G36*
X74277697Y-132289085D02*
G01*
X74320847Y-132336528D01*
X75491589Y-134604841D01*
X75505400Y-134661713D01*
X75505400Y-135269600D01*
X75485715Y-135336639D01*
X75432911Y-135382394D01*
X75381400Y-135393600D01*
X73445000Y-135393600D01*
X73377961Y-135373915D01*
X73332206Y-135321111D01*
X73321000Y-135269600D01*
X73321000Y-132393400D01*
X73340685Y-132326361D01*
X73393489Y-132280606D01*
X73445000Y-132269400D01*
X74210658Y-132269400D01*
X74277697Y-132289085D01*
G37*
G04 #@! TD.AperFunction*
G04 #@! TA.AperFunction,Conductor*
G36*
X61872964Y-129774485D02*
G01*
X61918719Y-129827289D01*
X61929924Y-129878337D01*
X61941343Y-132933383D01*
X61921909Y-133000495D01*
X61869277Y-133046447D01*
X61819668Y-133057824D01*
X60645285Y-133079840D01*
X60577889Y-133061416D01*
X60531152Y-133009479D01*
X60518962Y-132956293D01*
X60508259Y-129879231D01*
X60527710Y-129812124D01*
X60580355Y-129766185D01*
X60632258Y-129754800D01*
X61805925Y-129754800D01*
X61872964Y-129774485D01*
G37*
G04 #@! TD.AperFunction*
G04 #@! TA.AperFunction,Conductor*
G36*
X86903839Y-123907085D02*
G01*
X86949594Y-123959889D01*
X86960800Y-124011400D01*
X86960800Y-124240079D01*
X86942000Y-124304104D01*
X86942000Y-125005000D01*
X86922315Y-125072039D01*
X86869511Y-125117794D01*
X86818000Y-125129000D01*
X86692000Y-125129000D01*
X86692000Y-125255000D01*
X86672315Y-125322039D01*
X86619511Y-125367794D01*
X86568000Y-125379000D01*
X85916000Y-125379000D01*
X85848961Y-125359315D01*
X85803206Y-125306511D01*
X85792000Y-125255000D01*
X85792000Y-125179000D01*
X85736000Y-125179000D01*
X85668961Y-125159315D01*
X85623206Y-125106511D01*
X85612000Y-125055000D01*
X85612000Y-124803000D01*
X85631685Y-124735961D01*
X85684489Y-124690206D01*
X85736000Y-124679000D01*
X86442000Y-124679000D01*
X86442000Y-124316154D01*
X86441998Y-124316153D01*
X86377898Y-124334777D01*
X86308029Y-124334578D01*
X86255622Y-124303382D01*
X86163561Y-124211321D01*
X86163552Y-124211314D01*
X86022192Y-124127715D01*
X86016379Y-124125199D01*
X85962673Y-124080507D01*
X85941655Y-124013874D01*
X85959998Y-123946455D01*
X86011879Y-123899656D01*
X86065630Y-123887400D01*
X86836800Y-123887400D01*
X86903839Y-123907085D01*
G37*
G04 #@! TD.AperFunction*
G04 #@! TA.AperFunction,Conductor*
G36*
X72543039Y-150221767D02*
G01*
X72588794Y-150274571D01*
X72600000Y-150326082D01*
X72600000Y-153928082D01*
X72580315Y-153995121D01*
X72527511Y-154040876D01*
X72476000Y-154052082D01*
X71324000Y-154052082D01*
X71256961Y-154032397D01*
X71211206Y-153979593D01*
X71200000Y-153928082D01*
X71200000Y-152002082D01*
X65424302Y-152002082D01*
X65357263Y-151982397D01*
X65311508Y-151929593D01*
X65300302Y-151878082D01*
X65300302Y-151102695D01*
X65300441Y-150326060D01*
X65320138Y-150259024D01*
X65372950Y-150213278D01*
X65424441Y-150202082D01*
X72476000Y-150202082D01*
X72543039Y-150221767D01*
G37*
G04 #@! TD.AperFunction*
G04 #@! TA.AperFunction,Conductor*
G36*
X79214088Y-139419685D02*
G01*
X79236617Y-139438247D01*
X79365568Y-139572937D01*
X79397711Y-139634974D01*
X79400000Y-139658689D01*
X79400000Y-140300000D01*
X80207800Y-140300000D01*
X80274839Y-140319685D01*
X80320594Y-140372489D01*
X80331800Y-140424000D01*
X80331800Y-140976000D01*
X80312115Y-141043039D01*
X80259311Y-141088794D01*
X80207800Y-141100000D01*
X78824000Y-141100000D01*
X78756961Y-141080315D01*
X78711206Y-141027511D01*
X78700000Y-140976000D01*
X78700000Y-140400000D01*
X78136319Y-139836319D01*
X78121615Y-139809391D01*
X78105023Y-139783573D01*
X78104131Y-139777372D01*
X78102834Y-139774996D01*
X78100000Y-139748638D01*
X78100000Y-139525027D01*
X78119685Y-139457988D01*
X78172489Y-139412233D01*
X78241647Y-139402289D01*
X78305203Y-139431314D01*
X78311681Y-139437346D01*
X78535154Y-139660820D01*
X78535158Y-139660823D01*
X78561656Y-139678529D01*
X78561658Y-139678530D01*
X78561663Y-139678533D01*
X78568734Y-139681462D01*
X78575433Y-139683900D01*
X78631266Y-139681462D01*
X78638337Y-139678533D01*
X78664842Y-139660823D01*
X78889346Y-139436319D01*
X78916273Y-139421615D01*
X78942092Y-139405023D01*
X78948292Y-139404131D01*
X78950669Y-139402834D01*
X78977027Y-139400000D01*
X79147049Y-139400000D01*
X79214088Y-139419685D01*
G37*
G04 #@! TD.AperFunction*
G04 #@! TA.AperFunction,Conductor*
G36*
X94664638Y-120149485D02*
G01*
X94710393Y-120202289D01*
X94721599Y-120253800D01*
X94721599Y-122405800D01*
X94701914Y-122472839D01*
X94649110Y-122518594D01*
X94597599Y-122529800D01*
X92645599Y-122529800D01*
X92578560Y-122510115D01*
X92532805Y-122457311D01*
X92521599Y-122405800D01*
X92521599Y-120253800D01*
X92541284Y-120186761D01*
X92594088Y-120141006D01*
X92645599Y-120129800D01*
X94597599Y-120129800D01*
X94664638Y-120149485D01*
G37*
G04 #@! TD.AperFunction*
G04 #@! TA.AperFunction,Conductor*
G36*
X79564156Y-132263685D02*
G01*
X79605018Y-132306899D01*
X80747915Y-134325207D01*
X80763975Y-134383209D01*
X80785459Y-135242592D01*
X80767456Y-135310103D01*
X80715812Y-135357163D01*
X80662961Y-135369682D01*
X78761972Y-135392119D01*
X78694705Y-135373227D01*
X78648330Y-135320967D01*
X78636509Y-135268128D01*
X78636509Y-132368000D01*
X78656194Y-132300961D01*
X78708998Y-132255206D01*
X78760509Y-132244000D01*
X79497117Y-132244000D01*
X79564156Y-132263685D01*
G37*
G04 #@! TD.AperFunction*
G04 #@! TA.AperFunction,Conductor*
G36*
X61656239Y-128123485D02*
G01*
X61701994Y-128176289D01*
X61713200Y-128227800D01*
X61713200Y-128792600D01*
X61693515Y-128859639D01*
X61640711Y-128905394D01*
X61589200Y-128916600D01*
X60808912Y-128916600D01*
X60788823Y-128914962D01*
X59853338Y-128761374D01*
X59811428Y-128746400D01*
X59797189Y-128738179D01*
X59797190Y-128738179D01*
X59771713Y-128731352D01*
X59720762Y-128717700D01*
X59641638Y-128717700D01*
X59641635Y-128717700D01*
X59633582Y-128718760D01*
X59633348Y-128716982D01*
X59594633Y-128718900D01*
X59254457Y-128663050D01*
X59243424Y-128657743D01*
X59231212Y-128656870D01*
X59212525Y-128642880D01*
X59191492Y-128632764D01*
X59185079Y-128622334D01*
X59175279Y-128614998D01*
X59167122Y-128593130D01*
X59154896Y-128573245D01*
X59155140Y-128561003D01*
X59150862Y-128549534D01*
X59155823Y-128526725D01*
X59156289Y-128503389D01*
X59163476Y-128491545D01*
X59165714Y-128481261D01*
X59186865Y-128453007D01*
X59188042Y-128451830D01*
X59249365Y-128418345D01*
X59251964Y-128417808D01*
X59260691Y-128416104D01*
X59260694Y-128416105D01*
X60848656Y-128106096D01*
X60872415Y-128103800D01*
X61589200Y-128103800D01*
X61656239Y-128123485D01*
G37*
G04 #@! TD.AperFunction*
G04 #@! TA.AperFunction,Conductor*
G36*
X87317239Y-120489261D02*
G01*
X87362994Y-120542065D01*
X87374200Y-120593576D01*
X87374200Y-121753776D01*
X87354515Y-121820815D01*
X87301711Y-121866570D01*
X87250200Y-121877776D01*
X85456000Y-121877776D01*
X85388961Y-121858091D01*
X85343206Y-121805287D01*
X85332000Y-121753776D01*
X85332000Y-120593576D01*
X85351685Y-120526537D01*
X85404489Y-120480782D01*
X85456000Y-120469576D01*
X87250200Y-120469576D01*
X87317239Y-120489261D01*
G37*
G04 #@! TD.AperFunction*
G04 #@! TA.AperFunction,Conductor*
G36*
X83343039Y-140319685D02*
G01*
X83388794Y-140372489D01*
X83400000Y-140424000D01*
X83400000Y-140976000D01*
X83380315Y-141043039D01*
X83327511Y-141088794D01*
X83276000Y-141100000D01*
X82424000Y-141100000D01*
X82356961Y-141080315D01*
X82311206Y-141027511D01*
X82300000Y-140976000D01*
X82300000Y-140424000D01*
X82319685Y-140356961D01*
X82372489Y-140311206D01*
X82424000Y-140300000D01*
X83276000Y-140300000D01*
X83343039Y-140319685D01*
G37*
G04 #@! TD.AperFunction*
G04 #@! TA.AperFunction,Conductor*
G36*
X88870139Y-109146485D02*
G01*
X88915894Y-109199289D01*
X88927100Y-109250800D01*
X88927100Y-109772800D01*
X88907415Y-109839839D01*
X88854611Y-109885594D01*
X88803100Y-109896800D01*
X87161100Y-109896800D01*
X87094061Y-109877115D01*
X87048306Y-109824311D01*
X87037100Y-109772800D01*
X87037100Y-109300230D01*
X87041250Y-109284739D01*
X87040596Y-109270995D01*
X87053713Y-109238229D01*
X87082252Y-109188799D01*
X87132820Y-109140584D01*
X87189639Y-109126800D01*
X88803100Y-109126800D01*
X88870139Y-109146485D01*
G37*
G04 #@! TD.AperFunction*
G04 #@! TA.AperFunction,Conductor*
G36*
X73325039Y-154223567D02*
G01*
X73370794Y-154276371D01*
X73382000Y-154327882D01*
X73382000Y-154892682D01*
X73362315Y-154959721D01*
X73309511Y-155005476D01*
X73258000Y-155016682D01*
X71601000Y-155016682D01*
X71533961Y-154996997D01*
X71488206Y-154944193D01*
X71477000Y-154892682D01*
X71477000Y-154327882D01*
X71496685Y-154260843D01*
X71549489Y-154215088D01*
X71601000Y-154203882D01*
X73258000Y-154203882D01*
X73325039Y-154223567D01*
G37*
G04 #@! TD.AperFunction*
G04 #@! TA.AperFunction,Conductor*
G36*
X70851039Y-128555285D02*
G01*
X70896794Y-128608089D01*
X70908000Y-128659600D01*
X70908000Y-129732400D01*
X70888315Y-129799439D01*
X70835511Y-129845194D01*
X70784000Y-129856400D01*
X70107478Y-129856400D01*
X70083160Y-129853992D01*
X68924882Y-129622336D01*
X68863004Y-129589886D01*
X68828494Y-129529134D01*
X68825200Y-129500744D01*
X68825200Y-128659600D01*
X68844885Y-128592561D01*
X68897689Y-128546806D01*
X68949200Y-128535600D01*
X70784000Y-128535600D01*
X70851039Y-128555285D01*
G37*
G04 #@! TD.AperFunction*
G04 #@! TA.AperFunction,Conductor*
G36*
X60115239Y-124719885D02*
G01*
X60160994Y-124772689D01*
X60172200Y-124824200D01*
X60172200Y-126403621D01*
X60152515Y-126470660D01*
X60106321Y-126513156D01*
X57683000Y-127799000D01*
X57303533Y-129032267D01*
X57265003Y-129090553D01*
X57201078Y-129118755D01*
X57185016Y-129119800D01*
X56486200Y-129119800D01*
X56419161Y-129100115D01*
X56373406Y-129047311D01*
X56362200Y-128995800D01*
X56362200Y-125535400D01*
X56381885Y-125468361D01*
X56434689Y-125422606D01*
X56486200Y-125411400D01*
X57225798Y-125411400D01*
X57225800Y-125411400D01*
X57570066Y-125200237D01*
X57614762Y-125183586D01*
X57643200Y-125178907D01*
X57653746Y-125176444D01*
X57685123Y-125166884D01*
X57714813Y-125150476D01*
X57767617Y-125104721D01*
X57779509Y-125086215D01*
X57818986Y-125047558D01*
X58355466Y-124718498D01*
X58420299Y-124700200D01*
X60048200Y-124700200D01*
X60115239Y-124719885D01*
G37*
G04 #@! TD.AperFunction*
G04 #@! TA.AperFunction,Conductor*
G36*
X88850139Y-107053685D02*
G01*
X88895894Y-107106489D01*
X88907100Y-107158000D01*
X88907100Y-107680000D01*
X88887415Y-107747039D01*
X88834611Y-107792794D01*
X88783100Y-107804000D01*
X87141100Y-107804000D01*
X87074061Y-107784315D01*
X87028306Y-107731511D01*
X87017100Y-107680000D01*
X87017100Y-107158000D01*
X87036785Y-107090961D01*
X87089589Y-107045206D01*
X87141100Y-107034000D01*
X88783100Y-107034000D01*
X88850139Y-107053685D01*
G37*
G04 #@! TD.AperFunction*
G04 #@! TA.AperFunction,Conductor*
G36*
X93782439Y-130043085D02*
G01*
X93828194Y-130095889D01*
X93839400Y-130147400D01*
X93839400Y-131067800D01*
X93819715Y-131134839D01*
X93766911Y-131180594D01*
X93715400Y-131191800D01*
X92414000Y-131191800D01*
X92346961Y-131172115D01*
X92301206Y-131119311D01*
X92290000Y-131067800D01*
X92290000Y-130147400D01*
X92309685Y-130080361D01*
X92362489Y-130034606D01*
X92414000Y-130023400D01*
X93715400Y-130023400D01*
X93782439Y-130043085D01*
G37*
G04 #@! TD.AperFunction*
G04 #@! TA.AperFunction,Conductor*
G36*
X73927345Y-139731285D02*
G01*
X73939689Y-139740341D01*
X75079783Y-140690419D01*
X75118682Y-140748458D01*
X75124400Y-140785678D01*
X75124400Y-141427238D01*
X75120397Y-141458491D01*
X75112023Y-141490640D01*
X75097395Y-141505269D01*
X75074300Y-141561025D01*
X75074300Y-141635483D01*
X75070297Y-141650853D01*
X75060163Y-141667743D01*
X75054615Y-141686639D01*
X75042559Y-141697085D01*
X75034351Y-141710767D01*
X75016693Y-141719497D01*
X75001811Y-141732394D01*
X74981816Y-141736743D01*
X74971720Y-141741736D01*
X74963247Y-141740783D01*
X74950300Y-141743600D01*
X73216400Y-141743600D01*
X73149361Y-141723915D01*
X73103606Y-141671111D01*
X73092400Y-141619600D01*
X73092400Y-140790104D01*
X73094590Y-140766902D01*
X73276400Y-139812398D01*
X73308281Y-139750226D01*
X73368713Y-139715159D01*
X73398210Y-139711600D01*
X73860306Y-139711600D01*
X73927345Y-139731285D01*
G37*
G04 #@! TD.AperFunction*
G04 #@! TA.AperFunction,Conductor*
G36*
X58638445Y-128586400D02*
G01*
X58918254Y-128586400D01*
X58918254Y-128900357D01*
X58917385Y-128915015D01*
X58669215Y-130999640D01*
X58662717Y-131014834D01*
X58663845Y-131041316D01*
X58785337Y-133892721D01*
X58768524Y-133960538D01*
X58717715Y-134008499D01*
X58661449Y-134022000D01*
X56755845Y-134022000D01*
X56688806Y-134002315D01*
X56643051Y-133949511D01*
X56631845Y-133898000D01*
X56631845Y-131354998D01*
X56631844Y-131354997D01*
X56583024Y-131051089D01*
X56581454Y-131031421D01*
X56581454Y-130250916D01*
X56601139Y-130183877D01*
X56653943Y-130138122D01*
X56705454Y-130126916D01*
X57800654Y-130126916D01*
X57906203Y-129909315D01*
X57906203Y-129909314D01*
X58628065Y-128421113D01*
X58638445Y-128586400D01*
G37*
G04 #@! TD.AperFunction*
G04 #@! TA.AperFunction,Conductor*
G36*
X88870139Y-111219285D02*
G01*
X88915894Y-111272089D01*
X88927100Y-111323600D01*
X88927100Y-111845600D01*
X88907415Y-111912639D01*
X88854611Y-111958394D01*
X88803100Y-111969600D01*
X87161100Y-111969600D01*
X87094061Y-111949915D01*
X87048306Y-111897111D01*
X87037100Y-111845600D01*
X87037100Y-111323600D01*
X87056785Y-111256561D01*
X87109589Y-111210806D01*
X87161100Y-111199600D01*
X88803100Y-111199600D01*
X88870139Y-111219285D01*
G37*
G04 #@! TD.AperFunction*
G04 #@! TA.AperFunction,Conductor*
G36*
X57676839Y-121367085D02*
G01*
X57722594Y-121419889D01*
X57733800Y-121471400D01*
X57733800Y-122899800D01*
X57714115Y-122966839D01*
X57661311Y-123012594D01*
X57609800Y-123023800D01*
X54911400Y-123023800D01*
X54844361Y-123004115D01*
X54798606Y-122951311D01*
X54787400Y-122899800D01*
X54787400Y-122288498D01*
X54796043Y-122259061D01*
X54802567Y-122229072D01*
X54806322Y-122224055D01*
X54807085Y-122221459D01*
X54823718Y-122200818D01*
X54881053Y-122143482D01*
X54895017Y-122131456D01*
X55922948Y-121371682D01*
X55988559Y-121347664D01*
X55996652Y-121347400D01*
X57609800Y-121347400D01*
X57676839Y-121367085D01*
G37*
G04 #@! TD.AperFunction*
G04 #@! TA.AperFunction,Conductor*
G36*
X84492907Y-132204292D02*
G01*
X84532908Y-132246009D01*
X85851640Y-134500999D01*
X85868600Y-134563596D01*
X85868600Y-135218800D01*
X85848915Y-135285839D01*
X85796111Y-135331594D01*
X85744600Y-135342800D01*
X83756407Y-135342800D01*
X83689368Y-135323115D01*
X83643613Y-135270311D01*
X83632411Y-135219797D01*
X83609005Y-132309604D01*
X83628150Y-132242409D01*
X83680584Y-132196231D01*
X83733001Y-132184607D01*
X84425868Y-132184607D01*
X84492907Y-132204292D01*
G37*
G04 #@! TD.AperFunction*
G04 #@! TA.AperFunction,Conductor*
G36*
X72867839Y-162173767D02*
G01*
X72913594Y-162226571D01*
X72924800Y-162278082D01*
X72924800Y-164112306D01*
X72905115Y-164179345D01*
X72852311Y-164225100D01*
X72800227Y-164236305D01*
X65523427Y-164202652D01*
X65456479Y-164182657D01*
X65410969Y-164129642D01*
X65400000Y-164078653D01*
X65400000Y-162278082D01*
X65419685Y-162211043D01*
X65472489Y-162165288D01*
X65524000Y-162154082D01*
X72800800Y-162154082D01*
X72867839Y-162173767D01*
G37*
G04 #@! TD.AperFunction*
G04 #@! TA.AperFunction,Conductor*
G36*
X67893039Y-95519685D02*
G01*
X67938794Y-95572489D01*
X67950000Y-95624000D01*
X67950000Y-97676000D01*
X67930315Y-97743039D01*
X67877511Y-97788794D01*
X67826000Y-97800000D01*
X67224000Y-97800000D01*
X67156961Y-97780315D01*
X67111206Y-97727511D01*
X67100000Y-97676000D01*
X67100000Y-97000000D01*
X65624000Y-97000000D01*
X65556961Y-96980315D01*
X65511206Y-96927511D01*
X65500000Y-96876000D01*
X65500000Y-95624000D01*
X65519685Y-95556961D01*
X65572489Y-95511206D01*
X65624000Y-95500000D01*
X67826000Y-95500000D01*
X67893039Y-95519685D01*
G37*
G04 #@! TD.AperFunction*
G04 #@! TA.AperFunction,Conductor*
G36*
X83393039Y-136319685D02*
G01*
X83438794Y-136372489D01*
X83450000Y-136424000D01*
X83450000Y-138748638D01*
X83441355Y-138778078D01*
X83434832Y-138808065D01*
X83431077Y-138813080D01*
X83430315Y-138815677D01*
X83413681Y-138836319D01*
X83311681Y-138938319D01*
X83250358Y-138971804D01*
X83180666Y-138966820D01*
X83124733Y-138924948D01*
X83100316Y-138859484D01*
X83100000Y-138850638D01*
X83100000Y-138650000D01*
X82336319Y-137886319D01*
X82302834Y-137824996D01*
X82300000Y-137798638D01*
X82300000Y-136424000D01*
X82319685Y-136356961D01*
X82372489Y-136311206D01*
X82424000Y-136300000D01*
X83326000Y-136300000D01*
X83393039Y-136319685D01*
G37*
G04 #@! TD.AperFunction*
G04 #@! TA.AperFunction,Conductor*
G36*
X75448439Y-136276885D02*
G01*
X75494194Y-136329689D01*
X75505400Y-136381200D01*
X75505400Y-136969941D01*
X75485715Y-137036980D01*
X75439418Y-137079531D01*
X74210000Y-137730400D01*
X73933816Y-138927200D01*
X73927381Y-138955083D01*
X73893126Y-139015979D01*
X73831385Y-139048689D01*
X73806556Y-139051200D01*
X73419600Y-139051200D01*
X73352561Y-139031515D01*
X73306806Y-138978711D01*
X73295600Y-138927200D01*
X73295600Y-138797201D01*
X73295600Y-138797200D01*
X73270061Y-138700152D01*
X73272036Y-138630312D01*
X73282589Y-138606600D01*
X73296221Y-138582989D01*
X73316700Y-138506562D01*
X73316700Y-138427438D01*
X73296221Y-138351011D01*
X73296217Y-138351004D01*
X73256664Y-138282495D01*
X73256658Y-138282487D01*
X73200710Y-138226539D01*
X73191100Y-138220991D01*
X73180282Y-138214745D01*
X73132068Y-138164181D01*
X73122370Y-138138927D01*
X73045683Y-137847515D01*
X73041600Y-137815958D01*
X73041600Y-136381200D01*
X73061285Y-136314161D01*
X73114089Y-136268406D01*
X73165600Y-136257200D01*
X75381400Y-136257200D01*
X75448439Y-136276885D01*
G37*
G04 #@! TD.AperFunction*
G04 #@! TA.AperFunction,Conductor*
G36*
X68095149Y-126929685D02*
G01*
X68140904Y-126982489D01*
X68152110Y-127034290D01*
X68139689Y-132348890D01*
X68119847Y-132415883D01*
X68066937Y-132461514D01*
X68015689Y-132472600D01*
X65313065Y-132472600D01*
X65246026Y-132452915D01*
X65200271Y-132400111D01*
X65189129Y-132352598D01*
X65187981Y-132317040D01*
X65168482Y-131712556D01*
X65178318Y-131660012D01*
X67167495Y-126985447D01*
X67211857Y-126931468D01*
X67278361Y-126910042D01*
X67281594Y-126910000D01*
X68028110Y-126910000D01*
X68095149Y-126929685D01*
G37*
G04 #@! TD.AperFunction*
G04 #@! TA.AperFunction,Conductor*
G36*
X72129865Y-160133563D02*
G01*
X72130360Y-160131717D01*
X72138210Y-160133820D01*
X72138211Y-160133821D01*
X72214638Y-160154300D01*
X72214640Y-160154300D01*
X72293760Y-160154300D01*
X72293762Y-160154300D01*
X72370189Y-160133821D01*
X72370191Y-160133819D01*
X72375900Y-160132290D01*
X72376189Y-160132105D01*
X72377058Y-160131979D01*
X72378040Y-160131717D01*
X72378071Y-160131834D01*
X72411124Y-160127082D01*
X72426000Y-160127082D01*
X72493039Y-160146767D01*
X72538794Y-160199571D01*
X72550000Y-160251082D01*
X72550000Y-161453082D01*
X72530315Y-161520121D01*
X72477511Y-161565876D01*
X72426000Y-161577082D01*
X71144302Y-161577082D01*
X71077263Y-161557397D01*
X71031508Y-161504593D01*
X71020302Y-161453082D01*
X71020302Y-160251082D01*
X71039987Y-160184043D01*
X71092791Y-160138288D01*
X71144302Y-160127082D01*
X72097276Y-160127082D01*
X72129865Y-160133563D01*
G37*
G04 #@! TD.AperFunction*
G04 #@! TA.AperFunction,Conductor*
G36*
X65840677Y-133370985D02*
G01*
X65861319Y-133387619D01*
X66188681Y-133714981D01*
X66222166Y-133776304D01*
X66225000Y-133802662D01*
X66225000Y-137127300D01*
X66205315Y-137194339D01*
X66152511Y-137240094D01*
X66101000Y-137251300D01*
X65225000Y-137251300D01*
X65224999Y-137251300D01*
X65202213Y-137260739D01*
X65200645Y-137256954D01*
X65180394Y-137267991D01*
X65167391Y-137270093D01*
X65141279Y-137272900D01*
X65141270Y-137272902D01*
X65110848Y-137282428D01*
X65049526Y-137315912D01*
X65030918Y-137329841D01*
X65030906Y-137329851D01*
X64803563Y-137557194D01*
X64803541Y-137557217D01*
X64797709Y-137563709D01*
X64781068Y-137584360D01*
X64780857Y-137584765D01*
X64780686Y-137584941D01*
X64777726Y-137589459D01*
X64776869Y-137588897D01*
X64732346Y-137635049D01*
X64670976Y-137651300D01*
X62649000Y-137651300D01*
X62581961Y-137631615D01*
X62536206Y-137578811D01*
X62525000Y-137527300D01*
X62525000Y-136241050D01*
X62544685Y-136174011D01*
X62597489Y-136128256D01*
X62666647Y-136118312D01*
X62730203Y-136147337D01*
X62756388Y-136179052D01*
X62759537Y-136184507D01*
X62759539Y-136184510D01*
X62759540Y-136184511D01*
X62815489Y-136240460D01*
X62815491Y-136240461D01*
X62815495Y-136240464D01*
X62884004Y-136280017D01*
X62884011Y-136280021D01*
X62960438Y-136300500D01*
X62960440Y-136300500D01*
X63039560Y-136300500D01*
X63039562Y-136300500D01*
X63115989Y-136280021D01*
X63184511Y-136240460D01*
X63240460Y-136184511D01*
X63280021Y-136115989D01*
X63300500Y-136039562D01*
X63300500Y-135960438D01*
X63280021Y-135884011D01*
X63280017Y-135884004D01*
X63240464Y-135815495D01*
X63240458Y-135815487D01*
X63184512Y-135759541D01*
X63184504Y-135759535D01*
X63115995Y-135719982D01*
X63115991Y-135719980D01*
X63115989Y-135719979D01*
X63115987Y-135719978D01*
X63115984Y-135719977D01*
X63039782Y-135699558D01*
X62980122Y-135663193D01*
X62949594Y-135600345D01*
X62957889Y-135530970D01*
X62984193Y-135492106D01*
X65088681Y-133387619D01*
X65150004Y-133354134D01*
X65176362Y-133351300D01*
X65773638Y-133351300D01*
X65840677Y-133370985D01*
G37*
G04 #@! TD.AperFunction*
G04 #@! TA.AperFunction,Conductor*
G36*
X70819484Y-124901985D02*
G01*
X70865239Y-124954789D01*
X70876390Y-125009997D01*
X70841408Y-126182775D01*
X70819733Y-126249198D01*
X70807523Y-126264314D01*
X70346801Y-126751115D01*
X70286423Y-126786274D01*
X70256462Y-126789879D01*
X67212977Y-126783030D01*
X67199600Y-126783000D01*
X67199599Y-126783000D01*
X66393747Y-126940321D01*
X66324178Y-126933846D01*
X66269153Y-126890787D01*
X66250215Y-126850716D01*
X66235021Y-126794011D01*
X66210255Y-126751115D01*
X66195464Y-126725495D01*
X66195458Y-126725487D01*
X66139512Y-126669541D01*
X66139504Y-126669535D01*
X66070995Y-126629982D01*
X66070990Y-126629979D01*
X66045513Y-126623152D01*
X65994562Y-126609500D01*
X65915438Y-126609500D01*
X65877224Y-126619739D01*
X65839009Y-126629979D01*
X65839004Y-126629982D01*
X65770495Y-126669535D01*
X65770487Y-126669541D01*
X65714541Y-126725487D01*
X65714535Y-126725495D01*
X65674982Y-126794004D01*
X65674979Y-126794009D01*
X65654500Y-126870439D01*
X65654500Y-126949567D01*
X65654509Y-126949598D01*
X65654508Y-126949624D01*
X65655561Y-126957619D01*
X65654313Y-126957783D01*
X65652839Y-127019448D01*
X65613671Y-127077307D01*
X65558490Y-127103383D01*
X64852700Y-127241169D01*
X64783131Y-127234694D01*
X64728106Y-127191635D01*
X64722775Y-127183361D01*
X64722258Y-127182687D01*
X64666312Y-127126741D01*
X64666304Y-127126735D01*
X64597795Y-127087182D01*
X64597790Y-127087179D01*
X64560947Y-127077307D01*
X64521362Y-127066700D01*
X64442238Y-127066700D01*
X64404024Y-127076939D01*
X64365809Y-127087179D01*
X64365804Y-127087182D01*
X64297295Y-127126735D01*
X64297287Y-127126741D01*
X64241341Y-127182687D01*
X64241335Y-127182695D01*
X64201782Y-127251204D01*
X64201778Y-127251213D01*
X64188723Y-127299932D01*
X64152357Y-127359592D01*
X64092708Y-127389539D01*
X59245040Y-128335919D01*
X59245039Y-128335918D01*
X59224221Y-128339982D01*
X59219957Y-128338216D01*
X59149661Y-128338216D01*
X59084716Y-128365117D01*
X59082105Y-128367727D01*
X59062915Y-128371474D01*
X58918254Y-128399715D01*
X58918253Y-128399717D01*
X58918932Y-128533729D01*
X58918933Y-128534831D01*
X58918736Y-128586400D01*
X58638445Y-128586400D01*
X58593965Y-127878068D01*
X58609409Y-127809928D01*
X58658661Y-127761266D01*
X61010219Y-126487506D01*
X61046608Y-126474628D01*
X66907880Y-125384927D01*
X66977383Y-125392026D01*
X67018221Y-125419157D01*
X67083269Y-125484205D01*
X67139025Y-125507300D01*
X67139026Y-125507300D01*
X69317574Y-125507300D01*
X69317575Y-125507300D01*
X69373331Y-125484205D01*
X69938917Y-124918619D01*
X70000240Y-124885134D01*
X70026598Y-124882300D01*
X70752445Y-124882300D01*
X70819484Y-124901985D01*
G37*
G04 #@! TD.AperFunction*
G04 #@! TA.AperFunction,Conductor*
G36*
X94664638Y-105149485D02*
G01*
X94710393Y-105202289D01*
X94721599Y-105253800D01*
X94721599Y-107405800D01*
X94701914Y-107472839D01*
X94649110Y-107518594D01*
X94597599Y-107529800D01*
X92645599Y-107529800D01*
X92578560Y-107510115D01*
X92532805Y-107457311D01*
X92521599Y-107405800D01*
X92521599Y-105253800D01*
X92541284Y-105186761D01*
X92594088Y-105141006D01*
X92645599Y-105129800D01*
X94597599Y-105129800D01*
X94664638Y-105149485D01*
G37*
G04 #@! TD.AperFunction*
G04 #@! TA.AperFunction,Conductor*
G36*
X95281039Y-131871885D02*
G01*
X95326794Y-131924689D01*
X95338000Y-131976200D01*
X95338000Y-132541000D01*
X95318315Y-132608039D01*
X95265511Y-132653794D01*
X95214000Y-132665000D01*
X94151688Y-132665000D01*
X94136767Y-132664099D01*
X93415079Y-132576621D01*
X93350895Y-132549012D01*
X93311827Y-132491086D01*
X93306000Y-132453522D01*
X93306000Y-132086298D01*
X93325685Y-132019259D01*
X93378489Y-131973504D01*
X93411953Y-131963618D01*
X94160631Y-131853519D01*
X94178672Y-131852200D01*
X95214000Y-131852200D01*
X95281039Y-131871885D01*
G37*
G04 #@! TD.AperFunction*
G04 #@! TA.AperFunction,Conductor*
G36*
X70851039Y-126929685D02*
G01*
X70896794Y-126982489D01*
X70908000Y-127034000D01*
X70908000Y-127802000D01*
X70888315Y-127869039D01*
X70835511Y-127914794D01*
X70784000Y-127926000D01*
X69000000Y-127926000D01*
X68932961Y-127906315D01*
X68887206Y-127853511D01*
X68876000Y-127802000D01*
X68876000Y-127034000D01*
X68895685Y-126966961D01*
X68948489Y-126921206D01*
X69000000Y-126910000D01*
X70784000Y-126910000D01*
X70851039Y-126929685D01*
G37*
G04 #@! TD.AperFunction*
G04 #@! TA.AperFunction,Conductor*
G36*
X64826838Y-138970985D02*
G01*
X64837599Y-138978743D01*
X64858059Y-138995231D01*
X64858060Y-138995231D01*
X64858062Y-138995233D01*
X64863010Y-138997820D01*
X64867973Y-139001536D01*
X64884856Y-139009246D01*
X64886313Y-139010008D01*
X64886317Y-139010009D01*
X64886552Y-139010132D01*
X64890685Y-139011908D01*
X64899567Y-139015965D01*
X64922376Y-139020926D01*
X64930960Y-139023117D01*
X64941974Y-139026351D01*
X64953344Y-139029690D01*
X64953351Y-139029691D01*
X64953355Y-139029692D01*
X64970674Y-139032182D01*
X64976362Y-139033000D01*
X66305371Y-139033000D01*
X66325981Y-139039051D01*
X66351421Y-139041868D01*
X66375000Y-139051300D01*
X67376000Y-139051300D01*
X67384685Y-139053850D01*
X67393647Y-139052562D01*
X67417687Y-139063540D01*
X67443039Y-139070985D01*
X67448966Y-139077825D01*
X67457203Y-139081587D01*
X67471492Y-139103821D01*
X67488794Y-139123789D01*
X67491081Y-139134303D01*
X67494977Y-139140365D01*
X67500000Y-139175300D01*
X67500000Y-139227300D01*
X67480315Y-139294339D01*
X67427511Y-139340094D01*
X67376000Y-139351300D01*
X66475000Y-139351300D01*
X66428280Y-139379331D01*
X66319266Y-139444739D01*
X66296473Y-139450675D01*
X66275221Y-139460826D01*
X66263289Y-139459319D01*
X66251653Y-139462350D01*
X66251472Y-139462345D01*
X65171499Y-139427508D01*
X64990740Y-139421677D01*
X64990737Y-139421677D01*
X64990733Y-139421677D01*
X64975638Y-139422592D01*
X64930467Y-139429566D01*
X64930464Y-139429566D01*
X64897905Y-139442899D01*
X64846494Y-139452067D01*
X64825000Y-139451299D01*
X64824999Y-139451300D01*
X64544259Y-139788189D01*
X64486220Y-139827088D01*
X64416363Y-139828434D01*
X64356868Y-139791798D01*
X64326625Y-139728814D01*
X64325000Y-139708806D01*
X64325000Y-139075300D01*
X64344685Y-139008261D01*
X64397489Y-138962506D01*
X64449000Y-138951300D01*
X64759799Y-138951300D01*
X64826838Y-138970985D01*
G37*
G04 #@! TD.AperFunction*
G04 #@! TA.AperFunction,Conductor*
G36*
X66475000Y-139551300D02*
G01*
X67452317Y-139551300D01*
X67519356Y-139570985D01*
X67565111Y-139623789D01*
X67576310Y-139673976D01*
X67604681Y-142331261D01*
X67585713Y-142398507D01*
X67533401Y-142444823D01*
X67482467Y-142456572D01*
X66749706Y-142467087D01*
X66747927Y-142467100D01*
X65100682Y-142467100D01*
X65096943Y-142467044D01*
X64695261Y-142454927D01*
X64628846Y-142433230D01*
X64584704Y-142379070D01*
X64575000Y-142330983D01*
X64575000Y-139993846D01*
X64594685Y-139926807D01*
X64601120Y-139917718D01*
X64829731Y-139623789D01*
X64886233Y-139551142D01*
X64942929Y-139510310D01*
X64988106Y-139503335D01*
X66475000Y-139551300D01*
G37*
G04 #@! TD.AperFunction*
G04 #@! TA.AperFunction,Conductor*
G36*
X73923039Y-90320185D02*
G01*
X73968794Y-90372989D01*
X73980000Y-90424500D01*
X73980000Y-92485328D01*
X73960315Y-92552367D01*
X73907511Y-92598122D01*
X73855330Y-92609326D01*
X72253330Y-92600666D01*
X72186398Y-92580620D01*
X72140929Y-92527569D01*
X72130000Y-92476668D01*
X72130000Y-90424500D01*
X72149685Y-90357461D01*
X72202489Y-90311706D01*
X72254000Y-90300500D01*
X73856000Y-90300500D01*
X73923039Y-90320185D01*
G37*
G04 #@! TD.AperFunction*
G04 #@! TA.AperFunction,Conductor*
G36*
X85710039Y-136200685D02*
G01*
X85755794Y-136253489D01*
X85767000Y-136305000D01*
X85767000Y-136875737D01*
X85747315Y-136942776D01*
X85694511Y-136988531D01*
X85678135Y-136994655D01*
X84649399Y-137298600D01*
X84452332Y-138288283D01*
X84445471Y-138311060D01*
X84319896Y-138617699D01*
X84318453Y-138621078D01*
X84182732Y-138926372D01*
X84170797Y-138940428D01*
X84163137Y-138957203D01*
X84148652Y-138966511D01*
X84137511Y-138979634D01*
X84119872Y-138985006D01*
X84104359Y-138994977D01*
X84071754Y-138999664D01*
X84070674Y-138999994D01*
X84069424Y-139000000D01*
X84001362Y-139000000D01*
X83934323Y-138980315D01*
X83913681Y-138963681D01*
X83786855Y-138836855D01*
X83753370Y-138775532D01*
X83750543Y-138747885D01*
X83774300Y-136469816D01*
X83794682Y-136402988D01*
X83847961Y-136357787D01*
X83879617Y-136348527D01*
X84970316Y-136182414D01*
X84988986Y-136181000D01*
X85643000Y-136181000D01*
X85710039Y-136200685D01*
G37*
G04 #@! TD.AperFunction*
G04 #@! TA.AperFunction,Conductor*
G36*
X71396996Y-90320185D02*
G01*
X71442751Y-90372989D01*
X71453943Y-90426332D01*
X71431805Y-91924325D01*
X71411132Y-91991067D01*
X71357658Y-92036036D01*
X71307819Y-92046493D01*
X69455846Y-92046493D01*
X69388807Y-92026808D01*
X69343052Y-91974004D01*
X69331860Y-91920661D01*
X69353998Y-90422668D01*
X69374671Y-90355926D01*
X69428145Y-90310957D01*
X69477984Y-90300500D01*
X71329957Y-90300500D01*
X71396996Y-90320185D01*
G37*
G04 #@! TD.AperFunction*
G04 #@! TA.AperFunction,Conductor*
G36*
X90945747Y-118913463D02*
G01*
X90991502Y-118966267D01*
X91002708Y-119017778D01*
X91002708Y-119177533D01*
X90983023Y-119244572D01*
X90972197Y-119258994D01*
X89699870Y-120719192D01*
X89475594Y-120976584D01*
X89087534Y-121543631D01*
X89033428Y-121587838D01*
X88985203Y-121597600D01*
X88336400Y-121597600D01*
X88269361Y-121577915D01*
X88223606Y-121525111D01*
X88212400Y-121473600D01*
X88212400Y-120749266D01*
X88216102Y-120719192D01*
X88527933Y-119471865D01*
X88563289Y-119411604D01*
X88597855Y-119388635D01*
X89686949Y-118904469D01*
X89737321Y-118893778D01*
X90878708Y-118893778D01*
X90945747Y-118913463D01*
G37*
G04 #@! TD.AperFunction*
G04 #@! TA.AperFunction,Conductor*
G36*
X66799600Y-134513300D02*
G01*
X67662556Y-134513300D01*
X67680207Y-134518483D01*
X67698608Y-134518656D01*
X67728585Y-134532688D01*
X67729595Y-134532985D01*
X67730573Y-134533619D01*
X67928525Y-134663480D01*
X67948189Y-134679480D01*
X68186046Y-134917337D01*
X68219531Y-134978660D01*
X68222365Y-135005213D01*
X68218651Y-137368002D01*
X68202615Y-137428796D01*
X67625000Y-138451298D01*
X67625000Y-138827300D01*
X67605315Y-138894339D01*
X67552511Y-138940094D01*
X67501000Y-138951300D01*
X64976362Y-138951300D01*
X64946921Y-138942655D01*
X64916935Y-138936132D01*
X64911919Y-138932377D01*
X64909323Y-138931615D01*
X64888681Y-138914981D01*
X64861319Y-138887619D01*
X64827834Y-138826296D01*
X64825000Y-138799938D01*
X64825000Y-137702662D01*
X64844685Y-137635623D01*
X64861319Y-137614981D01*
X65088681Y-137387619D01*
X65150004Y-137354134D01*
X65176362Y-137351300D01*
X66324999Y-137351300D01*
X66325000Y-137351300D01*
X66342200Y-134627434D01*
X66362308Y-134560522D01*
X66415400Y-134515102D01*
X66469588Y-134504265D01*
X66799600Y-134513300D01*
G37*
G04 #@! TD.AperFunction*
G04 #@! TA.AperFunction,Conductor*
G36*
X78343039Y-140319685D02*
G01*
X78388794Y-140372489D01*
X78400000Y-140424000D01*
X78400000Y-140976000D01*
X78380315Y-141043039D01*
X78327511Y-141088794D01*
X78276000Y-141100000D01*
X77424000Y-141100000D01*
X77356961Y-141080315D01*
X77311206Y-141027511D01*
X77300000Y-140976000D01*
X77300000Y-140424000D01*
X77319685Y-140356961D01*
X77372489Y-140311206D01*
X77424000Y-140300000D01*
X78276000Y-140300000D01*
X78343039Y-140319685D01*
G37*
G04 #@! TD.AperFunction*
M02*
