G04 #@! TF.GenerationSoftware,KiCad,Pcbnew,9.0.5*
G04 #@! TF.CreationDate,2026-02-03T11:17:28+09:00*
G04 #@! TF.ProjectId,leafony-stm32n6,6c656166-6f6e-4792-9d73-746d33326e36,v1.0*
G04 #@! TF.SameCoordinates,Original*
G04 #@! TF.FileFunction,Soldermask,Top*
G04 #@! TF.FilePolarity,Negative*
%FSLAX46Y46*%
G04 Gerber Fmt 4.6, Leading zero omitted, Abs format (unit mm)*
G04 Created by KiCad (PCBNEW 9.0.5) date 2026-02-03 11:17:28*
%MOMM*%
%LPD*%
G01*
G04 APERTURE LIST*
G04 Aperture macros list*
%AMRoundRect*
0 Rectangle with rounded corners*
0 $1 Rounding radius*
0 $2 $3 $4 $5 $6 $7 $8 $9 X,Y pos of 4 corners*
0 Add a 4 corners polygon primitive as box body*
4,1,4,$2,$3,$4,$5,$6,$7,$8,$9,$2,$3,0*
0 Add four circle primitives for the rounded corners*
1,1,$1+$1,$2,$3*
1,1,$1+$1,$4,$5*
1,1,$1+$1,$6,$7*
1,1,$1+$1,$8,$9*
0 Add four rect primitives between the rounded corners*
20,1,$1+$1,$2,$3,$4,$5,0*
20,1,$1+$1,$4,$5,$6,$7,0*
20,1,$1+$1,$6,$7,$8,$9,0*
20,1,$1+$1,$8,$9,$2,$3,0*%
%AMFreePoly0*
4,1,43,0.052099,0.920729,0.127746,0.900460,0.139805,0.895465,0.207628,0.856307,0.217983,0.848361,0.273361,0.792983,0.281307,0.782628,0.320465,0.714805,0.325460,0.702746,0.345729,0.627099,0.347433,0.614158,0.347433,0.535842,0.345729,0.522901,0.325460,0.447254,0.320465,0.435195,0.281307,0.367372,0.275000,0.359152,0.275000,-0.575000,0.260355,-0.610355,0.225000,-0.625000,
-0.225000,-0.625000,-0.260355,-0.610355,-0.275000,-0.575000,-0.275000,0.359152,-0.281307,0.367372,-0.320465,0.435195,-0.325460,0.447254,-0.345729,0.522901,-0.347433,0.535842,-0.347433,0.614158,-0.345729,0.627099,-0.325460,0.702746,-0.320465,0.714805,-0.281307,0.782628,-0.273361,0.792983,-0.217983,0.848361,-0.207628,0.856307,-0.139805,0.895465,-0.127746,0.900460,-0.052099,0.920729,
-0.039158,0.922433,0.039158,0.922433,0.052099,0.920729,0.052099,0.920729,$1*%
G04 Aperture macros list end*
%ADD10C,0.010000*%
%ADD11C,0.000000*%
%ADD12RoundRect,0.175000X-0.650000X0.175000X-0.650000X-0.175000X0.650000X-0.175000X0.650000X0.175000X0*%
%ADD13RoundRect,0.270833X-0.679167X0.379167X-0.679167X-0.379167X0.679167X-0.379167X0.679167X0.379167X0*%
%ADD14RoundRect,0.050000X0.350000X-0.100000X0.350000X0.100000X-0.350000X0.100000X-0.350000X-0.100000X0*%
%ADD15RoundRect,0.225000X-0.300000X0.225000X-0.300000X-0.225000X0.300000X-0.225000X0.300000X0.225000X0*%
%ADD16RoundRect,0.160000X-0.210000X0.160000X-0.210000X-0.160000X0.210000X-0.160000X0.210000X0.160000X0*%
%ADD17RoundRect,0.165000X0.165000X0.195000X-0.165000X0.195000X-0.165000X-0.195000X0.165000X-0.195000X0*%
%ADD18RoundRect,0.160000X0.210000X-0.160000X0.210000X0.160000X-0.210000X0.160000X-0.210000X-0.160000X0*%
%ADD19RoundRect,0.250000X-0.250000X-0.275000X0.250000X-0.275000X0.250000X0.275000X-0.250000X0.275000X0*%
%ADD20C,4.500000*%
%ADD21RoundRect,0.160000X-0.160000X-0.210000X0.160000X-0.210000X0.160000X0.210000X-0.160000X0.210000X0*%
%ADD22RoundRect,0.050000X0.101600X0.165100X-0.101600X0.165100X-0.101600X-0.165100X0.101600X-0.165100X0*%
%ADD23RoundRect,0.175000X-0.175000X-0.225000X0.175000X-0.225000X0.175000X0.225000X-0.175000X0.225000X0*%
%ADD24RoundRect,0.225000X-0.225000X-0.300000X0.225000X-0.300000X0.225000X0.300000X-0.225000X0.300000X0*%
%ADD25RoundRect,0.050000X0.299999X0.124999X-0.299999X0.124999X-0.299999X-0.124999X0.299999X-0.124999X0*%
%ADD26RoundRect,0.050000X0.550000X0.149999X-0.550000X0.149999X-0.550000X-0.149999X0.550000X-0.149999X0*%
%ADD27RoundRect,0.165000X-0.165000X-0.195000X0.165000X-0.195000X0.165000X0.195000X-0.165000X0.195000X0*%
%ADD28C,0.574000*%
%ADD29RoundRect,0.160000X0.160000X0.210000X-0.160000X0.210000X-0.160000X-0.210000X0.160000X-0.210000X0*%
%ADD30RoundRect,0.225000X0.300000X-0.225000X0.300000X0.225000X-0.300000X0.225000X-0.300000X-0.225000X0*%
%ADD31RoundRect,0.050000X0.241300X-0.584200X0.241300X0.584200X-0.241300X0.584200X-0.241300X-0.584200X0*%
%ADD32RoundRect,0.250000X-0.275000X0.250000X-0.275000X-0.250000X0.275000X-0.250000X0.275000X0.250000X0*%
%ADD33RoundRect,0.243750X-0.243750X-0.281250X0.243750X-0.281250X0.243750X0.281250X-0.243750X0.281250X0*%
%ADD34C,1.100000*%
%ADD35RoundRect,0.050000X0.300000X0.400000X-0.300000X0.400000X-0.300000X-0.400000X0.300000X-0.400000X0*%
%ADD36RoundRect,0.050000X-0.375000X-0.325000X0.375000X-0.325000X0.375000X0.325000X-0.375000X0.325000X0*%
%ADD37RoundRect,0.102000X-0.625000X0.500000X-0.625000X-0.500000X0.625000X-0.500000X0.625000X0.500000X0*%
%ADD38C,0.240000*%
%ADD39RoundRect,0.250000X0.250000X0.275000X-0.250000X0.275000X-0.250000X-0.275000X0.250000X-0.275000X0*%
%ADD40C,1.039800*%
%ADD41RoundRect,0.050000X0.749300X-0.355600X0.749300X0.355600X-0.749300X0.355600X-0.749300X-0.355600X0*%
%ADD42RoundRect,0.050000X0.406400X-0.495300X0.406400X0.495300X-0.406400X0.495300X-0.406400X-0.495300X0*%
%ADD43RoundRect,0.050000X-0.299999X-0.124999X0.299999X-0.124999X0.299999X0.124999X-0.299999X0.124999X0*%
%ADD44RoundRect,0.050000X-0.550000X-0.149999X0.550000X-0.149999X0.550000X0.149999X-0.550000X0.149999X0*%
%ADD45C,2.590000*%
%ADD46RoundRect,0.050000X-0.450000X-0.725000X0.450000X-0.725000X0.450000X0.725000X-0.450000X0.725000X0*%
%ADD47FreePoly0,0.000000*%
%ADD48FreePoly0,180.000000*%
%ADD49RoundRect,0.250000X0.275000X-0.250000X0.275000X0.250000X-0.275000X0.250000X-0.275000X-0.250000X0*%
%ADD50RoundRect,0.050000X0.500000X-0.700000X0.500000X0.700000X-0.500000X0.700000X-0.500000X-0.700000X0*%
%ADD51RoundRect,0.050000X-0.350000X0.100000X-0.350000X-0.100000X0.350000X-0.100000X0.350000X0.100000X0*%
%ADD52RoundRect,0.050000X-0.292100X0.177800X-0.292100X-0.177800X0.292100X-0.177800X0.292100X0.177800X0*%
%ADD53RoundRect,0.243750X0.243750X0.281250X-0.243750X0.281250X-0.243750X-0.281250X0.243750X-0.281250X0*%
%ADD54C,0.354000*%
%ADD55RoundRect,0.050000X-0.340000X0.100000X-0.340000X-0.100000X0.340000X-0.100000X0.340000X0.100000X0*%
%ADD56RoundRect,0.050000X0.100000X0.340000X-0.100000X0.340000X-0.100000X-0.340000X0.100000X-0.340000X0*%
%ADD57RoundRect,0.102000X-0.450000X0.150000X-0.450000X-0.150000X0.450000X-0.150000X0.450000X0.150000X0*%
%ADD58O,2.804000X1.504000*%
%ADD59O,2.654000X1.429000*%
%ADD60RoundRect,0.050000X-0.901700X0.584200X-0.901700X-0.584200X0.901700X-0.584200X0.901700X0.584200X0*%
%ADD61RoundRect,0.165000X-0.195000X0.165000X-0.195000X-0.165000X0.195000X-0.165000X0.195000X0.165000X0*%
%ADD62RoundRect,0.125000X-0.155000X-0.125000X0.155000X-0.125000X0.155000X0.125000X-0.155000X0.125000X0*%
%ADD63RoundRect,0.050000X0.901700X-0.584200X0.901700X0.584200X-0.901700X0.584200X-0.901700X-0.584200X0*%
%ADD64C,1.120000*%
%ADD65RoundRect,0.102000X-1.364999X0.369999X-1.364999X-0.369999X1.364999X-0.369999X1.364999X0.369999X0*%
%ADD66RoundRect,0.102000X-1.364998X0.369998X-1.364998X-0.369998X1.364998X-0.369998X1.364998X0.369998X0*%
%ADD67RoundRect,0.102000X-1.365000X0.370000X-1.365000X-0.370000X1.365000X-0.370000X1.365000X0.370000X0*%
%ADD68RoundRect,0.102000X-1.395000X0.370000X-1.395000X-0.370000X1.395000X-0.370000X1.395000X0.370000X0*%
%ADD69RoundRect,0.050000X-0.114300X0.127000X-0.114300X-0.127000X0.114300X-0.127000X0.114300X0.127000X0*%
%ADD70RoundRect,0.050000X-0.698500X0.165100X-0.698500X-0.165100X0.698500X-0.165100X0.698500X0.165100X0*%
%ADD71RoundRect,0.125000X0.155000X0.125000X-0.155000X0.125000X-0.155000X-0.125000X0.155000X-0.125000X0*%
%ADD72RoundRect,0.050000X0.647700X-0.152400X0.647700X0.152400X-0.647700X0.152400X-0.647700X-0.152400X0*%
%ADD73RoundRect,0.050000X1.104900X-0.901700X1.104900X0.901700X-1.104900X0.901700X-1.104900X-0.901700X0*%
%ADD74RoundRect,0.125000X-0.125000X0.155000X-0.125000X-0.155000X0.125000X-0.155000X0.125000X0.155000X0*%
%ADD75RoundRect,0.050000X0.400000X-0.300000X0.400000X0.300000X-0.400000X0.300000X-0.400000X-0.300000X0*%
G04 APERTURE END LIST*
D10*
X68200000Y-145800000D02*
X81800000Y-145800000D01*
X81800000Y-149200000D01*
X68200000Y-149200000D01*
X68200000Y-145800000D01*
G36*
X68200000Y-145800000D02*
G01*
X81800000Y-145800000D01*
X81800000Y-149200000D01*
X68200000Y-149200000D01*
X68200000Y-145800000D01*
G37*
X78475000Y-139569291D02*
X78475000Y-139790000D01*
X78075000Y-139790000D01*
X78075000Y-139360000D01*
X78265709Y-139360000D01*
X78475000Y-139569291D01*
G36*
X78475000Y-139569291D02*
G01*
X78475000Y-139790000D01*
X78075000Y-139790000D01*
X78075000Y-139360000D01*
X78265709Y-139360000D01*
X78475000Y-139569291D01*
G37*
X79066691Y-139200000D02*
X78600000Y-139666691D01*
X78133309Y-139200000D01*
X78508581Y-138824731D01*
X78691419Y-138824731D01*
X79066691Y-139200000D01*
G36*
X79066691Y-139200000D02*
G01*
X78600000Y-139666691D01*
X78133309Y-139200000D01*
X78508581Y-138824731D01*
X78691419Y-138824731D01*
X79066691Y-139200000D01*
G37*
X78475000Y-138830709D02*
X78265709Y-139040000D01*
X78075000Y-139040000D01*
X78075000Y-138610000D01*
X78475000Y-138610000D01*
X78475000Y-138830709D01*
G36*
X78475000Y-138830709D02*
G01*
X78265709Y-139040000D01*
X78075000Y-139040000D01*
X78075000Y-138610000D01*
X78475000Y-138610000D01*
X78475000Y-138830709D01*
G37*
X79125000Y-139040000D02*
X78934291Y-139040000D01*
X78725000Y-138830709D01*
X78725000Y-138610000D01*
X79125000Y-138610000D01*
X79125000Y-139040000D01*
G36*
X79125000Y-139040000D02*
G01*
X78934291Y-139040000D01*
X78725000Y-138830709D01*
X78725000Y-138610000D01*
X79125000Y-138610000D01*
X79125000Y-139040000D01*
G37*
X79125000Y-139790000D02*
X78725000Y-139790000D01*
X78725000Y-139569291D01*
X78934291Y-139360000D01*
X79125000Y-139360000D01*
X79125000Y-139790000D01*
G36*
X79125000Y-139790000D02*
G01*
X78725000Y-139790000D01*
X78725000Y-139569291D01*
X78934291Y-139360000D01*
X79125000Y-139360000D01*
X79125000Y-139790000D01*
G37*
X83475000Y-139569291D02*
X83475000Y-139790000D01*
X83075000Y-139790000D01*
X83075000Y-139360000D01*
X83265709Y-139360000D01*
X83475000Y-139569291D01*
G36*
X83475000Y-139569291D02*
G01*
X83475000Y-139790000D01*
X83075000Y-139790000D01*
X83075000Y-139360000D01*
X83265709Y-139360000D01*
X83475000Y-139569291D01*
G37*
X84066691Y-139200000D02*
X83600000Y-139666691D01*
X83133309Y-139200000D01*
X83508581Y-138824731D01*
X83691419Y-138824731D01*
X84066691Y-139200000D01*
G36*
X84066691Y-139200000D02*
G01*
X83600000Y-139666691D01*
X83133309Y-139200000D01*
X83508581Y-138824731D01*
X83691419Y-138824731D01*
X84066691Y-139200000D01*
G37*
X83475000Y-138830709D02*
X83265709Y-139040000D01*
X83075000Y-139040000D01*
X83075000Y-138610000D01*
X83475000Y-138610000D01*
X83475000Y-138830709D01*
G36*
X83475000Y-138830709D02*
G01*
X83265709Y-139040000D01*
X83075000Y-139040000D01*
X83075000Y-138610000D01*
X83475000Y-138610000D01*
X83475000Y-138830709D01*
G37*
X84125000Y-139040000D02*
X83934291Y-139040000D01*
X83725000Y-138830709D01*
X83725000Y-138610000D01*
X84125000Y-138610000D01*
X84125000Y-139040000D01*
G36*
X84125000Y-139040000D02*
G01*
X83934291Y-139040000D01*
X83725000Y-138830709D01*
X83725000Y-138610000D01*
X84125000Y-138610000D01*
X84125000Y-139040000D01*
G37*
X84125000Y-139790000D02*
X83725000Y-139790000D01*
X83725000Y-139569291D01*
X83934291Y-139360000D01*
X84125000Y-139360000D01*
X84125000Y-139790000D01*
G36*
X84125000Y-139790000D02*
G01*
X83725000Y-139790000D01*
X83725000Y-139569291D01*
X83934291Y-139360000D01*
X84125000Y-139360000D01*
X84125000Y-139790000D01*
G37*
D11*
G36*
X89717000Y-125879001D02*
G01*
X88936999Y-125879001D01*
X88936999Y-125578999D01*
X89717000Y-125578999D01*
X89717000Y-125879001D01*
G37*
G36*
X89717000Y-126279000D02*
G01*
X88936999Y-126279000D01*
X88936999Y-125979001D01*
X89717000Y-125979001D01*
X89717000Y-126279000D01*
G37*
G36*
X89717000Y-126679000D02*
G01*
X88936999Y-126679000D01*
X88936999Y-126379000D01*
X89717000Y-126379000D01*
X89717000Y-126679000D01*
G37*
G36*
X89717000Y-127078999D02*
G01*
X88936999Y-127078999D01*
X88936999Y-126779000D01*
X89717000Y-126779000D01*
X89717000Y-127078999D01*
G37*
G36*
X89717000Y-127479001D02*
G01*
X88936999Y-127479001D01*
X88936999Y-127178999D01*
X89717000Y-127178999D01*
X89717000Y-127479001D01*
G37*
G36*
X90111937Y-126034000D02*
G01*
X89811937Y-126034000D01*
X89811937Y-125253999D01*
X90111937Y-125253999D01*
X90111937Y-126034000D01*
G37*
G36*
X90111937Y-127804001D02*
G01*
X89811937Y-127804001D01*
X89811937Y-127024000D01*
X90111937Y-127024000D01*
X90111937Y-127804001D01*
G37*
G36*
X90612063Y-126034000D02*
G01*
X90312063Y-126034000D01*
X90312063Y-125253999D01*
X90612063Y-125253999D01*
X90612063Y-126034000D01*
G37*
G36*
X90612063Y-127804001D02*
G01*
X90312063Y-127804001D01*
X90312063Y-127024000D01*
X90612063Y-127024000D01*
X90612063Y-127804001D01*
G37*
G36*
X91487001Y-125879001D02*
G01*
X90707000Y-125879001D01*
X90707000Y-125578999D01*
X91487001Y-125578999D01*
X91487001Y-125879001D01*
G37*
G36*
X91487001Y-126279000D02*
G01*
X90707000Y-126279000D01*
X90707000Y-125979001D01*
X91487001Y-125979001D01*
X91487001Y-126279000D01*
G37*
G36*
X91487001Y-126679000D02*
G01*
X90707000Y-126679000D01*
X90707000Y-126379000D01*
X91487001Y-126379000D01*
X91487001Y-126679000D01*
G37*
G36*
X91487001Y-127078999D02*
G01*
X90707000Y-127078999D01*
X90707000Y-126779000D01*
X91487001Y-126779000D01*
X91487001Y-127078999D01*
G37*
G36*
X91487001Y-127479001D02*
G01*
X90707000Y-127479001D01*
X90707000Y-127178999D01*
X91487001Y-127178999D01*
X91487001Y-127479001D01*
G37*
D12*
X93055000Y-131270000D03*
X93055000Y-132270000D03*
X93055000Y-133270000D03*
X93055000Y-134270000D03*
X93055000Y-135270000D03*
X93055000Y-136270000D03*
D13*
X95580000Y-129970000D03*
X95580000Y-137570000D03*
D14*
X88497100Y-108434000D03*
X88497100Y-108034000D03*
X88497100Y-107634000D03*
X87447100Y-107634000D03*
X87447100Y-108034000D03*
X87447100Y-108434000D03*
D15*
X61230600Y-128511200D03*
X61230600Y-130161200D03*
D16*
X79570198Y-152607918D03*
X79570198Y-153627918D03*
D17*
X88816800Y-119772909D03*
X87856800Y-119772909D03*
D18*
X90168200Y-134352400D03*
X90168200Y-133332400D03*
D19*
X65725000Y-136700000D03*
X67275000Y-136700000D03*
D20*
X94038737Y-141484913D03*
D21*
X67603000Y-116784200D03*
X68623000Y-116784200D03*
D19*
X65725000Y-135200000D03*
X67275000Y-135200000D03*
D22*
X88815600Y-117163486D03*
X88415600Y-117163486D03*
D23*
X85612000Y-124929000D03*
X84212000Y-124929000D03*
D24*
X63034000Y-98055600D03*
X64684000Y-98055600D03*
D25*
X68150001Y-139699999D03*
X68150001Y-139200000D03*
X68150001Y-138700001D03*
D26*
X67050001Y-138700001D03*
X67050001Y-139200000D03*
X67050001Y-139699999D03*
D27*
X67430800Y-124674800D03*
X68390800Y-124674800D03*
D17*
X66171600Y-114631200D03*
X65211600Y-114631200D03*
D22*
X88822000Y-114391257D03*
X88422000Y-114391257D03*
D18*
X67148800Y-113477400D03*
X67148800Y-112457400D03*
D28*
X70981400Y-95192000D03*
X71981400Y-95192000D03*
X72981400Y-95192000D03*
X73981400Y-95192000D03*
X69981400Y-96192000D03*
X70981400Y-96192000D03*
X71981400Y-96192000D03*
X72981400Y-96192000D03*
X73981400Y-96192000D03*
X69981400Y-97192000D03*
X70981400Y-97192000D03*
X71981400Y-97192000D03*
X72981400Y-97192000D03*
X73981400Y-97192000D03*
X69981400Y-98192000D03*
X70981400Y-98192000D03*
X71981400Y-98192000D03*
X72981400Y-98192000D03*
X73981400Y-98192000D03*
X69981400Y-99192000D03*
X70981400Y-99192000D03*
X71981400Y-99192000D03*
X72981400Y-99192000D03*
X73981400Y-99192000D03*
D18*
X78433400Y-153631000D03*
X78433400Y-152611000D03*
D29*
X93332000Y-123529000D03*
X92312000Y-123529000D03*
D30*
X78782000Y-104480800D03*
X78782000Y-102830800D03*
D31*
X91750000Y-99617600D03*
X91750000Y-97382400D03*
D32*
X56736200Y-122604800D03*
X56736200Y-124154800D03*
D30*
X65345400Y-133716200D03*
X65345400Y-132066200D03*
D21*
X69432800Y-121880800D03*
X70452800Y-121880800D03*
D22*
X87520200Y-116470429D03*
X87120200Y-116470429D03*
D18*
X68241000Y-113477400D03*
X68241000Y-112457400D03*
D21*
X86692000Y-125129000D03*
X87712000Y-125129000D03*
X79770600Y-122033200D03*
X80790600Y-122033200D03*
D29*
X80788600Y-123404800D03*
X79768600Y-123404800D03*
D33*
X67707500Y-127418000D03*
X69282500Y-127418000D03*
D34*
X57674600Y-133488600D03*
D35*
X78255600Y-163736200D03*
X76755600Y-163736200D03*
D27*
X67430800Y-120356800D03*
X68390800Y-120356800D03*
D34*
X68000000Y-132200000D03*
D20*
X55999999Y-141489049D03*
D16*
X64964400Y-112457400D03*
X64964400Y-113477400D03*
D36*
X65065000Y-116606400D03*
X66115000Y-116606400D03*
X66115000Y-115856400D03*
X65065000Y-115856400D03*
D37*
X67910800Y-121765800D03*
X67910800Y-123265800D03*
D34*
X63000000Y-125000000D03*
D38*
X58834809Y-128514916D03*
X59184809Y-128514916D03*
X58834809Y-128864916D03*
X59184809Y-128864916D03*
D39*
X56786200Y-127379800D03*
X55236200Y-127379800D03*
D22*
X88815000Y-115777371D03*
X88415000Y-115777371D03*
D16*
X66056600Y-112457400D03*
X66056600Y-113477400D03*
D40*
X83030000Y-155940000D03*
X83030000Y-152940000D03*
D41*
X81284600Y-156690003D03*
X81284600Y-153690000D03*
X81284600Y-152190000D03*
D42*
X81984601Y-158090000D03*
X84084599Y-158089980D03*
X84084599Y-150790020D03*
X81984601Y-150790000D03*
D34*
X79100000Y-132200000D03*
D43*
X54236200Y-122879802D03*
X54236200Y-123379801D03*
X54236200Y-123879800D03*
D44*
X55336200Y-123879800D03*
X55336200Y-123379801D03*
X55336200Y-122879802D03*
D22*
X87501200Y-113698200D03*
X87101200Y-113698200D03*
X87520200Y-115084314D03*
X87120200Y-115084314D03*
D45*
X66750000Y-147500000D03*
X83250000Y-147500000D03*
D46*
X68925000Y-148475000D03*
D47*
X68700000Y-146675000D03*
D48*
X70050000Y-148325000D03*
D47*
X69600000Y-146675000D03*
D48*
X70950000Y-148325000D03*
D47*
X70500000Y-146675000D03*
D48*
X71850000Y-148325000D03*
D47*
X71400000Y-146675000D03*
D48*
X72750000Y-148325000D03*
D47*
X72300000Y-146675000D03*
D48*
X73650000Y-148325000D03*
D47*
X73200000Y-146675000D03*
D48*
X74550000Y-148325000D03*
D47*
X74100000Y-146675000D03*
D48*
X75450000Y-148325000D03*
D47*
X75000000Y-146675000D03*
D48*
X76350000Y-148325000D03*
D47*
X75900000Y-146675000D03*
D48*
X77250000Y-148325000D03*
D47*
X76800000Y-146675000D03*
D48*
X78150000Y-148325000D03*
D47*
X77700000Y-146675000D03*
D48*
X79050000Y-148325000D03*
D47*
X78600000Y-146675000D03*
D48*
X79950000Y-148325000D03*
D47*
X79500000Y-146675000D03*
D46*
X81075000Y-148475000D03*
D47*
X80400000Y-146675000D03*
X81300000Y-146675000D03*
D24*
X86957600Y-121122376D03*
X88607600Y-121122376D03*
D28*
X83363400Y-95166600D03*
X84363400Y-95166600D03*
X85363400Y-95166600D03*
X86363400Y-95166600D03*
X82363400Y-96166600D03*
X83363400Y-96166600D03*
X84363400Y-96166600D03*
X85363400Y-96166600D03*
X86363400Y-96166600D03*
X82363400Y-97166600D03*
X83363400Y-97166600D03*
X84363400Y-97166600D03*
X85363400Y-97166600D03*
X86363400Y-97166600D03*
X82363400Y-98166600D03*
X83363400Y-98166600D03*
X84363400Y-98166600D03*
X85363400Y-98166600D03*
X86363400Y-98166600D03*
X82363400Y-99166600D03*
X83363400Y-99166600D03*
X84363400Y-99166600D03*
X85363400Y-99166600D03*
X86363400Y-99166600D03*
D27*
X58439609Y-130584116D03*
X59399609Y-130584116D03*
D49*
X65500000Y-139975000D03*
X65500000Y-138425000D03*
D21*
X67603000Y-115683200D03*
X68623000Y-115683200D03*
D34*
X61205200Y-133158400D03*
D50*
X82700000Y-163500000D03*
X84100000Y-163500000D03*
X84100000Y-159900000D03*
X82700000Y-159900000D03*
D17*
X79080000Y-140700000D03*
X78120000Y-140700000D03*
D51*
X75922000Y-156718482D03*
X75922000Y-157118482D03*
X75922000Y-157518482D03*
X76972000Y-157518482D03*
X76972000Y-157118482D03*
X76972000Y-156718482D03*
D14*
X88497100Y-112599600D03*
X88497100Y-112199600D03*
X88497100Y-111799600D03*
X87447100Y-111799600D03*
X87447100Y-112199600D03*
X87447100Y-112599600D03*
D30*
X75022800Y-136662600D03*
X75022800Y-135012600D03*
D17*
X84080000Y-137700000D03*
X83120000Y-137700000D03*
D39*
X56786200Y-125879800D03*
X55236200Y-125879800D03*
D52*
X89688000Y-123029001D03*
X89688000Y-124028999D03*
X91212000Y-123529000D03*
D22*
X87520200Y-117856543D03*
X87120200Y-117856543D03*
D27*
X65142200Y-117791400D03*
X66102200Y-117791400D03*
D53*
X69282500Y-129069000D03*
X67707500Y-129069000D03*
D17*
X84080000Y-140700000D03*
X83120000Y-140700000D03*
D54*
X70500000Y-119500000D03*
X70500000Y-119000000D03*
X70500000Y-118500000D03*
X70500000Y-118000000D03*
X70500000Y-117500000D03*
X70500000Y-117000000D03*
X70500000Y-116500000D03*
X70500000Y-116000000D03*
X70500000Y-115500000D03*
X70500000Y-115000000D03*
X70500000Y-114500000D03*
X70500000Y-114000000D03*
X70500000Y-113500000D03*
X70500000Y-113000000D03*
X70500000Y-112500000D03*
X70500000Y-112000000D03*
X70500000Y-111500000D03*
X70500000Y-111000000D03*
X70500000Y-110500000D03*
X71000000Y-119500000D03*
X71000000Y-119000000D03*
X71000000Y-118500000D03*
X71000000Y-118000000D03*
X71000000Y-117500000D03*
X71000000Y-117000000D03*
X71000000Y-116500000D03*
X71000000Y-116000000D03*
X71000000Y-115500000D03*
X71000000Y-115000000D03*
X71000000Y-114500000D03*
X71000000Y-114000000D03*
X71000000Y-113500000D03*
X71000000Y-113000000D03*
X71000000Y-112500000D03*
X71000000Y-112000000D03*
X71000000Y-111500000D03*
X71000000Y-111000000D03*
X71000000Y-110500000D03*
X71500000Y-119500000D03*
X71500000Y-119000000D03*
X71500000Y-118500000D03*
X71500000Y-111500000D03*
X71500000Y-111000000D03*
X71500000Y-110500000D03*
X72000000Y-119500000D03*
X72000000Y-119000000D03*
X72000000Y-118000000D03*
X72000000Y-117500000D03*
X72000000Y-117000000D03*
X72000000Y-116500000D03*
X72000000Y-116000000D03*
X72000000Y-115500000D03*
X72000000Y-115000000D03*
X72000000Y-114500000D03*
X72000000Y-114000000D03*
X72000000Y-113500000D03*
X72000000Y-113000000D03*
X72000000Y-112500000D03*
X72000000Y-112000000D03*
X72000000Y-111000000D03*
X72000000Y-110500000D03*
X72500000Y-119500000D03*
X72500000Y-119000000D03*
X72500000Y-118000000D03*
X72500000Y-112000000D03*
X72500000Y-111000000D03*
X72500000Y-110500000D03*
X73000000Y-119500000D03*
X73000000Y-119000000D03*
X73000000Y-118000000D03*
X73000000Y-117000000D03*
X73000000Y-116500000D03*
X73000000Y-116000000D03*
X73000000Y-115500000D03*
X73000000Y-115000000D03*
X73000000Y-114500000D03*
X73000000Y-114000000D03*
X73000000Y-113500000D03*
X73000000Y-113000000D03*
X73000000Y-112000000D03*
X73000000Y-111000000D03*
X73000000Y-110500000D03*
X73500000Y-119500000D03*
X73500000Y-119000000D03*
X73500000Y-118000000D03*
X73500000Y-117000000D03*
X73500000Y-113000000D03*
X73500000Y-112000000D03*
X73500000Y-111000000D03*
X73500000Y-110500000D03*
X74000000Y-119500000D03*
X74000000Y-119000000D03*
X74000000Y-118000000D03*
X74000000Y-117000000D03*
X74000000Y-113000000D03*
X74000000Y-112000000D03*
X74000000Y-111000000D03*
X74000000Y-110500000D03*
X74500000Y-119500000D03*
X74500000Y-119000000D03*
X74500000Y-118500000D03*
X74500000Y-118000000D03*
X74500000Y-117500000D03*
X74500000Y-113000000D03*
X74500000Y-112000000D03*
X74500000Y-111000000D03*
X74500000Y-110500000D03*
X75000000Y-119500000D03*
X75000000Y-119000000D03*
X75000000Y-118500000D03*
X75000000Y-118000000D03*
X75000000Y-117500000D03*
X75000000Y-113000000D03*
X75000000Y-112000000D03*
X75000000Y-111000000D03*
X75000000Y-110500000D03*
X75500000Y-119500000D03*
X75500000Y-119000000D03*
X75500000Y-118500000D03*
X75500000Y-118000000D03*
X75500000Y-117500000D03*
X75500000Y-113000000D03*
X75500000Y-112000000D03*
X75500000Y-111000000D03*
X75500000Y-110500000D03*
X76000000Y-119500000D03*
X76000000Y-119000000D03*
X76000000Y-118000000D03*
X76000000Y-117000000D03*
X76000000Y-113000000D03*
X76000000Y-112000000D03*
X76000000Y-111000000D03*
X76000000Y-110500000D03*
X76500000Y-119500000D03*
X76500000Y-119000000D03*
X76500000Y-118000000D03*
X76500000Y-117000000D03*
X76500000Y-113000000D03*
X76500000Y-112000000D03*
X76500000Y-111000000D03*
X76500000Y-110500000D03*
X77000000Y-119500000D03*
X77000000Y-119000000D03*
X77000000Y-118000000D03*
X77000000Y-117000000D03*
X77000000Y-116500000D03*
X77000000Y-116000000D03*
X77000000Y-115500000D03*
X77000000Y-115000000D03*
X77000000Y-114500000D03*
X77000000Y-114000000D03*
X77000000Y-113500000D03*
X77000000Y-113000000D03*
X77000000Y-112000000D03*
X77000000Y-111000000D03*
X77000000Y-110500000D03*
X77500000Y-119500000D03*
X77500000Y-119000000D03*
X77500000Y-118000000D03*
X77500000Y-112000000D03*
X77500000Y-111000000D03*
X77500000Y-110500000D03*
X78000000Y-119500000D03*
X78000000Y-119000000D03*
X78000000Y-118000000D03*
X78000000Y-117500000D03*
X78000000Y-117000000D03*
X78000000Y-116500000D03*
X78000000Y-116000000D03*
X78000000Y-115500000D03*
X78000000Y-115000000D03*
X78000000Y-114500000D03*
X78000000Y-114000000D03*
X78000000Y-113500000D03*
X78000000Y-113000000D03*
X78000000Y-112500000D03*
X78000000Y-112000000D03*
X78000000Y-111000000D03*
X78000000Y-110500000D03*
X78500000Y-119500000D03*
X78500000Y-119000000D03*
X78500000Y-118500000D03*
X78500000Y-111500000D03*
X78500000Y-111000000D03*
X78500000Y-110500000D03*
X79000000Y-119500000D03*
X79000000Y-119000000D03*
X79000000Y-118500000D03*
X79000000Y-118000000D03*
X79000000Y-117500000D03*
X79000000Y-117000000D03*
X79000000Y-116500000D03*
X79000000Y-116000000D03*
X79000000Y-115500000D03*
X79000000Y-115000000D03*
X79000000Y-114500000D03*
X79000000Y-114000000D03*
X79000000Y-113500000D03*
X79000000Y-113000000D03*
X79000000Y-112500000D03*
X79000000Y-112000000D03*
X79000000Y-111500000D03*
X79000000Y-111000000D03*
X79000000Y-110500000D03*
X79500000Y-119500000D03*
X79500000Y-119000000D03*
X79500000Y-118500000D03*
X79500000Y-118000000D03*
X79500000Y-117500000D03*
X79500000Y-117000000D03*
X79500000Y-116500000D03*
X79500000Y-116000000D03*
X79500000Y-115500000D03*
X79500000Y-115000000D03*
X79500000Y-114500000D03*
X79500000Y-114000000D03*
X79500000Y-113500000D03*
X79500000Y-113000000D03*
X79500000Y-112500000D03*
X79500000Y-112000000D03*
X79500000Y-111500000D03*
X79500000Y-111000000D03*
X79500000Y-110500000D03*
D18*
X81068000Y-114108600D03*
X81068000Y-113088600D03*
D55*
X91096999Y-127329001D03*
X91096999Y-126928999D03*
X91096999Y-126529000D03*
X91096999Y-126129001D03*
X91096999Y-125728999D03*
D56*
X90462063Y-125644001D03*
X89961937Y-125644001D03*
D55*
X89327001Y-125728999D03*
X89327001Y-126129001D03*
X89327001Y-126529000D03*
X89327001Y-126928999D03*
X89327001Y-127329001D03*
D56*
X89961937Y-127413999D03*
X90462063Y-127413999D03*
D57*
X71469802Y-153352082D03*
X71469802Y-154352082D03*
X71469802Y-155352082D03*
X71469802Y-156352082D03*
X71469802Y-157852082D03*
X71469802Y-158852082D03*
X71469802Y-159852082D03*
X71469802Y-160852082D03*
X71469802Y-160352082D03*
X71469802Y-159352082D03*
X71469802Y-158352082D03*
X71469802Y-157352082D03*
X71469802Y-156852082D03*
X71469802Y-155852082D03*
X71469802Y-154852082D03*
X71469802Y-153852082D03*
X71469802Y-152852082D03*
X71469802Y-161352082D03*
D58*
X70849802Y-151702082D03*
X70849802Y-162502082D03*
D59*
X67619802Y-151702082D03*
X67619802Y-162502082D03*
D39*
X73574999Y-137261800D03*
X72024999Y-137261800D03*
D60*
X59236200Y-123503500D03*
X59236200Y-125256100D03*
D61*
X81500000Y-162620000D03*
X81500000Y-163580000D03*
D17*
X87672000Y-126173400D03*
X86712000Y-126173400D03*
D30*
X85309800Y-136587400D03*
X85309800Y-134937400D03*
D62*
X89647000Y-128535600D03*
X90287000Y-128535600D03*
D20*
X93909961Y-93409961D03*
X55906429Y-93395356D03*
D63*
X63523750Y-139477601D03*
X63523750Y-137725001D03*
D34*
X84060500Y-132167800D03*
D22*
X88822000Y-118549600D03*
X88422000Y-118549600D03*
D64*
X58029600Y-109580000D03*
X58029600Y-115930000D03*
D65*
X55964601Y-108945001D03*
D66*
X60094598Y-108945002D03*
D67*
X55964600Y-110215000D03*
X60094600Y-110215000D03*
D68*
X55994600Y-111485000D03*
X60064600Y-111485000D03*
X55994600Y-112755000D03*
X60064600Y-112755000D03*
X55994600Y-114025000D03*
X60064600Y-114025000D03*
D67*
X55964600Y-115295000D03*
X60094600Y-115295000D03*
X55964600Y-116565000D03*
X60094600Y-116565000D03*
D69*
X73799999Y-138959850D03*
X73400000Y-138959850D03*
X73000000Y-138959850D03*
X72600001Y-138959850D03*
X72600001Y-139798050D03*
X73000000Y-139798050D03*
X73400000Y-139798050D03*
X73799999Y-139798050D03*
D70*
X73200000Y-139378950D03*
D19*
X71040000Y-91380000D03*
X72590000Y-91380000D03*
D30*
X80306000Y-136638200D03*
X80306000Y-134988200D03*
D15*
X56754340Y-128904400D03*
X56754340Y-130554400D03*
D71*
X73275200Y-120839400D03*
X72635200Y-120839400D03*
D14*
X88497100Y-110516800D03*
X88497100Y-110116800D03*
X88497100Y-109716800D03*
X87447100Y-109716800D03*
X87447100Y-110116800D03*
X87447100Y-110516800D03*
D32*
X66310600Y-96506200D03*
X66310600Y-98056200D03*
D29*
X73993600Y-155600882D03*
X72973600Y-155600882D03*
D72*
X90346598Y-108554799D03*
X90346598Y-109054798D03*
X90346598Y-109554800D03*
X90346598Y-110054799D03*
X90346598Y-110554798D03*
X90346598Y-111054799D03*
X90346598Y-111554798D03*
X90346598Y-112054800D03*
X90346598Y-112554799D03*
X90346598Y-113054798D03*
X90346598Y-113554799D03*
X90346598Y-114054799D03*
X90346598Y-114554800D03*
X90346598Y-115054799D03*
X90346598Y-115554798D03*
X90346598Y-116054800D03*
X90346598Y-116554799D03*
X90346598Y-117054800D03*
X90346598Y-117554799D03*
X90346598Y-118054798D03*
X90346598Y-118554800D03*
X90346598Y-119054799D03*
D73*
X93596599Y-120954800D03*
X93596599Y-106654798D03*
D29*
X85732000Y-126173400D03*
X84712000Y-126173400D03*
D74*
X67504400Y-97522200D03*
X67504400Y-98162200D03*
D17*
X79080000Y-136700000D03*
X78120000Y-136700000D03*
D21*
X89119800Y-97141200D03*
X90139800Y-97141200D03*
D39*
X73574999Y-141261800D03*
X72024999Y-141261800D03*
D75*
X81100400Y-112250400D03*
X81100400Y-110750400D03*
D18*
X92574200Y-126639000D03*
X92574200Y-125619000D03*
D34*
X73800000Y-132200000D03*
D17*
X79080000Y-137700000D03*
X78120000Y-137700000D03*
D71*
X74380000Y-91760000D03*
X73740000Y-91760000D03*
D17*
X84100000Y-136700000D03*
X83140000Y-136700000D03*
D29*
X73993600Y-158598082D03*
X72973600Y-158598082D03*
D21*
X69432800Y-123023800D03*
X70452800Y-123023800D03*
X66540000Y-94200000D03*
X67560000Y-94200000D03*
M02*
