G04 #@! TF.GenerationSoftware,KiCad,Pcbnew,9.0.5*
G04 #@! TF.CreationDate,2026-02-03T11:17:28+09:00*
G04 #@! TF.ProjectId,leafony-stm32n6,6c656166-6f6e-4792-9d73-746d33326e36,v1.0*
G04 #@! TF.SameCoordinates,Original*
G04 #@! TF.FileFunction,Soldermask,Bot*
G04 #@! TF.FilePolarity,Negative*
%FSLAX46Y46*%
G04 Gerber Fmt 4.6, Leading zero omitted, Abs format (unit mm)*
G04 Created by KiCad (PCBNEW 9.0.5) date 2026-02-03 11:17:28*
%MOMM*%
%LPD*%
G01*
G04 APERTURE LIST*
G04 Aperture macros list*
%AMRoundRect*
0 Rectangle with rounded corners*
0 $1 Rounding radius*
0 $2 $3 $4 $5 $6 $7 $8 $9 X,Y pos of 4 corners*
0 Add a 4 corners polygon primitive as box body*
4,1,4,$2,$3,$4,$5,$6,$7,$8,$9,$2,$3,0*
0 Add four circle primitives for the rounded corners*
1,1,$1+$1,$2,$3*
1,1,$1+$1,$4,$5*
1,1,$1+$1,$6,$7*
1,1,$1+$1,$8,$9*
0 Add four rect primitives between the rounded corners*
20,1,$1+$1,$2,$3,$4,$5,0*
20,1,$1+$1,$4,$5,$6,$7,0*
20,1,$1+$1,$6,$7,$8,$9,0*
20,1,$1+$1,$8,$9,$2,$3,0*%
G04 Aperture macros list end*
%ADD10C,0.561000*%
%ADD11C,4.500000*%
%ADD12C,1.039800*%
%ADD13C,2.590000*%
%ADD14O,2.804000X1.504000*%
%ADD15O,2.654000X1.429000*%
%ADD16C,1.120000*%
%ADD17RoundRect,0.125000X-0.155000X-0.125000X0.155000X-0.125000X0.155000X0.125000X-0.155000X0.125000X0*%
%ADD18RoundRect,0.125000X0.155000X0.125000X-0.155000X0.125000X-0.155000X-0.125000X0.155000X-0.125000X0*%
%ADD19RoundRect,0.160000X-0.210000X0.160000X-0.210000X-0.160000X0.210000X-0.160000X0.210000X0.160000X0*%
%ADD20RoundRect,0.125000X-0.125000X0.155000X-0.125000X-0.155000X0.125000X-0.155000X0.125000X0.155000X0*%
%ADD21RoundRect,0.050000X-0.101600X0.076200X-0.101600X-0.076200X0.101600X-0.076200X0.101600X0.076200X0*%
%ADD22RoundRect,0.165000X0.195000X-0.165000X0.195000X0.165000X-0.195000X0.165000X-0.195000X-0.165000X0*%
%ADD23RoundRect,0.250000X0.250000X0.275000X-0.250000X0.275000X-0.250000X-0.275000X0.250000X-0.275000X0*%
%ADD24RoundRect,0.225000X-0.300000X0.225000X-0.300000X-0.225000X0.300000X-0.225000X0.300000X0.225000X0*%
%ADD25RoundRect,0.050000X0.150000X0.425000X-0.150000X0.425000X-0.150000X-0.425000X0.150000X-0.425000X0*%
%ADD26RoundRect,0.050000X-0.425000X0.150000X-0.425000X-0.150000X0.425000X-0.150000X0.425000X0.150000X0*%
%ADD27RoundRect,0.050000X-0.775000X0.775000X-0.775000X-0.775000X0.775000X-0.775000X0.775000X0.775000X0*%
%ADD28RoundRect,0.165000X-0.165000X-0.195000X0.165000X-0.195000X0.165000X0.195000X-0.165000X0.195000X0*%
%ADD29RoundRect,0.250000X-0.250000X-0.275000X0.250000X-0.275000X0.250000X0.275000X-0.250000X0.275000X0*%
%ADD30RoundRect,0.225000X0.300000X-0.225000X0.300000X0.225000X-0.300000X0.225000X-0.300000X-0.225000X0*%
%ADD31C,0.240000*%
%ADD32RoundRect,0.125000X0.125000X-0.155000X0.125000X0.155000X-0.125000X0.155000X-0.125000X-0.155000X0*%
%ADD33RoundRect,0.172500X0.172500X0.197500X-0.172500X0.197500X-0.172500X-0.197500X0.172500X-0.197500X0*%
%ADD34RoundRect,0.160000X-0.160000X-0.210000X0.160000X-0.210000X0.160000X0.210000X-0.160000X0.210000X0*%
%ADD35RoundRect,0.050000X0.175000X-0.150000X0.175000X0.150000X-0.175000X0.150000X-0.175000X-0.150000X0*%
%ADD36RoundRect,0.050000X0.525000X0.562500X-0.525000X0.562500X-0.525000X-0.562500X0.525000X-0.562500X0*%
%ADD37RoundRect,0.050000X0.175000X0.475000X-0.175000X0.475000X-0.175000X-0.475000X0.175000X-0.475000X0*%
%ADD38RoundRect,0.250000X-0.275000X0.250000X-0.275000X-0.250000X0.275000X-0.250000X0.275000X0.250000X0*%
%ADD39RoundRect,0.050000X0.901700X-0.584200X0.901700X0.584200X-0.901700X0.584200X-0.901700X-0.584200X0*%
%ADD40RoundRect,0.160000X0.160000X0.210000X-0.160000X0.210000X-0.160000X-0.210000X0.160000X-0.210000X0*%
%ADD41RoundRect,0.165000X0.165000X0.195000X-0.165000X0.195000X-0.165000X-0.195000X0.165000X-0.195000X0*%
G04 APERTURE END LIST*
D10*
X58310100Y-109580000D02*
G75*
G02*
X57749100Y-109580000I-280500J0D01*
G01*
X57749100Y-109580000D02*
G75*
G02*
X58310100Y-109580000I280500J0D01*
G01*
X58310100Y-115930000D02*
G75*
G02*
X57749100Y-115930000I-280500J0D01*
G01*
X57749100Y-115930000D02*
G75*
G02*
X58310100Y-115930000I280500J0D01*
G01*
D11*
X94038737Y-141484913D03*
X55999999Y-141489049D03*
D12*
X83030000Y-155940000D03*
X83030000Y-152940000D03*
D13*
X66750000Y-147500000D03*
X83250000Y-147500000D03*
D14*
X70849802Y-151702082D03*
X70849802Y-162502082D03*
D15*
X67619802Y-151702082D03*
X67619802Y-162502082D03*
D11*
X93909961Y-93409961D03*
X55906429Y-93395356D03*
D16*
X58029600Y-109580000D03*
X58029600Y-115930000D03*
D17*
X75556200Y-115400000D03*
X76196200Y-115400000D03*
D18*
X74419313Y-115465800D03*
X73779313Y-115465800D03*
D19*
X77816800Y-118170400D03*
X77816800Y-119190400D03*
D17*
X70623600Y-121474400D03*
X71263600Y-121474400D03*
D18*
X77814856Y-114499503D03*
X77174856Y-114499503D03*
X77820000Y-115700000D03*
X77180000Y-115700000D03*
D20*
X75854000Y-163188200D03*
X75854000Y-163828200D03*
D21*
X76819200Y-163279600D03*
X76819200Y-163635200D03*
D20*
X75022800Y-112061200D03*
X75022800Y-112701200D03*
D19*
X65701000Y-105472400D03*
X65701000Y-106492400D03*
D22*
X77689800Y-153298000D03*
X77689800Y-152338000D03*
D19*
X77131000Y-108266400D03*
X77131000Y-109286400D03*
X75702250Y-105470400D03*
X75702250Y-106490400D03*
X69980900Y-108266400D03*
X69980900Y-109286400D03*
X71416000Y-105468400D03*
X71416000Y-106488400D03*
D18*
X73768000Y-119163000D03*
X73128000Y-119163000D03*
D19*
X82338000Y-105462400D03*
X82338000Y-106482400D03*
D23*
X73791200Y-126097200D03*
X72241200Y-126097200D03*
D17*
X74652000Y-118020000D03*
X75292000Y-118020000D03*
X84974600Y-96709400D03*
X85614600Y-96709400D03*
X75556200Y-116150000D03*
X76196200Y-116150000D03*
D18*
X71390600Y-117893000D03*
X70750600Y-117893000D03*
D24*
X81017200Y-122007800D03*
X81017200Y-123657800D03*
D19*
X64260820Y-108287800D03*
X64260820Y-109307800D03*
D20*
X73244800Y-112061200D03*
X73244800Y-112701200D03*
D25*
X75765200Y-159144600D03*
X76265200Y-159144600D03*
X76765200Y-159144600D03*
D26*
X77715200Y-160094600D03*
X77715200Y-160594600D03*
X77715200Y-161094600D03*
D25*
X76765200Y-162044600D03*
X76265200Y-162044600D03*
X75765200Y-162044600D03*
D26*
X74815200Y-161094600D03*
X74815200Y-160594600D03*
X74815200Y-160094600D03*
D27*
X76265200Y-160594600D03*
D28*
X72133000Y-121118200D03*
X73093000Y-121118200D03*
D17*
X73016200Y-116927800D03*
X73656200Y-116927800D03*
X74652000Y-119163000D03*
X75292000Y-119163000D03*
D19*
X68550880Y-108266400D03*
X68550880Y-109286400D03*
D29*
X84547800Y-94880600D03*
X86097800Y-94880600D03*
D30*
X73524200Y-153275200D03*
X73524200Y-151625200D03*
D31*
X75905000Y-152277200D03*
X75555000Y-152277200D03*
X75905000Y-152627200D03*
X75555000Y-152627200D03*
D32*
X74999498Y-114417274D03*
X74999498Y-113777274D03*
D20*
X74124800Y-112061200D03*
X74124800Y-112701200D03*
X81677600Y-97542600D03*
X81677600Y-98182600D03*
D19*
X85081200Y-105462400D03*
X85081200Y-106482400D03*
D32*
X75699498Y-114417274D03*
X75699498Y-113777274D03*
D19*
X80966400Y-105462400D03*
X80966400Y-106482400D03*
D29*
X75644800Y-125233600D03*
X77194800Y-125233600D03*
D19*
X79594800Y-105468400D03*
X79594800Y-106488400D03*
X67129750Y-105472400D03*
X67129750Y-106492400D03*
D20*
X87570400Y-99351000D03*
X87570400Y-99991000D03*
D33*
X81072800Y-120687000D03*
X80102800Y-120687000D03*
D29*
X76330600Y-120991800D03*
X77880600Y-120991800D03*
D17*
X70623600Y-119953750D03*
X71263600Y-119953750D03*
X70623600Y-119188400D03*
X71263600Y-119188400D03*
D19*
X87824400Y-95210800D03*
X87824400Y-96230800D03*
D18*
X76816000Y-118020000D03*
X76176000Y-118020000D03*
D20*
X75911800Y-112061200D03*
X75911800Y-112701200D03*
D19*
X85868600Y-108237000D03*
X85868600Y-109257000D03*
X77131000Y-105443000D03*
X77131000Y-106463000D03*
X78553400Y-108262400D03*
X78553400Y-109282400D03*
D34*
X79985600Y-163305000D03*
X81005600Y-163305000D03*
D35*
X80565200Y-161544600D03*
X79915200Y-161544600D03*
X79265200Y-161544600D03*
X79265200Y-159769600D03*
X79915200Y-159769600D03*
X80565200Y-159769600D03*
D36*
X80215200Y-160657100D03*
D37*
X79265200Y-160569600D03*
D29*
X76330600Y-122642800D03*
X77880600Y-122642800D03*
D19*
X72840940Y-108266400D03*
X72840940Y-109286400D03*
D38*
X80179000Y-96607200D03*
X80179000Y-98157200D03*
D39*
X73676600Y-124306500D03*
X73676600Y-122553900D03*
D19*
X74273500Y-105470400D03*
X74273500Y-106490400D03*
X74270960Y-108266400D03*
X74270960Y-109286400D03*
D18*
X77814856Y-113749503D03*
X77174856Y-113749503D03*
X76816000Y-119163000D03*
X76176000Y-119163000D03*
D19*
X83709600Y-105462400D03*
X83709600Y-106482400D03*
D34*
X77985600Y-163305000D03*
X79005600Y-163305000D03*
X92577200Y-118930600D03*
X93597200Y-118930600D03*
D19*
X80153600Y-108233000D03*
X80153600Y-109253000D03*
X81582350Y-108233000D03*
X81582350Y-109253000D03*
X84439850Y-108233000D03*
X84439850Y-109253000D03*
D40*
X75052200Y-121093400D03*
X74032200Y-121093400D03*
D19*
X86452800Y-105468400D03*
X86452800Y-106488400D03*
D34*
X92577200Y-117863800D03*
X93597200Y-117863800D03*
D28*
X72178000Y-120077400D03*
X73138000Y-120077400D03*
D23*
X73791200Y-127621200D03*
X72241200Y-127621200D03*
D32*
X74299498Y-114417274D03*
X74299498Y-113777274D03*
D19*
X69987250Y-105468400D03*
X69987250Y-106488400D03*
X65690840Y-108266400D03*
X65690840Y-109286400D03*
X75700980Y-108266400D03*
X75700980Y-109286400D03*
X67120860Y-108266400D03*
X67120860Y-109286400D03*
D29*
X75644800Y-126757600D03*
X77194800Y-126757600D03*
D19*
X71410920Y-108266400D03*
X71410920Y-109286400D03*
D20*
X70603200Y-112051000D03*
X70603200Y-112691000D03*
D19*
X68558500Y-105468400D03*
X68558500Y-106488400D03*
D40*
X80509200Y-95210800D03*
X79489200Y-95210800D03*
D17*
X78980200Y-119086800D03*
X79620200Y-119086800D03*
D18*
X74419313Y-116165800D03*
X73779313Y-116165800D03*
D38*
X89196000Y-98283600D03*
X89196000Y-99833600D03*
D19*
X72844750Y-105468400D03*
X72844750Y-106488400D03*
X68418800Y-118092200D03*
X68418800Y-119112200D03*
D41*
X81922000Y-162238200D03*
X80962000Y-162238200D03*
D24*
X82642800Y-122021000D03*
X82642800Y-123671000D03*
D19*
X83011100Y-108233000D03*
X83011100Y-109253000D03*
D17*
X70623600Y-120712400D03*
X71263600Y-120712400D03*
D20*
X71949400Y-112051000D03*
X71949400Y-112691000D03*
D40*
X80534600Y-94093200D03*
X79514600Y-94093200D03*
D17*
X78980200Y-119848800D03*
X79620200Y-119848800D03*
M02*
