G04 #@! TF.GenerationSoftware,KiCad,Pcbnew,9.0.5*
G04 #@! TF.CreationDate,2026-02-03T11:17:28+09:00*
G04 #@! TF.ProjectId,leafony-stm32n6,6c656166-6f6e-4792-9d73-746d33326e36,v1.0*
G04 #@! TF.SameCoordinates,Original*
G04 #@! TF.FileFunction,Copper,L6,Bot*
G04 #@! TF.FilePolarity,Positive*
%FSLAX46Y46*%
G04 Gerber Fmt 4.6, Leading zero omitted, Abs format (unit mm)*
G04 Created by KiCad (PCBNEW 9.0.5) date 2026-02-03 11:17:28*
%MOMM*%
%LPD*%
G01*
G04 APERTURE LIST*
G04 Aperture macros list*
%AMRoundRect*
0 Rectangle with rounded corners*
0 $1 Rounding radius*
0 $2 $3 $4 $5 $6 $7 $8 $9 X,Y pos of 4 corners*
0 Add a 4 corners polygon primitive as box body*
4,1,4,$2,$3,$4,$5,$6,$7,$8,$9,$2,$3,0*
0 Add four circle primitives for the rounded corners*
1,1,$1+$1,$2,$3*
1,1,$1+$1,$4,$5*
1,1,$1+$1,$6,$7*
1,1,$1+$1,$8,$9*
0 Add four rect primitives between the rounded corners*
20,1,$1+$1,$2,$3,$4,$5,0*
20,1,$1+$1,$4,$5,$6,$7,0*
20,1,$1+$1,$6,$7,$8,$9,0*
20,1,$1+$1,$8,$9,$2,$3,0*%
G04 Aperture macros list end*
G04 #@! TA.AperFunction,ComponentPad*
%ADD10C,4.400000*%
G04 #@! TD*
G04 #@! TA.AperFunction,ComponentPad*
%ADD11O,2.600000X1.300000*%
G04 #@! TD*
G04 #@! TA.AperFunction,ComponentPad*
%ADD12O,2.450000X1.225000*%
G04 #@! TD*
G04 #@! TA.AperFunction,SMDPad,CuDef*
%ADD13RoundRect,0.100000X-0.130000X-0.100000X0.130000X-0.100000X0.130000X0.100000X-0.130000X0.100000X0*%
G04 #@! TD*
G04 #@! TA.AperFunction,SMDPad,CuDef*
%ADD14RoundRect,0.100000X0.130000X0.100000X-0.130000X0.100000X-0.130000X-0.100000X0.130000X-0.100000X0*%
G04 #@! TD*
G04 #@! TA.AperFunction,SMDPad,CuDef*
%ADD15RoundRect,0.135000X-0.185000X0.135000X-0.185000X-0.135000X0.185000X-0.135000X0.185000X0.135000X0*%
G04 #@! TD*
G04 #@! TA.AperFunction,SMDPad,CuDef*
%ADD16RoundRect,0.100000X-0.100000X0.130000X-0.100000X-0.130000X0.100000X-0.130000X0.100000X0.130000X0*%
G04 #@! TD*
G04 #@! TA.AperFunction,SMDPad,CuDef*
%ADD17R,0.203200X0.152400*%
G04 #@! TD*
G04 #@! TA.AperFunction,SMDPad,CuDef*
%ADD18RoundRect,0.140000X0.170000X-0.140000X0.170000X0.140000X-0.170000X0.140000X-0.170000X-0.140000X0*%
G04 #@! TD*
G04 #@! TA.AperFunction,SMDPad,CuDef*
%ADD19RoundRect,0.225000X0.225000X0.250000X-0.225000X0.250000X-0.225000X-0.250000X0.225000X-0.250000X0*%
G04 #@! TD*
G04 #@! TA.AperFunction,SMDPad,CuDef*
%ADD20RoundRect,0.200000X-0.275000X0.200000X-0.275000X-0.200000X0.275000X-0.200000X0.275000X0.200000X0*%
G04 #@! TD*
G04 #@! TA.AperFunction,SMDPad,CuDef*
%ADD21R,0.300000X0.850000*%
G04 #@! TD*
G04 #@! TA.AperFunction,SMDPad,CuDef*
%ADD22R,0.850000X0.300000*%
G04 #@! TD*
G04 #@! TA.AperFunction,SMDPad,CuDef*
%ADD23R,1.550000X1.550000*%
G04 #@! TD*
G04 #@! TA.AperFunction,SMDPad,CuDef*
%ADD24RoundRect,0.140000X-0.140000X-0.170000X0.140000X-0.170000X0.140000X0.170000X-0.140000X0.170000X0*%
G04 #@! TD*
G04 #@! TA.AperFunction,SMDPad,CuDef*
%ADD25RoundRect,0.225000X-0.225000X-0.250000X0.225000X-0.250000X0.225000X0.250000X-0.225000X0.250000X0*%
G04 #@! TD*
G04 #@! TA.AperFunction,SMDPad,CuDef*
%ADD26RoundRect,0.200000X0.275000X-0.200000X0.275000X0.200000X-0.275000X0.200000X-0.275000X-0.200000X0*%
G04 #@! TD*
G04 #@! TA.AperFunction,BGAPad,CuDef*
%ADD27C,0.200000*%
G04 #@! TD*
G04 #@! TA.AperFunction,SMDPad,CuDef*
%ADD28RoundRect,0.100000X0.100000X-0.130000X0.100000X0.130000X-0.100000X0.130000X-0.100000X-0.130000X0*%
G04 #@! TD*
G04 #@! TA.AperFunction,SMDPad,CuDef*
%ADD29RoundRect,0.147500X0.147500X0.172500X-0.147500X0.172500X-0.147500X-0.172500X0.147500X-0.172500X0*%
G04 #@! TD*
G04 #@! TA.AperFunction,SMDPad,CuDef*
%ADD30RoundRect,0.135000X-0.135000X-0.185000X0.135000X-0.185000X0.135000X0.185000X-0.135000X0.185000X0*%
G04 #@! TD*
G04 #@! TA.AperFunction,SMDPad,CuDef*
%ADD31R,0.350000X0.300000*%
G04 #@! TD*
G04 #@! TA.AperFunction,SMDPad,CuDef*
%ADD32R,1.050000X1.125000*%
G04 #@! TD*
G04 #@! TA.AperFunction,SMDPad,CuDef*
%ADD33R,0.350000X0.950000*%
G04 #@! TD*
G04 #@! TA.AperFunction,SMDPad,CuDef*
%ADD34RoundRect,0.225000X-0.250000X0.225000X-0.250000X-0.225000X0.250000X-0.225000X0.250000X0.225000X0*%
G04 #@! TD*
G04 #@! TA.AperFunction,SMDPad,CuDef*
%ADD35R,1.803400X1.168400*%
G04 #@! TD*
G04 #@! TA.AperFunction,SMDPad,CuDef*
%ADD36RoundRect,0.135000X0.135000X0.185000X-0.135000X0.185000X-0.135000X-0.185000X0.135000X-0.185000X0*%
G04 #@! TD*
G04 #@! TA.AperFunction,SMDPad,CuDef*
%ADD37RoundRect,0.140000X0.140000X0.170000X-0.140000X0.170000X-0.140000X-0.170000X0.140000X-0.170000X0*%
G04 #@! TD*
G04 #@! TA.AperFunction,ViaPad*
%ADD38C,0.330000*%
G04 #@! TD*
G04 #@! TA.AperFunction,ViaPad*
%ADD39C,0.500000*%
G04 #@! TD*
G04 #@! TA.AperFunction,Conductor*
%ADD40C,0.200000*%
G04 #@! TD*
G04 #@! TA.AperFunction,Conductor*
%ADD41C,0.254000*%
G04 #@! TD*
G04 #@! TA.AperFunction,Conductor*
%ADD42C,0.500000*%
G04 #@! TD*
G04 #@! TA.AperFunction,Conductor*
%ADD43C,0.150000*%
G04 #@! TD*
G04 #@! TA.AperFunction,Conductor*
%ADD44C,0.127000*%
G04 #@! TD*
G04 APERTURE END LIST*
D10*
X94038737Y-141484913D03*
X55999999Y-141489049D03*
D11*
X70849802Y-151702082D03*
X70849802Y-162502082D03*
D12*
X67619802Y-151702082D03*
X67619802Y-162502082D03*
D10*
X93909961Y-93409961D03*
X55906429Y-93395356D03*
D13*
X75556200Y-115400000D03*
X76196200Y-115400000D03*
D14*
X74419313Y-115465800D03*
X73779313Y-115465800D03*
D15*
X77816800Y-118170400D03*
X77816800Y-119190400D03*
D13*
X70623600Y-121474400D03*
X71263600Y-121474400D03*
D14*
X77814856Y-114499503D03*
X77174856Y-114499503D03*
X77820000Y-115700000D03*
X77180000Y-115700000D03*
D16*
X75854000Y-163188200D03*
X75854000Y-163828200D03*
D17*
X76819200Y-163279600D03*
X76819200Y-163635200D03*
D16*
X75022800Y-112061200D03*
X75022800Y-112701200D03*
D15*
X65701000Y-105472400D03*
X65701000Y-106492400D03*
D18*
X77689800Y-153298000D03*
X77689800Y-152338000D03*
D15*
X77131000Y-108266400D03*
X77131000Y-109286400D03*
X75702250Y-105470400D03*
X75702250Y-106490400D03*
X69980900Y-108266400D03*
X69980900Y-109286400D03*
X71416000Y-105468400D03*
X71416000Y-106488400D03*
D14*
X73768000Y-119163000D03*
X73128000Y-119163000D03*
D15*
X82338000Y-105462400D03*
X82338000Y-106482400D03*
D19*
X73791200Y-126097200D03*
X72241200Y-126097200D03*
D13*
X74652000Y-118020000D03*
X75292000Y-118020000D03*
X84974600Y-96709400D03*
X85614600Y-96709400D03*
X75556200Y-116150000D03*
X76196200Y-116150000D03*
D14*
X71390600Y-117893000D03*
X70750600Y-117893000D03*
D20*
X81017200Y-122007800D03*
X81017200Y-123657800D03*
D15*
X64260820Y-108287800D03*
X64260820Y-109307800D03*
D16*
X73244800Y-112061200D03*
X73244800Y-112701200D03*
D21*
X75765200Y-159144600D03*
X76265200Y-159144600D03*
X76765200Y-159144600D03*
D22*
X77715200Y-160094600D03*
X77715200Y-160594600D03*
X77715200Y-161094600D03*
D21*
X76765200Y-162044600D03*
X76265200Y-162044600D03*
X75765200Y-162044600D03*
D22*
X74815200Y-161094600D03*
X74815200Y-160594600D03*
X74815200Y-160094600D03*
D23*
X76265200Y-160594600D03*
D24*
X72133000Y-121118200D03*
X73093000Y-121118200D03*
D13*
X73016200Y-116927800D03*
X73656200Y-116927800D03*
X74652000Y-119163000D03*
X75292000Y-119163000D03*
D15*
X68550880Y-108266400D03*
X68550880Y-109286400D03*
D25*
X84547800Y-94880600D03*
X86097800Y-94880600D03*
D26*
X73524200Y-153275200D03*
X73524200Y-151625200D03*
D27*
X75905000Y-152277200D03*
X75555000Y-152277200D03*
X75905000Y-152627200D03*
X75555000Y-152627200D03*
D28*
X74999498Y-114417274D03*
X74999498Y-113777274D03*
D16*
X74124800Y-112061200D03*
X74124800Y-112701200D03*
X81677600Y-97542600D03*
X81677600Y-98182600D03*
D15*
X85081200Y-105462400D03*
X85081200Y-106482400D03*
D28*
X75699498Y-114417274D03*
X75699498Y-113777274D03*
D15*
X80966400Y-105462400D03*
X80966400Y-106482400D03*
D25*
X75644800Y-125233600D03*
X77194800Y-125233600D03*
D15*
X79594800Y-105468400D03*
X79594800Y-106488400D03*
X67129750Y-105472400D03*
X67129750Y-106492400D03*
D16*
X87570400Y-99351000D03*
X87570400Y-99991000D03*
D29*
X81072800Y-120687000D03*
X80102800Y-120687000D03*
D25*
X76330600Y-120991800D03*
X77880600Y-120991800D03*
D13*
X70623600Y-119953750D03*
X71263600Y-119953750D03*
X70623600Y-119188400D03*
X71263600Y-119188400D03*
D15*
X87824400Y-95210800D03*
X87824400Y-96230800D03*
D14*
X76816000Y-118020000D03*
X76176000Y-118020000D03*
D16*
X75911800Y-112061200D03*
X75911800Y-112701200D03*
D15*
X85868600Y-108237000D03*
X85868600Y-109257000D03*
X77131000Y-105443000D03*
X77131000Y-106463000D03*
X78553400Y-108262400D03*
X78553400Y-109282400D03*
D30*
X79985600Y-163305000D03*
X81005600Y-163305000D03*
D31*
X80565200Y-161544600D03*
X79915200Y-161544600D03*
X79265200Y-161544600D03*
X79265200Y-159769600D03*
X79915200Y-159769600D03*
X80565200Y-159769600D03*
D32*
X80215200Y-160657100D03*
D33*
X79265200Y-160569600D03*
D25*
X76330600Y-122642800D03*
X77880600Y-122642800D03*
D15*
X72840940Y-108266400D03*
X72840940Y-109286400D03*
D34*
X80179000Y-96607200D03*
X80179000Y-98157200D03*
D35*
X73676600Y-124306500D03*
X73676600Y-122553900D03*
D15*
X74273500Y-105470400D03*
X74273500Y-106490400D03*
X74270960Y-108266400D03*
X74270960Y-109286400D03*
D14*
X77814856Y-113749503D03*
X77174856Y-113749503D03*
X76816000Y-119163000D03*
X76176000Y-119163000D03*
D15*
X83709600Y-105462400D03*
X83709600Y-106482400D03*
D30*
X77985600Y-163305000D03*
X79005600Y-163305000D03*
X92577200Y-118930600D03*
X93597200Y-118930600D03*
D15*
X80153600Y-108233000D03*
X80153600Y-109253000D03*
X81582350Y-108233000D03*
X81582350Y-109253000D03*
X84439850Y-108233000D03*
X84439850Y-109253000D03*
D36*
X75052200Y-121093400D03*
X74032200Y-121093400D03*
D15*
X86452800Y-105468400D03*
X86452800Y-106488400D03*
D30*
X92577200Y-117863800D03*
X93597200Y-117863800D03*
D24*
X72178000Y-120077400D03*
X73138000Y-120077400D03*
D19*
X73791200Y-127621200D03*
X72241200Y-127621200D03*
D28*
X74299498Y-114417274D03*
X74299498Y-113777274D03*
D15*
X69987250Y-105468400D03*
X69987250Y-106488400D03*
X65690840Y-108266400D03*
X65690840Y-109286400D03*
X75700980Y-108266400D03*
X75700980Y-109286400D03*
X67120860Y-108266400D03*
X67120860Y-109286400D03*
D25*
X75644800Y-126757600D03*
X77194800Y-126757600D03*
D15*
X71410920Y-108266400D03*
X71410920Y-109286400D03*
D16*
X70603200Y-112051000D03*
X70603200Y-112691000D03*
D15*
X68558500Y-105468400D03*
X68558500Y-106488400D03*
D36*
X80509200Y-95210800D03*
X79489200Y-95210800D03*
D13*
X78980200Y-119086800D03*
X79620200Y-119086800D03*
D14*
X74419313Y-116165800D03*
X73779313Y-116165800D03*
D34*
X89196000Y-98283600D03*
X89196000Y-99833600D03*
D15*
X72844750Y-105468400D03*
X72844750Y-106488400D03*
X68418800Y-118092200D03*
X68418800Y-119112200D03*
D37*
X81922000Y-162238200D03*
X80962000Y-162238200D03*
D20*
X82642800Y-122021000D03*
X82642800Y-123671000D03*
D15*
X83011100Y-108233000D03*
X83011100Y-109253000D03*
D13*
X70623600Y-120712400D03*
X71263600Y-120712400D03*
D16*
X71949400Y-112051000D03*
X71949400Y-112691000D03*
D36*
X80534600Y-94093200D03*
X79514600Y-94093200D03*
D13*
X78980200Y-119848800D03*
X79620200Y-119848800D03*
D38*
X76602474Y-112453571D03*
X87196400Y-119557797D03*
X83125400Y-150532000D03*
X54330200Y-125944800D03*
X88034600Y-114358600D03*
X74210000Y-139330600D03*
X60036800Y-130415200D03*
X79391600Y-120661600D03*
X57581400Y-124547800D03*
X57581400Y-124014400D03*
X59500000Y-144000000D03*
X82446600Y-144000400D03*
X64405600Y-114362400D03*
X74487129Y-120460671D03*
X79000000Y-119000000D03*
X89246800Y-143191400D03*
X76623000Y-114250000D03*
X74652000Y-155880282D03*
X71873200Y-122498203D03*
X64405600Y-114845000D03*
X71873200Y-122033200D03*
X66945600Y-116470600D03*
X82127800Y-161450800D03*
X75066600Y-158987000D03*
X81619800Y-161450800D03*
X84105000Y-162372200D03*
X80500000Y-143500000D03*
X61000000Y-95500000D03*
X88277100Y-107234000D03*
X87242100Y-111399600D03*
X78756600Y-122947600D03*
X93006000Y-122261800D03*
X88542600Y-115273000D03*
X75048200Y-158304400D03*
X84105000Y-160975200D03*
X77987600Y-162543000D03*
X86000000Y-91500000D03*
X78756600Y-121830000D03*
X88967400Y-124319200D03*
X72228800Y-161377800D03*
X82500000Y-140900000D03*
X83150800Y-157796400D03*
X85500000Y-129000000D03*
X55500000Y-97500000D03*
X67435200Y-138082200D03*
X70730200Y-141794400D03*
X77486600Y-140887803D03*
X68022600Y-163728882D03*
X62526000Y-107453600D03*
X67082800Y-163728882D03*
X79696400Y-124116000D03*
X72239000Y-160858682D03*
X87094800Y-113215600D03*
X83386400Y-143086000D03*
X95500000Y-102500000D03*
X88967400Y-123836600D03*
X72264400Y-152857682D03*
X77500000Y-136700000D03*
X68926800Y-120610800D03*
X69130000Y-117689800D03*
X75066600Y-159520400D03*
X86579800Y-98843000D03*
X89417979Y-124809530D03*
X87849800Y-126910000D03*
X82500000Y-136700000D03*
X79975800Y-110603200D03*
X55500000Y-102000000D03*
X95530600Y-129040600D03*
X92921599Y-105429800D03*
X69917400Y-110019000D03*
X78223200Y-125735109D03*
X71416000Y-112228800D03*
X74718000Y-119925000D03*
X75251400Y-153376800D03*
X68926800Y-120145797D03*
X91278800Y-117556000D03*
X54278000Y-111488400D03*
X72178000Y-139330600D03*
X77080200Y-118528000D03*
X64971400Y-111818600D03*
X95580000Y-138528700D03*
X90800000Y-131800000D03*
X54000000Y-119500000D03*
X66300000Y-95750000D03*
X54303400Y-115273000D03*
X62526000Y-102424400D03*
X68012400Y-135639600D03*
X74693838Y-116650011D03*
X77700000Y-139200000D03*
X60500000Y-135500000D03*
X93593803Y-122262208D03*
X74238440Y-116615534D03*
X78858200Y-120661600D03*
X67421175Y-137590365D03*
X74558600Y-159520400D03*
X75120000Y-91970000D03*
X95500000Y-97000000D03*
X78756600Y-122388800D03*
X73000000Y-99750000D03*
X88727100Y-107234000D03*
X88747100Y-109326800D03*
X70435743Y-141434508D03*
D39*
X81050000Y-148200000D03*
D38*
X72264400Y-153873682D03*
X59383513Y-129375425D03*
X82500000Y-140448200D03*
X70450800Y-96430000D03*
X82700000Y-139200000D03*
X67997200Y-150495482D03*
X87700000Y-135800000D03*
X82911603Y-144000400D03*
X75110000Y-91500000D03*
X88180000Y-98563600D03*
X73016200Y-138467000D03*
X91278800Y-116057400D03*
X87692100Y-111399600D03*
X71890797Y-128637200D03*
X72239000Y-160333085D03*
X55185997Y-124725600D03*
X76684000Y-158039282D03*
X75708600Y-153376800D03*
X54685800Y-124725600D03*
D39*
X81050000Y-148900000D03*
D38*
X84776400Y-95634797D03*
X68977600Y-124311397D03*
X74998433Y-115829968D03*
X95921599Y-115729800D03*
X71670000Y-139330600D03*
X86688400Y-117863800D03*
X68500000Y-143000000D03*
X87120200Y-116847800D03*
X69587200Y-133768000D03*
X65800000Y-95750000D03*
X66952600Y-138082200D03*
X77500000Y-91500000D03*
X81245800Y-97123603D03*
X81245800Y-96658600D03*
X70070000Y-91350000D03*
X83368129Y-143543781D03*
X87692100Y-109326800D03*
X76438767Y-117471464D03*
X54320000Y-127480000D03*
X88942000Y-128383200D03*
X82903201Y-143535473D03*
X83250000Y-138300000D03*
X69769208Y-117754907D03*
X76500000Y-112000000D03*
X69917400Y-120366594D03*
X88840400Y-125208200D03*
X71974800Y-136409600D03*
X63500000Y-118500000D03*
X59681200Y-129018200D03*
X95921599Y-105729800D03*
X88747100Y-111399600D03*
X83150800Y-158431400D03*
X91278800Y-114558800D03*
X70070000Y-91850000D03*
X66564600Y-117359600D03*
X89500000Y-102500000D03*
X79000000Y-100000000D03*
X54000000Y-138000000D03*
X68012400Y-135139600D03*
X60036800Y-130880203D03*
X94321599Y-105429800D03*
X69333200Y-118172400D03*
X89881800Y-124776400D03*
X91300000Y-108542000D03*
X86840800Y-115095200D03*
X61000000Y-91500000D03*
X74652000Y-155372282D03*
X77080200Y-151624200D03*
X77950000Y-126560000D03*
X87207098Y-107234213D03*
X69917400Y-121296600D03*
X68977600Y-124776400D03*
X84351600Y-113977600D03*
X77613600Y-133463200D03*
X88297100Y-109326800D03*
X70334000Y-163728882D03*
X66437600Y-138060600D03*
X82946797Y-113977600D03*
X87196400Y-120022800D03*
X70070000Y-90850000D03*
X66800000Y-95750000D03*
X77613600Y-151624200D03*
X91278800Y-111536200D03*
X77500000Y-137700000D03*
X79271600Y-162364600D03*
X71273800Y-150495482D03*
X67057400Y-150495482D03*
X79500000Y-139200000D03*
X75000000Y-114900000D03*
X75465003Y-114900000D03*
X75244400Y-163990800D03*
X74996748Y-116294968D03*
X88942000Y-128891200D03*
X77486600Y-140422800D03*
X79000000Y-96500000D03*
X75244400Y-163508200D03*
X87242100Y-109326800D03*
X78484200Y-154287400D03*
X90000000Y-91500000D03*
X82421200Y-144457600D03*
X74032200Y-118500000D03*
X74575800Y-158293282D03*
X78401000Y-106767800D03*
X54290000Y-126960000D03*
X74558600Y-158987000D03*
X86833800Y-143191400D03*
X55500000Y-106000000D03*
X87552000Y-117051000D03*
X91304200Y-110063000D03*
X82500000Y-137700000D03*
X66956301Y-137601306D03*
X87958400Y-118549600D03*
X70308600Y-150495482D03*
X72533600Y-136409600D03*
X74995160Y-115364977D03*
X93015400Y-136884600D03*
X83125400Y-151065400D03*
X67300000Y-96700000D03*
X72355800Y-128637200D03*
X77512000Y-116242000D03*
X73803600Y-113300000D03*
X72264400Y-153365682D03*
X91253400Y-113060200D03*
X88180000Y-99028603D03*
X74514800Y-114946600D03*
X66844000Y-116953200D03*
X67750000Y-96700000D03*
X95500000Y-99500000D03*
X93621599Y-105429800D03*
X54330200Y-125436800D03*
X82693600Y-96836400D03*
X55651000Y-124725600D03*
X71299200Y-163728882D03*
X72838400Y-128637200D03*
X87672100Y-107234000D03*
X83049200Y-127164000D03*
X78250000Y-138300000D03*
X76218997Y-158039282D03*
X69917400Y-120831597D03*
X63821400Y-114845000D03*
X84500000Y-139200000D03*
X78197800Y-119950400D03*
X79696400Y-122744400D03*
X84776400Y-96099800D03*
X88297100Y-111399600D03*
X65225000Y-137651300D03*
X95921599Y-120729800D03*
X78278806Y-126231194D03*
X63000000Y-136000000D03*
X82500000Y-133500000D03*
X77512000Y-115073600D03*
X54278000Y-112733000D03*
X65825000Y-137651300D03*
X73371800Y-114260800D03*
X94225200Y-122261800D03*
X71378104Y-122711376D03*
X84314500Y-133641000D03*
X84314500Y-134106003D03*
X74750000Y-113300000D03*
X81964000Y-111513800D03*
X69333200Y-111898600D03*
X86427400Y-124065200D03*
X80790000Y-151520000D03*
X81280000Y-151522600D03*
X90923200Y-128357800D03*
X83831900Y-134106003D03*
X57648397Y-110574000D03*
X91388203Y-128357800D03*
X71365200Y-123176200D03*
X58113400Y-110574000D03*
X75250000Y-113300000D03*
X94257600Y-117863800D03*
X94047400Y-123768203D03*
X85962397Y-124065200D03*
X82429003Y-111513800D03*
X94047400Y-123303200D03*
X73346400Y-115759400D03*
X83831900Y-133641000D03*
X90923200Y-128815000D03*
X73321000Y-116250000D03*
X94257600Y-118930600D03*
X91388203Y-128822803D03*
X68850600Y-111898600D03*
X75750000Y-113397200D03*
X83912800Y-143750200D03*
X81024597Y-160804718D03*
X72729403Y-159360082D03*
X72736800Y-159853800D03*
X72264400Y-159360082D03*
X72747000Y-154864282D03*
X81489600Y-160804718D03*
X81482203Y-160311000D03*
X72264400Y-154864282D03*
X81017200Y-160311000D03*
X72264400Y-154356282D03*
X73194000Y-159371200D03*
X72729403Y-154356282D03*
X73229600Y-154864282D03*
X73194000Y-159853800D03*
X73229600Y-154356282D03*
X72254200Y-159853800D03*
X74464000Y-143623200D03*
X69333200Y-112635200D03*
X73346400Y-113750000D03*
D39*
X79950000Y-148900000D03*
X74550000Y-148900000D03*
D38*
X91837600Y-126859200D03*
X77004000Y-130364400D03*
X83106876Y-120581188D03*
X76623000Y-130694600D03*
X78528000Y-115403800D03*
X83129211Y-121045653D03*
X65980400Y-127519600D03*
X70069800Y-115988000D03*
D39*
X71850000Y-148900000D03*
D38*
X61281400Y-142073800D03*
X63161000Y-128561000D03*
X79000000Y-116000000D03*
X77283400Y-128484800D03*
D39*
X76350000Y-148900000D03*
D38*
X72432000Y-116597600D03*
X62729200Y-129196000D03*
X66031200Y-128078400D03*
X71339800Y-115759400D03*
D39*
X72750000Y-148900000D03*
D38*
X60824200Y-140880000D03*
X79000000Y-115500000D03*
X78299400Y-129246800D03*
X79874200Y-126148000D03*
X73346400Y-114743400D03*
X74832300Y-143204100D03*
X70069800Y-114997400D03*
D39*
X77700000Y-146100000D03*
D38*
X79720000Y-124979600D03*
X79848800Y-116267400D03*
X82218000Y-118981400D03*
X61720200Y-110497800D03*
X70019000Y-130999400D03*
X82548200Y-114409400D03*
X86434400Y-111107400D03*
X78451800Y-116515204D03*
X84859600Y-127693600D03*
X61669400Y-111132800D03*
X73295600Y-144004200D03*
X70069800Y-115480000D03*
D39*
X77250000Y-148900000D03*
D38*
X64481800Y-127367200D03*
X65955000Y-126910000D03*
X69409400Y-113143200D03*
X74006800Y-143343800D03*
D39*
X79050000Y-148900000D03*
D38*
X71339800Y-113676600D03*
X78481741Y-116013400D03*
X79163000Y-127341800D03*
X79874200Y-115784800D03*
X79112200Y-127900600D03*
X78500000Y-118500000D03*
D39*
X73650000Y-148900000D03*
D38*
X75810200Y-130212000D03*
X73270200Y-144994800D03*
X70387300Y-135507900D03*
X81423600Y-114819600D03*
X79518600Y-129907200D03*
X72324868Y-115791573D03*
D39*
X75450000Y-148900000D03*
D38*
X78420868Y-113542827D03*
X83709600Y-128053000D03*
X77791400Y-141438800D03*
X91990000Y-133270000D03*
X76500000Y-118500000D03*
X70069800Y-112508200D03*
X78274000Y-141819800D03*
X70958800Y-140219600D03*
X91910000Y-134330000D03*
X83430200Y-124547800D03*
X84319200Y-128027600D03*
X79000000Y-113500000D03*
D39*
X78150000Y-148900000D03*
D38*
X66031200Y-128543403D03*
X72381200Y-114768800D03*
X63135600Y-141438800D03*
X63313400Y-129831000D03*
X75403800Y-127621200D03*
X76623000Y-113752800D03*
X75886400Y-127621200D03*
X76623000Y-115734000D03*
X74895800Y-128078400D03*
X76623350Y-114742600D03*
X75403800Y-128078400D03*
X77000000Y-116500000D03*
X76617140Y-115207561D03*
X79848800Y-116775400D03*
X74895800Y-127621200D03*
X75886400Y-128078400D03*
X73498800Y-118578800D03*
X82261800Y-106971000D03*
X84039800Y-97369800D03*
X79213800Y-106996400D03*
X77207200Y-112330400D03*
X86249600Y-107504400D03*
X84522400Y-98538200D03*
X83633400Y-106996400D03*
X80915600Y-106971000D03*
X83277800Y-98462000D03*
X86249600Y-107021800D03*
X85817800Y-97268200D03*
X85030400Y-98411200D03*
X78500000Y-111000000D03*
X83684200Y-96455400D03*
X85030400Y-106971000D03*
X79000000Y-111000000D03*
X86021000Y-98487400D03*
X84141400Y-99503400D03*
X77738609Y-111365200D03*
X83277800Y-99528800D03*
X77273606Y-111365200D03*
X82033200Y-99503400D03*
X76808603Y-111365200D03*
X72330400Y-95515600D03*
X73956000Y-109739600D03*
X72686000Y-112432000D03*
X71720800Y-97496800D03*
X73295600Y-111365200D03*
X71670000Y-95769600D03*
X72362573Y-111370732D03*
X74315812Y-111372076D03*
X71466800Y-96226800D03*
X73803600Y-111365200D03*
X71771600Y-98487400D03*
X71263600Y-97801600D03*
X72827537Y-111364680D03*
X74870400Y-111365200D03*
X72736800Y-97522200D03*
X72914600Y-106971000D03*
X72965400Y-98589000D03*
X74286200Y-106971000D03*
X74337000Y-98436600D03*
X71746200Y-106996400D03*
X71822400Y-99579600D03*
X70146000Y-106971000D03*
X70654000Y-98868400D03*
X68799800Y-106945600D03*
X69815800Y-98766800D03*
X67428200Y-106971000D03*
X70654000Y-96861800D03*
X69663400Y-96582400D03*
X65929600Y-107021800D03*
X71898600Y-111339800D03*
X70501600Y-95210800D03*
X77080200Y-106945600D03*
X73371800Y-95033000D03*
X76343600Y-111365200D03*
X74337000Y-94931400D03*
X73194000Y-95795000D03*
X76013400Y-106971000D03*
X74413200Y-96201400D03*
X75800406Y-111365200D03*
X75335403Y-111365200D03*
X74413200Y-97522200D03*
X79366200Y-121423600D03*
X76902400Y-117435800D03*
X73600400Y-120077400D03*
X74438600Y-140905400D03*
X85517200Y-121178800D03*
X85517200Y-120713797D03*
X70654000Y-125106600D03*
X94180000Y-132490000D03*
X86053400Y-121191200D03*
X94677600Y-132487200D03*
X94180000Y-132024997D03*
X58131800Y-131532800D03*
X74438600Y-141370403D03*
X57242800Y-131543940D03*
X74895800Y-141370403D03*
X57242800Y-132008943D03*
X86053400Y-120726197D03*
X70196800Y-125106600D03*
X95160200Y-132022197D03*
X95160200Y-132487200D03*
X85517200Y-121653597D03*
X94677600Y-132022197D03*
X74902928Y-140905455D03*
X86053400Y-121665997D03*
X58131800Y-131997803D03*
X71974800Y-118528000D03*
X80188004Y-119436479D03*
X80229800Y-119899600D03*
X84554406Y-111887714D03*
X78553400Y-111924000D03*
X87907600Y-113554799D03*
X70069800Y-112000200D03*
X89158458Y-114054799D03*
X84123000Y-112301200D03*
X78659756Y-114422711D03*
X85551750Y-114657050D03*
X63288000Y-112889200D03*
X88650000Y-117856543D03*
X91800000Y-117950000D03*
X71339800Y-116292800D03*
X85799400Y-115400000D03*
X78553400Y-112686000D03*
X89152200Y-118554800D03*
X69358600Y-115353000D03*
X91768400Y-118651200D03*
X62716500Y-113003500D03*
X63516600Y-110400000D03*
X88100000Y-116554799D03*
X73019940Y-117464940D03*
X70704800Y-127621200D03*
X70247600Y-127164000D03*
X70704800Y-127164000D03*
X74128400Y-120082800D03*
X70247600Y-127621200D03*
X63300700Y-112038300D03*
X86561400Y-115958800D03*
X71339800Y-114768800D03*
X64242928Y-112318472D03*
X72355800Y-115327600D03*
X61821800Y-116361800D03*
X86815400Y-109050000D03*
X77639000Y-112736800D03*
X58088000Y-112631400D03*
X73879800Y-159396600D03*
X71365200Y-117308800D03*
X69638000Y-117308800D03*
X61891000Y-112051000D03*
X71339800Y-115276800D03*
X57707000Y-116974800D03*
X78423662Y-117606146D03*
X69993600Y-119163000D03*
X84711400Y-140435137D03*
X65523200Y-141113500D03*
X64710400Y-144334400D03*
X85182800Y-140905400D03*
X57530600Y-121601400D03*
X92594800Y-130658400D03*
X79655628Y-140464273D03*
X85164115Y-140422800D03*
D39*
X70050000Y-148900000D03*
D38*
X80163628Y-140464273D03*
X65015200Y-141113500D03*
X66025000Y-140626000D03*
X66031200Y-141113500D03*
X61768662Y-125254865D03*
X80153600Y-140930800D03*
X93052000Y-130193397D03*
X65675600Y-144309000D03*
X66539200Y-140605500D03*
X65675600Y-143775600D03*
X84700000Y-140900000D03*
X93534600Y-130658400D03*
X61780000Y-124790000D03*
X65210597Y-143775600D03*
X93052000Y-130658400D03*
X66539200Y-141113500D03*
X92587017Y-130197576D03*
X65525000Y-140626000D03*
X64710400Y-143775600D03*
X79645600Y-140930800D03*
X57530600Y-122566600D03*
X93534600Y-130193397D03*
X57530600Y-122058600D03*
X65193000Y-144309000D03*
X65025000Y-140626000D03*
X57073400Y-121601400D03*
X77258000Y-161631800D03*
X74702800Y-156515282D03*
X65350000Y-98050000D03*
X73600000Y-92400000D03*
X73150000Y-92400000D03*
X72700000Y-92400000D03*
X65950000Y-94200000D03*
X65350000Y-97600000D03*
X65350000Y-98500000D03*
X72981400Y-99192000D03*
X72990800Y-118604200D03*
X91075600Y-103237200D03*
X79805000Y-156268600D03*
X78172400Y-123938200D03*
X86021000Y-142454800D03*
D39*
X70950000Y-148900000D03*
D38*
X88593400Y-123079600D03*
X81068000Y-98436600D03*
X78680400Y-101433800D03*
X79137600Y-101433800D03*
X81068000Y-97971597D03*
X85792400Y-96074400D03*
X85792400Y-95609397D03*
X88205400Y-99808200D03*
X78680400Y-101916400D03*
X87849800Y-96887200D03*
X88205400Y-100265400D03*
X79137600Y-101916400D03*
X76242000Y-113397200D03*
X80792800Y-124574600D03*
X70933400Y-124319200D03*
X71416000Y-123862000D03*
X74108400Y-133641000D03*
X78274604Y-106014127D03*
X62042796Y-97785470D03*
X72482800Y-118451800D03*
X70933400Y-123854197D03*
X78629600Y-116978600D03*
X76216600Y-116673800D03*
X74083000Y-134098200D03*
X71416000Y-124319200D03*
X73498800Y-134098200D03*
X78731200Y-105540797D03*
X61586200Y-98258800D03*
X78731200Y-106005800D03*
X78266297Y-105550409D03*
X61577869Y-97793872D03*
X62042796Y-98250473D03*
X77410400Y-117435800D03*
X81271200Y-124573200D03*
X73498800Y-133641000D03*
X83252400Y-96734800D03*
X87062400Y-95185400D03*
X78375600Y-114819600D03*
X80800000Y-119950000D03*
X88459400Y-127443400D03*
X81830000Y-153148200D03*
X90462063Y-124776400D03*
X91096999Y-125157400D03*
X89450000Y-127849800D03*
X78400974Y-114007403D03*
X80382200Y-114032200D03*
X88434000Y-126935400D03*
X91913800Y-126122600D03*
X78200000Y-124540000D03*
X91151800Y-129399200D03*
X90168200Y-135270000D03*
X78832800Y-125640000D03*
X72381200Y-114235400D03*
X72484700Y-117484700D03*
X67148800Y-114565600D03*
X83876640Y-113965289D03*
X81113100Y-118867100D03*
X81322000Y-117918400D03*
X79000000Y-118000000D03*
X80744800Y-117279600D03*
X79000000Y-117500000D03*
X79000000Y-118500000D03*
X83411800Y-113977600D03*
X74832300Y-150976500D03*
X64481800Y-119594800D03*
X71000000Y-118500000D03*
X73754145Y-150506600D03*
X64380200Y-119061400D03*
X75226000Y-120433000D03*
X75226000Y-119950400D03*
X60875000Y-131507400D03*
D39*
X68900000Y-148150000D03*
D38*
X60875000Y-131024800D03*
X61510000Y-131024800D03*
X61510000Y-131507400D03*
D39*
X68900000Y-148900000D03*
D38*
X72467600Y-157328082D03*
X73699500Y-156959782D03*
X78875797Y-133691800D03*
X79340800Y-133691800D03*
X78867994Y-134149000D03*
X79332997Y-134149000D03*
X74006800Y-117385000D03*
X69790400Y-119874200D03*
X69860000Y-124000000D03*
X73524200Y-117486600D03*
X71543000Y-135901600D03*
X61300000Y-120980000D03*
X71268600Y-138945800D03*
X68164800Y-140195799D03*
X75683200Y-123938200D03*
X75835600Y-117500000D03*
X70704800Y-129203803D03*
X70196800Y-129668806D03*
X70196800Y-128746603D03*
X76597600Y-123430200D03*
X76605403Y-123938200D03*
X75500000Y-117000000D03*
X76148203Y-123938200D03*
X75734000Y-120052000D03*
X76000000Y-118500000D03*
X70196800Y-129211606D03*
X76199003Y-120052000D03*
X70704800Y-129661003D03*
X76140400Y-123430200D03*
X75675397Y-123430200D03*
X70704800Y-128738800D03*
D40*
X71873200Y-122498203D02*
X71873200Y-121378000D01*
X77080200Y-118578800D02*
X76816000Y-118843000D01*
X75708600Y-153376800D02*
X75429200Y-153376800D01*
D41*
X74299498Y-114417274D02*
X75699498Y-114417274D01*
X69333200Y-118172400D02*
X69351715Y-118172400D01*
X81848400Y-161450800D02*
X81848400Y-162164600D01*
D42*
X87570400Y-99351000D02*
X88637800Y-98283600D01*
D40*
X68727600Y-118092200D02*
X68418800Y-118092200D01*
X77512000Y-114802359D02*
X77814856Y-114499503D01*
D41*
X70750600Y-117893000D02*
X69631114Y-117893000D01*
D40*
X74032200Y-118898800D02*
X74032200Y-118500000D01*
D41*
X74558600Y-158987000D02*
X74558600Y-159838000D01*
D40*
X74652000Y-118020000D02*
X74512200Y-118020000D01*
D41*
X76765200Y-160094600D02*
X76265200Y-160594600D01*
D42*
X84776400Y-96099800D02*
X84974600Y-96298000D01*
D41*
X70623600Y-120356800D02*
X70623600Y-121474400D01*
X75244400Y-163762200D02*
X75244400Y-163990800D01*
D40*
X77080200Y-118284200D02*
X76816000Y-118020000D01*
D42*
X78223200Y-125970200D02*
X78223200Y-125735109D01*
D40*
X74419313Y-115042087D02*
X74514800Y-114946600D01*
D42*
X84776400Y-96099800D02*
X84776400Y-95414600D01*
D40*
X75555000Y-153251000D02*
X75429200Y-153376800D01*
D41*
X76765200Y-159144600D02*
X76765200Y-160094600D01*
X74815200Y-160094600D02*
X75765200Y-160094600D01*
D42*
X77194800Y-126757600D02*
X77194800Y-125233600D01*
X71890797Y-128637200D02*
X72838400Y-128637200D01*
D41*
X76765200Y-159144600D02*
X75765200Y-159144600D01*
X75765200Y-161094600D02*
X76265200Y-160594600D01*
X74299498Y-114731298D02*
X74514800Y-114946600D01*
X75066600Y-159520400D02*
X75191000Y-159520400D01*
D42*
X81194400Y-96607200D02*
X81245800Y-96658600D01*
D40*
X72133000Y-121118200D02*
X72133000Y-120122400D01*
D41*
X73244800Y-112061200D02*
X73234600Y-112051000D01*
X78980200Y-119848800D02*
X78980200Y-120504200D01*
D42*
X72241200Y-126097200D02*
X72241200Y-127621200D01*
D40*
X77985600Y-163305000D02*
X77985600Y-162545000D01*
X72889200Y-114540200D02*
X73168600Y-114260800D01*
D41*
X74299498Y-114417274D02*
X74299498Y-114731298D01*
X77814856Y-113749503D02*
X77814856Y-114499503D01*
D40*
X74419313Y-115465800D02*
X74419313Y-115042087D01*
D42*
X77194800Y-125970200D02*
X78223200Y-125970200D01*
X78756600Y-121830000D02*
X78756600Y-122947600D01*
X78401000Y-121753800D02*
X77906000Y-121753800D01*
X81610712Y-97542600D02*
X81677600Y-97542600D01*
D40*
X76816000Y-118020000D02*
X76438767Y-117642767D01*
X75465003Y-115308803D02*
X75556200Y-115400000D01*
D42*
X88637800Y-98283600D02*
X89196000Y-98283600D01*
D40*
X74718000Y-119867600D02*
X74652000Y-119801600D01*
X74996748Y-116294968D02*
X74996748Y-114903252D01*
X74652000Y-118020000D02*
X74652000Y-118578800D01*
D41*
X78197800Y-119571400D02*
X77816800Y-119190400D01*
X77689800Y-151903600D02*
X77410400Y-151624200D01*
D40*
X72889200Y-116800800D02*
X72889200Y-114540200D01*
D41*
X77985600Y-162545000D02*
X77987600Y-162543000D01*
D40*
X74999498Y-114417274D02*
X74999498Y-114899498D01*
D42*
X78223200Y-125735109D02*
X78223200Y-126286800D01*
X88180000Y-99028603D02*
X88180000Y-98563600D01*
D40*
X77512000Y-115073600D02*
X77512000Y-115392000D01*
X74996748Y-114903252D02*
X75000000Y-114900000D01*
D42*
X78223200Y-126286800D02*
X77950000Y-126560000D01*
D41*
X71416000Y-112051000D02*
X70603200Y-112051000D01*
X75191000Y-159520400D02*
X76265200Y-160594600D01*
X70445800Y-121296600D02*
X70623600Y-121474400D01*
D40*
X75555000Y-152627200D02*
X75555000Y-153251000D01*
D42*
X84974600Y-96298000D02*
X84974600Y-96709400D01*
D40*
X75465003Y-114900000D02*
X75465003Y-115308803D01*
D41*
X79137600Y-120661600D02*
X78858200Y-120661600D01*
X73234600Y-112051000D02*
X72910284Y-112051000D01*
D40*
X69130000Y-117689800D02*
X68727600Y-118092200D01*
D41*
X74558600Y-159838000D02*
X74815200Y-160094600D01*
D40*
X74693838Y-116440325D02*
X74419313Y-116165800D01*
D41*
X69917400Y-120831597D02*
X70504403Y-120831597D01*
D42*
X77906000Y-121753800D02*
X77880600Y-121728400D01*
X84776400Y-95414600D02*
X84547800Y-95186000D01*
D41*
X75788000Y-163762200D02*
X75854000Y-163828200D01*
D40*
X73016200Y-116927800D02*
X72889200Y-116800800D01*
D41*
X78197800Y-119950400D02*
X78197800Y-119571400D01*
X76265200Y-159144600D02*
X76265200Y-160594600D01*
X74558600Y-158987000D02*
X75607600Y-158987000D01*
X77410400Y-151624200D02*
X77613600Y-151624200D01*
D42*
X81245800Y-97123603D02*
X81245800Y-97177688D01*
X77194800Y-125233600D02*
X77194800Y-125970200D01*
D40*
X74718000Y-119925000D02*
X74718000Y-119867600D01*
X71873200Y-121378000D02*
X72133000Y-121118200D01*
D41*
X70504403Y-120831597D02*
X70623600Y-120712400D01*
D42*
X81245800Y-97177688D02*
X81610712Y-97542600D01*
D41*
X72910284Y-112051000D02*
X72863284Y-112004000D01*
X81848400Y-161450800D02*
X82127800Y-161450800D01*
D40*
X77080200Y-118528000D02*
X77080200Y-118284200D01*
D41*
X75699498Y-114417274D02*
X75699498Y-114665505D01*
X75244400Y-163762200D02*
X75788000Y-163762200D01*
X69917400Y-120366594D02*
X69917400Y-121296600D01*
X71416000Y-112228800D02*
X71416000Y-112051000D01*
X78980200Y-120504200D02*
X79137600Y-120661600D01*
D40*
X77512000Y-115073600D02*
X77512000Y-114802359D01*
D41*
X81848400Y-162164600D02*
X81922000Y-162238200D01*
X69917400Y-120366594D02*
X70613806Y-120366594D01*
X74815200Y-160594600D02*
X76265200Y-160594600D01*
X72461716Y-112051000D02*
X71416000Y-112051000D01*
X69351715Y-118172400D02*
X69609157Y-117914957D01*
X75244400Y-163508200D02*
X75244400Y-163762200D01*
X72863284Y-112004000D02*
X72508716Y-112004000D01*
X76226800Y-112061200D02*
X75911800Y-112061200D01*
D40*
X73168600Y-114260800D02*
X73371800Y-114260800D01*
D41*
X75765200Y-159144600D02*
X75765200Y-160094600D01*
D40*
X75556200Y-115400000D02*
X75556200Y-116150000D01*
D41*
X77080200Y-151624200D02*
X77410400Y-151624200D01*
D40*
X77080200Y-118528000D02*
X77080200Y-118578800D01*
D41*
X69631114Y-117893000D02*
X69609157Y-117914957D01*
D40*
X76500000Y-112351097D02*
X76602474Y-112453571D01*
D42*
X84547800Y-95186000D02*
X84547800Y-94880600D01*
D41*
X76500000Y-112000000D02*
X76288000Y-112000000D01*
X79391600Y-120661600D02*
X79137600Y-120661600D01*
D42*
X80179000Y-96607200D02*
X81194400Y-96607200D01*
D40*
X74514800Y-114946600D02*
X75418403Y-114946600D01*
D41*
X70623600Y-119188400D02*
X70623600Y-120356800D01*
D42*
X72241200Y-127621200D02*
X72241200Y-128522600D01*
X81245800Y-97123603D02*
X81245800Y-96658600D01*
D41*
X75066600Y-158987000D02*
X75066600Y-159520400D01*
D40*
X74693838Y-116650011D02*
X74693838Y-116440325D01*
D41*
X69609157Y-117914957D02*
X69769208Y-117754907D01*
D40*
X73768000Y-119163000D02*
X74032200Y-118898800D01*
X72133000Y-120122400D02*
X72178000Y-120077400D01*
D42*
X77880600Y-121728400D02*
X77880600Y-122642800D01*
D41*
X78980200Y-119086800D02*
X78980200Y-119848800D01*
D43*
X74419313Y-116165800D02*
X74419313Y-115465800D01*
D40*
X74652000Y-119801600D02*
X74652000Y-119163000D01*
X77512000Y-116242000D02*
X77512000Y-116008000D01*
X75418403Y-114946600D02*
X75465003Y-114900000D01*
D42*
X78223200Y-125735109D02*
X78223200Y-126175588D01*
D43*
X76623000Y-114250000D02*
X75866772Y-114250000D01*
D42*
X72241200Y-128522600D02*
X72355800Y-128637200D01*
D41*
X77814856Y-113649256D02*
X77814856Y-113749503D01*
X72508716Y-112004000D02*
X72461716Y-112051000D01*
X76288000Y-112000000D02*
X76226800Y-112061200D01*
D43*
X75866772Y-114250000D02*
X75699498Y-114417274D01*
D41*
X70613806Y-120366594D02*
X70623600Y-120356800D01*
X75607600Y-158987000D02*
X75765200Y-159144600D01*
X74815200Y-161094600D02*
X75765200Y-161094600D01*
X77689800Y-152338000D02*
X77689800Y-151903600D01*
D42*
X78223200Y-126175588D02*
X78278806Y-126231194D01*
D40*
X76500000Y-112000000D02*
X76500000Y-112351097D01*
D42*
X78756600Y-122109400D02*
X78401000Y-121753800D01*
D40*
X77512000Y-115392000D02*
X77820000Y-115700000D01*
D42*
X78756600Y-122388800D02*
X78756600Y-122109400D01*
D40*
X76816000Y-118843000D02*
X76816000Y-119163000D01*
D41*
X81619800Y-161450800D02*
X81848400Y-161450800D01*
D42*
X77880600Y-120991800D02*
X77880600Y-121728400D01*
D40*
X75429200Y-153376800D02*
X75251400Y-153376800D01*
D41*
X75699498Y-114665505D02*
X75465003Y-114900000D01*
D40*
X77512000Y-116008000D02*
X77820000Y-115700000D01*
D41*
X69917400Y-121296600D02*
X70445800Y-121296600D01*
X75066600Y-159520400D02*
X74558600Y-159520400D01*
X75765200Y-160094600D02*
X76265200Y-160594600D01*
D40*
X76438767Y-117642767D02*
X76438767Y-117471464D01*
X74652000Y-118578800D02*
X74652000Y-119163000D01*
X74999498Y-114899498D02*
X75000000Y-114900000D01*
D41*
X73244800Y-112061200D02*
X75911800Y-112061200D01*
X74815200Y-160094600D02*
X74815200Y-161094600D01*
D40*
X74750000Y-113300000D02*
X74750000Y-113326772D01*
X75652800Y-113300000D02*
X74750000Y-113300000D01*
X75750000Y-113397200D02*
X75652800Y-113300000D01*
X73779313Y-115648107D02*
X73779313Y-116165800D01*
D43*
X93597200Y-118930600D02*
X94257600Y-118930600D01*
D40*
X75250000Y-113300000D02*
X75250000Y-113526772D01*
X73457693Y-115648107D02*
X73779313Y-115648107D01*
D43*
X93597200Y-117863800D02*
X94257600Y-117863800D01*
D40*
X74750000Y-113326772D02*
X74299498Y-113777274D01*
X75750000Y-113726772D02*
X75699498Y-113777274D01*
X75250000Y-113526772D02*
X74999498Y-113777274D01*
X80792600Y-151522600D02*
X80790000Y-151520000D01*
D44*
X73779313Y-116165800D02*
X73405200Y-116165800D01*
D40*
X73346400Y-115759400D02*
X73457693Y-115648107D01*
X75750000Y-113397200D02*
X75750000Y-113726772D01*
D44*
X73405200Y-116165800D02*
X73321000Y-116250000D01*
D41*
X75699498Y-113777274D02*
X74299498Y-113777274D01*
D40*
X81017200Y-160311000D02*
X80561300Y-160311000D01*
X80561300Y-160311000D02*
X80215200Y-160657100D01*
X80192800Y-164117800D02*
X81005600Y-163305000D01*
D41*
X80565200Y-161007100D02*
X80215200Y-160657100D01*
X79915200Y-160957100D02*
X80215200Y-160657100D01*
X80962000Y-162238200D02*
X80962000Y-161941400D01*
D40*
X81017200Y-160311000D02*
X81017200Y-160797321D01*
X80565200Y-159769600D02*
X80565200Y-160307100D01*
X79915200Y-160357100D02*
X80215200Y-160657100D01*
D41*
X80962000Y-163261400D02*
X81005600Y-163305000D01*
D40*
X76819200Y-163635200D02*
X77301800Y-164117800D01*
X80565200Y-159769600D02*
X79915200Y-159769600D01*
D41*
X80962000Y-162238200D02*
X80962000Y-163261400D01*
D40*
X81017200Y-160797321D02*
X81024597Y-160804718D01*
D41*
X80962000Y-161941400D02*
X80565200Y-161544600D01*
D40*
X80565200Y-160307100D02*
X80215200Y-160657100D01*
D41*
X80565200Y-161544600D02*
X79915200Y-161544600D01*
D40*
X77301800Y-164117800D02*
X80192800Y-164117800D01*
D41*
X79915200Y-161544600D02*
X79915200Y-160957100D01*
D40*
X79915200Y-159769600D02*
X79915200Y-160357100D01*
D41*
X80565200Y-161544600D02*
X80565200Y-161007100D01*
D43*
X69333200Y-112635200D02*
X69561800Y-112635200D01*
X70171400Y-113244800D02*
X72841200Y-113244800D01*
X72841200Y-113244800D02*
X73346400Y-113750000D01*
X69561800Y-112635200D02*
X70171400Y-113244800D01*
X74464000Y-143623200D02*
X74500200Y-143623200D01*
X74500200Y-143623200D02*
X79777000Y-148900000D01*
X79777000Y-148900000D02*
X79950000Y-148900000D01*
X66323400Y-143373400D02*
X71850000Y-148900000D01*
X63161000Y-128535600D02*
X63440400Y-128256200D01*
X62581000Y-143373400D02*
X66323400Y-143373400D01*
X63161000Y-128561000D02*
X63161000Y-128535600D01*
X61281400Y-142073800D02*
X62581000Y-143373400D01*
X64227800Y-128256200D02*
X64964400Y-127519600D01*
X64964400Y-127519600D02*
X65980400Y-127519600D01*
X63440400Y-128256200D02*
X64227800Y-128256200D01*
X62729200Y-129196000D02*
X62983200Y-128942000D01*
X64253200Y-128942000D02*
X65116800Y-128078400D01*
X65116800Y-128078400D02*
X66031200Y-128078400D01*
X62983200Y-128942000D02*
X64253200Y-128942000D01*
X66732800Y-142882800D02*
X72750000Y-148900000D01*
X60824200Y-140880000D02*
X62827000Y-142882800D01*
X62827000Y-142882800D02*
X66732800Y-142882800D01*
X77700000Y-146071800D02*
X77700000Y-146100000D01*
X74832300Y-143204100D02*
X77700000Y-146071800D01*
X61720200Y-110497800D02*
X60924000Y-111294000D01*
X69587200Y-130999400D02*
X70019000Y-130999400D01*
X83535000Y-124979600D02*
X79720000Y-124979600D01*
X62297400Y-129602400D02*
X62927000Y-130232000D01*
X60924000Y-111294000D02*
X60924000Y-121650400D01*
X82218000Y-118981400D02*
X83945200Y-120708600D01*
X60924000Y-121650400D02*
X62297400Y-123023800D01*
X83945200Y-120708600D02*
X83945200Y-124569400D01*
X62297400Y-123023800D02*
X62297400Y-129602400D01*
X83945200Y-124569400D02*
X83535000Y-124979600D01*
X62927000Y-130232000D02*
X68819800Y-130232000D01*
X68819800Y-130232000D02*
X69587200Y-130999400D01*
X79747200Y-115378400D02*
X79467800Y-115657800D01*
X79467800Y-116120527D02*
X79073123Y-116515204D01*
X86205800Y-111336000D02*
X86434400Y-111107400D01*
X82497400Y-113393400D02*
X84556200Y-111334600D01*
X82548200Y-114409400D02*
X81579200Y-115378400D01*
X81579200Y-115378400D02*
X79747200Y-115378400D01*
X82497400Y-114358600D02*
X82497400Y-113393400D01*
X79467800Y-115657800D02*
X79467800Y-116120527D01*
X82548200Y-114409400D02*
X82497400Y-114358600D01*
X84556200Y-111334600D02*
X86004000Y-111334600D01*
X86004000Y-111334600D02*
X86005400Y-111336000D01*
X79073123Y-116515204D02*
X78451800Y-116515204D01*
X86005400Y-111336000D02*
X86205800Y-111336000D01*
X73674000Y-144778200D02*
X73674000Y-145324000D01*
X65730200Y-127134800D02*
X64714200Y-127134800D01*
X64714200Y-127134800D02*
X64481800Y-127367200D01*
X73674000Y-145324000D02*
X77250000Y-148900000D01*
X65955000Y-126910000D02*
X65730200Y-127134800D01*
X73346400Y-144055000D02*
X73346400Y-144450600D01*
X73295600Y-144004200D02*
X73346400Y-144055000D01*
X77150000Y-148900000D02*
X77250000Y-148900000D01*
X73346400Y-144450600D02*
X73674000Y-144778200D01*
X74006800Y-143343800D02*
X74006800Y-143856800D01*
X74006800Y-143856800D02*
X79050000Y-148900000D01*
X69765000Y-113498800D02*
X71162000Y-113498800D01*
X71162000Y-113498800D02*
X71339800Y-113676600D01*
X69409400Y-113143200D02*
X69765000Y-113498800D01*
X73277200Y-145001800D02*
X73277200Y-148527200D01*
X73270200Y-144994800D02*
X73277200Y-145001800D01*
X73277200Y-148527200D02*
X73650000Y-148900000D01*
X74870400Y-134555400D02*
X71339800Y-134555400D01*
X71339800Y-134555400D02*
X70387300Y-135507900D01*
X79518600Y-129907200D02*
X74870400Y-134555400D01*
X90810000Y-136089345D02*
X85460545Y-141438800D01*
X91760000Y-133270000D02*
X90810000Y-134220000D01*
X91990000Y-133270000D02*
X91760000Y-133270000D01*
X85460545Y-141438800D02*
X77791400Y-141438800D01*
X90810000Y-134220000D02*
X90810000Y-136089345D01*
X91240000Y-136372200D02*
X85767000Y-141845200D01*
X78299400Y-141845200D02*
X78274000Y-141819800D01*
X78248600Y-141845200D02*
X72609800Y-141845200D01*
X91910000Y-134330000D02*
X91770000Y-134330000D01*
X78274000Y-141819800D02*
X78248600Y-141845200D01*
X91770000Y-134330000D02*
X91240000Y-134860000D01*
X70984200Y-140219600D02*
X70958800Y-140219600D01*
X72609800Y-141845200D02*
X70984200Y-140219600D01*
X91240000Y-134860000D02*
X91240000Y-136372200D01*
X85767000Y-141845200D02*
X78299400Y-141845200D01*
X83430200Y-124547800D02*
X83430200Y-124014400D01*
X83430200Y-124014400D02*
X83086800Y-123671000D01*
X83086800Y-123671000D02*
X82642800Y-123671000D01*
X65337597Y-128543403D02*
X66031200Y-128543403D01*
X63821400Y-129323000D02*
X64558000Y-129323000D01*
X73727400Y-143597800D02*
X73727400Y-144477400D01*
X64050000Y-142353200D02*
X72482800Y-142353200D01*
X64558000Y-129323000D02*
X65337597Y-128543403D01*
X63313400Y-129831000D02*
X63821400Y-129323000D01*
X73727400Y-144477400D02*
X78150000Y-148900000D01*
X63135600Y-141438800D02*
X64050000Y-142353200D01*
X72482800Y-142353200D02*
X73727400Y-143597800D01*
X76623350Y-114742600D02*
X76700000Y-114819250D01*
D44*
X76623000Y-115734000D02*
X76620000Y-115737000D01*
X77180000Y-116080000D02*
X77180000Y-115700000D01*
X77000000Y-116500000D02*
X77101600Y-116500000D01*
X76700497Y-113749503D02*
X77174856Y-113749503D01*
X76220000Y-116150000D02*
X76220000Y-115400000D01*
X77174856Y-113749503D02*
X77174856Y-114499503D01*
X76750000Y-115700000D02*
X77180000Y-115700000D01*
X76623000Y-115734000D02*
X76716000Y-115734000D01*
X76716000Y-115734000D02*
X76750000Y-115700000D01*
D43*
X76700000Y-114819250D02*
X76700000Y-115657000D01*
D44*
X76630750Y-114750000D02*
X76924359Y-114750000D01*
X76924359Y-114750000D02*
X77174856Y-114499503D01*
X77131000Y-116129000D02*
X77180000Y-116080000D01*
D43*
X76700000Y-115657000D02*
X76623000Y-115734000D01*
D44*
X76697200Y-113752800D02*
X76700497Y-113749503D01*
X76623350Y-114742600D02*
X76630750Y-114750000D01*
X77131000Y-116470600D02*
X77131000Y-116129000D01*
X77101600Y-116500000D02*
X77131000Y-116470600D01*
X76623000Y-113752800D02*
X76697200Y-113752800D01*
X76620000Y-115737000D02*
X76620000Y-115750000D01*
X76620000Y-115750000D02*
X76220000Y-116150000D01*
D43*
X79438400Y-95261600D02*
X79513600Y-95336800D01*
X79513600Y-95336800D02*
X79513600Y-105387200D01*
X79513600Y-105387200D02*
X79594800Y-105468400D01*
X79489200Y-94169400D02*
X79489200Y-95210800D01*
X79489200Y-95210800D02*
X79438400Y-95261600D01*
D44*
X82261800Y-106971000D02*
X82261800Y-106558600D01*
X82261800Y-106558600D02*
X82338000Y-106482400D01*
X82711800Y-104301200D02*
X82711800Y-104407200D01*
X82499800Y-102499200D02*
X82473800Y-102499200D01*
X82711800Y-101121200D02*
X82711800Y-101227200D01*
X82261800Y-105015200D02*
X82261800Y-105386200D01*
X82261800Y-103771200D02*
X82261800Y-103877200D01*
X82473800Y-103029200D02*
X82499800Y-103029200D01*
X83760400Y-97649200D02*
X83760400Y-100214600D01*
X82261800Y-104831200D02*
X82261800Y-104937200D01*
X83557200Y-100417800D02*
X82465000Y-100417800D01*
X83760400Y-100214600D02*
X83557200Y-100417800D01*
X82465000Y-100417800D02*
X82261800Y-100621000D01*
X82499800Y-104619200D02*
X82473800Y-104619200D01*
X82261800Y-101651200D02*
X82261800Y-101757200D01*
X82473800Y-104089200D02*
X82499800Y-104089200D01*
X82261800Y-100621000D02*
X82261800Y-100697200D01*
X82499800Y-101439200D02*
X82473800Y-101439200D01*
X82261800Y-105386200D02*
X82338000Y-105462400D01*
X82261800Y-102711200D02*
X82261800Y-102817200D01*
X82261800Y-104937200D02*
X82261800Y-105015200D01*
X82711800Y-103241200D02*
X82711800Y-103347200D01*
X82499800Y-103559200D02*
X82473800Y-103559200D01*
X82473800Y-101969200D02*
X82499800Y-101969200D01*
X82473800Y-100909200D02*
X82499800Y-100909200D01*
X82711800Y-102181200D02*
X82711800Y-102287200D01*
X84039800Y-97369800D02*
X83760400Y-97649200D01*
X82499800Y-101969200D02*
G75*
G02*
X82711800Y-102181200I0J-212000D01*
G01*
X82473800Y-103559200D02*
G75*
G03*
X82261800Y-103771200I0J-212000D01*
G01*
X82261800Y-101757200D02*
G75*
G03*
X82473800Y-101969200I212000J0D01*
G01*
X82499800Y-103029200D02*
G75*
G02*
X82711800Y-103241200I0J-212000D01*
G01*
X82261800Y-100697200D02*
G75*
G03*
X82473800Y-100909200I212000J0D01*
G01*
X82261800Y-103877200D02*
G75*
G03*
X82473800Y-104089200I212000J0D01*
G01*
X82473800Y-102499200D02*
G75*
G03*
X82261800Y-102711200I0J-212000D01*
G01*
X82711800Y-102287200D02*
G75*
G02*
X82499800Y-102499200I-212000J0D01*
G01*
X82499800Y-100909200D02*
G75*
G02*
X82711800Y-101121200I0J-212000D01*
G01*
X82473800Y-101439200D02*
G75*
G03*
X82261800Y-101651200I0J-212000D01*
G01*
X82261800Y-102817200D02*
G75*
G03*
X82473800Y-103029200I212000J0D01*
G01*
X82711800Y-104407200D02*
G75*
G02*
X82499800Y-104619200I-212000J0D01*
G01*
X82711800Y-101227200D02*
G75*
G02*
X82499800Y-101439200I-212000J0D01*
G01*
X82711800Y-103347200D02*
G75*
G02*
X82499800Y-103559200I-212000J0D01*
G01*
X82499800Y-104089200D02*
G75*
G02*
X82711800Y-104301200I0J-212000D01*
G01*
X82473800Y-104619200D02*
G75*
G03*
X82261800Y-104831200I0J-212000D01*
G01*
X83442890Y-110878800D02*
X81252800Y-110878800D01*
X86376600Y-107555200D02*
X86376600Y-109478904D01*
X80583600Y-111548000D02*
X78091200Y-111548000D01*
X86325800Y-107504400D02*
X86376600Y-107555200D01*
X78091200Y-111548000D02*
X77308800Y-112330400D01*
X85366804Y-110488700D02*
X83832990Y-110488700D01*
X81252800Y-110878800D02*
X80583600Y-111548000D01*
X79594800Y-106488400D02*
X79594800Y-106615400D01*
X79594800Y-106615400D02*
X79213800Y-106996400D01*
X86249600Y-107504400D02*
X86325800Y-107504400D01*
X77308800Y-112330400D02*
X77207200Y-112330400D01*
X83832990Y-110488700D02*
X83442890Y-110878800D01*
X86376600Y-109478904D02*
X85366804Y-110488700D01*
X84090600Y-104806992D02*
X84090600Y-105081400D01*
X84480600Y-102111992D02*
X84480600Y-102231992D01*
X84285600Y-102426992D02*
X84090600Y-102426992D01*
X84090600Y-102936992D02*
X84260600Y-102936992D01*
X84792400Y-99046046D02*
X84722400Y-99046046D01*
X84090600Y-105081400D02*
X83944504Y-105227496D01*
X84792400Y-100046046D02*
X84722400Y-100046046D01*
X83944504Y-105227496D02*
X83709600Y-105462400D01*
X84090600Y-101306800D02*
X84090600Y-101721992D01*
X84522400Y-98725210D02*
X84522400Y-98538200D01*
X84090600Y-103956992D02*
X84260600Y-103956992D01*
X84430600Y-103106992D02*
X84430600Y-103276992D01*
X84430600Y-104126992D02*
X84430600Y-104296992D01*
X84722400Y-100546046D02*
X84792400Y-100546046D01*
X84090600Y-104636992D02*
X84090600Y-104806992D01*
X84522400Y-98746046D02*
X84522400Y-98725210D01*
X84260600Y-103446992D02*
X84090600Y-103446992D01*
X83945600Y-103956992D02*
X84090600Y-103956992D01*
X84992400Y-99346046D02*
X84992400Y-99246046D01*
X84522400Y-100746046D02*
X84522400Y-100875000D01*
X84090600Y-102426992D02*
X83945600Y-102426992D01*
X84992400Y-100346046D02*
X84992400Y-100246046D01*
X83945600Y-102936992D02*
X84090600Y-102936992D01*
X84090600Y-103446992D02*
X83945600Y-103446992D01*
X84722400Y-99546046D02*
X84792400Y-99546046D01*
X84522400Y-99846046D02*
X84522400Y-99746046D01*
X84522400Y-98846046D02*
X84522400Y-98746046D01*
X83800600Y-102571992D02*
X83800600Y-102791992D01*
X83800600Y-103591992D02*
X83800600Y-103811992D01*
X84522400Y-100875000D02*
X84090600Y-101306800D01*
X84285600Y-101916992D02*
G75*
G02*
X84480608Y-102111992I0J-195008D01*
G01*
X84480600Y-102231992D02*
G75*
G02*
X84285600Y-102427000I-195000J-8D01*
G01*
X83945600Y-103446992D02*
G75*
G03*
X83800592Y-103591992I0J-145008D01*
G01*
X84722400Y-100046046D02*
G75*
G02*
X84522354Y-99846046I0J200046D01*
G01*
X84260600Y-103956992D02*
G75*
G02*
X84430608Y-104126992I0J-170008D01*
G01*
X84792400Y-100546046D02*
G75*
G03*
X84992446Y-100346046I0J200046D01*
G01*
X84792400Y-99546046D02*
G75*
G03*
X84992446Y-99346046I0J200046D01*
G01*
X84260600Y-104466992D02*
G75*
G03*
X84090592Y-104636992I0J-170008D01*
G01*
X83800600Y-103811992D02*
G75*
G03*
X83945600Y-103957000I145000J-8D01*
G01*
X84090600Y-101721992D02*
G75*
G03*
X84285600Y-101917000I195000J-8D01*
G01*
X83800600Y-102791992D02*
G75*
G03*
X83945600Y-102937000I145000J-8D01*
G01*
X84522400Y-100746046D02*
G75*
G02*
X84722400Y-100546000I200000J46D01*
G01*
X84522400Y-99746046D02*
G75*
G02*
X84722400Y-99546000I200000J46D01*
G01*
X84430600Y-103276992D02*
G75*
G02*
X84260600Y-103447000I-170000J-8D01*
G01*
X84260600Y-102936992D02*
G75*
G02*
X84430608Y-103106992I0J-170008D01*
G01*
X84430600Y-104296992D02*
G75*
G02*
X84260600Y-104467000I-170000J-8D01*
G01*
X83945600Y-102426992D02*
G75*
G03*
X83800592Y-102571992I0J-145008D01*
G01*
X84992400Y-99246046D02*
G75*
G03*
X84792400Y-99046000I-200000J46D01*
G01*
X84992400Y-100246046D02*
G75*
G03*
X84792400Y-100046000I-200000J46D01*
G01*
X84722400Y-99046046D02*
G75*
G02*
X84522354Y-98846046I0J200046D01*
G01*
X83633400Y-106996400D02*
X83633400Y-106558600D01*
X83633400Y-106558600D02*
X83709600Y-106482400D01*
X80915600Y-106533200D02*
X80966400Y-106482400D01*
X80915600Y-106971000D02*
X80915600Y-106533200D01*
X81127800Y-101646428D02*
X81127800Y-101550428D01*
X82439600Y-98636400D02*
X82439600Y-98589000D01*
X80737800Y-100110428D02*
X80737800Y-100087600D01*
X80935800Y-100398428D02*
X80929800Y-100398428D01*
X80737800Y-103758428D02*
X80929800Y-103758428D01*
X80935800Y-101358428D02*
X80929800Y-101358428D01*
X80737800Y-102126428D02*
X80737800Y-102030428D01*
X82439600Y-98589000D02*
X82496960Y-98531640D01*
X81127800Y-100686428D02*
X81127800Y-100590428D01*
X83069600Y-99080400D02*
X83069600Y-99006400D01*
X81127800Y-102606428D02*
X81127800Y-102510428D01*
X80737800Y-100087600D02*
X80941000Y-99884400D01*
X82439600Y-99681200D02*
X82439600Y-99376400D01*
X81004639Y-99884400D02*
X82236400Y-99884400D01*
X80737800Y-103086428D02*
X80737800Y-102990428D01*
X82439600Y-98710400D02*
X82439600Y-98636400D01*
X80935800Y-103278428D02*
X80929800Y-103278428D01*
X80737800Y-105233800D02*
X80737800Y-104358428D01*
X80929800Y-102798428D02*
X80935800Y-102798428D01*
X80966400Y-105462400D02*
X80737800Y-105233800D01*
X80941000Y-99884400D02*
X81004639Y-99884400D01*
X80929800Y-103758428D02*
X80935800Y-103758428D01*
X81127800Y-103566428D02*
X81127800Y-103470428D01*
X80617800Y-103758428D02*
X80737800Y-103758428D01*
X82496960Y-98531640D02*
X82566600Y-98462000D01*
X82921600Y-98858400D02*
X82587600Y-98858400D01*
X82587600Y-99228400D02*
X82921600Y-99228400D01*
X80929800Y-101838428D02*
X80935800Y-101838428D01*
X80935800Y-102318428D02*
X80929800Y-102318428D01*
X80497800Y-104118428D02*
X80497800Y-103878428D01*
X82566600Y-98462000D02*
X83277800Y-98462000D01*
X80737800Y-100206428D02*
X80737800Y-100110428D01*
X80929800Y-100878428D02*
X80935800Y-100878428D01*
X80737800Y-101166428D02*
X80737800Y-101070428D01*
X82236400Y-99884400D02*
X82439600Y-99681200D01*
X80617800Y-104238428D02*
G75*
G02*
X80497772Y-104118428I0J120028D01*
G01*
X80929800Y-100398428D02*
G75*
G02*
X80737772Y-100206428I0J192028D01*
G01*
X80929800Y-103278428D02*
G75*
G02*
X80737772Y-103086428I0J192028D01*
G01*
X81127800Y-101550428D02*
G75*
G03*
X80935800Y-101358400I-192000J28D01*
G01*
X80935800Y-102798428D02*
G75*
G03*
X81127828Y-102606428I0J192028D01*
G01*
X80935800Y-101838428D02*
G75*
G03*
X81127828Y-101646428I0J192028D01*
G01*
X82921600Y-99228400D02*
G75*
G03*
X83069600Y-99080400I0J148000D01*
G01*
X82439600Y-99376400D02*
G75*
G02*
X82587600Y-99228400I148000J0D01*
G01*
X80497800Y-103878428D02*
G75*
G02*
X80617800Y-103758400I120000J28D01*
G01*
X80929800Y-101358428D02*
G75*
G02*
X80737772Y-101166428I0J192028D01*
G01*
X81127800Y-100590428D02*
G75*
G03*
X80935800Y-100398400I-192000J28D01*
G01*
X82587600Y-98858400D02*
G75*
G02*
X82439600Y-98710400I0J148000D01*
G01*
X80935800Y-103758428D02*
G75*
G03*
X81127828Y-103566428I0J192028D01*
G01*
X80737800Y-101070428D02*
G75*
G02*
X80929800Y-100878400I192000J28D01*
G01*
X80737800Y-102990428D02*
G75*
G02*
X80929800Y-102798400I192000J28D01*
G01*
X83069600Y-99006400D02*
G75*
G03*
X82921600Y-98858400I-148000J0D01*
G01*
X81127800Y-103470428D02*
G75*
G03*
X80935800Y-103278400I-192000J28D01*
G01*
X80737800Y-104358428D02*
G75*
G03*
X80617800Y-104238400I-120000J28D01*
G01*
X80737800Y-102030428D02*
G75*
G02*
X80929800Y-101838400I192000J28D01*
G01*
X80929800Y-102318428D02*
G75*
G02*
X80737772Y-102126428I0J192028D01*
G01*
X81127800Y-102510428D02*
G75*
G03*
X80935800Y-102318400I-192000J28D01*
G01*
X80935800Y-100878428D02*
G75*
G03*
X81127828Y-100686428I0J192028D01*
G01*
X86427400Y-106513800D02*
X86452800Y-106488400D01*
X86249600Y-107021800D02*
X86427400Y-106844000D01*
X86427400Y-106844000D02*
X86427400Y-106513800D01*
X85817800Y-97268200D02*
X85868600Y-97268200D01*
X85868600Y-97268200D02*
X87011600Y-98411200D01*
X87011600Y-98411200D02*
X87011600Y-104909600D01*
X87011600Y-104909600D02*
X86452800Y-105468400D01*
X84888200Y-101368800D02*
X84968200Y-101368800D01*
X85208200Y-102328800D02*
X85208200Y-102208800D01*
X85005000Y-105015200D02*
X85208200Y-104812000D01*
X84968200Y-101968800D02*
X84888200Y-101968800D01*
X85208200Y-101008800D02*
X85208200Y-100824200D01*
X84439850Y-108233000D02*
X84439850Y-105250150D01*
X85208200Y-98589000D02*
X85030400Y-98411200D01*
X85208200Y-101128800D02*
X85208200Y-101008800D01*
X84968200Y-103168800D02*
X84888200Y-103168800D01*
X85208200Y-103528800D02*
X85208200Y-103408800D01*
X84674800Y-105015200D02*
X85005000Y-105015200D01*
X84648200Y-104128800D02*
X84648200Y-104008800D01*
X84888200Y-103768800D02*
X84968200Y-103768800D01*
X84439850Y-105250150D02*
X84674800Y-105015200D01*
X84648200Y-101728800D02*
X84648200Y-101608800D01*
X84888200Y-102568800D02*
X84968200Y-102568800D01*
X84648200Y-102928800D02*
X84648200Y-102808800D01*
X85208200Y-104812000D02*
X85208200Y-104608800D01*
X85208200Y-100824200D02*
X85208200Y-98589000D01*
X84968200Y-104368800D02*
X84888200Y-104368800D01*
X84968200Y-103768800D02*
G75*
G03*
X85208200Y-103528800I0J240000D01*
G01*
X84888200Y-103168800D02*
G75*
G02*
X84648200Y-102928800I0J240000D01*
G01*
X85208200Y-104608800D02*
G75*
G03*
X84968200Y-104368800I-240000J0D01*
G01*
X84648200Y-102808800D02*
G75*
G02*
X84888200Y-102568800I240000J0D01*
G01*
X84888200Y-104368800D02*
G75*
G02*
X84648200Y-104128800I0J240000D01*
G01*
X84648200Y-101608800D02*
G75*
G02*
X84888200Y-101368800I240000J0D01*
G01*
X84968200Y-101368800D02*
G75*
G03*
X85208200Y-101128800I0J240000D01*
G01*
X84888200Y-101968800D02*
G75*
G02*
X84648200Y-101728800I0J240000D01*
G01*
X84648200Y-104008800D02*
G75*
G02*
X84888200Y-103768800I240000J0D01*
G01*
X84968200Y-102568800D02*
G75*
G03*
X85208200Y-102328800I0J240000D01*
G01*
X85208200Y-103408800D02*
G75*
G03*
X84968200Y-103168800I-240000J0D01*
G01*
X85208200Y-102208800D02*
G75*
G03*
X84968200Y-101968800I-240000J0D01*
G01*
X80126781Y-110967700D02*
X80669081Y-110425400D01*
X80669081Y-110425400D02*
X83267450Y-110425400D01*
X79824819Y-110967700D02*
X80126781Y-110967700D01*
X83267450Y-110425400D02*
X84439850Y-109253000D01*
X78500000Y-111000000D02*
X78500000Y-110984519D01*
X78849019Y-110635500D02*
X79492619Y-110635500D01*
X78500000Y-110984519D02*
X78849019Y-110635500D01*
X79492619Y-110635500D02*
X79824819Y-110967700D01*
X85411400Y-98182600D02*
X85411400Y-105132200D01*
X83684200Y-96455400D02*
X85411400Y-98182600D01*
X85411400Y-105132200D02*
X85081200Y-105462400D01*
X85030400Y-106971000D02*
X85030400Y-106533200D01*
X85030400Y-106533200D02*
X85081200Y-106482400D01*
X83303200Y-110654000D02*
X83327600Y-110629600D01*
X79000000Y-111000000D02*
X79171900Y-111171900D01*
X83708632Y-110273000D02*
X84852600Y-110273000D01*
X83327600Y-110629600D02*
X83352032Y-110629600D01*
X80211363Y-111171900D02*
X80729263Y-110654000D01*
X80729263Y-110654000D02*
X83303200Y-110654000D01*
X84852600Y-110273000D02*
X85868600Y-109257000D01*
X79171900Y-111171900D02*
X80211363Y-111171900D01*
X83352032Y-110629600D02*
X83708632Y-110273000D01*
X86598800Y-101641714D02*
X86598800Y-100801714D01*
X86198800Y-103081714D02*
X85998800Y-103081714D01*
X86198800Y-101841714D02*
X86398800Y-101841714D01*
X85998800Y-101841714D02*
X86198800Y-101841714D01*
X86598800Y-104121714D02*
X86598800Y-103281714D01*
X85798800Y-102881714D02*
X85798800Y-102041714D01*
X86198800Y-99561714D02*
X86198800Y-99183527D01*
X86198800Y-104697700D02*
X86198800Y-104521714D01*
X85868600Y-108237000D02*
X85868600Y-105027900D01*
X86198800Y-98665200D02*
X86021000Y-98487400D01*
X85868600Y-105027900D02*
X86198800Y-104697700D01*
X86198800Y-100401714D02*
X86198800Y-99561714D01*
X86398800Y-103081714D02*
X86198800Y-103081714D01*
X86198800Y-99183527D02*
X86198800Y-98665200D01*
X86398800Y-104321714D02*
G75*
G03*
X86598814Y-104121714I0J200014D01*
G01*
X86598800Y-100801714D02*
G75*
G03*
X86398800Y-100601700I-200000J14D01*
G01*
X86398800Y-101841714D02*
G75*
G03*
X86598814Y-101641714I0J200014D01*
G01*
X86198800Y-104521714D02*
G75*
G02*
X86398800Y-104321700I200000J14D01*
G01*
X86598800Y-103281714D02*
G75*
G03*
X86398800Y-103081700I-200000J14D01*
G01*
X85998800Y-103081714D02*
G75*
G02*
X85798786Y-102881714I0J200014D01*
G01*
X85798800Y-102041714D02*
G75*
G02*
X85998800Y-101841700I200000J14D01*
G01*
X86398800Y-100601714D02*
G75*
G02*
X86198786Y-100401714I0J200014D01*
G01*
X83963600Y-100646400D02*
X84141400Y-100468600D01*
X83381100Y-102151356D02*
X83211100Y-102151356D01*
X83011100Y-101951356D02*
X83011100Y-101851356D01*
X83211100Y-103651356D02*
X83381100Y-103651356D01*
X83011100Y-103951356D02*
X83011100Y-103851356D01*
X83011100Y-100811500D02*
X83176200Y-100646400D01*
X83581100Y-102451356D02*
X83581100Y-102351356D01*
X83011100Y-100851356D02*
X83011100Y-100811500D01*
X84141400Y-100468600D02*
X84141400Y-99503400D01*
X83211100Y-101651356D02*
X83381100Y-101651356D01*
X83581100Y-101451356D02*
X83581100Y-101351356D01*
X83381100Y-101151356D02*
X83211100Y-101151356D01*
X83011100Y-100951356D02*
X83011100Y-100851356D01*
X83011100Y-102951356D02*
X83011100Y-102851356D01*
X83011100Y-108233000D02*
X83011100Y-104851356D01*
X83211100Y-104651356D02*
X83381100Y-104651356D01*
X83581100Y-103451356D02*
X83581100Y-103351356D01*
X83176200Y-100646400D02*
X83201600Y-100646400D01*
X83581100Y-104451356D02*
X83581100Y-104351356D01*
X83211100Y-102651356D02*
X83381100Y-102651356D01*
X83381100Y-103151356D02*
X83211100Y-103151356D01*
X83381100Y-104151356D02*
X83211100Y-104151356D01*
X83201600Y-100646400D02*
X83963600Y-100646400D01*
X83381100Y-101651356D02*
G75*
G03*
X83581056Y-101451356I0J199956D01*
G01*
X83211100Y-104151356D02*
G75*
G02*
X83011144Y-103951356I0J199956D01*
G01*
X83211100Y-102151356D02*
G75*
G02*
X83011144Y-101951356I0J199956D01*
G01*
X83381100Y-103651356D02*
G75*
G03*
X83581056Y-103451356I0J199956D01*
G01*
X83011100Y-104851356D02*
G75*
G02*
X83211100Y-104651400I200000J-44D01*
G01*
X83011100Y-103851356D02*
G75*
G02*
X83211100Y-103651400I200000J-44D01*
G01*
X83011100Y-102851356D02*
G75*
G02*
X83211100Y-102651400I200000J-44D01*
G01*
X83581100Y-101351356D02*
G75*
G03*
X83381100Y-101151400I-200000J-44D01*
G01*
X83381100Y-104651356D02*
G75*
G03*
X83581056Y-104451356I0J199956D01*
G01*
X83211100Y-101151356D02*
G75*
G02*
X83011144Y-100951356I0J199956D01*
G01*
X83581100Y-104351356D02*
G75*
G03*
X83381100Y-104151400I-200000J-44D01*
G01*
X83381100Y-102651356D02*
G75*
G03*
X83581056Y-102451356I0J199956D01*
G01*
X83581100Y-103351356D02*
G75*
G03*
X83381100Y-103151400I-200000J-44D01*
G01*
X83011100Y-101851356D02*
G75*
G02*
X83211100Y-101651400I200000J-44D01*
G01*
X83581100Y-102351356D02*
G75*
G03*
X83381100Y-102151400I-200000J-44D01*
G01*
X83211100Y-103151356D02*
G75*
G02*
X83011144Y-102951356I0J199956D01*
G01*
D43*
X77738609Y-111365200D02*
X77738609Y-111229646D01*
X82105100Y-110159000D02*
X83011100Y-109253000D01*
X77738609Y-111229646D02*
X78809255Y-110159000D01*
X78809255Y-110159000D02*
X82105100Y-110159000D01*
D44*
X82002800Y-101983000D02*
X82002800Y-101881000D01*
X82002800Y-103003000D02*
X82002800Y-102901000D01*
X83277800Y-99538182D02*
X83277800Y-99528800D01*
X81576800Y-102187000D02*
X81798800Y-102187000D01*
X81666156Y-100168491D02*
X82647491Y-100168491D01*
X81582350Y-104913600D02*
X81372800Y-104704050D01*
X82647491Y-100168491D02*
X83277800Y-99538182D01*
X81372800Y-100341600D02*
X81545909Y-100168491D01*
X81798800Y-103717000D02*
X81576800Y-103717000D01*
X81582350Y-108233000D02*
X81582350Y-104913600D01*
X81372800Y-101473000D02*
X81372800Y-101371000D01*
X81798800Y-100657000D02*
X81576800Y-100657000D01*
X81798800Y-101677000D02*
X81576800Y-101677000D01*
X81372800Y-100453000D02*
X81372800Y-100351000D01*
X81372800Y-102493000D02*
X81372800Y-102391000D01*
X81576800Y-104227000D02*
X81798800Y-104227000D01*
X81372800Y-103513000D02*
X81372800Y-103411000D01*
X81576800Y-103207000D02*
X81798800Y-103207000D01*
X81545909Y-100168491D02*
X81666156Y-100168491D01*
X82002800Y-104023000D02*
X82002800Y-103921000D01*
X81798800Y-102697000D02*
X81576800Y-102697000D01*
X81372800Y-100351000D02*
X81372800Y-100341600D01*
X81372800Y-104704050D02*
X81372800Y-104431000D01*
X81576800Y-101167000D02*
X81798800Y-101167000D01*
X82002800Y-100963000D02*
X82002800Y-100861000D01*
X82002800Y-100861000D02*
G75*
G03*
X81798800Y-100657000I-204000J0D01*
G01*
X81576800Y-103717000D02*
G75*
G02*
X81372800Y-103513000I0J204000D01*
G01*
X81576800Y-101677000D02*
G75*
G02*
X81372800Y-101473000I0J204000D01*
G01*
X82002800Y-101881000D02*
G75*
G03*
X81798800Y-101677000I-204000J0D01*
G01*
X81798800Y-102187000D02*
G75*
G03*
X82002800Y-101983000I0J204000D01*
G01*
X81798800Y-103207000D02*
G75*
G03*
X82002800Y-103003000I0J204000D01*
G01*
X81798800Y-101167000D02*
G75*
G03*
X82002800Y-100963000I0J204000D01*
G01*
X81372800Y-103411000D02*
G75*
G02*
X81576800Y-103207000I204000J0D01*
G01*
X81798800Y-104227000D02*
G75*
G03*
X82002800Y-104023000I0J204000D01*
G01*
X82002800Y-102901000D02*
G75*
G03*
X81798800Y-102697000I-204000J0D01*
G01*
X81576800Y-102697000D02*
G75*
G02*
X81372800Y-102493000I0J204000D01*
G01*
X81372800Y-101371000D02*
G75*
G02*
X81576800Y-101167000I204000J0D01*
G01*
X81576800Y-100657000D02*
G75*
G02*
X81372800Y-100453000I0J204000D01*
G01*
X81372800Y-104431000D02*
G75*
G02*
X81576800Y-104227000I204000J0D01*
G01*
X82002800Y-103921000D02*
G75*
G03*
X81798800Y-103717000I-204000J0D01*
G01*
X81372800Y-102391000D02*
G75*
G02*
X81576800Y-102187000I204000J0D01*
G01*
D43*
X78640264Y-109931800D02*
X80903550Y-109931800D01*
X77273606Y-111298458D02*
X78640264Y-109931800D01*
X80903550Y-109931800D02*
X81582350Y-109253000D01*
X77273606Y-111365200D02*
X77273606Y-111298458D01*
D44*
X79998600Y-103175384D02*
X80153600Y-103175384D01*
X79843600Y-100110384D02*
X79843600Y-100260384D01*
X80308600Y-101795384D02*
X80153600Y-101795384D01*
X80308600Y-100875384D02*
X80153600Y-100875384D01*
X80153600Y-104659600D02*
X80153600Y-108233000D01*
X80153600Y-102715384D02*
X79998600Y-102715384D01*
X80153600Y-103635384D02*
X79998600Y-103635384D01*
X82033200Y-99503400D02*
X80356800Y-99503400D01*
X80153600Y-103175384D02*
X80308600Y-103175384D01*
X80153600Y-100875384D02*
X79998600Y-100875384D01*
X80308600Y-103635384D02*
X80153600Y-103635384D01*
X80356800Y-99503400D02*
X80153600Y-99706600D01*
X79843600Y-102870384D02*
X79843600Y-103020384D01*
X79998600Y-102255384D02*
X80153600Y-102255384D01*
X80153600Y-104400384D02*
X80153600Y-104659600D01*
X80463600Y-100570384D02*
X80463600Y-100720384D01*
X79843600Y-101950384D02*
X79843600Y-102100384D01*
X80463600Y-101490384D02*
X80463600Y-101640384D01*
X80463600Y-103330384D02*
X80463600Y-103480384D01*
X80153600Y-104250384D02*
X80153600Y-104400384D01*
X80153600Y-100415384D02*
X80308600Y-100415384D01*
X80463600Y-102410384D02*
X80463600Y-102560384D01*
X80153600Y-101335384D02*
X80308600Y-101335384D01*
X79843600Y-103790384D02*
X79843600Y-103940384D01*
X80308600Y-102715384D02*
X80153600Y-102715384D01*
X79998600Y-101335384D02*
X80153600Y-101335384D01*
X79998600Y-100415384D02*
X80153600Y-100415384D01*
X79843600Y-101030384D02*
X79843600Y-101180384D01*
X80153600Y-99706600D02*
X80153600Y-99800384D01*
X80153600Y-101795384D02*
X79998600Y-101795384D01*
X80153600Y-102255384D02*
X80308600Y-102255384D01*
X80308600Y-103175384D02*
G75*
G02*
X80463616Y-103330384I0J-155016D01*
G01*
X79998600Y-99955384D02*
G75*
G03*
X79843584Y-100110384I0J-155016D01*
G01*
X80308600Y-102255384D02*
G75*
G02*
X80463616Y-102410384I0J-155016D01*
G01*
X79843600Y-103020384D02*
G75*
G03*
X79998600Y-103175400I155000J-16D01*
G01*
X80463600Y-101640384D02*
G75*
G02*
X80308600Y-101795400I-155000J-16D01*
G01*
X79998600Y-102715384D02*
G75*
G03*
X79843584Y-102870384I0J-155016D01*
G01*
X79843600Y-101180384D02*
G75*
G03*
X79998600Y-101335400I155000J-16D01*
G01*
X79843600Y-102100384D02*
G75*
G03*
X79998600Y-102255400I155000J-16D01*
G01*
X80153600Y-99800384D02*
G75*
G02*
X79998600Y-99955400I-155000J-16D01*
G01*
X79998600Y-101795384D02*
G75*
G03*
X79843584Y-101950384I0J-155016D01*
G01*
X80308600Y-101335384D02*
G75*
G02*
X80463616Y-101490384I0J-155016D01*
G01*
X80463600Y-100720384D02*
G75*
G02*
X80308600Y-100875400I-155000J-16D01*
G01*
X80308600Y-100415384D02*
G75*
G02*
X80463616Y-100570384I0J-155016D01*
G01*
X79998600Y-100875384D02*
G75*
G03*
X79843584Y-101030384I0J-155016D01*
G01*
X79843600Y-100260384D02*
G75*
G03*
X79998600Y-100415400I155000J-16D01*
G01*
X79998600Y-104095384D02*
G75*
G02*
X80153616Y-104250384I0J-155016D01*
G01*
X80463600Y-102560384D02*
G75*
G02*
X80308600Y-102715400I-155000J-16D01*
G01*
X79843600Y-103940384D02*
G75*
G03*
X79998600Y-104095400I155000J-16D01*
G01*
X80463600Y-103480384D02*
G75*
G02*
X80308600Y-103635400I-155000J-16D01*
G01*
X79998600Y-103635384D02*
G75*
G03*
X79843584Y-103790384I0J-155016D01*
G01*
D43*
X76808603Y-111298458D02*
X78402461Y-109704600D01*
X79702000Y-109704600D02*
X80153600Y-109253000D01*
X78402461Y-109704600D02*
X79702000Y-109704600D01*
X76808603Y-111365200D02*
X76808603Y-111298458D01*
D44*
X72736800Y-95642600D02*
X72609800Y-95515600D01*
X72336800Y-96210200D02*
X72336800Y-96136200D01*
X72588800Y-96358200D02*
X72484800Y-96358200D01*
X73956000Y-97195800D02*
X73956000Y-97119800D01*
X73456000Y-98335800D02*
X73456000Y-98259800D01*
X72609800Y-95515600D02*
X72580951Y-95515600D01*
X73981400Y-104964400D02*
X74591000Y-104964400D01*
X73752800Y-105193000D02*
X73981400Y-104964400D01*
X73676600Y-96607800D02*
X72838400Y-96607800D01*
X73608000Y-98107800D02*
X73804000Y-98107800D01*
X72838400Y-96607800D02*
X72736800Y-96506200D01*
X74591000Y-104964400D02*
X74743400Y-104812000D01*
X73804000Y-98107800D02*
X73956000Y-98107800D01*
X73943300Y-96874500D02*
X73676600Y-96607800D01*
X73752800Y-107748240D02*
X73752800Y-105193000D01*
X72484800Y-95988200D02*
X72588800Y-95988200D01*
X73456000Y-97575800D02*
X73456000Y-97499800D01*
X73804000Y-97727800D02*
X73608000Y-97727800D01*
X74056000Y-97727800D02*
X73956000Y-97727800D01*
X73956000Y-97727800D02*
X73804000Y-97727800D01*
X74625300Y-98801100D02*
X74117300Y-98801100D01*
X74743400Y-104812000D02*
X74743400Y-98919200D01*
X74156000Y-98007800D02*
X74156000Y-97827800D01*
X72736800Y-95766200D02*
X72736800Y-95642600D01*
X74016204Y-98700004D02*
X73956000Y-98639800D01*
X73804000Y-98487800D02*
X73608000Y-98487800D01*
X72580951Y-95515600D02*
X72330400Y-95515600D01*
X74117300Y-98801100D02*
X74016204Y-98700004D01*
X72736800Y-95840200D02*
X72736800Y-95766200D01*
X73608000Y-97347800D02*
X73804000Y-97347800D01*
X73956000Y-96887200D02*
X73943300Y-96874500D01*
X73956000Y-98107800D02*
X74056000Y-98107800D01*
X74270960Y-108266400D02*
X73752800Y-107748240D01*
X73956000Y-97119800D02*
X73956000Y-96887200D01*
X74743400Y-98919200D02*
X74625300Y-98801100D01*
X73608000Y-97727800D02*
G75*
G02*
X73456000Y-97575800I0J152000D01*
G01*
X74056000Y-98107800D02*
G75*
G03*
X74156000Y-98007800I0J100000D01*
G01*
X73608000Y-98487800D02*
G75*
G02*
X73456000Y-98335800I0J152000D01*
G01*
X73956000Y-98639800D02*
G75*
G03*
X73804000Y-98487800I-152000J0D01*
G01*
X72336800Y-96136200D02*
G75*
G02*
X72484800Y-95988200I148000J0D01*
G01*
X72484800Y-96358200D02*
G75*
G02*
X72336800Y-96210200I0J148000D01*
G01*
X72588800Y-95988200D02*
G75*
G03*
X72736800Y-95840200I0J148000D01*
G01*
X73456000Y-97499800D02*
G75*
G02*
X73608000Y-97347800I152000J0D01*
G01*
X73456000Y-98259800D02*
G75*
G02*
X73608000Y-98107800I152000J0D01*
G01*
X72736800Y-96506200D02*
G75*
G03*
X72588800Y-96358200I-148000J0D01*
G01*
X73804000Y-97347800D02*
G75*
G03*
X73956000Y-97195800I0J152000D01*
G01*
X74156000Y-97827800D02*
G75*
G03*
X74056000Y-97727800I-100000J0D01*
G01*
X73956000Y-109739600D02*
X73956000Y-109601360D01*
X73956000Y-109601360D02*
X74270960Y-109286400D01*
X67809200Y-105421600D02*
X67428200Y-105040600D01*
X66975691Y-99889091D02*
X69442182Y-97422600D01*
X70857200Y-97522200D02*
X70857200Y-97910681D01*
X69672397Y-97518600D02*
X69672397Y-98136600D01*
X70152397Y-97518600D02*
X70152397Y-98136600D01*
X66975691Y-104867491D02*
X66975691Y-99889091D01*
X70755600Y-97420600D02*
X70798404Y-97463404D01*
X70857200Y-97910681D02*
X71112619Y-98166100D01*
X68550880Y-108266400D02*
X67809200Y-107524720D01*
X71720800Y-97859881D02*
X71720800Y-97496800D01*
X70008397Y-97422600D02*
X70056397Y-97422600D01*
X69442182Y-97422600D02*
X69576397Y-97422600D01*
X71414581Y-98166100D02*
X71720800Y-97859881D01*
X70248397Y-98232600D02*
X70296397Y-98232600D01*
X70392397Y-98136600D02*
X70392397Y-97518600D01*
X69912397Y-98136600D02*
X69912397Y-97518600D01*
X70798404Y-97463404D02*
X70857200Y-97522200D01*
X67809200Y-107524720D02*
X67809200Y-105421600D01*
X70488397Y-97422600D02*
X70536397Y-97422600D01*
X70607200Y-97420600D02*
X70755600Y-97420600D01*
X67148800Y-105040600D02*
X66975691Y-104867491D01*
X70605200Y-97422600D02*
X70607200Y-97420600D01*
X70536397Y-97422600D02*
X70605200Y-97422600D01*
X67428200Y-105040600D02*
X67148800Y-105040600D01*
X69768397Y-98232600D02*
X69816397Y-98232600D01*
X71112619Y-98166100D02*
X71414581Y-98166100D01*
X70056397Y-97422600D02*
G75*
G02*
X70152400Y-97518600I3J-96000D01*
G01*
X70296397Y-98232600D02*
G75*
G03*
X70392400Y-98136600I3J96000D01*
G01*
X69576397Y-97422600D02*
G75*
G02*
X69672400Y-97518600I3J-96000D01*
G01*
X69672397Y-98136600D02*
G75*
G03*
X69768397Y-98232603I96003J0D01*
G01*
X70392397Y-97518600D02*
G75*
G02*
X70488397Y-97422597I96003J0D01*
G01*
X69912397Y-97518600D02*
G75*
G02*
X70008397Y-97422597I96003J0D01*
G01*
X70152397Y-98136600D02*
G75*
G03*
X70248397Y-98232603I96003J0D01*
G01*
X69816397Y-98232600D02*
G75*
G03*
X69912400Y-98136600I3J96000D01*
G01*
X69155400Y-110476200D02*
X68550880Y-109871680D01*
X73295600Y-111365200D02*
X73295600Y-111317262D01*
X68550880Y-109871680D02*
X68550880Y-109286400D01*
X72454538Y-110476200D02*
X69155400Y-110476200D01*
X73295600Y-111317262D02*
X72454538Y-110476200D01*
X69739600Y-95769600D02*
X64913600Y-100595600D01*
X71670000Y-95769600D02*
X69739600Y-95769600D01*
X64913600Y-107489160D02*
X65690840Y-108266400D01*
X64913600Y-100595600D02*
X64913600Y-107489160D01*
X67379740Y-110975300D02*
X65690840Y-109286400D01*
X72049581Y-110975300D02*
X67379740Y-110975300D01*
X72362573Y-111288292D02*
X72049581Y-110975300D01*
X72362573Y-111370732D02*
X72362573Y-111288292D01*
X72791281Y-109837400D02*
X71961920Y-109837400D01*
X71961920Y-109837400D02*
X71410920Y-109286400D01*
X74315812Y-111372076D02*
X74315812Y-111361931D01*
X74315812Y-111361931D02*
X72791281Y-109837400D01*
X70010190Y-102354610D02*
X70090190Y-102354610D01*
X69810190Y-104054610D02*
X69810190Y-104154610D01*
X72152600Y-98349200D02*
X72152600Y-99020800D01*
X70730200Y-107585680D02*
X71410920Y-108266400D01*
X70730200Y-105243800D02*
X70730200Y-107585680D01*
X71178600Y-99815400D02*
X71178600Y-99893400D01*
X72152600Y-97275200D02*
X72152600Y-97339200D01*
X72280600Y-96827200D02*
X72674600Y-96827200D01*
X70764500Y-99215100D02*
X70628600Y-99351000D01*
X69810190Y-103054610D02*
X69810190Y-103154610D01*
X70628600Y-100283400D02*
X70628600Y-100316200D01*
X70600100Y-100344700D02*
X70290190Y-100654610D01*
X71952600Y-97909200D02*
X71952600Y-98029200D01*
X70290190Y-104654610D02*
X70290190Y-104803790D01*
X69810190Y-102054610D02*
X69810190Y-102154610D01*
X70290190Y-103554610D02*
X70290190Y-103654610D01*
X71385300Y-99465100D02*
X71315300Y-99465100D01*
X70090190Y-102854610D02*
X70010190Y-102854610D01*
X71022600Y-100049400D02*
X70784600Y-100049400D01*
X71510300Y-99087100D02*
X71510300Y-99215100D01*
X70290190Y-104803790D02*
X70394674Y-104908274D01*
X71510300Y-98993100D02*
X71510300Y-99087100D01*
X71510300Y-99215100D02*
X71510300Y-99340100D01*
X72025600Y-96252200D02*
X72152600Y-96379200D01*
X70784600Y-99659400D02*
X71022600Y-99659400D01*
X72024600Y-96507200D02*
X71980600Y-96507200D01*
X70995300Y-99215100D02*
X70783887Y-99215100D01*
X70628600Y-99351000D02*
X70628600Y-99503400D01*
X70394674Y-104908274D02*
X70730200Y-105243800D01*
X70090190Y-103854610D02*
X70010190Y-103854610D01*
X70290190Y-101554610D02*
X70290190Y-101654610D01*
X72024600Y-96827200D02*
X72280600Y-96827200D01*
X70628600Y-100205400D02*
X70628600Y-100283400D01*
X70290190Y-102554610D02*
X70290190Y-102654610D01*
X69810190Y-101054610D02*
X69810190Y-101154610D01*
X70628600Y-100316200D02*
X70600100Y-100344700D01*
X70090190Y-100854610D02*
X70010190Y-100854610D01*
X70090190Y-101854610D02*
X70010190Y-101854610D01*
X71702300Y-98865100D02*
X71638300Y-98865100D01*
X72674600Y-97147200D02*
X72280600Y-97147200D01*
X71065300Y-99215100D02*
X70995300Y-99215100D01*
X72802600Y-96955200D02*
X72802600Y-97019200D01*
X70783887Y-99215100D02*
X70764500Y-99215100D01*
X72152600Y-98229200D02*
X72152600Y-98349200D01*
X70290190Y-104554610D02*
X70290190Y-104654610D01*
X71980600Y-96827200D02*
X72024600Y-96827200D01*
X70010190Y-101354610D02*
X70090190Y-101354610D01*
X71830300Y-99087100D02*
X71830300Y-98993100D01*
X70010190Y-103354610D02*
X70090190Y-103354610D01*
X72152600Y-97339200D02*
X72152600Y-97709200D01*
X71852600Y-96635200D02*
X71852600Y-96699200D01*
X71441400Y-96252200D02*
X72025600Y-96252200D01*
X72152600Y-99020800D02*
X71958300Y-99215100D01*
X71466800Y-96226800D02*
X71441400Y-96252200D01*
X70010190Y-104354610D02*
X70090190Y-104354610D01*
X70090190Y-101354610D02*
G75*
G02*
X70290190Y-101554610I10J-199990D01*
G01*
X71980600Y-96507200D02*
G75*
G03*
X71852600Y-96635200I0J-128000D01*
G01*
X72674600Y-96827200D02*
G75*
G02*
X72802600Y-96955200I0J-128000D01*
G01*
X71510300Y-99340100D02*
G75*
G02*
X71385300Y-99465100I-125000J0D01*
G01*
X69810190Y-101154610D02*
G75*
G03*
X70010190Y-101354610I200010J10D01*
G01*
X70290190Y-100654610D02*
G75*
G02*
X70090190Y-100854590I-199990J10D01*
G01*
X71178600Y-99893400D02*
G75*
G02*
X71022600Y-100049400I-156000J0D01*
G01*
X70290190Y-103654610D02*
G75*
G02*
X70090190Y-103854590I-199990J10D01*
G01*
X72802600Y-97019200D02*
G75*
G02*
X72674600Y-97147200I-128000J0D01*
G01*
X70010190Y-101854610D02*
G75*
G03*
X69810210Y-102054610I10J-199990D01*
G01*
X70010190Y-100854610D02*
G75*
G03*
X69810210Y-101054610I10J-199990D01*
G01*
X70628600Y-99503400D02*
G75*
G03*
X70784600Y-99659400I156000J0D01*
G01*
X69810190Y-104154610D02*
G75*
G03*
X70010190Y-104354610I200010J10D01*
G01*
X72280600Y-97147200D02*
G75*
G03*
X72152600Y-97275200I0J-128000D01*
G01*
X71958300Y-99215100D02*
G75*
G02*
X71830300Y-99087100I0J128000D01*
G01*
X70090190Y-104354610D02*
G75*
G02*
X70290190Y-104554610I10J-199990D01*
G01*
X70290190Y-101654610D02*
G75*
G02*
X70090190Y-101854590I-199990J10D01*
G01*
X72052600Y-98129200D02*
G75*
G02*
X72152600Y-98229200I0J-100000D01*
G01*
X70090190Y-103354610D02*
G75*
G02*
X70290190Y-103554610I10J-199990D01*
G01*
X72152600Y-97709200D02*
G75*
G02*
X72052600Y-97809200I-100000J0D01*
G01*
X71830300Y-98993100D02*
G75*
G03*
X71702300Y-98865100I-128000J0D01*
G01*
X70010190Y-103854610D02*
G75*
G03*
X69810210Y-104054610I10J-199990D01*
G01*
X70010190Y-102854610D02*
G75*
G03*
X69810210Y-103054610I10J-199990D01*
G01*
X69810190Y-102154610D02*
G75*
G03*
X70010190Y-102354610I200010J10D01*
G01*
X71852600Y-96699200D02*
G75*
G03*
X71980600Y-96827200I128000J0D01*
G01*
X70784600Y-100049400D02*
G75*
G03*
X70628600Y-100205400I0J-156000D01*
G01*
X71952600Y-98029200D02*
G75*
G03*
X72052600Y-98129200I100000J0D01*
G01*
X72052600Y-97809200D02*
G75*
G03*
X71952600Y-97909200I0J-100000D01*
G01*
X72152600Y-96379200D02*
G75*
G02*
X72024600Y-96507200I-128000J0D01*
G01*
X71022600Y-99659400D02*
G75*
G02*
X71178600Y-99815400I0J-156000D01*
G01*
X71190300Y-99340100D02*
G75*
G03*
X71065300Y-99215100I-125000J0D01*
G01*
X70090190Y-102354610D02*
G75*
G02*
X70290190Y-102554610I10J-199990D01*
G01*
X69810190Y-103154610D02*
G75*
G03*
X70010190Y-103354610I200010J10D01*
G01*
X71638300Y-98865100D02*
G75*
G03*
X71510300Y-98993100I0J-128000D01*
G01*
X71315300Y-99465100D02*
G75*
G02*
X71190300Y-99340100I0J125000D01*
G01*
X70290190Y-102654610D02*
G75*
G02*
X70090190Y-102854590I-199990J10D01*
G01*
X73803600Y-111365200D02*
X73803600Y-111357719D01*
X72668081Y-110222200D02*
X70916700Y-110222200D01*
X70916700Y-110222200D02*
X69980900Y-109286400D01*
X73803600Y-111357719D02*
X72668081Y-110222200D01*
X68296545Y-100133655D02*
X68393400Y-100036800D01*
X70095200Y-99147800D02*
X69536400Y-99147800D01*
X68111800Y-104581200D02*
X67841800Y-104581200D01*
X71771600Y-98487400D02*
X71619200Y-98487400D01*
X67661800Y-101701200D02*
X67661800Y-101611200D01*
X68839200Y-100736800D02*
X68779200Y-100736800D01*
X69180800Y-100036800D02*
X69079200Y-100036800D01*
X68291800Y-103051200D02*
X68291800Y-102961200D01*
X67841800Y-100531200D02*
X68111800Y-100531200D01*
X68931250Y-104989800D02*
X68520400Y-104989800D01*
X68479200Y-100036800D02*
X68444200Y-100036800D01*
X67841800Y-101431200D02*
X68111800Y-101431200D01*
X70349200Y-98436600D02*
X70196800Y-98589000D01*
X68111800Y-100981200D02*
X67841800Y-100981200D01*
X71619200Y-98487400D02*
X71568400Y-98436600D01*
X69164300Y-107449800D02*
X69164300Y-105222850D01*
X68659200Y-100616800D02*
X68659200Y-100156800D01*
X67661800Y-102601200D02*
X67661800Y-102511200D01*
X68296545Y-100235255D02*
X68296545Y-100133655D01*
X68291800Y-103951200D02*
X68291800Y-103861200D01*
X71568400Y-98436600D02*
X70349200Y-98436600D01*
X69358600Y-99859000D02*
X69180800Y-100036800D01*
X68111800Y-103681200D02*
X67841800Y-103681200D01*
X67661800Y-100801200D02*
X67661800Y-100711200D01*
X70196800Y-98589000D02*
X70196800Y-99046200D01*
X70196800Y-99046200D02*
X70095200Y-99147800D01*
X68291800Y-100351200D02*
X68291800Y-100261200D01*
X68111800Y-102781200D02*
X67841800Y-102781200D01*
X68291800Y-101251200D02*
X68291800Y-101161200D01*
X68111800Y-101881200D02*
X67841800Y-101881200D01*
X67841800Y-104131200D02*
X68111800Y-104131200D01*
X69164300Y-105222850D02*
X68931250Y-104989800D01*
X68393400Y-100036800D02*
X68444200Y-100036800D01*
X68291800Y-100240000D02*
X68296545Y-100235255D01*
X68291800Y-102151200D02*
X68291800Y-102061200D01*
X67841800Y-103231200D02*
X68111800Y-103231200D01*
X67841800Y-102331200D02*
X68111800Y-102331200D01*
X69980900Y-108266400D02*
X69164300Y-107449800D01*
X69358600Y-99325600D02*
X69358600Y-99859000D01*
X67661800Y-103501200D02*
X67661800Y-103411200D01*
X68959200Y-100156800D02*
X68959200Y-100616800D01*
X68291800Y-100261200D02*
X68291800Y-100240000D01*
X69536400Y-99147800D02*
X69358600Y-99325600D01*
X67661800Y-104401200D02*
X67661800Y-104311200D01*
X68539200Y-100036800D02*
X68479200Y-100036800D01*
X68520400Y-104989800D02*
X68291800Y-104761200D01*
X67661800Y-103411200D02*
G75*
G02*
X67841800Y-103231200I180000J0D01*
G01*
X67661800Y-101611200D02*
G75*
G02*
X67841800Y-101431200I180000J0D01*
G01*
X68111800Y-102331200D02*
G75*
G03*
X68291800Y-102151200I0J180000D01*
G01*
X67661800Y-100711200D02*
G75*
G02*
X67841800Y-100531200I180000J0D01*
G01*
X67841800Y-100981200D02*
G75*
G02*
X67661800Y-100801200I0J180000D01*
G01*
X67841800Y-104581200D02*
G75*
G02*
X67661800Y-104401200I0J180000D01*
G01*
X68291800Y-102961200D02*
G75*
G03*
X68111800Y-102781200I-180000J0D01*
G01*
X68111800Y-100531200D02*
G75*
G03*
X68291800Y-100351200I0J180000D01*
G01*
X68111800Y-101431200D02*
G75*
G03*
X68291800Y-101251200I0J180000D01*
G01*
X68291800Y-104761200D02*
G75*
G03*
X68111800Y-104581200I-180000J0D01*
G01*
X68111800Y-104131200D02*
G75*
G03*
X68291800Y-103951200I0J180000D01*
G01*
X67661800Y-102511200D02*
G75*
G02*
X67841800Y-102331200I180000J0D01*
G01*
X69079200Y-100036800D02*
G75*
G03*
X68959200Y-100156800I0J-120000D01*
G01*
X68291800Y-103861200D02*
G75*
G03*
X68111800Y-103681200I-180000J0D01*
G01*
X68111800Y-103231200D02*
G75*
G03*
X68291800Y-103051200I0J180000D01*
G01*
X67841800Y-103681200D02*
G75*
G02*
X67661800Y-103501200I0J180000D01*
G01*
X68291800Y-101161200D02*
G75*
G03*
X68111800Y-100981200I-180000J0D01*
G01*
X68959200Y-100616800D02*
G75*
G02*
X68839200Y-100736800I-120000J0D01*
G01*
X68659200Y-100156800D02*
G75*
G03*
X68539200Y-100036800I-120000J0D01*
G01*
X67841800Y-102781200D02*
G75*
G02*
X67661800Y-102601200I0J180000D01*
G01*
X68291800Y-102061200D02*
G75*
G03*
X68111800Y-101881200I-180000J0D01*
G01*
X68779200Y-100736800D02*
G75*
G02*
X68659200Y-100616800I0J120000D01*
G01*
X67841800Y-101881200D02*
G75*
G02*
X67661800Y-101701200I0J180000D01*
G01*
X67661800Y-104311200D02*
G75*
G02*
X67841800Y-104131200I180000J0D01*
G01*
X70171400Y-96049000D02*
X71009600Y-96049000D01*
X69190182Y-97014200D02*
X69765000Y-97014200D01*
X66294100Y-106870819D02*
X66285200Y-106861919D01*
X71480400Y-97181800D02*
X71478400Y-97181800D01*
X66285200Y-107181681D02*
X66294100Y-107172781D01*
X66285200Y-107430740D02*
X66285200Y-107181681D01*
X69993600Y-96767681D02*
X70027900Y-96733381D01*
X71314400Y-97345800D02*
X71314400Y-97427800D01*
X71102300Y-96141700D02*
X71102300Y-96377781D01*
X71314400Y-97427800D02*
X71314400Y-97677920D01*
X71136600Y-96412081D02*
X71136600Y-96430000D01*
X66285200Y-105243800D02*
X65980400Y-104939000D01*
X69993600Y-96785600D02*
X69993600Y-96767681D01*
X71644400Y-96935800D02*
X71644400Y-97017800D01*
X67120860Y-108266400D02*
X66285200Y-107430740D01*
X65980400Y-100223982D02*
X69190182Y-97014200D01*
X71009600Y-96049000D02*
X71102300Y-96141700D01*
X66294100Y-107172781D02*
X66294100Y-106870819D01*
X69765000Y-97014200D02*
X69993600Y-96785600D01*
X71314400Y-97750800D02*
X71263600Y-97801600D01*
X71102300Y-96377781D02*
X71136600Y-96412081D01*
X71478400Y-96771800D02*
X71480400Y-96771800D01*
X70027900Y-96733381D02*
X70027900Y-96192500D01*
X71136600Y-96430000D02*
X71314400Y-96607800D01*
X71314400Y-97677920D02*
X71314400Y-97750800D01*
X66285200Y-106861919D02*
X66285200Y-105243800D01*
X70027900Y-96192500D02*
X70171400Y-96049000D01*
X65980400Y-104939000D02*
X65980400Y-100223982D01*
X71314400Y-96607800D02*
G75*
G03*
X71478400Y-96771800I164000J0D01*
G01*
X71644400Y-97017800D02*
G75*
G02*
X71480400Y-97181800I-164000J0D01*
G01*
X71478400Y-97181800D02*
G75*
G03*
X71314400Y-97345800I0J-164000D01*
G01*
X71480400Y-96771800D02*
G75*
G02*
X71644400Y-96935800I0J-164000D01*
G01*
X72827537Y-111364680D02*
X72827537Y-111320215D01*
X72237522Y-110730200D02*
X68564660Y-110730200D01*
X68564660Y-110730200D02*
X67120860Y-109286400D01*
X72827537Y-111320215D02*
X72237522Y-110730200D01*
D43*
X74870400Y-111365200D02*
X72840940Y-109335740D01*
X72840940Y-109335740D02*
X72840940Y-109286400D01*
D44*
X73371200Y-101454600D02*
X73371200Y-101356600D01*
X73371200Y-104394600D02*
X73371200Y-104296600D01*
X73371200Y-103414600D02*
X73371200Y-103316600D01*
X73311200Y-97966237D02*
X73311200Y-98026237D01*
X73371200Y-100474600D02*
X73371200Y-100376600D01*
X72381200Y-100964600D02*
X72381200Y-100866600D01*
X73371200Y-102434600D02*
X73371200Y-102336600D01*
X72711400Y-97547600D02*
X72482800Y-97547600D01*
X72381200Y-100180600D02*
X72261200Y-100180600D01*
X72381200Y-107806660D02*
X72381200Y-104786600D01*
X72381200Y-102924600D02*
X72381200Y-102826600D01*
X72381200Y-98326237D02*
X72381200Y-98574764D01*
X73175200Y-102140600D02*
X72577200Y-102140600D01*
X73191200Y-98146237D02*
X72501200Y-98146237D01*
X72381200Y-98574764D02*
X72381200Y-98893800D01*
X72577200Y-102630600D02*
X73175200Y-102630600D01*
X72381200Y-103904600D02*
X72381200Y-103806600D01*
X72482800Y-97547600D02*
X72381200Y-97649200D01*
X72577200Y-104590600D02*
X73175200Y-104590600D01*
X72381200Y-98266237D02*
X72381200Y-98326237D01*
X72577200Y-103610600D02*
X73175200Y-103610600D01*
X73175200Y-103120600D02*
X72577200Y-103120600D01*
X73175200Y-100180600D02*
X72577200Y-100180600D01*
X73175200Y-101160600D02*
X72577200Y-101160600D01*
X72577200Y-100670600D02*
X73175200Y-100670600D01*
X72381200Y-99570600D02*
X72381200Y-99320600D01*
X72141200Y-100060600D02*
X72141200Y-99810600D01*
X72736800Y-97522200D02*
X72711400Y-97547600D01*
X72501200Y-97846237D02*
X73191200Y-97846237D01*
X72381200Y-97649200D02*
X72381200Y-97726237D01*
X72381200Y-101944600D02*
X72381200Y-101846600D01*
X73175200Y-104100600D02*
X72577200Y-104100600D01*
X72577200Y-100180600D02*
X72381200Y-100180600D01*
X72381200Y-99320600D02*
X72381200Y-98893800D01*
X72840940Y-108266400D02*
X72381200Y-107806660D01*
X72577200Y-101650600D02*
X73175200Y-101650600D01*
X72381200Y-101846600D02*
G75*
G02*
X72577200Y-101650600I196000J0D01*
G01*
X72381200Y-100866600D02*
G75*
G02*
X72577200Y-100670600I196000J0D01*
G01*
X72381200Y-102826600D02*
G75*
G02*
X72577200Y-102630600I196000J0D01*
G01*
X73175200Y-101650600D02*
G75*
G03*
X73371200Y-101454600I0J196000D01*
G01*
X72577200Y-102140600D02*
G75*
G02*
X72381200Y-101944600I0J196000D01*
G01*
X73371200Y-102336600D02*
G75*
G03*
X73175200Y-102140600I-196000J0D01*
G01*
X73311200Y-98026237D02*
G75*
G02*
X73191200Y-98146200I-120000J37D01*
G01*
X73191200Y-97846237D02*
G75*
G02*
X73311163Y-97966237I0J-119963D01*
G01*
X72261200Y-100180600D02*
G75*
G02*
X72141200Y-100060600I0J120000D01*
G01*
X73175200Y-102630600D02*
G75*
G03*
X73371200Y-102434600I0J196000D01*
G01*
X73371200Y-101356600D02*
G75*
G03*
X73175200Y-101160600I-196000J0D01*
G01*
X72381200Y-103806600D02*
G75*
G02*
X72577200Y-103610600I196000J0D01*
G01*
X72501200Y-98146237D02*
G75*
G03*
X72381237Y-98266237I0J-119963D01*
G01*
X73175200Y-104590600D02*
G75*
G03*
X73371200Y-104394600I0J196000D01*
G01*
X72141200Y-99810600D02*
G75*
G02*
X72261200Y-99690600I120000J0D01*
G01*
X73175200Y-100670600D02*
G75*
G03*
X73371200Y-100474600I0J196000D01*
G01*
X73371200Y-104296600D02*
G75*
G03*
X73175200Y-104100600I-196000J0D01*
G01*
X73371200Y-103316600D02*
G75*
G03*
X73175200Y-103120600I-196000J0D01*
G01*
X72381200Y-104786600D02*
G75*
G02*
X72577200Y-104590600I196000J0D01*
G01*
X73175200Y-103610600D02*
G75*
G03*
X73371200Y-103414600I0J196000D01*
G01*
X72577200Y-103120600D02*
G75*
G02*
X72381200Y-102924600I0J196000D01*
G01*
X72577200Y-101160600D02*
G75*
G02*
X72381200Y-100964600I0J196000D01*
G01*
X72381200Y-97726237D02*
G75*
G03*
X72501200Y-97846200I120000J37D01*
G01*
X72577200Y-104100600D02*
G75*
G02*
X72381200Y-103904600I0J196000D01*
G01*
X73371200Y-100376600D02*
G75*
G03*
X73175200Y-100180600I-196000J0D01*
G01*
X72261200Y-99690600D02*
G75*
G03*
X72381200Y-99570600I0J120000D01*
G01*
X72914600Y-106971000D02*
X72914600Y-106558250D01*
X72914600Y-106558250D02*
X72844750Y-106488400D01*
X74338000Y-104760200D02*
X74489400Y-104608800D01*
X74341400Y-101348400D02*
X73777400Y-101348400D01*
X73629400Y-100460400D02*
X73629400Y-100386400D01*
X73629400Y-103420400D02*
X73629400Y-103346400D01*
X74341400Y-99868400D02*
X73777400Y-99868400D01*
X74489400Y-103790400D02*
X74489400Y-103716400D01*
X74341400Y-100608400D02*
X73777400Y-100608400D01*
X74362400Y-99046200D02*
X73727400Y-99046200D01*
X74489400Y-101570400D02*
X74489400Y-101496400D01*
X74489400Y-100090400D02*
X74489400Y-100016400D01*
X74489400Y-99350400D02*
X74489400Y-99276400D01*
X73629400Y-101200400D02*
X73629400Y-101126400D01*
X73777400Y-102458400D02*
X74341400Y-102458400D01*
X73270200Y-98589000D02*
X72965400Y-98589000D01*
X74341400Y-103568400D02*
X73777400Y-103568400D01*
X74489400Y-99276400D02*
X74489400Y-99173200D01*
X73777400Y-100238400D02*
X74341400Y-100238400D01*
X74489400Y-100830400D02*
X74489400Y-100756400D01*
X74341400Y-104308400D02*
X73777400Y-104308400D01*
X73777400Y-101718400D02*
X74341400Y-101718400D01*
X74341400Y-102828400D02*
X73777400Y-102828400D01*
X73629400Y-102680400D02*
X73629400Y-102606400D01*
X74341400Y-102088400D02*
X73777400Y-102088400D01*
X73552950Y-104760200D02*
X74338000Y-104760200D01*
X72844750Y-105468400D02*
X73552950Y-104760200D01*
X73777400Y-103198400D02*
X74341400Y-103198400D01*
X73777400Y-99498400D02*
X74341400Y-99498400D01*
X73777400Y-100978400D02*
X74341400Y-100978400D01*
X73629400Y-104160400D02*
X73629400Y-104086400D01*
X73629400Y-99720400D02*
X73629400Y-99646400D01*
X74489400Y-102310400D02*
X74489400Y-102236400D01*
X74489400Y-104608800D02*
X74489400Y-104456400D01*
X74489400Y-103050400D02*
X74489400Y-102976400D01*
X74489400Y-99173200D02*
X74425867Y-99109667D01*
X73629400Y-101940400D02*
X73629400Y-101866400D01*
X74425867Y-99109667D02*
X74362400Y-99046200D01*
X73727400Y-99046200D02*
X73270200Y-98589000D01*
X73777400Y-103938400D02*
X74341400Y-103938400D01*
X74489400Y-102976400D02*
G75*
G03*
X74341400Y-102828400I-148000J0D01*
G01*
X73629400Y-103346400D02*
G75*
G02*
X73777400Y-103198400I148000J0D01*
G01*
X74489400Y-103716400D02*
G75*
G03*
X74341400Y-103568400I-148000J0D01*
G01*
X73629400Y-101126400D02*
G75*
G02*
X73777400Y-100978400I148000J0D01*
G01*
X73777400Y-104308400D02*
G75*
G02*
X73629400Y-104160400I0J148000D01*
G01*
X74489400Y-101496400D02*
G75*
G03*
X74341400Y-101348400I-148000J0D01*
G01*
X73629400Y-101866400D02*
G75*
G02*
X73777400Y-101718400I148000J0D01*
G01*
X74341400Y-103938400D02*
G75*
G03*
X74489400Y-103790400I0J148000D01*
G01*
X74341400Y-99498400D02*
G75*
G03*
X74489400Y-99350400I0J148000D01*
G01*
X73777400Y-102088400D02*
G75*
G02*
X73629400Y-101940400I0J148000D01*
G01*
X74341400Y-101718400D02*
G75*
G03*
X74489400Y-101570400I0J148000D01*
G01*
X74341400Y-103198400D02*
G75*
G03*
X74489400Y-103050400I0J148000D01*
G01*
X74489400Y-102236400D02*
G75*
G03*
X74341400Y-102088400I-148000J0D01*
G01*
X74489400Y-100756400D02*
G75*
G03*
X74341400Y-100608400I-148000J0D01*
G01*
X73629400Y-104086400D02*
G75*
G02*
X73777400Y-103938400I148000J0D01*
G01*
X74341400Y-100978400D02*
G75*
G03*
X74489400Y-100830400I0J148000D01*
G01*
X74341400Y-100238400D02*
G75*
G03*
X74489400Y-100090400I0J148000D01*
G01*
X73629400Y-102606400D02*
G75*
G02*
X73777400Y-102458400I148000J0D01*
G01*
X73629400Y-99646400D02*
G75*
G02*
X73777400Y-99498400I148000J0D01*
G01*
X74489400Y-104456400D02*
G75*
G03*
X74341400Y-104308400I-148000J0D01*
G01*
X74341400Y-102458400D02*
G75*
G03*
X74489400Y-102310400I0J148000D01*
G01*
X74489400Y-100016400D02*
G75*
G03*
X74341400Y-99868400I-148000J0D01*
G01*
X73777400Y-101348400D02*
G75*
G02*
X73629400Y-101200400I0J148000D01*
G01*
X73629400Y-100386400D02*
G75*
G02*
X73777400Y-100238400I148000J0D01*
G01*
X73777400Y-100608400D02*
G75*
G02*
X73629400Y-100460400I0J148000D01*
G01*
X73777400Y-99868400D02*
G75*
G02*
X73629400Y-99720400I0J148000D01*
G01*
X73777400Y-102828400D02*
G75*
G02*
X73629400Y-102680400I0J148000D01*
G01*
X73777400Y-103568400D02*
G75*
G02*
X73629400Y-103420400I0J148000D01*
G01*
X74286200Y-106503100D02*
X74273500Y-106490400D01*
X74286200Y-106971000D02*
X74286200Y-106503100D01*
X75784800Y-102488200D02*
X75784800Y-102414200D01*
X75122800Y-99676200D02*
X75636800Y-99676200D01*
X74974800Y-102118200D02*
X74974800Y-102044200D01*
X75636800Y-103006200D02*
X75122800Y-103006200D01*
X74669200Y-105470400D02*
X75353000Y-104786600D01*
X74974800Y-102858200D02*
X74974800Y-102784200D01*
X75636800Y-103746200D02*
X75122800Y-103746200D01*
X75353000Y-104786600D02*
X75632400Y-104786600D01*
X75784800Y-98563600D02*
X75657800Y-98436600D01*
X75636800Y-99306200D02*
X75122800Y-99306200D01*
X75636800Y-100046200D02*
X75122800Y-100046200D01*
X75657800Y-98436600D02*
X75620052Y-98436600D01*
X75636800Y-102266200D02*
X75122800Y-102266200D01*
X75784800Y-103228200D02*
X75784800Y-103154200D01*
X75784800Y-101008200D02*
X75784800Y-100934200D01*
X74974800Y-101378200D02*
X74974800Y-101304200D01*
X74974800Y-100638200D02*
X74974800Y-100564200D01*
X75784800Y-98788200D02*
X75784800Y-98714200D01*
X75122800Y-101156200D02*
X75636800Y-101156200D01*
X75784800Y-100268200D02*
X75784800Y-100194200D01*
X75753066Y-104665934D02*
X75784800Y-104634200D01*
X75122800Y-98936200D02*
X75636800Y-98936200D01*
X75784800Y-99528200D02*
X75784800Y-99454200D01*
X75620052Y-98436600D02*
X74337000Y-98436600D01*
X74974800Y-99158200D02*
X74974800Y-99084200D01*
X75632400Y-104786600D02*
X75753066Y-104665934D01*
X74974800Y-103598200D02*
X74974800Y-103524200D01*
X75122800Y-104116200D02*
X75636800Y-104116200D01*
X75784800Y-98714200D02*
X75784800Y-98563600D01*
X75784800Y-101748200D02*
X75784800Y-101674200D01*
X75784800Y-103968200D02*
X75784800Y-103894200D01*
X75122800Y-101896200D02*
X75636800Y-101896200D01*
X75636800Y-100786200D02*
X75122800Y-100786200D01*
X75122800Y-100416200D02*
X75636800Y-100416200D01*
X75122800Y-103376200D02*
X75636800Y-103376200D01*
X74273500Y-105470400D02*
X74669200Y-105470400D01*
X75122800Y-102636200D02*
X75636800Y-102636200D01*
X75636800Y-101526200D02*
X75122800Y-101526200D01*
X74974800Y-99898200D02*
X74974800Y-99824200D01*
X75636800Y-104486200D02*
X75122800Y-104486200D01*
X74974800Y-104338200D02*
X74974800Y-104264200D01*
X75122800Y-99306200D02*
G75*
G02*
X74974800Y-99158200I0J148000D01*
G01*
X75784800Y-103894200D02*
G75*
G03*
X75636800Y-103746200I-148000J0D01*
G01*
X75636800Y-99676200D02*
G75*
G03*
X75784800Y-99528200I0J148000D01*
G01*
X74974800Y-99084200D02*
G75*
G02*
X75122800Y-98936200I148000J0D01*
G01*
X74974800Y-102044200D02*
G75*
G02*
X75122800Y-101896200I148000J0D01*
G01*
X75784800Y-102414200D02*
G75*
G03*
X75636800Y-102266200I-148000J0D01*
G01*
X74974800Y-100564200D02*
G75*
G02*
X75122800Y-100416200I148000J0D01*
G01*
X75636800Y-102636200D02*
G75*
G03*
X75784800Y-102488200I0J148000D01*
G01*
X75784800Y-99454200D02*
G75*
G03*
X75636800Y-99306200I-148000J0D01*
G01*
X75122800Y-101526200D02*
G75*
G02*
X74974800Y-101378200I0J148000D01*
G01*
X75636800Y-103376200D02*
G75*
G03*
X75784800Y-103228200I0J148000D01*
G01*
X75784800Y-103154200D02*
G75*
G03*
X75636800Y-103006200I-148000J0D01*
G01*
X75636800Y-98936200D02*
G75*
G03*
X75784800Y-98788200I0J148000D01*
G01*
X75122800Y-103746200D02*
G75*
G02*
X74974800Y-103598200I0J148000D01*
G01*
X74974800Y-104264200D02*
G75*
G02*
X75122800Y-104116200I148000J0D01*
G01*
X75122800Y-100786200D02*
G75*
G02*
X74974800Y-100638200I0J148000D01*
G01*
X74974800Y-103524200D02*
G75*
G02*
X75122800Y-103376200I148000J0D01*
G01*
X75122800Y-102266200D02*
G75*
G02*
X74974800Y-102118200I0J148000D01*
G01*
X75122800Y-103006200D02*
G75*
G02*
X74974800Y-102858200I0J148000D01*
G01*
X75784800Y-104634200D02*
G75*
G03*
X75636800Y-104486200I-148000J0D01*
G01*
X75784800Y-100194200D02*
G75*
G03*
X75636800Y-100046200I-148000J0D01*
G01*
X74974800Y-101304200D02*
G75*
G02*
X75122800Y-101156200I148000J0D01*
G01*
X75784800Y-100934200D02*
G75*
G03*
X75636800Y-100786200I-148000J0D01*
G01*
X75636800Y-104116200D02*
G75*
G03*
X75784800Y-103968200I0J148000D01*
G01*
X75636800Y-101156200D02*
G75*
G03*
X75784800Y-101008200I0J148000D01*
G01*
X74974800Y-99824200D02*
G75*
G02*
X75122800Y-99676200I148000J0D01*
G01*
X75122800Y-104486200D02*
G75*
G02*
X74974800Y-104338200I0J148000D01*
G01*
X75636800Y-101896200D02*
G75*
G03*
X75784800Y-101748200I0J148000D01*
G01*
X75784800Y-101674200D02*
G75*
G03*
X75636800Y-101526200I-148000J0D01*
G01*
X75636800Y-100416200D02*
G75*
G03*
X75784800Y-100268200I0J148000D01*
G01*
X75122800Y-100046200D02*
G75*
G02*
X74974800Y-99898200I0J148000D01*
G01*
X74974800Y-102784200D02*
G75*
G02*
X75122800Y-102636200I148000J0D01*
G01*
X71746200Y-106996400D02*
X71416000Y-106666200D01*
X71416000Y-106666200D02*
X71416000Y-106488400D01*
X71734600Y-104116015D02*
X71012600Y-104116015D01*
X71822400Y-99579600D02*
X71898600Y-99655800D01*
X71898600Y-99655800D02*
X71898600Y-99852015D01*
X71898600Y-100836015D02*
X71012600Y-100836015D01*
X71898600Y-103296015D02*
X71012600Y-103296015D01*
X71012600Y-101246015D02*
X71898600Y-101246015D01*
X72084600Y-102476015D02*
X71898600Y-102476015D01*
X71898600Y-103706015D02*
X72023600Y-103706015D01*
X71462600Y-100426015D02*
X71734600Y-100426015D01*
X70848600Y-101000015D02*
X70848600Y-101082015D01*
X71898600Y-100426015D02*
X72048600Y-100426015D01*
X72148600Y-103831015D02*
X72148600Y-103991015D01*
X71898600Y-102476015D02*
X71312600Y-102476015D01*
X71898600Y-101246015D02*
X72134600Y-101246015D01*
X72023600Y-103296015D02*
X71898600Y-103296015D01*
X70848600Y-104280015D02*
X70848600Y-104362015D01*
X71898600Y-104985800D02*
X71670732Y-105213668D01*
X72148600Y-103011015D02*
X72148600Y-103171015D01*
X71312600Y-102886015D02*
X71898600Y-102886015D01*
X72198600Y-100576015D02*
X72198600Y-100686015D01*
X72023600Y-104116015D02*
X71898600Y-104116015D01*
X71898600Y-101656015D02*
X71012600Y-101656015D01*
X71012600Y-103706015D02*
X71898600Y-103706015D01*
X71012600Y-104526015D02*
X71734600Y-104526015D01*
X71898600Y-104116015D02*
X71734600Y-104116015D01*
X71012600Y-102066015D02*
X71898600Y-102066015D01*
X71898600Y-102066015D02*
X72084600Y-102066015D01*
X70848600Y-103460015D02*
X70848600Y-103542015D01*
X70848600Y-101820015D02*
X70848600Y-101902015D01*
X71734600Y-100016015D02*
X71462600Y-100016015D01*
X72048600Y-100836015D02*
X71898600Y-100836015D01*
X71898600Y-102886015D02*
X72023600Y-102886015D01*
X71298600Y-100180015D02*
X71298600Y-100262015D01*
X72298600Y-101410015D02*
X72298600Y-101492015D01*
X71898600Y-104772015D02*
X71898600Y-104985800D01*
X72248600Y-102230015D02*
X72248600Y-102312015D01*
X72134600Y-101656015D02*
X71898600Y-101656015D01*
X71670732Y-105213668D02*
X71416000Y-105468400D01*
X71734600Y-100426015D02*
X71898600Y-100426015D01*
X71148600Y-102640015D02*
X71148600Y-102722015D01*
X71898600Y-104690015D02*
X71898600Y-104772015D01*
X72298600Y-101492015D02*
G75*
G02*
X72134600Y-101656000I-164000J15D01*
G01*
X71012600Y-104116015D02*
G75*
G03*
X70848615Y-104280015I0J-163985D01*
G01*
X72023600Y-103706015D02*
G75*
G02*
X72148585Y-103831015I0J-124985D01*
G01*
X72148600Y-103991015D02*
G75*
G02*
X72023600Y-104116000I-125000J15D01*
G01*
X71298600Y-100262015D02*
G75*
G03*
X71462600Y-100426000I164000J15D01*
G01*
X72198600Y-100686015D02*
G75*
G02*
X72048600Y-100836000I-150000J15D01*
G01*
X72134600Y-101246015D02*
G75*
G02*
X72298585Y-101410015I0J-163985D01*
G01*
X71012600Y-101656015D02*
G75*
G03*
X70848615Y-101820015I0J-163985D01*
G01*
X71312600Y-102476015D02*
G75*
G03*
X71148615Y-102640015I0J-163985D01*
G01*
X71148600Y-102722015D02*
G75*
G03*
X71312600Y-102886000I164000J15D01*
G01*
X72084600Y-102066015D02*
G75*
G02*
X72248585Y-102230015I0J-163985D01*
G01*
X72148600Y-103171015D02*
G75*
G02*
X72023600Y-103296000I-125000J15D01*
G01*
X71734600Y-104526015D02*
G75*
G02*
X71898585Y-104690015I0J-163985D01*
G01*
X70848600Y-104362015D02*
G75*
G03*
X71012600Y-104526000I164000J15D01*
G01*
X71462600Y-100016015D02*
G75*
G03*
X71298615Y-100180015I0J-163985D01*
G01*
X70848600Y-101082015D02*
G75*
G03*
X71012600Y-101246000I164000J15D01*
G01*
X72048600Y-100426015D02*
G75*
G02*
X72198585Y-100576015I0J-149985D01*
G01*
X71898600Y-99852015D02*
G75*
G02*
X71734600Y-100016000I-164000J15D01*
G01*
X72023600Y-102886015D02*
G75*
G02*
X72148585Y-103011015I0J-124985D01*
G01*
X70848600Y-103542015D02*
G75*
G03*
X71012600Y-103706000I164000J15D01*
G01*
X72248600Y-102312015D02*
G75*
G02*
X72084600Y-102476000I-164000J15D01*
G01*
X71012600Y-100836015D02*
G75*
G03*
X70848615Y-101000015I0J-163985D01*
G01*
X70848600Y-101902015D02*
G75*
G03*
X71012600Y-102066000I164000J15D01*
G01*
X71012600Y-103296015D02*
G75*
G03*
X70848615Y-103460015I0J-163985D01*
G01*
X70146000Y-106971000D02*
X69987250Y-106812250D01*
X69987250Y-106812250D02*
X69987250Y-106488400D01*
X68725800Y-103036800D02*
X69397800Y-103036800D01*
X70297800Y-100102800D02*
X69725800Y-100102800D01*
X70401000Y-99130782D02*
X70179782Y-99352000D01*
X69397800Y-102626800D02*
X68725800Y-102626800D01*
X70401000Y-98994400D02*
X70401000Y-99130782D01*
X69561800Y-102380800D02*
X69561800Y-102462800D01*
X68561800Y-102790800D02*
X68561800Y-102872800D01*
X68561800Y-104430800D02*
X68561800Y-104512800D01*
X70179782Y-99352000D02*
X69738600Y-99352000D01*
X69725800Y-100102800D02*
X69561800Y-100102800D01*
X69561800Y-104922800D02*
X69561800Y-105042950D01*
X69397800Y-104266800D02*
X68725800Y-104266800D01*
X69561800Y-104020800D02*
X69561800Y-104102800D01*
X69738600Y-99352000D02*
X69561800Y-99528800D01*
X68725800Y-102216800D02*
X69397800Y-102216800D01*
X69561800Y-105042950D02*
X69680631Y-105161781D01*
X69397800Y-101806800D02*
X68725800Y-101806800D01*
X69725800Y-99692800D02*
X70297800Y-99692800D01*
X68725800Y-103856800D02*
X69397800Y-103856800D01*
X69680631Y-105161781D02*
X69987250Y-105468400D01*
X70527000Y-98868400D02*
X70401000Y-98994400D01*
X68561800Y-101150800D02*
X68561800Y-101232800D01*
X68725800Y-101396800D02*
X69397800Y-101396800D01*
X69361800Y-100202800D02*
X69361800Y-100412800D01*
X70461800Y-99856800D02*
X70461800Y-99938800D01*
X68561800Y-101970800D02*
X68561800Y-102052800D01*
X69561800Y-101560800D02*
X69561800Y-101642800D01*
X68725800Y-104676800D02*
X69397800Y-104676800D01*
X69561800Y-104840800D02*
X69561800Y-104922800D01*
X70654000Y-98868400D02*
X70527000Y-98868400D01*
X69561800Y-103200800D02*
X69561800Y-103282800D01*
X69397800Y-103446800D02*
X68725800Y-103446800D01*
X68561800Y-103610800D02*
X68561800Y-103692800D01*
X69561800Y-100612800D02*
X69561800Y-100822800D01*
X69397800Y-100986800D02*
X68725800Y-100986800D01*
X69561800Y-100102800D02*
X69461800Y-100102800D01*
X68561800Y-102052800D02*
G75*
G03*
X68725800Y-102216800I164000J0D01*
G01*
X69397800Y-104676800D02*
G75*
G02*
X69561800Y-104840800I0J-164000D01*
G01*
X69361800Y-100412800D02*
G75*
G03*
X69461800Y-100512800I100000J0D01*
G01*
X69397800Y-103036800D02*
G75*
G02*
X69561800Y-103200800I0J-164000D01*
G01*
X68561800Y-103692800D02*
G75*
G03*
X68725800Y-103856800I164000J0D01*
G01*
X69561800Y-101642800D02*
G75*
G02*
X69397800Y-101806800I-164000J0D01*
G01*
X69397800Y-103856800D02*
G75*
G02*
X69561800Y-104020800I0J-164000D01*
G01*
X68725800Y-103446800D02*
G75*
G03*
X68561800Y-103610800I0J-164000D01*
G01*
X69561800Y-100822800D02*
G75*
G02*
X69397800Y-100986800I-164000J0D01*
G01*
X68725800Y-100986800D02*
G75*
G03*
X68561800Y-101150800I0J-164000D01*
G01*
X69561800Y-103282800D02*
G75*
G02*
X69397800Y-103446800I-164000J0D01*
G01*
X68725800Y-104266800D02*
G75*
G03*
X68561800Y-104430800I0J-164000D01*
G01*
X68561800Y-101232800D02*
G75*
G03*
X68725800Y-101396800I164000J0D01*
G01*
X69561800Y-99528800D02*
G75*
G03*
X69725800Y-99692800I164000J0D01*
G01*
X70461800Y-99938800D02*
G75*
G02*
X70297800Y-100102800I-164000J0D01*
G01*
X69397800Y-102216800D02*
G75*
G02*
X69561800Y-102380800I0J-164000D01*
G01*
X69561800Y-102462800D02*
G75*
G02*
X69397800Y-102626800I-164000J0D01*
G01*
X68561800Y-104512800D02*
G75*
G03*
X68725800Y-104676800I164000J0D01*
G01*
X70297800Y-99692800D02*
G75*
G02*
X70461800Y-99856800I0J-164000D01*
G01*
X68725800Y-102626800D02*
G75*
G03*
X68561800Y-102790800I0J-164000D01*
G01*
X69461800Y-100102800D02*
G75*
G03*
X69361800Y-100202800I0J-100000D01*
G01*
X68725800Y-101806800D02*
G75*
G03*
X68561800Y-101970800I0J-164000D01*
G01*
X69461800Y-100512800D02*
G75*
G02*
X69561800Y-100612800I0J-100000D01*
G01*
X68561800Y-102872800D02*
G75*
G03*
X68725800Y-103036800I164000J0D01*
G01*
X69561800Y-104102800D02*
G75*
G02*
X69397800Y-104266800I-164000J0D01*
G01*
X69397800Y-101396800D02*
G75*
G02*
X69561800Y-101560800I0J-164000D01*
G01*
X68799800Y-106729700D02*
X68558500Y-106488400D01*
X68799800Y-106945600D02*
X68799800Y-106729700D01*
X69002764Y-99616800D02*
X69046764Y-99616800D01*
X68239046Y-99598996D02*
X67978830Y-99338780D01*
X67439600Y-102478000D02*
X67439600Y-102258000D01*
X67325600Y-104836400D02*
X67199600Y-104710400D01*
X69442764Y-98766800D02*
X69486764Y-98766800D01*
X67787912Y-100214179D02*
X67828924Y-100173166D01*
X68288482Y-98865082D02*
X68386764Y-98766800D01*
X69134764Y-98766800D02*
X69134764Y-98678800D01*
X67199600Y-102018000D02*
X67199600Y-101798000D01*
X68148782Y-105472400D02*
X67512782Y-104836400D01*
X69354764Y-98054800D02*
X69354764Y-98678800D01*
X67512782Y-104836400D02*
X67325600Y-104836400D01*
X68019843Y-99133720D02*
X68161482Y-98992082D01*
X68558500Y-105468400D02*
X68245000Y-105468400D01*
X67609721Y-99543842D02*
X67609722Y-99543842D01*
X69486764Y-98766800D02*
X69815800Y-98766800D01*
X68914764Y-98504800D02*
X68914764Y-98766800D01*
X67439600Y-104318000D02*
X67439600Y-104098000D01*
X68914764Y-98766800D02*
X68914764Y-99528800D01*
X69134764Y-98678800D02*
X69134764Y-98054800D01*
X68474764Y-98854800D02*
X68474764Y-99528800D01*
X68562764Y-99616800D02*
X68606764Y-99616800D01*
X67199600Y-103858000D02*
X67199600Y-103638000D01*
X68198034Y-99804057D02*
X68239046Y-99763044D01*
X68694764Y-98766800D02*
X68694764Y-98504800D01*
X68245000Y-105468400D02*
X68241000Y-105472400D01*
X67439600Y-101558000D02*
X67439600Y-101338000D01*
X67199600Y-102938000D02*
X67199600Y-102718000D01*
X67199600Y-101098000D02*
X67199600Y-100878000D01*
X69134764Y-99528800D02*
X69134764Y-98766800D01*
X67199600Y-100809685D02*
X67199600Y-100773400D01*
X67199600Y-104710400D02*
X67199600Y-104558000D01*
X67199600Y-100878000D02*
X67199600Y-100809685D01*
X67568708Y-99584853D02*
X67609721Y-99543842D01*
X69222764Y-97966800D02*
X69266764Y-97966800D01*
X67773770Y-99543842D02*
X68033985Y-99804057D01*
X68782764Y-98416800D02*
X68826764Y-98416800D01*
X68241000Y-105472400D02*
X68148782Y-105472400D01*
X67363648Y-99953964D02*
X67623863Y-100214179D01*
X68694764Y-99528800D02*
X68694764Y-98854800D01*
X68694764Y-98854800D02*
X68694764Y-98766800D01*
X67439600Y-103398000D02*
X67439600Y-103178000D01*
X67199600Y-100773400D02*
X67199600Y-100093400D01*
X67978830Y-99174731D02*
X68019843Y-99133720D01*
X67828924Y-100009118D02*
X67568708Y-99748902D01*
X67199600Y-100093400D02*
X67199600Y-99953964D01*
X68161482Y-98992082D02*
X68288482Y-98865082D01*
X69134764Y-98054800D02*
G75*
G02*
X69222764Y-97966764I88036J0D01*
G01*
X68826764Y-98416800D02*
G75*
G02*
X68914800Y-98504800I36J-88000D01*
G01*
X67319600Y-102598000D02*
G75*
G03*
X67439600Y-102478000I0J120000D01*
G01*
X68694764Y-98504800D02*
G75*
G02*
X68782764Y-98416764I88036J0D01*
G01*
X67439600Y-102258000D02*
G75*
G03*
X67319600Y-102138000I-120000J0D01*
G01*
X67439600Y-101338000D02*
G75*
G03*
X67319600Y-101218000I-120000J0D01*
G01*
X69046764Y-99616800D02*
G75*
G03*
X69134800Y-99528800I36J88000D01*
G01*
X67199600Y-102718000D02*
G75*
G02*
X67319600Y-102598000I120000J0D01*
G01*
X67319600Y-102138000D02*
G75*
G02*
X67199600Y-102018000I0J120000D01*
G01*
X67319600Y-104438000D02*
G75*
G03*
X67439600Y-104318000I0J120000D01*
G01*
X67319600Y-101678000D02*
G75*
G03*
X67439600Y-101558000I0J120000D01*
G01*
X67319600Y-103518000D02*
G75*
G03*
X67439600Y-103398000I0J120000D01*
G01*
X67978830Y-99338780D02*
G75*
G02*
X67978874Y-99174775I82070J81980D01*
G01*
X68606764Y-99616800D02*
G75*
G03*
X68694800Y-99528800I36J88000D01*
G01*
X67568708Y-99748902D02*
G75*
G02*
X67568730Y-99584876I81992J82002D01*
G01*
X68474764Y-99528800D02*
G75*
G03*
X68562764Y-99616836I88036J0D01*
G01*
X69266764Y-97966800D02*
G75*
G02*
X69354800Y-98054800I36J-88000D01*
G01*
X67828924Y-100173166D02*
G75*
G03*
X67828966Y-100009076I-82024J82066D01*
G01*
X68239046Y-99763044D02*
G75*
G03*
X68239066Y-99598976I-82046J82044D01*
G01*
X69354764Y-98678800D02*
G75*
G03*
X69442764Y-98766836I88036J0D01*
G01*
X67319600Y-103058000D02*
G75*
G02*
X67199600Y-102938000I0J120000D01*
G01*
X67199600Y-103638000D02*
G75*
G02*
X67319600Y-103518000I120000J0D01*
G01*
X68386764Y-98766800D02*
G75*
G02*
X68474800Y-98854800I36J-88000D01*
G01*
X67319600Y-103978000D02*
G75*
G02*
X67199600Y-103858000I0J120000D01*
G01*
X67623863Y-100214179D02*
G75*
G03*
X67787912Y-100214180I82025J82027D01*
G01*
X68914764Y-99528800D02*
G75*
G03*
X69002764Y-99616836I88036J0D01*
G01*
X67609722Y-99543842D02*
G75*
G02*
X67773770Y-99543842I82024J-82026D01*
G01*
X67199600Y-101798000D02*
G75*
G02*
X67319600Y-101678000I120000J0D01*
G01*
X67439600Y-104098000D02*
G75*
G03*
X67319600Y-103978000I-120000J0D01*
G01*
X67439600Y-103178000D02*
G75*
G03*
X67319600Y-103058000I-120000J0D01*
G01*
X67199600Y-99953964D02*
G75*
G02*
X67363648Y-99953964I82024J-82026D01*
G01*
X67319600Y-101218000D02*
G75*
G02*
X67199600Y-101098000I0J120000D01*
G01*
X68033985Y-99804057D02*
G75*
G03*
X68198034Y-99804058I82025J82027D01*
G01*
X67199600Y-104558000D02*
G75*
G02*
X67319600Y-104438000I120000J0D01*
G01*
X67428200Y-106971000D02*
X67428200Y-106790850D01*
X67428200Y-106790850D02*
X67129750Y-106492400D01*
X66588600Y-100718418D02*
X66360600Y-100718418D01*
X66764600Y-103622418D02*
X66764600Y-103534418D01*
X66588600Y-101598418D02*
X66360600Y-101598418D01*
X66184600Y-103182418D02*
X66184600Y-103094418D01*
X66184600Y-100542418D02*
X66184600Y-100454418D01*
X69863282Y-97204700D02*
X69904700Y-97204700D01*
X69849582Y-97218400D02*
X69863282Y-97204700D01*
X66184600Y-100391400D02*
X66288352Y-100287648D01*
X66360600Y-104678418D02*
X66588600Y-104678418D01*
X66288352Y-100287648D02*
X69357600Y-97218400D01*
X66764600Y-102742418D02*
X66764600Y-102654418D01*
X66184600Y-100454418D02*
X66184600Y-100391400D01*
X66793200Y-105135850D02*
X66466032Y-105135850D01*
X66764600Y-100982418D02*
X66764600Y-100894418D01*
X66360600Y-101158418D02*
X66588600Y-101158418D01*
X66360600Y-102918418D02*
X66588600Y-102918418D01*
X66588600Y-104238418D02*
X66360600Y-104238418D01*
X70247600Y-96861800D02*
X70654000Y-96861800D01*
X66360600Y-102038418D02*
X66588600Y-102038418D01*
X66184600Y-102302418D02*
X66184600Y-102214418D01*
X66466032Y-105135850D02*
X66184600Y-104854418D01*
X66360600Y-103798418D02*
X66588600Y-103798418D01*
X66588600Y-102478418D02*
X66360600Y-102478418D01*
X66764600Y-104502418D02*
X66764600Y-104414418D01*
X69904700Y-97204700D02*
X70247600Y-96861800D01*
X66184600Y-104062418D02*
X66184600Y-103974418D01*
X67129750Y-105472400D02*
X66793200Y-105135850D01*
X66764600Y-101862418D02*
X66764600Y-101774418D01*
X66588600Y-103358418D02*
X66360600Y-103358418D01*
X69357600Y-97218400D02*
X69849582Y-97218400D01*
X66184600Y-101422418D02*
X66184600Y-101334418D01*
X66184600Y-103094418D02*
G75*
G02*
X66360600Y-102918400I176000J18D01*
G01*
X66588600Y-101158418D02*
G75*
G03*
X66764618Y-100982418I0J176018D01*
G01*
X66184600Y-104854418D02*
G75*
G02*
X66360600Y-104678400I176000J18D01*
G01*
X66360600Y-104238418D02*
G75*
G02*
X66184582Y-104062418I0J176018D01*
G01*
X66588600Y-102038418D02*
G75*
G03*
X66764618Y-101862418I0J176018D01*
G01*
X66184600Y-102214418D02*
G75*
G02*
X66360600Y-102038400I176000J18D01*
G01*
X66588600Y-104678418D02*
G75*
G03*
X66764618Y-104502418I0J176018D01*
G01*
X66588600Y-102918418D02*
G75*
G03*
X66764618Y-102742418I0J176018D01*
G01*
X66764600Y-100894418D02*
G75*
G03*
X66588600Y-100718400I-176000J18D01*
G01*
X66360600Y-100718418D02*
G75*
G02*
X66184582Y-100542418I0J176018D01*
G01*
X66184600Y-103974418D02*
G75*
G02*
X66360600Y-103798400I176000J18D01*
G01*
X66764600Y-103534418D02*
G75*
G03*
X66588600Y-103358400I-176000J18D01*
G01*
X66764600Y-101774418D02*
G75*
G03*
X66588600Y-101598400I-176000J18D01*
G01*
X66184600Y-101334418D02*
G75*
G02*
X66360600Y-101158400I176000J18D01*
G01*
X66360600Y-103358418D02*
G75*
G02*
X66184582Y-103182418I0J176018D01*
G01*
X66360600Y-102478418D02*
G75*
G02*
X66184582Y-102302418I0J176018D01*
G01*
X66588600Y-103798418D02*
G75*
G03*
X66764618Y-103622418I0J176018D01*
G01*
X66764600Y-104414418D02*
G75*
G03*
X66588600Y-104238400I-176000J18D01*
G01*
X66764600Y-102654418D02*
G75*
G03*
X66588600Y-102478400I-176000J18D01*
G01*
X66360600Y-101598418D02*
G75*
G02*
X66184582Y-101422418I0J176018D01*
G01*
X69663400Y-96582400D02*
X69333200Y-96582400D01*
X65747800Y-104239806D02*
X65747800Y-104337806D01*
X65117800Y-102769806D02*
X65117800Y-102867806D01*
X65551800Y-101593806D02*
X65313800Y-101593806D01*
X65117800Y-101789806D02*
X65117800Y-101887806D01*
X65117800Y-100797800D02*
X65117800Y-100907806D01*
X65313800Y-101103806D02*
X65551800Y-101103806D01*
X65117800Y-104729806D02*
X65117800Y-104827806D01*
X65747800Y-101299806D02*
X65747800Y-101397806D01*
X65551800Y-103553806D02*
X65313800Y-103553806D01*
X65551800Y-104533806D02*
X65313800Y-104533806D01*
X65117800Y-103749806D02*
X65117800Y-103847806D01*
X65313800Y-104043806D02*
X65551800Y-104043806D01*
X65117800Y-104889200D02*
X65701000Y-105472400D01*
X69333200Y-96582400D02*
X65117800Y-100797800D01*
X65117800Y-104860196D02*
X65117800Y-104889200D01*
X65747800Y-103259806D02*
X65747800Y-103357806D01*
X65551800Y-102573806D02*
X65313800Y-102573806D01*
X65747800Y-102279806D02*
X65747800Y-102377806D01*
X65117800Y-104827806D02*
X65117800Y-104860196D01*
X65313800Y-102083806D02*
X65551800Y-102083806D01*
X65313800Y-103063806D02*
X65551800Y-103063806D01*
X65551800Y-102083806D02*
G75*
G02*
X65747794Y-102279806I0J-195994D01*
G01*
X65551800Y-103063806D02*
G75*
G02*
X65747794Y-103259806I0J-195994D01*
G01*
X65747800Y-104337806D02*
G75*
G02*
X65551800Y-104533800I-196000J6D01*
G01*
X65117800Y-101887806D02*
G75*
G03*
X65313800Y-102083800I196000J6D01*
G01*
X65313800Y-104533806D02*
G75*
G03*
X65117806Y-104729806I0J-195994D01*
G01*
X65313800Y-102573806D02*
G75*
G03*
X65117806Y-102769806I0J-195994D01*
G01*
X65747800Y-103357806D02*
G75*
G02*
X65551800Y-103553800I-196000J6D01*
G01*
X65117800Y-100907806D02*
G75*
G03*
X65313800Y-101103800I196000J6D01*
G01*
X65551800Y-101103806D02*
G75*
G02*
X65747794Y-101299806I0J-195994D01*
G01*
X65747800Y-101397806D02*
G75*
G02*
X65551800Y-101593800I-196000J6D01*
G01*
X65313800Y-103553806D02*
G75*
G03*
X65117806Y-103749806I0J-195994D01*
G01*
X65313800Y-101593806D02*
G75*
G03*
X65117806Y-101789806I0J-195994D01*
G01*
X65117800Y-103847806D02*
G75*
G03*
X65313800Y-104043800I196000J6D01*
G01*
X65747800Y-102377806D02*
G75*
G02*
X65551800Y-102573800I-196000J6D01*
G01*
X65551800Y-104043806D02*
G75*
G02*
X65747794Y-104239806I0J-195994D01*
G01*
X65117800Y-102867806D02*
G75*
G03*
X65313800Y-103063800I196000J6D01*
G01*
X65929600Y-107021800D02*
X65929600Y-106721000D01*
X65929600Y-106721000D02*
X65701000Y-106492400D01*
X66292820Y-111339800D02*
X64260820Y-109307800D01*
X71898600Y-111339800D02*
X66292820Y-111339800D01*
X64608800Y-100494000D02*
X69892000Y-95210800D01*
X64608800Y-107939820D02*
X64608800Y-100494000D01*
X64260820Y-108287800D02*
X64608800Y-107939820D01*
X69892000Y-95210800D02*
X70501600Y-95210800D01*
X77080200Y-106945600D02*
X77080200Y-106513800D01*
X77080200Y-106513800D02*
X77131000Y-106463000D01*
X75577600Y-95823200D02*
X75577600Y-95761200D01*
X73371800Y-95033000D02*
X73371800Y-95210800D01*
X76081600Y-96617200D02*
X76153600Y-96617200D01*
X74629600Y-95388600D02*
X74845000Y-95388600D01*
X77233600Y-95617200D02*
X77613600Y-95617200D01*
X73837600Y-95088600D02*
X73909600Y-95088600D01*
X73693600Y-95244600D02*
X73693600Y-95232600D01*
X75721600Y-95617200D02*
X75793600Y-95617200D01*
X77994600Y-95998200D02*
X77994600Y-104862800D01*
X74053600Y-95244600D02*
X74053600Y-95532600D01*
X74053600Y-95232600D02*
X74053600Y-95244600D01*
X75217600Y-95761200D02*
X75217600Y-95823200D01*
X77613600Y-95617200D02*
X77655718Y-95659318D01*
X76657600Y-95761200D02*
X76657600Y-96623200D01*
X76297600Y-96473200D02*
X76297600Y-95761200D01*
X74557600Y-95388600D02*
X74629600Y-95388600D01*
X77994600Y-104862800D02*
X77414400Y-105443000D01*
X76441600Y-95617200D02*
X76513600Y-95617200D01*
X77414400Y-105443000D02*
X77131000Y-105443000D01*
X74053600Y-95532600D02*
X74053600Y-95694600D01*
X76801600Y-96767200D02*
X76873600Y-96767200D01*
X75937600Y-95761200D02*
X75937600Y-96473200D01*
X77017600Y-96623200D02*
X77017600Y-95761200D01*
X74197600Y-95838600D02*
X74269600Y-95838600D01*
X77655718Y-95659318D02*
X77994600Y-95998200D01*
X77161600Y-95617200D02*
X77233600Y-95617200D01*
X73371800Y-95210800D02*
X73415566Y-95254566D01*
X74845000Y-95388600D02*
X75073600Y-95617200D01*
X73415566Y-95254566D02*
X73549600Y-95388600D01*
X74413600Y-95694600D02*
X74413600Y-95532600D01*
X75361600Y-95967200D02*
X75433600Y-95967200D01*
X76513600Y-95617200D02*
G75*
G02*
X76657600Y-95761200I0J-144000D01*
G01*
X73549600Y-95388600D02*
G75*
G03*
X73693600Y-95244600I0J144000D01*
G01*
X75073600Y-95617200D02*
G75*
G02*
X75217600Y-95761200I0J-144000D01*
G01*
X75793600Y-95617200D02*
G75*
G02*
X75937600Y-95761200I0J-144000D01*
G01*
X75433600Y-95967200D02*
G75*
G03*
X75577600Y-95823200I0J144000D01*
G01*
X74269600Y-95838600D02*
G75*
G03*
X74413600Y-95694600I0J144000D01*
G01*
X74413600Y-95532600D02*
G75*
G02*
X74557600Y-95388600I144000J0D01*
G01*
X76153600Y-96617200D02*
G75*
G03*
X76297600Y-96473200I0J144000D01*
G01*
X76873600Y-96767200D02*
G75*
G03*
X77017600Y-96623200I0J144000D01*
G01*
X73909600Y-95088600D02*
G75*
G02*
X74053600Y-95232600I0J-144000D01*
G01*
X73693600Y-95232600D02*
G75*
G02*
X73837600Y-95088600I144000J0D01*
G01*
X75937600Y-96473200D02*
G75*
G03*
X76081600Y-96617200I144000J0D01*
G01*
X74053600Y-95694600D02*
G75*
G03*
X74197600Y-95838600I144000J0D01*
G01*
X76297600Y-95761200D02*
G75*
G02*
X76441600Y-95617200I144000J0D01*
G01*
X75577600Y-95761200D02*
G75*
G02*
X75721600Y-95617200I144000J0D01*
G01*
X76657600Y-96623200D02*
G75*
G03*
X76801600Y-96767200I144000J0D01*
G01*
X75217600Y-95823200D02*
G75*
G03*
X75361600Y-95967200I144000J0D01*
G01*
X77017600Y-95761200D02*
G75*
G02*
X77161600Y-95617200I144000J0D01*
G01*
X77969200Y-109282400D02*
X78553400Y-109282400D01*
X76343600Y-110908000D02*
X77969200Y-109282400D01*
X76343600Y-111365200D02*
X76343600Y-110908000D01*
X75942200Y-94406000D02*
X75842200Y-94406000D01*
X78198800Y-95913618D02*
X78197800Y-95912618D01*
X76142200Y-95206000D02*
X76142200Y-94906000D01*
X78553400Y-108262400D02*
X77791400Y-107500400D01*
X75642200Y-94906000D02*
X75642200Y-95106000D01*
X74842200Y-94906000D02*
X74533031Y-94906000D01*
X75142200Y-95206000D02*
X75142200Y-95106000D01*
X74362400Y-94906000D02*
X74337000Y-94931400D01*
X77142200Y-95206000D02*
X77142200Y-95106000D01*
X76642200Y-94906000D02*
X76642200Y-95206000D01*
X77142200Y-94906000D02*
X77142200Y-94606000D01*
X78198800Y-104947382D02*
X78198800Y-95913618D01*
X78197800Y-95912618D02*
X78197800Y-95261600D01*
X74942200Y-94906000D02*
X74842200Y-94906000D01*
X77791400Y-105354782D02*
X78198800Y-104947382D01*
X77442200Y-95406000D02*
X77342200Y-95406000D01*
X77142200Y-95106000D02*
X77142200Y-94906000D01*
X78197800Y-95261600D02*
X77842200Y-94906000D01*
X76442200Y-95406000D02*
X76342200Y-95406000D01*
X74533031Y-94906000D02*
X74362400Y-94906000D01*
X75442200Y-95406000D02*
X75342200Y-95406000D01*
X76642200Y-94606000D02*
X76642200Y-94906000D01*
X77791400Y-107500400D02*
X77791400Y-105354782D01*
X76942200Y-94406000D02*
X76842200Y-94406000D01*
X77642200Y-95106000D02*
X77642200Y-95206000D01*
X75642200Y-94606000D02*
X75642200Y-94906000D01*
X75642200Y-95106000D02*
X75642200Y-95206000D01*
X76142200Y-94906000D02*
X76142200Y-94606000D01*
X76142200Y-94606000D02*
G75*
G03*
X75942200Y-94406000I-200000J0D01*
G01*
X77642200Y-95206000D02*
G75*
G02*
X77442200Y-95406000I-200000J0D01*
G01*
X75342200Y-95406000D02*
G75*
G02*
X75142200Y-95206000I0J200000D01*
G01*
X76642200Y-95206000D02*
G75*
G02*
X76442200Y-95406000I-200000J0D01*
G01*
X75142200Y-95106000D02*
G75*
G03*
X74942200Y-94906000I-200000J0D01*
G01*
X75842200Y-94406000D02*
G75*
G03*
X75642200Y-94606000I0J-200000D01*
G01*
X77342200Y-95406000D02*
G75*
G02*
X77142200Y-95206000I0J200000D01*
G01*
X75642200Y-95206000D02*
G75*
G02*
X75442200Y-95406000I-200000J0D01*
G01*
X77142200Y-94606000D02*
G75*
G03*
X76942200Y-94406000I-200000J0D01*
G01*
X77842200Y-94906000D02*
G75*
G03*
X77642200Y-95106000I0J-200000D01*
G01*
X76842200Y-94406000D02*
G75*
G03*
X76642200Y-94606000I0J-200000D01*
G01*
X76342200Y-95406000D02*
G75*
G02*
X76142200Y-95206000I0J200000D01*
G01*
X75202200Y-96665900D02*
X75202200Y-97325900D01*
X74952200Y-97325900D02*
X74952200Y-96665900D01*
X76738800Y-97218400D02*
X76751000Y-97218400D01*
X74952200Y-96665900D02*
X74952200Y-96565900D01*
X73779800Y-96380800D02*
X73119800Y-96380800D01*
X75607000Y-97217400D02*
X75504400Y-97114800D01*
X73879800Y-95871200D02*
X73702000Y-95693400D01*
X76486618Y-105015200D02*
X76157450Y-105015200D01*
X73879800Y-95980800D02*
X73879800Y-95871200D01*
X73702000Y-95693400D02*
X73295600Y-95693400D01*
X74952200Y-96565900D02*
X74952200Y-96485900D01*
X75102200Y-97425900D02*
X75052200Y-97425900D01*
X76576800Y-97770400D02*
X76576800Y-97326400D01*
X75657800Y-97217400D02*
X75607000Y-97217400D01*
X75766800Y-97326400D02*
X75766800Y-97770400D01*
X76902400Y-97420600D02*
X76902400Y-104599418D01*
X74602200Y-97175900D02*
X74552200Y-97175900D01*
X73964900Y-96565900D02*
X73879800Y-96480800D01*
X73119800Y-96130800D02*
X73779800Y-96130800D01*
X76157450Y-105015200D02*
X75702250Y-105470400D01*
X73295600Y-95693400D02*
X73194036Y-95794964D01*
X75504400Y-97114800D02*
X75504400Y-96683000D01*
X76902400Y-104599418D02*
X76486618Y-105015200D01*
X74452200Y-97075900D02*
X74452200Y-96665900D01*
X75387300Y-96565900D02*
X75302200Y-96565900D01*
X74702200Y-96665900D02*
X74702200Y-97075900D01*
X74702200Y-96565900D02*
X74702200Y-96665900D01*
X76684800Y-97218400D02*
X76738800Y-97218400D01*
X73194036Y-95794964D02*
X73194000Y-95795000D01*
X75874800Y-97878400D02*
X75928800Y-97878400D01*
X75658800Y-97218400D02*
X75657800Y-97217400D01*
X76306800Y-97326400D02*
X76306800Y-97770400D01*
X76036800Y-97770400D02*
X76036800Y-97326400D01*
X76751000Y-97218400D02*
X76902400Y-97369800D01*
X76414800Y-97878400D02*
X76468800Y-97878400D01*
X74352200Y-96565900D02*
X74302200Y-96565900D01*
X74702200Y-96485900D02*
X74702200Y-96565900D01*
X76144800Y-97218400D02*
X76198800Y-97218400D01*
X76902400Y-97369800D02*
X76902400Y-97420600D01*
X74872200Y-96405900D02*
X74782200Y-96405900D01*
X75504400Y-96683000D02*
X75387300Y-96565900D01*
X73879800Y-96030800D02*
X73879800Y-95980800D01*
X73019800Y-96280800D02*
X73019800Y-96230800D01*
X74302200Y-96565900D02*
X73964900Y-96565900D01*
X76468800Y-97878400D02*
G75*
G03*
X76576800Y-97770400I0J108000D01*
G01*
X73019800Y-96230800D02*
G75*
G02*
X73119800Y-96130800I100000J0D01*
G01*
X76198800Y-97218400D02*
G75*
G02*
X76306800Y-97326400I0J-108000D01*
G01*
X74782200Y-96405900D02*
G75*
G03*
X74702200Y-96485900I0J-80000D01*
G01*
X75658800Y-97218400D02*
G75*
G02*
X75766800Y-97326400I0J-108000D01*
G01*
X75302200Y-96565900D02*
G75*
G03*
X75202200Y-96665900I0J-100000D01*
G01*
X75766800Y-97770400D02*
G75*
G03*
X75874800Y-97878400I108000J0D01*
G01*
X73119800Y-96380800D02*
G75*
G02*
X73019800Y-96280800I0J100000D01*
G01*
X74452200Y-96665900D02*
G75*
G03*
X74352200Y-96565900I-100000J0D01*
G01*
X74702200Y-97075900D02*
G75*
G02*
X74602200Y-97175900I-100000J0D01*
G01*
X76576800Y-97326400D02*
G75*
G02*
X76684800Y-97218400I108000J0D01*
G01*
X75928800Y-97878400D02*
G75*
G03*
X76036800Y-97770400I0J108000D01*
G01*
X73779800Y-96130800D02*
G75*
G03*
X73879800Y-96030800I0J100000D01*
G01*
X73879800Y-96480800D02*
G75*
G03*
X73779800Y-96380800I-100000J0D01*
G01*
X76036800Y-97326400D02*
G75*
G02*
X76144800Y-97218400I108000J0D01*
G01*
X74552200Y-97175900D02*
G75*
G02*
X74452200Y-97075900I0J100000D01*
G01*
X74952200Y-96485900D02*
G75*
G03*
X74872200Y-96405900I-80000J0D01*
G01*
X75052200Y-97425900D02*
G75*
G02*
X74952200Y-97325900I0J100000D01*
G01*
X76306800Y-97770400D02*
G75*
G03*
X76414800Y-97878400I108000J0D01*
G01*
X75202200Y-97325900D02*
G75*
G02*
X75102200Y-97425900I-100000J0D01*
G01*
X75708600Y-106496750D02*
X75702250Y-106490400D01*
X75708600Y-106666200D02*
X75708600Y-106496750D01*
X76013400Y-106971000D02*
X75708600Y-106666200D01*
X76623000Y-107758400D02*
X77131000Y-108266400D01*
X77753910Y-97129110D02*
X77790400Y-97165600D01*
X77790400Y-101845600D02*
X77790400Y-101965600D01*
X77790400Y-103045600D02*
X77790400Y-103165600D01*
X77550400Y-101005600D02*
X77370400Y-101005600D01*
X77536309Y-104939000D02*
X76851600Y-104939000D01*
X77790400Y-104365600D02*
X77790400Y-104736800D01*
X77790400Y-98245600D02*
X77790400Y-98365600D01*
X77790400Y-100645600D02*
X77790400Y-100765600D01*
X77790400Y-104245600D02*
X77790400Y-104365600D01*
X77370400Y-104005600D02*
X77550400Y-104005600D01*
X77370400Y-98005600D02*
X77550400Y-98005600D01*
X77639000Y-97014200D02*
X77753910Y-97129110D01*
X75861000Y-97014200D02*
X77639000Y-97014200D01*
X77130400Y-97645600D02*
X77130400Y-97765600D01*
X77790400Y-104736800D02*
X77588200Y-104939000D01*
X76851600Y-104939000D02*
X76623000Y-105167600D01*
X77588200Y-104939000D02*
X77536309Y-104939000D01*
X74413200Y-96201400D02*
X75607000Y-96201400D01*
X77550400Y-102205600D02*
X77370400Y-102205600D01*
X77130400Y-102445600D02*
X77130400Y-102565600D01*
X75708600Y-96303000D02*
X75708600Y-96861800D01*
X76623000Y-105167600D02*
X76623000Y-107758400D01*
X77370400Y-101605600D02*
X77550400Y-101605600D01*
X77370400Y-102805600D02*
X77550400Y-102805600D01*
X77370400Y-99205600D02*
X77550400Y-99205600D01*
X77550400Y-98605600D02*
X77370400Y-98605600D01*
X77130400Y-98845600D02*
X77130400Y-98965600D01*
X77130400Y-100045600D02*
X77130400Y-100165600D01*
X77370400Y-100405600D02*
X77550400Y-100405600D01*
X77790400Y-99445600D02*
X77790400Y-99565600D01*
X75607000Y-96201400D02*
X75708600Y-96303000D01*
X77550400Y-99805600D02*
X77370400Y-99805600D01*
X77130400Y-103645600D02*
X77130400Y-103765600D01*
X77550400Y-103405600D02*
X77370400Y-103405600D01*
X75708600Y-96861800D02*
X75861000Y-97014200D01*
X77130400Y-101245600D02*
X77130400Y-101365600D01*
X77550400Y-97405600D02*
X77370400Y-97405600D01*
X77550400Y-99205600D02*
G75*
G02*
X77790400Y-99445600I0J-240000D01*
G01*
X77790400Y-100765600D02*
G75*
G02*
X77550400Y-101005600I-240000J0D01*
G01*
X77370400Y-98605600D02*
G75*
G03*
X77130400Y-98845600I0J-240000D01*
G01*
X77130400Y-103765600D02*
G75*
G03*
X77370400Y-104005600I240000J0D01*
G01*
X77790400Y-98365600D02*
G75*
G02*
X77550400Y-98605600I-240000J0D01*
G01*
X77370400Y-97405600D02*
G75*
G03*
X77130400Y-97645600I0J-240000D01*
G01*
X77550400Y-101605600D02*
G75*
G02*
X77790400Y-101845600I0J-240000D01*
G01*
X77130400Y-98965600D02*
G75*
G03*
X77370400Y-99205600I240000J0D01*
G01*
X77790400Y-101965600D02*
G75*
G02*
X77550400Y-102205600I-240000J0D01*
G01*
X77370400Y-103405600D02*
G75*
G03*
X77130400Y-103645600I0J-240000D01*
G01*
X77550400Y-102805600D02*
G75*
G02*
X77790400Y-103045600I0J-240000D01*
G01*
X77370400Y-102205600D02*
G75*
G03*
X77130400Y-102445600I0J-240000D01*
G01*
X77370400Y-101005600D02*
G75*
G03*
X77130400Y-101245600I0J-240000D01*
G01*
X77130400Y-101365600D02*
G75*
G03*
X77370400Y-101605600I240000J0D01*
G01*
X77550400Y-104005600D02*
G75*
G02*
X77790400Y-104245600I0J-240000D01*
G01*
X77130400Y-97765600D02*
G75*
G03*
X77370400Y-98005600I240000J0D01*
G01*
X77790400Y-103165600D02*
G75*
G02*
X77550400Y-103405600I-240000J0D01*
G01*
X77370400Y-99805600D02*
G75*
G03*
X77130400Y-100045600I0J-240000D01*
G01*
X77790400Y-99565600D02*
G75*
G02*
X77550400Y-99805600I-240000J0D01*
G01*
X77550400Y-98005600D02*
G75*
G02*
X77790400Y-98245600I0J-240000D01*
G01*
X77130400Y-102565600D02*
G75*
G03*
X77370400Y-102805600I240000J0D01*
G01*
X77790400Y-97165600D02*
G75*
G02*
X77550400Y-97405600I-240000J0D01*
G01*
X77130400Y-100165600D02*
G75*
G03*
X77370400Y-100405600I240000J0D01*
G01*
X77550400Y-100405600D02*
G75*
G02*
X77790400Y-100645600I0J-240000D01*
G01*
X75800406Y-110714594D02*
X77131000Y-109384000D01*
X75800406Y-111365200D02*
X75800406Y-110714594D01*
X77131000Y-109384000D02*
X77131000Y-109286400D01*
D43*
X75335403Y-111365200D02*
X75424406Y-111276197D01*
X75505400Y-111128461D02*
X75505400Y-109481980D01*
X75424406Y-111209455D02*
X75505400Y-111128461D01*
X75424406Y-111276197D02*
X75424406Y-111209455D01*
X75505400Y-109481980D02*
X75700980Y-109286400D01*
D44*
X76698200Y-99955200D02*
X76698200Y-100043200D01*
X75645100Y-98119100D02*
X76534100Y-98119100D01*
X74953800Y-98114600D02*
X75031800Y-98114600D01*
X74797800Y-97830600D02*
X74797800Y-97958600D01*
X76698200Y-104514836D02*
X76426436Y-104786600D01*
X75421800Y-97674600D02*
X75429200Y-97674600D01*
X76008200Y-100395200D02*
X76008200Y-100483200D01*
X76522200Y-101099200D02*
X76184200Y-101099200D01*
X76522200Y-101979200D02*
X76184200Y-101979200D01*
X76522200Y-102859200D02*
X76184200Y-102859200D01*
X76522200Y-99339200D02*
X76184200Y-99339200D01*
X76008200Y-98635200D02*
X76008200Y-98723200D01*
X74489400Y-97522200D02*
X74594048Y-97626848D01*
X75469210Y-104989800D02*
X75175200Y-105283810D01*
X76426436Y-104786600D02*
X76407966Y-104786600D01*
X76184200Y-99779200D02*
X76522200Y-99779200D01*
X75187800Y-97958600D02*
X75187800Y-97830600D01*
X75556200Y-97827769D02*
X75556200Y-98030200D01*
X76008200Y-101275200D02*
X76008200Y-101363200D01*
X76522200Y-103739200D02*
X76184200Y-103739200D01*
X76184200Y-100659200D02*
X76522200Y-100659200D01*
X76522200Y-100219200D02*
X76184200Y-100219200D01*
X76407966Y-104786600D02*
X76064200Y-104786600D01*
X76008200Y-99515200D02*
X76008200Y-99603200D01*
X76008200Y-103035200D02*
X76008200Y-103123200D01*
X76698200Y-104443200D02*
X76698200Y-104514836D01*
X76698200Y-100835200D02*
X76698200Y-100923200D01*
X75556200Y-98030200D02*
X75645100Y-98119100D01*
X75861000Y-104989800D02*
X75469210Y-104989800D01*
X76008200Y-103915200D02*
X76008200Y-104003200D01*
X75175200Y-107740620D02*
X75700980Y-108266400D01*
X76698200Y-104355200D02*
X76698200Y-104443200D01*
X76184200Y-98899200D02*
X76522200Y-98899200D01*
X75343800Y-97674600D02*
X75421800Y-97674600D01*
X76698200Y-99075200D02*
X76698200Y-99163200D01*
X76534100Y-98119100D02*
X76698200Y-98283200D01*
X75429200Y-97674600D02*
X75556200Y-97801600D01*
X74594048Y-97626848D02*
X74641800Y-97674600D01*
X76184200Y-103299200D02*
X76522200Y-103299200D01*
X76698200Y-102595200D02*
X76698200Y-102683200D01*
X76008200Y-102155200D02*
X76008200Y-102243200D01*
X76522200Y-98459200D02*
X76184200Y-98459200D01*
X76698200Y-101715200D02*
X76698200Y-101803200D01*
X75175200Y-105283810D02*
X75175200Y-107740620D01*
X75556200Y-97801600D02*
X75556200Y-97827769D01*
X76184200Y-104179200D02*
X76522200Y-104179200D01*
X76698200Y-103475200D02*
X76698200Y-103563200D01*
X76184200Y-102419200D02*
X76522200Y-102419200D01*
X76064200Y-104786600D02*
X75861000Y-104989800D01*
X76184200Y-101539200D02*
X76522200Y-101539200D01*
X74413200Y-97522200D02*
X74489400Y-97522200D01*
X76698200Y-100043200D02*
G75*
G02*
X76522200Y-100219200I-176000J0D01*
G01*
X76184200Y-98459200D02*
G75*
G03*
X76008200Y-98635200I0J-176000D01*
G01*
X76522200Y-102419200D02*
G75*
G02*
X76698200Y-102595200I0J-176000D01*
G01*
X74797800Y-97958600D02*
G75*
G03*
X74953800Y-98114600I156000J0D01*
G01*
X76184200Y-101979200D02*
G75*
G03*
X76008200Y-102155200I0J-176000D01*
G01*
X76184200Y-99339200D02*
G75*
G03*
X76008200Y-99515200I0J-176000D01*
G01*
X76008200Y-102243200D02*
G75*
G03*
X76184200Y-102419200I176000J0D01*
G01*
X76522200Y-101539200D02*
G75*
G02*
X76698200Y-101715200I0J-176000D01*
G01*
X76008200Y-98723200D02*
G75*
G03*
X76184200Y-98899200I176000J0D01*
G01*
X76008200Y-101363200D02*
G75*
G03*
X76184200Y-101539200I176000J0D01*
G01*
X76522200Y-99779200D02*
G75*
G02*
X76698200Y-99955200I0J-176000D01*
G01*
X76008200Y-99603200D02*
G75*
G03*
X76184200Y-99779200I176000J0D01*
G01*
X76698200Y-99163200D02*
G75*
G02*
X76522200Y-99339200I-176000J0D01*
G01*
X76184200Y-100219200D02*
G75*
G03*
X76008200Y-100395200I0J-176000D01*
G01*
X76698200Y-98283200D02*
G75*
G02*
X76522200Y-98459200I-176000J0D01*
G01*
X76184200Y-103739200D02*
G75*
G03*
X76008200Y-103915200I0J-176000D01*
G01*
X76522200Y-98899200D02*
G75*
G02*
X76698200Y-99075200I0J-176000D01*
G01*
X76008200Y-100483200D02*
G75*
G03*
X76184200Y-100659200I176000J0D01*
G01*
X76522200Y-104179200D02*
G75*
G02*
X76698200Y-104355200I0J-176000D01*
G01*
X76522200Y-100659200D02*
G75*
G02*
X76698200Y-100835200I0J-176000D01*
G01*
X76008200Y-104003200D02*
G75*
G03*
X76184200Y-104179200I176000J0D01*
G01*
X76522200Y-103299200D02*
G75*
G02*
X76698200Y-103475200I0J-176000D01*
G01*
X76698200Y-102683200D02*
G75*
G02*
X76522200Y-102859200I-176000J0D01*
G01*
X75031800Y-98114600D02*
G75*
G03*
X75187800Y-97958600I0J156000D01*
G01*
X76698200Y-101803200D02*
G75*
G02*
X76522200Y-101979200I-176000J0D01*
G01*
X74641800Y-97674600D02*
G75*
G02*
X74797800Y-97830600I0J-156000D01*
G01*
X76698200Y-100923200D02*
G75*
G02*
X76522200Y-101099200I-176000J0D01*
G01*
X76184200Y-101099200D02*
G75*
G03*
X76008200Y-101275200I0J-176000D01*
G01*
X76184200Y-102859200D02*
G75*
G03*
X76008200Y-103035200I0J-176000D01*
G01*
X76698200Y-103563200D02*
G75*
G02*
X76522200Y-103739200I-176000J0D01*
G01*
X75187800Y-97830600D02*
G75*
G02*
X75343800Y-97674600I156000J0D01*
G01*
X76008200Y-103123200D02*
G75*
G03*
X76184200Y-103299200I176000J0D01*
G01*
D40*
X79265200Y-160569600D02*
X79265200Y-160053800D01*
X79265200Y-160053800D02*
X79265200Y-159769600D01*
X75905000Y-152627200D02*
X75905000Y-152277200D01*
X73600400Y-120077400D02*
X73163400Y-120077400D01*
X71974800Y-118477200D02*
X71390600Y-117893000D01*
X71974800Y-118528000D02*
X71974800Y-118477200D01*
X80153600Y-120636200D02*
X80153600Y-120382200D01*
X80153600Y-120382200D02*
X79620200Y-119848800D01*
X80188004Y-119436479D02*
X80188004Y-119345404D01*
X79620200Y-119629800D02*
X79620200Y-119848800D01*
X80188004Y-119345404D02*
X80179000Y-119336400D01*
X80102800Y-120687000D02*
X80153600Y-120636200D01*
X79913600Y-119336400D02*
X79620200Y-119629800D01*
X79620200Y-119086800D02*
X79620200Y-119848800D01*
X80179000Y-119336400D02*
X79913600Y-119336400D01*
D43*
X87814999Y-113647400D02*
X87907600Y-113554799D01*
X84554406Y-111887714D02*
X84623914Y-111887714D01*
X84623914Y-111887714D02*
X86383600Y-113647400D01*
X86383600Y-113647400D02*
X87814999Y-113647400D01*
X84543245Y-112315045D02*
X86180400Y-113952200D01*
X84123000Y-112301200D02*
X84136845Y-112315045D01*
X86180400Y-113952200D02*
X89055859Y-113952200D01*
X89055859Y-113952200D02*
X89158458Y-114054799D01*
X84136845Y-112315045D02*
X84543245Y-112315045D01*
D40*
X74006200Y-121067400D02*
X73143800Y-121067400D01*
X74032200Y-121093400D02*
X74006200Y-121067400D01*
X73143800Y-121067400D02*
X73093000Y-121118200D01*
D43*
X70296745Y-114692600D02*
X70298400Y-114692600D01*
X63288000Y-112889200D02*
X63618200Y-113219400D01*
X91860800Y-117889200D02*
X92551800Y-117889200D01*
X91800000Y-117950000D02*
X91860800Y-117889200D01*
X67072600Y-113219400D02*
X68474600Y-114621400D01*
X92551800Y-117889200D02*
X92577200Y-117863800D01*
X70678000Y-115072200D02*
X70678000Y-116062800D01*
X63618200Y-113219400D02*
X67072600Y-113219400D01*
X70908000Y-116292800D02*
X71339800Y-116292800D01*
X70225545Y-114621400D02*
X70296745Y-114692600D01*
X70298400Y-114692600D02*
X70678000Y-115072200D01*
X68474600Y-114621400D02*
X70225545Y-114621400D01*
X70678000Y-116062800D02*
X70908000Y-116292800D01*
X68139400Y-115022800D02*
X69028400Y-115022800D01*
X92149400Y-118930600D02*
X92577200Y-118930600D01*
X66564600Y-113448000D02*
X68139400Y-115022800D01*
X62716500Y-113003500D02*
X63161000Y-113448000D01*
X91768400Y-118651200D02*
X91870000Y-118651200D01*
X63161000Y-113448000D02*
X66564600Y-113448000D01*
X91870000Y-118651200D02*
X92149400Y-118930600D01*
X69028400Y-115022800D02*
X69358600Y-115353000D01*
X65548600Y-113829000D02*
X68647400Y-116927800D01*
X71741200Y-117272945D02*
X72328955Y-117860700D01*
X61510000Y-112330400D02*
X63008600Y-113829000D01*
X68647400Y-116927800D02*
X71515945Y-116927800D01*
X72640445Y-117860700D02*
X73019940Y-117481205D01*
X72328955Y-117860700D02*
X72640445Y-117860700D01*
X71741200Y-117153055D02*
X71741200Y-117272945D01*
X61510000Y-111825600D02*
X61510000Y-112330400D01*
X71515945Y-116927800D02*
X71741200Y-117153055D01*
X63008600Y-113829000D02*
X65548600Y-113829000D01*
X63516600Y-110400000D02*
X62935600Y-110400000D01*
X62935600Y-110400000D02*
X61510000Y-111825600D01*
X73019940Y-117481205D02*
X73019940Y-117464940D01*
D40*
X74128400Y-120082800D02*
X74128400Y-119970400D01*
X74128400Y-119970400D02*
X73829000Y-119671000D01*
X73128000Y-119274800D02*
X73128000Y-119163000D01*
X73829000Y-119671000D02*
X73524200Y-119671000D01*
X73524200Y-119671000D02*
X73128000Y-119274800D01*
D43*
X69282400Y-114057600D02*
X70628600Y-114057600D01*
X67989800Y-112765000D02*
X69282400Y-114057600D01*
X63300700Y-112038300D02*
X64027400Y-112765000D01*
X70628600Y-114057600D02*
X71339800Y-114768800D01*
X64027400Y-112765000D02*
X67989800Y-112765000D01*
X72005200Y-114924545D02*
X72225455Y-115144800D01*
X64242928Y-112318472D02*
X64458055Y-112533600D01*
X72279600Y-115251400D02*
X72355800Y-115327600D01*
X72005200Y-114915400D02*
X72005200Y-114924545D01*
X69549100Y-113829000D02*
X70931745Y-113829000D01*
X71715800Y-114613055D02*
X71715800Y-114626000D01*
X64458055Y-112533600D02*
X68253700Y-112533600D01*
X72279600Y-115189800D02*
X72279600Y-115251400D01*
X70931745Y-113829000D02*
X71715800Y-114613055D01*
X72225455Y-115144800D02*
X72234600Y-115144800D01*
X68253700Y-112533600D02*
X69549100Y-113829000D01*
X71715800Y-114626000D02*
X72005200Y-114915400D01*
X72234600Y-115144800D02*
X72279600Y-115189800D01*
X86815400Y-109050000D02*
X86815400Y-109481800D01*
X85189800Y-111107400D02*
X81557600Y-111107400D01*
X81557600Y-111107400D02*
X80355000Y-112310000D01*
X77840000Y-112310000D02*
X77639000Y-112511000D01*
X86815400Y-109481800D02*
X85189800Y-111107400D01*
X77639000Y-112511000D02*
X77639000Y-112736800D01*
X80355000Y-112310000D02*
X77840000Y-112310000D01*
D40*
X74835800Y-162044600D02*
X73879800Y-161088600D01*
X73879800Y-161088600D02*
X73879800Y-159396600D01*
X75765200Y-162044600D02*
X74835800Y-162044600D01*
D43*
X71365200Y-117308800D02*
X69638000Y-117308800D01*
X62353200Y-112513200D02*
X63443745Y-112513200D01*
X63924400Y-112992200D02*
X67166709Y-112992200D01*
X61891000Y-112051000D02*
X62353200Y-112513200D01*
X63664000Y-112733455D02*
X63665655Y-112733455D01*
X70401655Y-114362400D02*
X71316055Y-115276800D01*
X71316055Y-115276800D02*
X71339800Y-115276800D01*
X63665655Y-112733455D02*
X63924400Y-112992200D01*
X67166709Y-112992200D02*
X68536910Y-114362400D01*
X68536910Y-114362400D02*
X70401655Y-114362400D01*
X63443745Y-112513200D02*
X63664000Y-112733455D01*
D40*
X78381054Y-117606146D02*
X77816800Y-118170400D01*
X78423662Y-117606146D02*
X78381054Y-117606146D01*
X68469600Y-119163000D02*
X68418800Y-119112200D01*
X69993600Y-119163000D02*
X68469600Y-119163000D01*
X76265200Y-162044600D02*
X76265200Y-163274800D01*
X76819200Y-163279600D02*
X76260400Y-163279600D01*
X76265200Y-163274800D02*
X76260400Y-163279600D01*
X76260400Y-163279600D02*
X75945400Y-163279600D01*
X75945400Y-163279600D02*
X75854000Y-163188200D01*
D42*
X64710400Y-144334400D02*
X64659600Y-144283600D01*
X65058197Y-143928000D02*
X64862800Y-143928000D01*
X65370800Y-143935803D02*
X65210597Y-143775600D01*
X64710400Y-144334400D02*
X64710400Y-143775600D01*
X71605404Y-149867800D02*
X73362804Y-151625200D01*
X73362804Y-151625200D02*
X73524200Y-151625200D01*
X70050000Y-148299943D02*
X70050000Y-148900000D01*
X65675600Y-144385200D02*
X65675600Y-143775600D01*
X71017800Y-149867800D02*
X71605404Y-149867800D01*
X65210597Y-144393003D02*
X65210597Y-143775600D01*
X64659600Y-143826400D02*
X64710400Y-143775600D01*
X65370800Y-144080400D02*
X65370800Y-143935803D01*
X65210597Y-143775600D02*
X65058197Y-143928000D01*
X65830457Y-143930457D02*
X65830457Y-144080400D01*
X70050000Y-148900000D02*
X71017800Y-149867800D01*
X64862800Y-143928000D02*
X64710400Y-143775600D01*
X64659600Y-144283600D02*
X64659600Y-143826400D01*
X65675600Y-143775600D02*
X65830457Y-143930457D01*
X65675600Y-144385200D02*
X65370800Y-144080400D01*
X65830457Y-144080400D02*
X70050000Y-148299943D01*
D40*
X77258000Y-161835000D02*
X77048400Y-162044600D01*
X77258000Y-161631800D02*
X77258000Y-161835000D01*
X77048400Y-162044600D02*
X76765200Y-162044600D01*
D43*
X80407600Y-149366800D02*
X80407600Y-145226600D01*
X79845000Y-149410600D02*
X71550000Y-149410600D01*
X80106600Y-149664600D02*
X80109800Y-149664600D01*
X79805000Y-149966200D02*
X80106600Y-149664600D01*
X79805000Y-156268600D02*
X79805000Y-149966200D01*
X90643800Y-121122000D02*
X90643800Y-103669000D01*
X85796200Y-142679600D02*
X86021000Y-142454800D01*
X71550000Y-149410600D02*
X71039400Y-148900000D01*
X88593400Y-123079600D02*
X88686200Y-123079600D01*
X82954600Y-142679600D02*
X85796200Y-142679600D01*
X71039400Y-148900000D02*
X70950000Y-148900000D01*
X80109800Y-149664600D02*
X80407600Y-149366800D01*
X88686200Y-123079600D02*
X90643800Y-121122000D01*
X90643800Y-103669000D02*
X91075600Y-103237200D01*
X80407600Y-145226600D02*
X82954600Y-142679600D01*
X80362200Y-149409000D02*
X79846600Y-149409000D01*
X79846600Y-149409000D02*
X79845000Y-149410600D01*
X82155200Y-96502855D02*
X82155200Y-97705000D01*
D42*
X88205400Y-99808200D02*
X88205400Y-100265400D01*
D43*
X87824400Y-96861800D02*
X87849800Y-96887200D01*
D42*
X89038600Y-99991000D02*
X87570400Y-99991000D01*
D43*
X82155200Y-97705000D02*
X81677600Y-98182600D01*
D42*
X81652200Y-98157200D02*
X81677600Y-98182600D01*
X80179000Y-98157200D02*
X81652200Y-98157200D01*
X85792400Y-96074400D02*
X85792400Y-95439400D01*
D43*
X80509200Y-95210800D02*
X80863145Y-95210800D01*
D42*
X86097800Y-95134000D02*
X86097800Y-94880600D01*
X85792400Y-96074400D02*
X85792400Y-96531600D01*
X85792400Y-95439400D02*
X86097800Y-95134000D01*
D43*
X87824400Y-96230800D02*
X87824400Y-96861800D01*
X80863145Y-95210800D02*
X82155200Y-96502855D01*
D42*
X85792400Y-96531600D02*
X85614600Y-96709400D01*
X81068000Y-97971597D02*
X81068000Y-98436600D01*
X89196000Y-99833600D02*
X89038600Y-99991000D01*
D41*
X75022800Y-112701200D02*
X74860200Y-112863800D01*
X75911800Y-112701200D02*
X75022800Y-112701200D01*
X71160600Y-112863800D02*
X70987800Y-112691000D01*
D40*
X72482800Y-118807400D02*
X72482800Y-118451800D01*
D41*
X76250000Y-113389200D02*
X76250000Y-113039400D01*
X76242000Y-113397200D02*
X76250000Y-113389200D01*
D40*
X81271200Y-124573200D02*
X81271200Y-123911800D01*
X71263600Y-121474400D02*
X71263600Y-119188400D01*
D41*
X70987800Y-112691000D02*
X70603200Y-112691000D01*
D40*
X70933400Y-123854197D02*
X70933400Y-121957000D01*
D41*
X74860200Y-112863800D02*
X71160600Y-112863800D01*
D40*
X80794200Y-124573200D02*
X80792800Y-124574600D01*
X71314400Y-121525200D02*
X71263600Y-121474400D01*
X70933400Y-121957000D02*
X71314400Y-121576000D01*
X81271200Y-123911800D02*
X81017200Y-123657800D01*
X81271200Y-124573200D02*
X80794200Y-124573200D01*
X71263600Y-119188400D02*
X72101800Y-119188400D01*
D41*
X76250000Y-113039400D02*
X75911800Y-112701200D01*
D40*
X71314400Y-121576000D02*
X71314400Y-121525200D01*
X72101800Y-119188400D02*
X72482800Y-118807400D01*
D44*
X83252400Y-96531600D02*
X80814000Y-94093200D01*
X80814000Y-94093200D02*
X80534600Y-94093200D01*
X83252400Y-96734800D02*
X83252400Y-96531600D01*
D43*
X87824400Y-95210800D02*
X87087800Y-95210800D01*
X87087800Y-95210800D02*
X87062400Y-95185400D01*
X82621200Y-145778400D02*
X81810000Y-146589600D01*
X90462063Y-124776400D02*
X90482063Y-124756400D01*
X83510200Y-145778400D02*
X82621200Y-145778400D01*
X92000000Y-124756400D02*
X92682800Y-125439200D01*
X92682800Y-129370000D02*
X91819200Y-130233600D01*
X91819200Y-130233600D02*
X91819200Y-131935400D01*
X92886000Y-136402600D02*
X83510200Y-145778400D01*
X81810000Y-153128200D02*
X81830000Y-153148200D01*
X81810000Y-146589600D02*
X81810000Y-153128200D01*
X92886000Y-133002200D02*
X92886000Y-136402600D01*
X90482063Y-124756400D02*
X92000000Y-124756400D01*
X92682800Y-125439200D02*
X92682800Y-129370000D01*
X91819200Y-131935400D02*
X92886000Y-133002200D01*
D40*
X78401577Y-114006800D02*
X80255200Y-114006800D01*
X80255200Y-114006800D02*
X80280600Y-114032200D01*
X80280600Y-114032200D02*
X80382200Y-114032200D01*
X78400974Y-114007403D02*
X78401577Y-114006800D01*
X91913800Y-126122600D02*
X91050200Y-126122600D01*
X90237400Y-126935400D02*
X88434000Y-126935400D01*
X91050200Y-126122600D02*
X90237400Y-126935400D01*
D43*
X78200000Y-124540000D02*
X78469400Y-124540000D01*
X78469400Y-124540000D02*
X79320400Y-125391000D01*
X79320400Y-125391000D02*
X84248000Y-125391000D01*
X84248000Y-125391000D02*
X88256200Y-129399200D01*
X88256200Y-129399200D02*
X91151800Y-129399200D01*
X78832800Y-126224200D02*
X78832800Y-125640000D01*
X90168200Y-135270000D02*
X89504200Y-135270000D01*
X79163000Y-126554400D02*
X78832800Y-126224200D01*
X80788600Y-126554400D02*
X79163000Y-126554400D01*
X89504200Y-135270000D02*
X80788600Y-126554400D01*
X67148800Y-114565600D02*
X69252000Y-116668800D01*
X69252000Y-116668800D02*
X71668800Y-116668800D01*
X71668800Y-116668800D02*
X72484700Y-117484700D01*
D40*
X81113100Y-118867100D02*
X81125800Y-118854400D01*
X83812800Y-114029129D02*
X83812800Y-114143700D01*
X81684600Y-118854400D02*
X83739800Y-116799200D01*
X83739800Y-114216700D02*
X83812800Y-114143700D01*
X83876640Y-113965289D02*
X83812800Y-114029129D01*
X83739800Y-116799200D02*
X83739800Y-114216700D01*
X83812800Y-114143700D02*
X83876640Y-114079860D01*
X81125800Y-118854400D02*
X81684600Y-118854400D01*
X83876640Y-113965289D02*
X83876640Y-113927643D01*
X83876640Y-114079860D02*
X83876640Y-113965289D01*
X81240400Y-118000000D02*
X81322000Y-117918400D01*
X79000000Y-118000000D02*
X81240400Y-118000000D01*
X79008200Y-117508200D02*
X79000000Y-117500000D01*
X80744800Y-117279600D02*
X80516200Y-117508200D01*
X80516200Y-117508200D02*
X79008200Y-117508200D01*
X79052000Y-118448000D02*
X81698980Y-118448000D01*
X79000000Y-118500000D02*
X79052000Y-118448000D01*
X83462600Y-114180800D02*
X83411800Y-114130000D01*
X81698980Y-118448000D02*
X83462600Y-116684380D01*
X83462600Y-116684380D02*
X83462600Y-114180800D01*
X83411800Y-114130000D02*
X83411800Y-113977600D01*
D43*
X70781000Y-118528000D02*
X70972000Y-118528000D01*
X70679400Y-118629600D02*
X70781000Y-118528000D01*
X64481800Y-119594800D02*
X64685000Y-119391600D01*
X68088600Y-118629600D02*
X70679400Y-118629600D01*
X67326600Y-119391600D02*
X68088600Y-118629600D01*
X70972000Y-118528000D02*
X71000000Y-118500000D01*
X64685000Y-119391600D02*
X67326600Y-119391600D01*
D40*
X73699500Y-156959782D02*
X73331200Y-157328082D01*
X73331200Y-157328082D02*
X72467600Y-157328082D01*
D44*
X73658100Y-116985500D02*
X73651200Y-116978600D01*
X74006800Y-117385000D02*
X73956319Y-117334519D01*
X73956319Y-117283719D02*
X73888700Y-117216100D01*
X73888700Y-117199019D02*
X73675181Y-116985500D01*
X73956319Y-117334519D02*
X73956319Y-117283719D01*
X73888700Y-117216100D02*
X73888700Y-117199019D01*
X73675181Y-116985500D02*
X73658100Y-116985500D01*
D43*
X68826801Y-140195799D02*
X68164800Y-140195799D01*
X66840000Y-120980000D02*
X69860000Y-124000000D01*
X70076800Y-138945800D02*
X68826801Y-140195799D01*
X71268600Y-138945800D02*
X70076800Y-138945800D01*
X61300000Y-120980000D02*
X66840000Y-120980000D01*
D40*
X78376000Y-160594600D02*
X78851200Y-161069800D01*
X78851200Y-161069800D02*
X78851200Y-161374600D01*
X79021200Y-161544600D02*
X79265200Y-161544600D01*
X78851200Y-161374600D02*
X79021200Y-161544600D01*
X77715200Y-160594600D02*
X78376000Y-160594600D01*
X77715200Y-161094600D02*
X77715200Y-161254600D01*
X77715200Y-161254600D02*
X78495600Y-162035000D01*
X78495600Y-162035000D02*
X78495600Y-162795000D01*
D41*
X79985600Y-163305000D02*
X79005600Y-163305000D01*
D40*
X78495600Y-162795000D02*
X79005600Y-163305000D01*
G04 #@! TA.AperFunction,Conductor*
G36*
X65964016Y-143544785D02*
G01*
X65994948Y-143573088D01*
X66942818Y-144794788D01*
X66968360Y-144859822D01*
X66954688Y-144928341D01*
X66906142Y-144978591D01*
X66844847Y-144994800D01*
X65713042Y-144994800D01*
X65689184Y-144992483D01*
X65568813Y-144968881D01*
X64994748Y-144856318D01*
X64949718Y-144837738D01*
X64879182Y-144790608D01*
X64879181Y-144790607D01*
X64879179Y-144790606D01*
X64879176Y-144790604D01*
X64879171Y-144790602D01*
X64733501Y-144730264D01*
X64733489Y-144730261D01*
X64578845Y-144699500D01*
X64578842Y-144699500D01*
X64539562Y-144699500D01*
X64529600Y-144699500D01*
X64462561Y-144679815D01*
X64416806Y-144627011D01*
X64405600Y-144575500D01*
X64405600Y-143668983D01*
X64425285Y-143601944D01*
X64478089Y-143556189D01*
X64527565Y-143545000D01*
X65703709Y-143525719D01*
X65740464Y-143525117D01*
X65742496Y-143525100D01*
X65896977Y-143525100D01*
X65964016Y-143544785D01*
G37*
G04 #@! TD.AperFunction*
G04 #@! TA.AperFunction,Conductor*
G36*
X81669898Y-159644885D02*
G01*
X81715653Y-159697689D01*
X81726850Y-159750731D01*
X81711084Y-161027831D01*
X81690573Y-161094622D01*
X81637208Y-161139722D01*
X81587093Y-161150300D01*
X81580238Y-161150300D01*
X81542024Y-161160539D01*
X81503809Y-161170779D01*
X81503804Y-161170782D01*
X81435295Y-161210335D01*
X81435287Y-161210341D01*
X81379341Y-161266287D01*
X81379335Y-161266295D01*
X81339782Y-161334804D01*
X81339779Y-161334809D01*
X81319300Y-161411239D01*
X81319300Y-161490362D01*
X81328985Y-161526507D01*
X81327322Y-161596357D01*
X81288159Y-161654219D01*
X81223931Y-161681723D01*
X81209210Y-161682600D01*
X79872741Y-161682600D01*
X79805702Y-161662915D01*
X79759947Y-161610111D01*
X79748750Y-161557069D01*
X79771088Y-159747669D01*
X79791599Y-159680878D01*
X79844964Y-159635778D01*
X79895079Y-159625200D01*
X81602859Y-159625200D01*
X81669898Y-159644885D01*
G37*
G04 #@! TD.AperFunction*
G04 #@! TA.AperFunction,Conductor*
G36*
X77317895Y-113769188D02*
G01*
X77363650Y-113821992D01*
X77374856Y-113873503D01*
X77374856Y-114647049D01*
X77374648Y-114648408D01*
X77374839Y-114649098D01*
X77373732Y-114654430D01*
X77369240Y-114683945D01*
X77364131Y-114700335D01*
X77362201Y-114702266D01*
X77335300Y-114767211D01*
X77335300Y-114792842D01*
X77329684Y-114810862D01*
X77320354Y-114824864D01*
X77315615Y-114841005D01*
X77298983Y-114861646D01*
X77271538Y-114889091D01*
X77271535Y-114889095D01*
X77231982Y-114957604D01*
X77231979Y-114957609D01*
X77218631Y-115007427D01*
X77218629Y-115007428D01*
X77218630Y-115007428D01*
X77211500Y-115034032D01*
X77211500Y-115034038D01*
X77211500Y-115113162D01*
X77214217Y-115123300D01*
X77231979Y-115189590D01*
X77231982Y-115189595D01*
X77271535Y-115258104D01*
X77271541Y-115258112D01*
X77298981Y-115285552D01*
X77331763Y-115343827D01*
X77335300Y-115358316D01*
X77335300Y-115427148D01*
X77362201Y-115492093D01*
X77369815Y-115499707D01*
X77376463Y-115526939D01*
X77375820Y-115540844D01*
X77379980Y-115554127D01*
X77380000Y-115556345D01*
X77380000Y-115843654D01*
X77364709Y-115895727D01*
X77366875Y-115896624D01*
X77362201Y-115907906D01*
X77362201Y-115907907D01*
X77344766Y-115950000D01*
X77330626Y-115984136D01*
X77326738Y-115982525D01*
X77304993Y-116024010D01*
X77303520Y-116025508D01*
X77271539Y-116057490D01*
X77271535Y-116057495D01*
X77231982Y-116126004D01*
X77231977Y-116126015D01*
X77225102Y-116151672D01*
X77225099Y-116151683D01*
X77211500Y-116202438D01*
X77211500Y-116226752D01*
X77211500Y-116289690D01*
X77209671Y-116289690D01*
X77200484Y-116348639D01*
X77154109Y-116400899D01*
X77088305Y-116419800D01*
X76783536Y-116419800D01*
X76766439Y-116414779D01*
X76748620Y-116414783D01*
X76733609Y-116405139D01*
X76716497Y-116400115D01*
X76689951Y-116377092D01*
X76689836Y-116377018D01*
X76689798Y-116376959D01*
X76689746Y-116376914D01*
X76666470Y-116350000D01*
X76320200Y-116350000D01*
X76253161Y-116330315D01*
X76207406Y-116277511D01*
X76196200Y-116226000D01*
X76196200Y-116150000D01*
X76120200Y-116150000D01*
X76053161Y-116130315D01*
X76007406Y-116077511D01*
X75996200Y-116026000D01*
X75996200Y-115950000D01*
X76396200Y-115950000D01*
X76682200Y-115950000D01*
X76749239Y-115969685D01*
X76794986Y-116022470D01*
X76809699Y-116054673D01*
X76843810Y-116088785D01*
X76948753Y-116140088D01*
X76974484Y-116143836D01*
X76980000Y-116113390D01*
X76980000Y-115255359D01*
X76979999Y-115255358D01*
X76948751Y-115259911D01*
X76948750Y-115259911D01*
X76846050Y-115310118D01*
X76777177Y-115321876D01*
X76712880Y-115294533D01*
X76673574Y-115236768D01*
X76668886Y-115216590D01*
X76666287Y-115198751D01*
X76614984Y-115093808D01*
X76532388Y-115011212D01*
X76427451Y-114959912D01*
X76427448Y-114959911D01*
X76396200Y-114955358D01*
X76396200Y-115950000D01*
X75996200Y-115950000D01*
X75996200Y-115087840D01*
X76216502Y-114515054D01*
X76258939Y-114459551D01*
X76324649Y-114435801D01*
X76392767Y-114451347D01*
X76419917Y-114471888D01*
X76438489Y-114490460D01*
X76438491Y-114490461D01*
X76438495Y-114490464D01*
X76481087Y-114515054D01*
X76507011Y-114530021D01*
X76583438Y-114550500D01*
X76583440Y-114550500D01*
X76591497Y-114551561D01*
X76591041Y-114555023D01*
X76642674Y-114570185D01*
X76688429Y-114622989D01*
X76698340Y-114656624D01*
X76704768Y-114700751D01*
X76756071Y-114805694D01*
X76838664Y-114888287D01*
X76943609Y-114939591D01*
X76974855Y-114944143D01*
X76974856Y-114944142D01*
X76974856Y-113873503D01*
X76994541Y-113806464D01*
X77047345Y-113760709D01*
X77098856Y-113749503D01*
X77250856Y-113749503D01*
X77317895Y-113769188D01*
G37*
G04 #@! TD.AperFunction*
G04 #@! TA.AperFunction,Conductor*
G36*
X79410000Y-159006034D02*
G01*
X79410000Y-160895000D01*
X79407449Y-160903685D01*
X79408738Y-160912647D01*
X79397759Y-160936687D01*
X79390315Y-160962039D01*
X79383474Y-160967966D01*
X79379713Y-160976203D01*
X79357478Y-160990492D01*
X79337511Y-161007794D01*
X79326996Y-161010081D01*
X79320935Y-161013977D01*
X79286000Y-161019000D01*
X79152648Y-161019000D01*
X79085609Y-160999315D01*
X79069872Y-160987326D01*
X78576917Y-160545365D01*
X78572013Y-160540722D01*
X78525799Y-160494508D01*
X78525799Y-160494507D01*
X78476093Y-160444801D01*
X78476092Y-160444800D01*
X78476091Y-160444799D01*
X78474557Y-160444164D01*
X78439241Y-160421933D01*
X78368599Y-160358599D01*
X78368600Y-160358599D01*
X77398685Y-160268375D01*
X77333757Y-160242566D01*
X77293089Y-160185751D01*
X77286598Y-160134615D01*
X77301800Y-159952200D01*
X77352600Y-159037800D01*
X79407089Y-158987071D01*
X79410000Y-159006034D01*
G37*
G04 #@! TD.AperFunction*
G04 #@! TA.AperFunction,Conductor*
G36*
X71435239Y-121290885D02*
G01*
X71480994Y-121343689D01*
X71492200Y-121395200D01*
X71492200Y-121582775D01*
X71472515Y-121649814D01*
X71464438Y-121660968D01*
X71162000Y-122033199D01*
X71162000Y-122453031D01*
X71142315Y-122520070D01*
X71138126Y-122526027D01*
X71098086Y-122595380D01*
X71098083Y-122595385D01*
X71093044Y-122614192D01*
X71077604Y-122671814D01*
X71077604Y-122750938D01*
X71090403Y-122798703D01*
X71098083Y-122827365D01*
X71123052Y-122870613D01*
X71139523Y-122938513D01*
X71123052Y-122994610D01*
X71085181Y-123060206D01*
X71085179Y-123060209D01*
X71071526Y-123111162D01*
X71064700Y-123136638D01*
X71064700Y-123215762D01*
X71078352Y-123266713D01*
X71085179Y-123292190D01*
X71085182Y-123292195D01*
X71124735Y-123360704D01*
X71124741Y-123360712D01*
X71125681Y-123361652D01*
X71126220Y-123362639D01*
X71129686Y-123367156D01*
X71128981Y-123367696D01*
X71159166Y-123422975D01*
X71162000Y-123449333D01*
X71162000Y-123684200D01*
X71444400Y-123684200D01*
X71511439Y-123703885D01*
X71557194Y-123756689D01*
X71568400Y-123808200D01*
X71568400Y-124322200D01*
X71548715Y-124389239D01*
X71495911Y-124434994D01*
X71444400Y-124446200D01*
X70583783Y-124446200D01*
X70516744Y-124426515D01*
X70470989Y-124373711D01*
X70460086Y-124313541D01*
X70504140Y-123684200D01*
X70625544Y-121949850D01*
X70634000Y-121927074D01*
X70638283Y-121903154D01*
X70648195Y-121888836D01*
X70649861Y-121884351D01*
X70658374Y-121874136D01*
X70676753Y-121854342D01*
X70745678Y-121780115D01*
X70805717Y-121744385D01*
X70812343Y-121742876D01*
X70822545Y-121740848D01*
X70880994Y-121701794D01*
X70920048Y-121643345D01*
X70926109Y-121612873D01*
X70952464Y-121561295D01*
X70952319Y-121561206D01*
X70953486Y-121559295D01*
X70956865Y-121552683D01*
X70958800Y-121550600D01*
X71030719Y-121352824D01*
X71044134Y-121334591D01*
X71053540Y-121313997D01*
X71064445Y-121306988D01*
X71072128Y-121296548D01*
X71093272Y-121288462D01*
X71112318Y-121276223D01*
X71133092Y-121273236D01*
X71137389Y-121271593D01*
X71147253Y-121271200D01*
X71368200Y-121271200D01*
X71435239Y-121290885D01*
G37*
G04 #@! TD.AperFunction*
G04 #@! TA.AperFunction,Conductor*
G36*
X75617973Y-152189739D02*
G01*
X75649812Y-152251933D01*
X75642972Y-152321467D01*
X75605827Y-152371577D01*
X75509302Y-152449418D01*
X75509303Y-152449418D01*
X75495404Y-152460626D01*
X75454907Y-152477401D01*
X75405201Y-152527107D01*
X75401304Y-152536514D01*
X75381381Y-152552582D01*
X75381380Y-152552582D01*
X74015471Y-153654123D01*
X73950930Y-153680885D01*
X73937630Y-153681600D01*
X73318000Y-153681600D01*
X73250961Y-153661915D01*
X73205206Y-153609111D01*
X73194000Y-153557600D01*
X73194000Y-152965616D01*
X73213685Y-152898577D01*
X73266489Y-152852822D01*
X73287921Y-152845319D01*
X74006800Y-152665600D01*
X75487766Y-152157757D01*
X75557564Y-152154632D01*
X75617973Y-152189739D01*
G37*
G04 #@! TD.AperFunction*
G04 #@! TA.AperFunction,Conductor*
G36*
X78045400Y-154646803D02*
G01*
X79404291Y-158968842D01*
X79404530Y-158970404D01*
X79404977Y-158971099D01*
X79407272Y-158987067D01*
X77352600Y-159037800D01*
X77131000Y-154646800D01*
X78045400Y-154646800D01*
X78045400Y-154646803D01*
G37*
G04 #@! TD.AperFunction*
G04 #@! TA.AperFunction,Conductor*
G36*
X75346839Y-119944685D02*
G01*
X75392594Y-119997489D01*
X75403800Y-120049000D01*
X75403800Y-123002464D01*
X75384115Y-123069503D01*
X75331311Y-123115258D01*
X75280869Y-123126459D01*
X72584851Y-123149701D01*
X72517644Y-123130595D01*
X72471436Y-123078188D01*
X72459804Y-123023367D01*
X72460199Y-123002464D01*
X72480897Y-121905440D01*
X72501843Y-121838786D01*
X72555501Y-121794035D01*
X72581910Y-121785927D01*
X74140696Y-121492242D01*
X74163650Y-121490099D01*
X74188048Y-121490099D01*
X74249801Y-121477817D01*
X74319827Y-121431027D01*
X74366617Y-121361001D01*
X74378900Y-121299249D01*
X74378899Y-121240530D01*
X74393834Y-121181536D01*
X74628902Y-120747016D01*
X74666756Y-120708109D01*
X74665196Y-120706075D01*
X74671635Y-120701133D01*
X74671640Y-120701131D01*
X74727589Y-120645182D01*
X74767150Y-120576660D01*
X74787629Y-120500233D01*
X74787629Y-120485004D01*
X74802566Y-120426002D01*
X75006518Y-120049000D01*
X75038437Y-119989997D01*
X75048091Y-119980267D01*
X75053787Y-119967797D01*
X75072219Y-119955951D01*
X75087649Y-119940401D01*
X75102271Y-119936638D01*
X75112565Y-119930023D01*
X75147500Y-119925000D01*
X75279800Y-119925000D01*
X75346839Y-119944685D01*
G37*
G04 #@! TD.AperFunction*
G04 #@! TA.AperFunction,Conductor*
G36*
X75664479Y-116845885D02*
G01*
X75695035Y-116873707D01*
X76111863Y-117405522D01*
X76137724Y-117470425D01*
X76138267Y-117482012D01*
X76138267Y-117511026D01*
X76149190Y-117551789D01*
X76158746Y-117587454D01*
X76158749Y-117587459D01*
X76198302Y-117655968D01*
X76198306Y-117655973D01*
X76198307Y-117655975D01*
X76254256Y-117711924D01*
X76254258Y-117711925D01*
X76260707Y-117716874D01*
X76260480Y-117717169D01*
X76278464Y-117731083D01*
X76288179Y-117740957D01*
X76288968Y-117742860D01*
X76338674Y-117792566D01*
X76338675Y-117792566D01*
X76356515Y-117810406D01*
X76358081Y-117811972D01*
X76391566Y-117873295D01*
X76394400Y-117899653D01*
X76394400Y-118099200D01*
X76374715Y-118166239D01*
X76321911Y-118211994D01*
X76270400Y-118223200D01*
X76191200Y-118223200D01*
X76218100Y-118330804D01*
X76217577Y-118392970D01*
X76199500Y-118460435D01*
X76199500Y-118460438D01*
X76199500Y-118539562D01*
X76200596Y-118543652D01*
X76219979Y-118615990D01*
X76219982Y-118615995D01*
X76259535Y-118684504D01*
X76259541Y-118684512D01*
X76297902Y-118722873D01*
X76306151Y-118737443D01*
X76317173Y-118747806D01*
X76330519Y-118780479D01*
X76390698Y-119021192D01*
X76394400Y-119051267D01*
X76394400Y-119340800D01*
X76740857Y-120472560D01*
X76769969Y-120567658D01*
X76775400Y-120603955D01*
X76775400Y-123992000D01*
X76755715Y-124059039D01*
X76702911Y-124104794D01*
X76651400Y-124116000D01*
X75629400Y-124116000D01*
X75562361Y-124096315D01*
X75516606Y-124043511D01*
X75505400Y-123992000D01*
X75505400Y-120567631D01*
X75509624Y-120535540D01*
X75526500Y-120472562D01*
X75526500Y-120393438D01*
X75509624Y-120330459D01*
X75505400Y-120298369D01*
X75505400Y-120085031D01*
X75509624Y-120052940D01*
X75526500Y-119989962D01*
X75526500Y-119910838D01*
X75506021Y-119834411D01*
X75506017Y-119834404D01*
X75466464Y-119765895D01*
X75466458Y-119765887D01*
X75410513Y-119709942D01*
X75410507Y-119709937D01*
X75381085Y-119692950D01*
X75348939Y-119666262D01*
X75078052Y-119350227D01*
X75049369Y-119286516D01*
X75048200Y-119269529D01*
X75048200Y-117858937D01*
X75052639Y-117826058D01*
X75302542Y-116917321D01*
X75316983Y-116893973D01*
X75328390Y-116868997D01*
X75335100Y-116864684D01*
X75339297Y-116857900D01*
X75364073Y-116846065D01*
X75387168Y-116831223D01*
X75398579Y-116829582D01*
X75402344Y-116827784D01*
X75422103Y-116826200D01*
X75597440Y-116826200D01*
X75664479Y-116845885D01*
G37*
G04 #@! TD.AperFunction*
G04 #@! TA.AperFunction,Conductor*
G36*
X81448974Y-120376485D02*
G01*
X81456806Y-120381956D01*
X83052731Y-121590990D01*
X83094281Y-121647162D01*
X83101796Y-121686073D01*
X83121529Y-122337244D01*
X83103884Y-122404849D01*
X83052490Y-122452182D01*
X82997586Y-122465000D01*
X80607800Y-122465000D01*
X80540761Y-122445315D01*
X80495006Y-122392511D01*
X80483800Y-122341000D01*
X80483800Y-121892071D01*
X80485833Y-121869710D01*
X80519500Y-121686073D01*
X80744566Y-120458438D01*
X80776017Y-120396049D01*
X80836206Y-120360566D01*
X80866533Y-120356800D01*
X81381935Y-120356800D01*
X81448974Y-120376485D01*
G37*
G04 #@! TD.AperFunction*
G04 #@! TA.AperFunction,Conductor*
G36*
X75642537Y-113596959D02*
G01*
X75688292Y-113649763D01*
X75699498Y-113701274D01*
X75699498Y-113853274D01*
X75679813Y-113920313D01*
X75634114Y-113959911D01*
X74422484Y-113976976D01*
X74414812Y-113974723D01*
X74405851Y-113976012D01*
X74381810Y-113965033D01*
X74356459Y-113957589D01*
X74350531Y-113950748D01*
X74342295Y-113946987D01*
X74328005Y-113924752D01*
X74310704Y-113904785D01*
X74308416Y-113894270D01*
X74304521Y-113888209D01*
X74299498Y-113853274D01*
X74299498Y-113701274D01*
X74319183Y-113634235D01*
X74371987Y-113588480D01*
X74423498Y-113577274D01*
X75575498Y-113577274D01*
X75642537Y-113596959D01*
G37*
G04 #@! TD.AperFunction*
G04 #@! TA.AperFunction,Conductor*
G36*
X74555914Y-123691185D02*
G01*
X74559291Y-123693433D01*
X76112218Y-124764833D01*
X76156220Y-124819104D01*
X76165800Y-124866897D01*
X76165800Y-128208400D01*
X76146115Y-128275439D01*
X76093311Y-128321194D01*
X76041800Y-128332400D01*
X73469166Y-128332400D01*
X73402127Y-128312715D01*
X73356372Y-128259911D01*
X73345172Y-128209640D01*
X73345160Y-128208400D01*
X73321000Y-125792400D01*
X72853828Y-124956409D01*
X72838080Y-124897174D01*
X72826965Y-123796751D01*
X72845972Y-123729518D01*
X72898311Y-123683232D01*
X72950959Y-123671500D01*
X74488875Y-123671500D01*
X74555914Y-123691185D01*
G37*
G04 #@! TD.AperFunction*
G04 #@! TA.AperFunction,Conductor*
G36*
X76018194Y-152219325D02*
G01*
X76927800Y-152970400D01*
X77927031Y-153015819D01*
X77993107Y-153038527D01*
X78036417Y-153093354D01*
X78045400Y-153139691D01*
X78045400Y-154646800D01*
X77131000Y-154646800D01*
X75831508Y-152693823D01*
X75810760Y-152627108D01*
X75810757Y-152623395D01*
X75815257Y-152313143D01*
X75835912Y-152246397D01*
X75889374Y-152201413D01*
X75958670Y-152192474D01*
X76018194Y-152219325D01*
G37*
G04 #@! TD.AperFunction*
G04 #@! TA.AperFunction,Conductor*
G36*
X80230201Y-119033873D02*
G01*
X80231645Y-119036115D01*
X80238325Y-119037565D01*
X80385714Y-119104561D01*
X80438597Y-119150220D01*
X80458400Y-119217224D01*
X80458400Y-119999819D01*
X80438715Y-120066858D01*
X80385911Y-120112613D01*
X80316753Y-120122557D01*
X80315005Y-120122293D01*
X80281581Y-120117000D01*
X80252800Y-120117000D01*
X80252800Y-120563000D01*
X80250249Y-120571685D01*
X80251538Y-120580647D01*
X80240559Y-120604687D01*
X80233115Y-120630039D01*
X80226274Y-120635966D01*
X80222513Y-120644203D01*
X80200278Y-120658492D01*
X80180311Y-120675794D01*
X80169796Y-120678081D01*
X80163735Y-120681977D01*
X80128800Y-120687000D01*
X80076800Y-120687000D01*
X80009761Y-120667315D01*
X79964006Y-120614511D01*
X79952800Y-120563000D01*
X79952800Y-119998800D01*
X79744200Y-119998800D01*
X79735514Y-119996249D01*
X79726553Y-119997538D01*
X79702512Y-119986559D01*
X79677161Y-119979115D01*
X79671233Y-119972274D01*
X79662997Y-119968513D01*
X79648707Y-119946278D01*
X79631406Y-119926311D01*
X79629118Y-119915796D01*
X79625223Y-119909735D01*
X79620200Y-119874800D01*
X79620200Y-119848800D01*
X79594200Y-119848800D01*
X79527161Y-119829115D01*
X79481406Y-119776311D01*
X79470200Y-119724800D01*
X79470200Y-119698800D01*
X79770200Y-119698800D01*
X80097753Y-119698800D01*
X80090287Y-119647551D01*
X80038984Y-119542609D01*
X80037019Y-119539856D01*
X80035494Y-119535469D01*
X80034473Y-119533380D01*
X80034725Y-119533256D01*
X80014082Y-119473859D01*
X80030468Y-119405938D01*
X80037019Y-119395744D01*
X80038988Y-119392986D01*
X80090287Y-119288051D01*
X80090288Y-119288048D01*
X80097755Y-119236800D01*
X79770200Y-119236800D01*
X79770200Y-119698800D01*
X79470200Y-119698800D01*
X79470200Y-119210800D01*
X79489885Y-119143761D01*
X79542689Y-119098006D01*
X79594200Y-119086800D01*
X79620200Y-119086800D01*
X79620200Y-119060800D01*
X79639885Y-118993761D01*
X79692689Y-118948006D01*
X79744200Y-118936800D01*
X80016640Y-118936800D01*
X80230201Y-119033873D01*
G37*
G04 #@! TD.AperFunction*
M02*
