M48
; DRILL file {KiCad 9.0.5} date 2026-02-03T11:17:31+0900
; FORMAT={-:-/ absolute / metric / decimal}
; #@! TF.CreationDate,2026-02-03T11:17:31+09:00
; #@! TF.GenerationSoftware,Kicad,Pcbnew,9.0.5
; #@! TF.FileFunction,Plated,1,6,PTH
FMAT,2
METRIC
; #@! TA.AperFunction,Plated,PTH,ViaDrill
T1C0.200
; #@! TA.AperFunction,Plated,PTH,ViaDrill
T2C0.300
; #@! TA.AperFunction,Plated,PTH,ComponentDrill
T3C0.550
; #@! TA.AperFunction,Plated,PTH,ComponentDrill
T4C2.200
%
G90
G05
T1
X54.0Y-119.5
X54.0Y-138.0
X54.278Y-111.488
X54.278Y-112.733
X54.29Y-126.96
X54.303Y-115.273
X54.32Y-127.48
X54.33Y-125.437
X54.33Y-125.945
X54.686Y-124.726
X55.186Y-124.726
X55.5Y-97.5
X55.5Y-102.0
X55.5Y-106.0
X55.651Y-124.726
X57.073Y-121.601
X57.243Y-131.544
X57.243Y-132.009
X57.531Y-121.601
X57.531Y-122.059
X57.531Y-122.567
X57.581Y-124.014
X57.581Y-124.548
X57.648Y-110.574
X57.707Y-116.975
X58.088Y-112.631
X58.113Y-110.574
X58.132Y-131.533
X58.132Y-131.998
X59.384Y-129.375
X59.5Y-144.0
X59.681Y-129.018
X60.037Y-130.415
X60.037Y-130.88
X60.5Y-135.5
X60.824Y-140.88
X60.875Y-131.025
X60.875Y-131.507
X61.0Y-91.5
X61.0Y-95.5
X61.281Y-142.074
X61.3Y-120.98
X61.51Y-131.025
X61.51Y-131.507
X61.578Y-97.794
X61.586Y-98.259
X61.669Y-111.133
X61.72Y-110.498
X61.769Y-125.255
X61.78Y-124.79
X61.822Y-116.362
X61.891Y-112.051
X62.043Y-97.785
X62.043Y-98.25
X62.526Y-102.424
X62.526Y-107.454
X62.716Y-113.003
X62.729Y-129.196
X63.0Y-136.0
X63.136Y-141.439
X63.161Y-128.561
X63.288Y-112.889
X63.301Y-112.038
X63.313Y-129.831
X63.5Y-118.5
X63.517Y-110.4
X63.821Y-114.845
X64.243Y-112.318
X64.38Y-119.061
X64.406Y-114.362
X64.406Y-114.845
X64.482Y-119.595
X64.482Y-127.367
X64.71Y-143.776
X64.71Y-144.334
X64.971Y-111.819
X65.015Y-141.113
X65.025Y-140.626
X65.193Y-144.309
X65.211Y-143.776
X65.225Y-137.651
X65.35Y-97.6
X65.35Y-98.05
X65.35Y-98.5
X65.523Y-141.113
X65.525Y-140.626
X65.676Y-143.776
X65.676Y-144.309
X65.8Y-95.75
X65.825Y-137.651
X65.93Y-107.022
X65.95Y-94.2
X65.955Y-126.91
X65.98Y-127.52
X66.025Y-140.626
X66.031Y-128.078
X66.031Y-128.543
X66.031Y-141.113
X66.3Y-95.75
X66.438Y-138.061
X66.539Y-140.606
X66.539Y-141.113
X66.565Y-117.36
X66.8Y-95.75
X66.844Y-116.953
X66.946Y-116.471
X66.953Y-138.082
X66.956Y-137.601
X67.057Y-150.495
X67.083Y-163.729
X67.149Y-114.566
X67.3Y-96.7
X67.421Y-137.59
X67.428Y-106.971
X67.435Y-138.082
X67.75Y-96.7
X67.997Y-150.495
X68.012Y-135.14
X68.012Y-135.64
X68.023Y-163.729
X68.165Y-140.196
X68.5Y-143.0
X68.8Y-106.946
X68.851Y-111.899
X68.927Y-120.146
X68.927Y-120.611
X68.978Y-124.311
X68.978Y-124.776
X69.13Y-117.69
X69.333Y-111.899
X69.333Y-112.635
X69.333Y-118.172
X69.359Y-115.353
X69.409Y-113.143
X69.587Y-133.768
X69.638Y-117.309
X69.663Y-96.582
X69.769Y-117.755
X69.79Y-119.874
X69.816Y-98.767
X69.86Y-124.0
X69.917Y-110.019
X69.917Y-120.367
X69.917Y-120.832
X69.917Y-121.297
X69.994Y-119.163
X70.019Y-130.999
X70.07Y-112.0
X70.07Y-112.508
X70.07Y-114.997
X70.07Y-115.48
X70.07Y-115.988
X70.07Y-90.85
X70.07Y-91.35
X70.07Y-91.85
X70.146Y-106.971
X70.197Y-125.107
X70.197Y-128.747
X70.197Y-129.212
X70.197Y-129.669
X70.248Y-127.164
X70.248Y-127.621
X70.309Y-150.495
X70.334Y-163.729
X70.387Y-135.508
X70.436Y-141.435
X70.451Y-96.43
X70.502Y-95.211
X70.654Y-96.862
X70.654Y-98.868
X70.654Y-125.107
X70.705Y-127.164
X70.705Y-127.621
X70.705Y-128.739
X70.705Y-129.204
X70.705Y-129.661
X70.73Y-141.794
X70.933Y-123.854
X70.933Y-124.319
X70.959Y-140.22
X71.0Y-118.5
X71.264Y-97.802
X71.269Y-138.946
X71.274Y-150.495
X71.299Y-163.729
X71.34Y-113.677
X71.34Y-114.769
X71.34Y-115.277
X71.34Y-115.759
X71.34Y-116.293
X71.365Y-117.309
X71.365Y-123.176
X71.378Y-122.711
X71.416Y-112.229
X71.416Y-123.862
X71.416Y-124.319
X71.467Y-96.227
X71.543Y-135.902
X71.67Y-95.77
X71.67Y-139.331
X71.721Y-97.497
X71.746Y-106.996
X71.772Y-98.487
X71.822Y-99.58
X71.873Y-122.033
X71.873Y-122.498
X71.891Y-128.637
X71.899Y-111.34
X71.975Y-118.528
X71.975Y-136.41
X72.178Y-139.331
X72.229Y-161.378
X72.239Y-160.333
X72.239Y-160.859
X72.254Y-159.854
X72.264Y-152.858
X72.264Y-153.366
X72.264Y-153.874
X72.264Y-154.356
X72.264Y-154.864
X72.264Y-159.36
X72.325Y-115.792
X72.33Y-95.516
X72.356Y-115.328
X72.356Y-128.637
X72.363Y-111.371
X72.381Y-114.235
X72.381Y-114.769
X72.432Y-116.598
X72.468Y-157.328
X72.483Y-118.452
X72.485Y-117.485
X72.534Y-136.41
X72.686Y-112.432
X72.7Y-92.4
X72.729Y-154.356
X72.729Y-159.36
X72.737Y-97.522
X72.737Y-159.854
X72.747Y-154.864
X72.828Y-111.365
X72.838Y-128.637
X72.915Y-106.971
X72.965Y-98.589
X72.981Y-99.192
X72.991Y-118.604
X73.0Y-99.75
X73.016Y-138.467
X73.02Y-117.465
X73.15Y-92.4
X73.194Y-95.795
X73.194Y-159.371
X73.194Y-159.854
X73.23Y-154.356
X73.23Y-154.864
X73.27Y-144.995
X73.296Y-111.365
X73.296Y-144.004
X73.321Y-116.25
X73.346Y-113.75
X73.346Y-114.743
X73.346Y-115.759
X73.372Y-95.033
X73.372Y-114.261
X73.499Y-118.579
X73.499Y-133.641
X73.499Y-134.098
X73.524Y-117.487
X73.6Y-92.4
X73.6Y-120.077
X73.7Y-156.96
X73.754Y-150.507
X73.804Y-111.365
X73.804Y-113.3
X73.88Y-159.397
X73.956Y-109.74
X74.007Y-117.385
X74.007Y-143.344
X74.032Y-118.5
X74.083Y-134.098
X74.108Y-133.641
X74.128Y-120.083
X74.21Y-139.331
X74.238Y-116.616
X74.286Y-106.971
X74.316Y-111.372
X74.337Y-94.931
X74.337Y-98.437
X74.413Y-96.201
X74.413Y-97.522
X74.439Y-140.905
X74.439Y-141.37
X74.464Y-143.623
X74.487Y-120.461
X74.515Y-114.947
X74.559Y-158.987
X74.559Y-159.52
X74.576Y-158.293
X74.652Y-155.372
X74.652Y-155.88
X74.694Y-116.65
X74.703Y-156.515
X74.718Y-119.925
X74.75Y-113.3
X74.832Y-143.204
X74.832Y-150.976
X74.87Y-111.365
X74.896Y-127.621
X74.896Y-128.078
X74.896Y-141.37
X74.903Y-140.905
X74.995Y-115.365
X74.997Y-116.295
X74.998Y-115.83
X75.0Y-114.9
X75.048Y-158.304
X75.067Y-158.987
X75.067Y-159.52
X75.11Y-91.5
X75.12Y-91.97
X75.226Y-119.95
X75.226Y-120.433
X75.244Y-163.508
X75.244Y-163.991
X75.25Y-113.3
X75.251Y-153.377
X75.335Y-111.365
X75.404Y-127.621
X75.404Y-128.078
X75.465Y-114.9
X75.5Y-117.0
X75.675Y-123.43
X75.683Y-123.938
X75.709Y-153.377
X75.734Y-120.052
X75.75Y-113.397
X75.8Y-111.365
X75.81Y-130.212
X75.836Y-117.5
X75.886Y-127.621
X75.886Y-128.078
X76.0Y-118.5
X76.013Y-106.971
X76.14Y-123.43
X76.148Y-123.938
X76.199Y-120.052
X76.217Y-116.674
X76.219Y-158.039
X76.242Y-113.397
X76.344Y-111.365
X76.439Y-117.471
X76.5Y-112.0
X76.5Y-118.5
X76.598Y-123.43
X76.602Y-112.454
X76.605Y-123.938
X76.617Y-115.208
X76.623Y-113.753
X76.623Y-114.25
X76.623Y-115.734
X76.623Y-130.695
X76.623Y-114.743
X76.684Y-158.039
X76.809Y-111.365
X76.902Y-117.436
X77.0Y-116.5
X77.004Y-130.364
X77.08Y-106.946
X77.08Y-118.528
X77.08Y-151.624
X77.207Y-112.33
X77.258Y-161.632
X77.274Y-111.365
X77.283Y-128.485
X77.41Y-117.436
X77.487Y-140.423
X77.487Y-140.888
X77.5Y-91.5
X77.5Y-136.7
X77.5Y-137.7
X77.512Y-115.074
X77.512Y-116.242
X77.614Y-133.463
X77.614Y-151.624
X77.639Y-112.737
X77.7Y-139.2
X77.739Y-111.365
X77.791Y-141.439
X77.95Y-126.56
X77.988Y-162.543
X78.172Y-123.938
X78.198Y-119.95
X78.2Y-124.54
X78.223Y-125.735
X78.25Y-138.3
X78.266Y-105.55
X78.274Y-141.82
X78.275Y-106.014
X78.279Y-126.231
X78.299Y-129.247
X78.376Y-114.82
X78.401Y-114.007
X78.401Y-106.768
X78.421Y-113.543
X78.424Y-117.606
X78.452Y-116.515
X78.482Y-116.013
X78.484Y-154.287
X78.5Y-111.0
X78.5Y-118.5
X78.528Y-115.404
X78.553Y-111.924
X78.553Y-112.686
X78.63Y-116.979
X78.66Y-114.423
X78.68Y-101.434
X78.68Y-101.916
X78.731Y-105.541
X78.731Y-106.006
X78.757Y-121.83
X78.757Y-122.389
X78.757Y-122.948
X78.833Y-125.64
X78.858Y-120.662
X78.868Y-134.149
X78.876Y-133.692
X79.0Y-96.5
X79.0Y-100.0
X79.0Y-111.0
X79.0Y-113.5
X79.0Y-115.5
X79.0Y-116.0
X79.0Y-117.5
X79.0Y-118.0
X79.0Y-118.5
X79.0Y-119.0
X79.112Y-127.901
X79.138Y-101.434
X79.138Y-101.916
X79.163Y-127.342
X79.214Y-106.996
X79.272Y-162.365
X79.333Y-134.149
X79.341Y-133.692
X79.366Y-121.424
X79.392Y-120.662
X79.5Y-139.2
X79.519Y-129.907
X79.646Y-140.931
X79.656Y-140.464
X79.696Y-122.744
X79.696Y-124.116
X79.72Y-124.98
X79.805Y-156.269
X79.849Y-116.267
X79.849Y-116.775
X79.874Y-115.785
X79.874Y-126.148
X79.976Y-110.603
X80.154Y-140.931
X80.164Y-140.464
X80.188Y-119.436
X80.23Y-119.9
X80.382Y-114.032
X80.5Y-143.5
X80.745Y-117.28
X80.79Y-151.52
X80.793Y-124.575
X80.8Y-119.95
X80.916Y-106.971
X81.017Y-160.311
X81.025Y-160.805
X81.068Y-97.972
X81.068Y-98.437
X81.113Y-118.867
X81.246Y-96.659
X81.246Y-97.124
X81.271Y-124.573
X81.28Y-151.523
X81.322Y-117.918
X81.424Y-114.82
X81.482Y-160.311
X81.49Y-160.805
X81.62Y-161.451
X81.83Y-153.148
X81.964Y-111.514
X82.033Y-99.503
X82.128Y-161.451
X82.218Y-118.981
X82.262Y-106.971
X82.421Y-144.458
X82.429Y-111.514
X82.447Y-144.0
X82.5Y-133.5
X82.5Y-136.7
X82.5Y-137.7
X82.5Y-140.448
X82.5Y-140.9
X82.548Y-114.409
X82.694Y-96.836
X82.7Y-139.2
X82.903Y-143.535
X82.912Y-144.0
X82.947Y-113.978
X83.049Y-127.164
X83.107Y-120.581
X83.125Y-150.532
X83.125Y-151.065
X83.129Y-121.046
X83.151Y-157.796
X83.151Y-158.431
X83.25Y-138.3
X83.252Y-96.735
X83.278Y-98.462
X83.278Y-99.529
X83.368Y-143.544
X83.386Y-143.086
X83.412Y-113.978
X83.43Y-124.548
X83.633Y-106.996
X83.684Y-96.455
X83.71Y-128.053
X83.832Y-133.641
X83.832Y-134.106
X83.877Y-113.965
X83.913Y-143.75
X84.04Y-97.37
X84.105Y-160.975
X84.105Y-162.372
X84.123Y-112.301
X84.141Y-99.503
X84.314Y-133.641
X84.314Y-134.106
X84.319Y-128.028
X84.352Y-113.978
X84.5Y-139.2
X84.522Y-98.538
X84.554Y-111.888
X84.7Y-140.9
X84.711Y-140.435
X84.776Y-95.635
X84.776Y-96.1
X84.86Y-127.694
X85.03Y-98.411
X85.03Y-106.971
X85.164Y-140.423
X85.183Y-140.905
X85.5Y-129.0
X85.517Y-120.714
X85.517Y-121.179
X85.517Y-121.654
X85.552Y-114.657
X85.792Y-95.609
X85.792Y-96.074
X85.799Y-115.4
X85.818Y-97.268
X85.962Y-124.065
X86.0Y-91.5
X86.021Y-98.487
X86.021Y-142.455
X86.053Y-120.726
X86.053Y-121.191
X86.053Y-121.666
X86.25Y-107.022
X86.25Y-107.504
X86.427Y-124.065
X86.434Y-111.107
X86.561Y-115.959
X86.58Y-98.843
X86.688Y-117.864
X86.815Y-109.05
X86.834Y-143.191
X86.841Y-115.095
X87.062Y-95.185
X87.095Y-113.216
X87.12Y-116.848
X87.196Y-119.558
X87.196Y-120.023
X87.207Y-107.234
X87.242Y-109.327
X87.242Y-111.4
X87.552Y-117.051
X87.672Y-107.234
X87.692Y-109.327
X87.692Y-111.4
X87.7Y-135.8
X87.85Y-96.887
X87.85Y-126.91
X87.908Y-113.555
X87.958Y-118.55
X88.035Y-114.359
X88.1Y-116.555
X88.18Y-98.564
X88.18Y-99.029
X88.205Y-99.808
X88.205Y-100.265
X88.277Y-107.234
X88.297Y-109.327
X88.297Y-111.4
X88.434Y-126.935
X88.459Y-127.443
X88.543Y-115.273
X88.593Y-123.08
X88.65Y-117.857
X88.727Y-107.234
X88.747Y-109.327
X88.747Y-111.4
X88.84Y-125.208
X88.942Y-128.383
X88.942Y-128.891
X88.967Y-123.837
X88.967Y-124.319
X89.152Y-118.555
X89.158Y-114.055
X89.247Y-143.191
X89.418Y-124.81
X89.45Y-127.85
X89.5Y-102.5
X89.882Y-124.776
X90.0Y-91.5
X90.168Y-135.27
X90.462Y-124.776
X90.8Y-131.8
X90.923Y-128.358
X90.923Y-128.815
X91.076Y-103.237
X91.097Y-125.157
X91.152Y-129.399
X91.253Y-113.06
X91.279Y-111.536
X91.279Y-114.559
X91.279Y-116.057
X91.279Y-117.556
X91.3Y-108.542
X91.304Y-110.063
X91.388Y-128.358
X91.388Y-128.823
X91.768Y-118.651
X91.8Y-117.95
X91.838Y-126.859
X91.91Y-134.33
X91.914Y-126.123
X91.99Y-133.27
X92.587Y-130.198
X92.595Y-130.658
X92.922Y-105.43
X93.006Y-122.262
X93.015Y-136.885
X93.052Y-130.193
X93.052Y-130.658
X93.535Y-130.193
X93.535Y-130.658
X93.594Y-122.262
X93.622Y-105.43
X94.047Y-123.303
X94.047Y-123.768
X94.18Y-132.025
X94.18Y-132.49
X94.225Y-122.262
X94.258Y-117.864
X94.258Y-118.931
X94.322Y-105.43
X94.678Y-132.022
X94.678Y-132.487
X95.16Y-132.022
X95.16Y-132.487
X95.5Y-97.0
X95.5Y-99.5
X95.5Y-102.5
X95.531Y-129.041
X95.58Y-138.529
X95.922Y-105.73
X95.922Y-115.73
X95.922Y-120.73
T2
X68.9Y-148.15
X68.9Y-148.9
X70.05Y-148.9
X70.95Y-148.9
X71.85Y-148.9
X72.75Y-148.9
X73.65Y-148.9
X74.55Y-148.9
X75.45Y-148.9
X76.35Y-148.9
X77.25Y-148.9
X77.7Y-146.1
X78.15Y-148.9
X79.05Y-148.9
X79.95Y-148.9
X81.05Y-148.2
X81.05Y-148.9
T4
X55.906Y-93.395
X56.0Y-141.489
X93.91Y-93.41
X94.039Y-141.485
T3
G00X68.27Y-151.702
M15
G01X66.97Y-151.702
M16
G05
G00X68.27Y-162.502
M15
G01X66.97Y-162.502
M16
G05
G00X71.625Y-151.702
M15
G01X70.075Y-151.702
M16
G05
G00X71.625Y-162.502
M15
G01X70.075Y-162.502
M16
G05
M30
