ISO-10303-21;
HEADER;
FILE_DESCRIPTION (( 'STEP AP214' ),
    '1' );
FILE_NAME ('SL2.STEP',
    '2018-01-25T01:28:31',
    ( 'Admin' ),
    ( 'MyPc' ),
    'SwSTEP 2.0',
    'SolidWorks 2015',
    '' );
FILE_SCHEMA (( 'AUTOMOTIVE_DESIGN' ));
ENDSEC;

DATA;
#1 = PRESENTATION_LAYER_ASSIGNMENT (  '', '', ( #1072 ) ) ;
#2 = DIRECTION ( 'NONE',  ( 0.7071067811865479100, 0.7071067811865471300, 0.0000000000000000000 ) ) ;
#3 = CARTESIAN_POINT ( 'NONE',  ( -0.1250000000000000000, 0.07499999999999999700, 0.01000000000000000000 ) ) ;
#4 = VECTOR ( 'NONE', #183, 1000.000000000000100 ) ;
#5 = DIRECTION ( 'NONE',  ( -1.748713181428233300E-016, 1.000000000000000000, 0.0000000000000000000 ) ) ;
#6 = LINE ( 'NONE', #765, #480 ) ;
#7 = FILL_AREA_STYLE ('',( #14 ) ) ;
#8 = CARTESIAN_POINT ( 'NONE',  ( 0.1250000000000000600, 0.2599999999999999000, 0.1100000000000000000 ) ) ;
#9 = ORIENTED_EDGE ( 'NONE', *, *, #565, .T. ) ;
#10 =( NAMED_UNIT ( * ) PLANE_ANGLE_UNIT ( ) SI_UNIT ( $, .RADIAN. ) );
#11 = VERTEX_POINT ( 'NONE', #339 ) ;
#12 = SURFACE_SIDE_STYLE ('',( #1116 ) ) ;
#13 = EDGE_CURVE ( 'NONE', #335, #145, #494, .T. ) ;
#14 = FILL_AREA_STYLE_COLOUR ( '', #436 ) ;
#15 = EDGE_CURVE ( 'NONE', #603, #111, #949, .T. ) ;
#16 = FACE_OUTER_BOUND ( 'NONE', #231, .T. ) ;
#17 = CARTESIAN_POINT ( 'NONE',  ( 0.1250000000000000000, -0.2599999999999999000, 0.0000000000000000000 ) ) ;
#18 = LINE ( 'NONE', #273, #688 ) ;
#19 = LINE ( 'NONE', #64, #902 ) ;
#20 = DIRECTION ( 'NONE',  ( 0.0000000000000000000, 0.0000000000000000000, -1.000000000000000000 ) ) ;
#21 = CARTESIAN_POINT ( 'NONE',  ( -0.1250000000000000000, 0.2599999999999999000, 0.1100000000000000000 ) ) ;
#22 = ORIENTED_EDGE ( 'NONE', *, *, #1022, .T. ) ;
#23 = VERTEX_POINT ( 'NONE', #616 ) ;
#24 = EDGE_CURVE ( 'NONE', #1010, #63, #689, .T. ) ;
#25 = VERTEX_POINT ( 'NONE', #69 ) ;
#26 =( LENGTH_UNIT ( ) NAMED_UNIT ( * ) SI_UNIT ( .MILLI., .METRE. ) );
#27 = CARTESIAN_POINT ( 'NONE',  ( -0.1530158461016504200, -0.3099999999999999400, 0.3000000000000000400 ) ) ;
#28 = LINE ( 'NONE', #826, #831 ) ;
#29 = DIRECTION ( 'NONE',  ( 1.000000000000000000, 0.0000000000000000000, 0.0000000000000000000 ) ) ;
#30 = VECTOR ( 'NONE', #1097, 1000.000000000000000 ) ;
#31 = ORIENTED_EDGE ( 'NONE', *, *, #24, .F. ) ;
#32 = ORIENTED_EDGE ( 'NONE', *, *, #575, .T. ) ;
#33 = ORIENTED_EDGE ( 'NONE', *, *, #370, .F. ) ;
#34 = ORIENTED_EDGE ( 'NONE', *, *, #454, .T. ) ;
#35 = ORIENTED_EDGE ( 'NONE', *, *, #395, .T. ) ;
#36 = FACE_OUTER_BOUND ( 'NONE', #151, .T. ) ;
#37 = LINE ( 'NONE', #329, #946 ) ;
#38 = FACE_OUTER_BOUND ( 'NONE', #148, .T. ) ;
#39 = AXIS2_PLACEMENT_3D ( 'NONE', #514, #424, #416 ) ;
#40 = VECTOR ( 'NONE', #194, 1000.000000000000100 ) ;
#41 = CARTESIAN_POINT ( 'NONE',  ( -0.1250000000000000000, 0.07499999999999999700, 0.1100000000000000000 ) ) ;
#42 = ORIENTED_EDGE ( 'NONE', *, *, #448, .F. ) ;
#43 = EDGE_LOOP ( 'NONE', ( #125, #374, #296, #500 ) ) ;
#44 = VERTEX_POINT ( 'NONE', #53 ) ;
#45 = DIRECTION ( 'NONE',  ( 0.0000000000000000000, 0.0000000000000000000, -1.000000000000000000 ) ) ;
#46 = AXIS2_PLACEMENT_3D ( 'NONE', #230, #223, #221 ) ;
#47 = VECTOR ( 'NONE', #1042, 1000.000000000000000 ) ;
#48 = VECTOR ( 'NONE', #387, 1000.000000000000000 ) ;
#49 = MECHANICAL_DESIGN_GEOMETRIC_PRESENTATION_REPRESENTATION (  '', ( #1072 ), #110 ) ;
#50 = VECTOR ( 'NONE', #1023, 1000.000000000000000 ) ;
#51 = DIRECTION ( 'NONE',  ( 1.000000000000000000, 1.748713181428233300E-016, -0.0000000000000000000 ) ) ;
#52 = VERTEX_POINT ( 'NONE', #984 ) ;
#53 = CARTESIAN_POINT ( 'NONE',  ( 0.1250000000000000000, -0.2599999999999999000, 0.1100000000000000000 ) ) ;
#54 = VERTEX_POINT ( 'NONE', #561 ) ;
#55 = ORIENTED_EDGE ( 'NONE', *, *, #1090, .T. ) ;
#56 = CARTESIAN_POINT ( 'NONE',  ( 0.1250000000000000600, 0.2599999999999999000, 0.1100000000000000000 ) ) ;
#57 = ORIENTED_EDGE ( 'NONE', *, *, #208, .F. ) ;
#58 = FACE_OUTER_BOUND ( 'NONE', #94, .T. ) ;
#59 = LINE ( 'NONE', #288, #521 ) ;
#60 = EDGE_CURVE ( 'NONE', #985, #242, #219, .T. ) ;
#61 = VECTOR ( 'NONE', #166, 1000.000000000000000 ) ;
#62 = EDGE_CURVE ( 'NONE', #983, #641, #19, .T. ) ;
#63 = VERTEX_POINT ( 'NONE', #78 ) ;
#64 = CARTESIAN_POINT ( 'NONE',  ( -0.07499999999999995600, 0.3099999999999999400, 0.01000000000000000000 ) ) ;
#65 = ORIENTED_EDGE ( 'NONE', *, *, #925, .F. ) ;
#66 = VERTEX_POINT ( 'NONE', #100 ) ;
#67 = DIRECTION ( 'NONE',  ( -0.0000000000000000000, -0.0000000000000000000, -1.000000000000000000 ) ) ;
#68 = VERTEX_POINT ( 'NONE', #361 ) ;
#69 = CARTESIAN_POINT ( 'NONE',  ( -0.07499999999999995600, 0.3099999999999999400, 0.1100000000000000000 ) ) ;
#70 = EDGE_CURVE ( 'NONE', #294, #560, #193, .T. ) ;
#71 = MANIFOLD_SOLID_BREP ( 'Mold', #113 ) ;
#72 = CARTESIAN_POINT ( 'NONE',  ( 0.07499999999999998300, -0.3099999999999998900, 0.0000000000000000000 ) ) ;
#73 = AXIS2_PLACEMENT_3D ( 'NONE', #980, #892, #874 ) ;
#74 = LINE ( 'NONE', #1059, #534 ) ;
#75 = LINE ( 'NONE', #659, #757 ) ;
#76 = CARTESIAN_POINT ( 'NONE',  ( -0.1250000000000000000, 0.2599999999999999000, 0.1100000000000000000 ) ) ;
#77 = VECTOR ( 'NONE', #748, 1000.000000000000100 ) ;
#78 = CARTESIAN_POINT ( 'NONE',  ( -0.1250000000000000000, -0.07499999999999996900, 0.0000000000000000000 ) ) ;
#79 = FACE_OUTER_BOUND ( 'NONE', #197, .T. ) ;
#80 = ORIENTED_EDGE ( 'NONE', *, *, #740, .T. ) ;
#81 = PLANE ( 'NONE',  #91 ) ;
#82 = DIRECTION ( 'NONE',  ( -0.0000000000000000000, -0.0000000000000000000, -1.000000000000000000 ) ) ;
#83 = ORIENTED_EDGE ( 'NONE', *, *, #491, .F. ) ;
#84 = DIRECTION ( 'NONE',  ( -2.930276141852715400E-016, -1.000000000000000000, 0.0000000000000000000 ) ) ;
#85 = ORIENTED_EDGE ( 'NONE', *, *, #713, .T. ) ;
#86 = CARTESIAN_POINT ( 'NONE',  ( 0.0000000000000000000, 0.0000000000000000000, 0.0000000000000000000 ) ) ;
#87 = ORIENTED_EDGE ( 'NONE', *, *, #964, .F. ) ;
#88 = CARTESIAN_POINT ( 'NONE',  ( -0.07499999999999995600, 0.3099999999999999400, 0.0000000000000000000 ) ) ;
#89 = VECTOR ( 'NONE', #569, 1000.000000000000000 ) ;
#90 = LINE ( 'NONE', #368, #550 ) ;
#91 = AXIS2_PLACEMENT_3D ( 'NONE', #340, #972, #966 ) ;
#92 = LINE ( 'NONE', #850, #553 ) ;
#93 = DIRECTION ( 'NONE',  ( 0.7071067811865474600, -0.7071067811865474600, 0.0000000000000000000 ) ) ;
#94 = EDGE_LOOP ( 'NONE', ( #120, #319, #968, #422 ) ) ;
#95 = ORIENTED_EDGE ( 'NONE', *, *, #442, .T. ) ;
#96 = PLANE ( 'NONE',  #721 ) ;
#97 = EDGE_LOOP ( 'NONE', ( #516, #87, #57, #34 ) ) ;
#98 = DIRECTION ( 'NONE',  ( -0.7071067811865475700, -0.7071067811865475700, 0.0000000000000000000 ) ) ;
#99 = VERTEX_POINT ( 'NONE', #897 ) ;
#100 = CARTESIAN_POINT ( 'NONE',  ( 0.1250000000000000000, -0.07499999999999999700, 0.1100000000000000000 ) ) ;
#101 = CARTESIAN_POINT ( 'NONE',  ( -0.07499999999999995600, 0.3099999999999999400, 0.1100000000000000000 ) ) ;
#102 = DIRECTION ( 'NONE',  ( 0.7071067811865477900, -0.7071067811865473500, 0.0000000000000000000 ) ) ;
#103 = VECTOR ( 'NONE', #203, 1000.000000000000000 ) ;
#104 = CARTESIAN_POINT ( 'NONE',  ( 0.1250000000000000000, -0.2599999999999999000, 0.1100000000000000000 ) ) ;
#105 = LINE ( 'NONE', #732, #1016 ) ;
#106 = VECTOR ( 'NONE', #803, 1000.000000000000000 ) ;
#107 = LINE ( 'NONE', #936, #1018 ) ;
#108 = ORIENTED_EDGE ( 'NONE', *, *, #624, .F. ) ;
#109 = ORIENTED_EDGE ( 'NONE', *, *, #670, .F. ) ;
#110 =( GEOMETRIC_REPRESENTATION_CONTEXT ( 3 ) GLOBAL_UNCERTAINTY_ASSIGNED_CONTEXT ( ( #410 ) ) GLOBAL_UNIT_ASSIGNED_CONTEXT ( ( #143, #429, #152 ) ) REPRESENTATION_CONTEXT ( 'NONE', 'WORKASPACE' ) );
#111 = VERTEX_POINT ( 'NONE', #88 ) ;
#112 = CARTESIAN_POINT ( 'NONE',  ( -0.1250000000000000000, 0.07499999999999999700, 0.0000000000000000000 ) ) ;
#113 = CLOSED_SHELL ( 'NONE', ( #417, #1105, #794, #354, #1118, #1108, #1121, #300, #159, #365, #356, #162, #1115, #293, #272, #838, #847, #298, #290, #779 ) ) ;
#114 = ORIENTED_EDGE ( 'NONE', *, *, #989, .T. ) ;
#115 = ORIENTED_EDGE ( 'NONE', *, *, #807, .T. ) ;
#116 = VECTOR ( 'NONE', #630, 1000.000000000000000 ) ;
#117 = LINE ( 'NONE', #486, #1030 ) ;
#118 = CARTESIAN_POINT ( 'NONE',  ( -0.1600000000000000600, 0.3100000000000000000, 0.3000000000000000400 ) ) ;
#119 = LINE ( 'NONE', #938, #834 ) ;
#120 = ORIENTED_EDGE ( 'NONE', *, *, #13, .T. ) ;
#121 = VERTEX_POINT ( 'NONE', #3 ) ;
#122 = EDGE_CURVE ( 'NONE', #571, #730, #107, .T. ) ;
#123 = ORIENTED_EDGE ( 'NONE', *, *, #184, .F. ) ;
#124 = EDGE_CURVE ( 'NONE', #411, #886, #714, .T. ) ;
#125 = ORIENTED_EDGE ( 'NONE', *, *, #606, .T. ) ;
#126 =( LENGTH_UNIT ( ) NAMED_UNIT ( * ) SI_UNIT ( .MILLI., .METRE. ) );
#127 = CARTESIAN_POINT ( 'NONE',  ( 0.07500000000000006700, 0.3099999999999998900, 0.0000000000000000000 ) ) ;
#128 = LINE ( 'NONE', #539, #103 ) ;
#129 = EDGE_CURVE ( 'NONE', #895, #304, #791, .T. ) ;
#130 = VECTOR ( 'NONE', #1000, 1000.000000000000000 ) ;
#131 = CARTESIAN_POINT ( 'NONE',  ( -0.1600000000000000600, 0.3100000000000000000, 0.3000000000000000400 ) ) ;
#132 = VERTEX_POINT ( 'NONE', #988 ) ;
#133 = DIRECTION ( 'NONE',  ( -1.000000000000000000, 2.930276141852715400E-016, 0.0000000000000000000 ) ) ;
#134 = ORIENTED_EDGE ( 'NONE', *, *, #491, .T. ) ;
#135 = ORIENTED_EDGE ( 'NONE', *, *, #618, .F. ) ;
#136 = CARTESIAN_POINT ( 'NONE',  ( -0.07500000000000003900, -0.3099999999999999400, 0.0000000000000000000 ) ) ;
#137 = VECTOR ( 'NONE', #701, 1000.000000000000000 ) ;
#138 = PLANE ( 'NONE',  #266 ) ;
#139 = EDGE_LOOP ( 'NONE', ( #906, #115, #883, #631, #763, #954 ) ) ;
#140 =( NAMED_UNIT ( * ) SI_UNIT ( $, .STERADIAN. ) SOLID_ANGLE_UNIT ( ) );
#141 = LINE ( 'NONE', #499, #394 ) ;
#142 = FACE_OUTER_BOUND ( 'NONE', #751, .T. ) ;
#143 =( LENGTH_UNIT ( ) NAMED_UNIT ( * ) SI_UNIT ( .MILLI., .METRE. ) );
#144 = ORIENTED_EDGE ( 'NONE', *, *, #845, .F. ) ;
#145 = VERTEX_POINT ( 'NONE', #17 ) ;
#146 =( GEOMETRIC_REPRESENTATION_CONTEXT ( 3 ) GLOBAL_UNCERTAINTY_ASSIGNED_CONTEXT ( ( #377 ) ) GLOBAL_UNIT_ASSIGNED_CONTEXT ( ( #26, #10, #437 ) ) REPRESENTATION_CONTEXT ( 'NONE', 'WORKASPACE' ) );
#147 = CARTESIAN_POINT ( 'NONE',  ( -0.1250000000000000000, -0.07499999999999996900, 0.1100000000000000000 ) ) ;
#148 = EDGE_LOOP ( 'NONE', ( #780, #1085, #956, #185 ) ) ;
#149 = ORIENTED_EDGE ( 'NONE', *, *, #606, .F. ) ;
#150 = DIRECTION ( 'NONE',  ( -0.0000000000000000000, -0.0000000000000000000, -1.000000000000000000 ) ) ;
#151 = EDGE_LOOP ( 'NONE', ( #918, #592, #602, #35 ) ) ;
#152 =( NAMED_UNIT ( * ) SI_UNIT ( $, .STERADIAN. ) SOLID_ANGLE_UNIT ( ) );
#153 = AXIS2_PLACEMENT_3D ( 'NONE', #451, #327, #320 ) ;
#154 = CARTESIAN_POINT ( 'NONE',  ( -0.1250000000000000000, 0.2599999999999999000, 0.1100000000000000000 ) ) ;
#155 = PLANE ( 'NONE',  #1104 ) ;
#156 = VECTOR ( 'NONE', #992, 1000.000000000000000 ) ;
#157 = LINE ( 'NONE', #27, #130 ) ;
#158 = DIRECTION ( 'NONE',  ( 0.0000000000000000000, -0.0000000000000000000, -1.000000000000000000 ) ) ;
#159 = ADVANCED_FACE ( 'NONE', ( #346 ), #605, .F. ) ;
#160 = DIRECTION ( 'NONE',  ( 1.000000000000000000, 0.0000000000000000000, 0.0000000000000000000 ) ) ;
#161 = AXIS2_PLACEMENT_3D ( 'NONE', #226, #211, #204 ) ;
#162 = ADVANCED_FACE ( 'NONE', ( #570 ), #458, .T. ) ;
#163 = CARTESIAN_POINT ( 'NONE',  ( -0.07500000000000003900, -0.3099999999999999400, 0.1100000000000000000 ) ) ;
#164 = CARTESIAN_POINT ( 'NONE',  ( -0.07499999999999995600, 0.3099999999999999400, 0.0000000000000000000 ) ) ;
#165 = ORIENTED_EDGE ( 'NONE', *, *, #323, .T. ) ;
#166 = DIRECTION ( 'NONE',  ( -0.0000000000000000000, -0.0000000000000000000, -1.000000000000000000 ) ) ;
#167 = PLANE ( 'NONE',  #893 ) ;
#168 = DIRECTION ( 'NONE',  ( -0.0000000000000000000, -0.0000000000000000000, -1.000000000000000000 ) ) ;
#169 = DIRECTION ( 'NONE',  ( 0.0000000000000000000, -1.000000000000000000, 0.0000000000000000000 ) ) ;
#170 = VECTOR ( 'NONE', #527, 1000.000000000000100 ) ;
#171 = PLANE ( 'NONE',  #1007 ) ;
#172 = DIRECTION ( 'NONE',  ( 0.0000000000000000000, 0.0000000000000000000, -1.000000000000000000 ) ) ;
#173 = FACE_OUTER_BOUND ( 'NONE', #227, .T. ) ;
#174 = VERTEX_POINT ( 'NONE', #332 ) ;
#175 = CARTESIAN_POINT ( 'NONE',  ( -0.1250000000000000600, -0.2599999999999999000, 0.1100000000000000000 ) ) ;
#176 = ORIENTED_EDGE ( 'NONE', *, *, #370, .T. ) ;
#177 = CARTESIAN_POINT ( 'NONE',  ( 0.07499999999999998300, -0.3099999999999998900, 0.1100000000000000000 ) ) ;
#178 = ADVANCED_FACE ( 'NONE', ( #79 ), #432, .T. ) ;
#179 = CARTESIAN_POINT ( 'NONE',  ( 0.0000000000000000000, 0.0000000000000000000, 0.3000000000000000400 ) ) ;
#180 = ORIENTED_EDGE ( 'NONE', *, *, #750, .T. ) ;
#181 = CARTESIAN_POINT ( 'NONE',  ( -0.1250000000000000000, 0.2599999999999999000, 0.1100000000000000000 ) ) ;
#182 = VERTEX_POINT ( 'NONE', #900 ) ;
#183 = DIRECTION ( 'NONE',  ( 0.03489949670249752100, 0.0000000000000000000, -0.9993908270190957600 ) ) ;
#184 = EDGE_CURVE ( 'NONE', #613, #571, #759, .T. ) ;
#185 = ORIENTED_EDGE ( 'NONE', *, *, #303, .T. ) ;
#186 = EDGE_CURVE ( 'NONE', #560, #603, #997, .T. ) ;
#187 = ORIENTED_EDGE ( 'NONE', *, *, #678, .F. ) ;
#188 = CARTESIAN_POINT ( 'NONE',  ( 0.1250000000000000000, -0.07499999999999999700, 0.0000000000000000000 ) ) ;
#189 = DIRECTION ( 'NONE',  ( -0.7071067811865476800, -0.7071067811865474600, 0.0000000000000000000 ) ) ;
#190 = ORIENTED_EDGE ( 'NONE', *, *, #348, .T. ) ;
#191 = VECTOR ( 'NONE', #1039, 1000.000000000000000 ) ;
#192 = VECTOR ( 'NONE', #67, 1000.000000000000000 ) ;
#193 = LINE ( 'NONE', #21, #1091 ) ;
#194 = DIRECTION ( 'NONE',  ( 0.7071067811865476800, 0.7071067811865473500, -0.0000000000000000000 ) ) ;
#195 = EDGE_CURVE ( 'NONE', #746, #174, #967, .T. ) ;
#196 = CARTESIAN_POINT ( 'NONE',  ( 0.07500000000000006700, 0.3099999999999998900, 0.1100000000000000000 ) ) ;
#197 = EDGE_LOOP ( 'NONE', ( #867, #404, #976, #409 ) ) ;
#198 = AXIS2_PLACEMENT_3D ( 'NONE', #828, #589, #585 ) ;
#199 = ORIENTED_EDGE ( 'NONE', *, *, #978, .F. ) ;
#200 = UNCERTAINTY_MEASURE_WITH_UNIT (LENGTH_MEASURE( 1.000000000000000100E-005 ), #621, 'distance_accuracy_value', 'NONE');
#201 = ORIENTED_EDGE ( 'NONE', *, *, #442, .F. ) ;
#202 = PRODUCT ( 'SL2', 'SL2', '', ( #958 ) ) ;
#203 = DIRECTION ( 'NONE',  ( -1.311534886071175000E-016, 1.000000000000000000, 0.0000000000000000000 ) ) ;
#204 = DIRECTION ( 'NONE',  ( -1.000000000000000000, 0.0000000000000000000, -0.0000000000000000000 ) ) ;
#205 = DIRECTION ( 'NONE',  ( 1.748713181428233300E-016, -1.000000000000000000, 0.0000000000000000000 ) ) ;
#206 = VECTOR ( 'NONE', #566, 1000.000000000000000 ) ;
#207 = FACE_OUTER_BOUND ( 'NONE', #212, .T. ) ;
#208 = EDGE_CURVE ( 'NONE', #497, #1047, #728, .T. ) ;
#209 = ORIENTED_EDGE ( 'NONE', *, *, #713, .F. ) ;
#210 = DIRECTION ( 'NONE',  ( -0.7071067811865474600, 0.7071067811865476800, 0.0000000000000000000 ) ) ;
#211 = DIRECTION ( 'NONE',  ( 0.0000000000000000000, 0.0000000000000000000, -1.000000000000000000 ) ) ;
#212 = EDGE_LOOP ( 'NONE', ( #80, #835, #1033, #542 ) ) ;
#213 = EDGE_LOOP ( 'NONE', ( #473, #699, #385, #507, #180, #220 ) ) ;
#214 = ORIENTED_EDGE ( 'NONE', *, *, #856, .T. ) ;
#215 = AXIS2_PLACEMENT_3D ( 'NONE', #961, #391, #533 ) ;
#216 = DIRECTION ( 'NONE',  ( 0.7071067811865477900, -0.7071067811865473500, 0.0000000000000000000 ) ) ;
#217 = LINE ( 'NONE', #118, #663 ) ;
#218 = VECTOR ( 'NONE', #477, 1000.000000000000000 ) ;
#219 = LINE ( 'NONE', #56, #928 ) ;
#220 = ORIENTED_EDGE ( 'NONE', *, *, #15, .T. ) ;
#221 = DIRECTION ( 'NONE',  ( 1.311534886071175000E-016, -1.000000000000000000, 0.0000000000000000000 ) ) ;
#222 = CARTESIAN_POINT ( 'NONE',  ( -0.1600000000000000600, 0.3100000000000000000, 0.3000000000000000400 ) ) ;
#223 = DIRECTION ( 'NONE',  ( -1.000000000000000000, -1.311534886071175000E-016, 0.0000000000000000000 ) ) ;
#224 = VECTOR ( 'NONE', #882, 1000.000000000000000 ) ;
#225 = VECTOR ( 'NONE', #858, 1000.000000000000000 ) ;
#226 = CARTESIAN_POINT ( 'NONE',  ( 0.0000000000000000000, 0.0000000000000000000, 0.1100000000000000000 ) ) ;
#227 = EDGE_LOOP ( 'NONE', ( #761, #999, #769, #95 ) ) ;
#228 = CARTESIAN_POINT ( 'NONE',  ( -0.1599999999999999500, -0.3099999999999999400, 0.01000000000000000000 ) ) ;
#229 = ORIENTED_EDGE ( 'NONE', *, *, #614, .F. ) ;
#230 = CARTESIAN_POINT ( 'NONE',  ( 0.1599999999999999800, 0.3100000000000000000, 0.3000000000000000400 ) ) ;
#231 = EDGE_LOOP ( 'NONE', ( #65, #755, #734, #109, #347, #1117 ) ) ;
#232 = ORIENTED_EDGE ( 'NONE', *, *, #250, .F. ) ;
#233 = EDGE_CURVE ( 'NONE', #145, #907, #245, .T. ) ;
#234 = EDGE_CURVE ( 'NONE', #836, #554, #935, .T. ) ;
#235 = DIRECTION ( 'NONE',  ( 0.0000000000000000000, 0.0000000000000000000, -1.000000000000000000 ) ) ;
#236 = VECTOR ( 'NONE', #150, 1000.000000000000000 ) ;
#237 = VECTOR ( 'NONE', #457, 1000.000000000000000 ) ;
#238 = VECTOR ( 'NONE', #172, 1000.000000000000000 ) ;
#239 = PLANE ( 'NONE',  #46 ) ;
#240 = DIRECTION ( 'NONE',  ( -0.0000000000000000000, 0.0000000000000000000, 1.000000000000000000 ) ) ;
#241 = ORIENTED_EDGE ( 'NONE', *, *, #919, .T. ) ;
#242 = VERTEX_POINT ( 'NONE', #762 ) ;
#243 = EDGE_CURVE ( 'NONE', #66, #827, #917, .T. ) ;
#244 = VECTOR ( 'NONE', #955, 1000.000000000000000 ) ;
#245 = LINE ( 'NONE', #1025, #698 ) ;
#246 = ORIENTED_EDGE ( 'NONE', *, *, #809, .F. ) ;
#247 = ORIENTED_EDGE ( 'NONE', *, *, #395, .F. ) ;
#248 = DIRECTION ( 'NONE',  ( 0.9993908270190958700, 1.310735934455067400E-016, 0.03489949670249752800 ) ) ;
#249 = EDGE_LOOP ( 'NONE', ( #905, #42, #31, #495 ) ) ;
#250 = EDGE_CURVE ( 'NONE', #907, #401, #6, .T. ) ;
#251 = DIRECTION ( 'NONE',  ( -1.000000000000000000, 2.930276141852715400E-016, 0.0000000000000000000 ) ) ;
#252 = EDGE_CURVE ( 'NONE', #626, #730, #284, .T. ) ;
#253 = PLANE ( 'NONE',  #406 ) ;
#254 = PLANE ( 'NONE',  #1070 ) ;
#255 = DIRECTION ( 'NONE',  ( 1.000000000000000000, 0.0000000000000000000, 0.0000000000000000000 ) ) ;
#256 = DIRECTION ( 'NONE',  ( -2.930276141852715400E-016, -1.000000000000000000, 0.0000000000000000000 ) ) ;
#257 = ORIENTED_EDGE ( 'NONE', *, *, #413, .T. ) ;
#258 = VERTEX_POINT ( 'NONE', #228 ) ;
#259 = FACE_OUTER_BOUND ( 'NONE', #438, .T. ) ;
#260 = LINE ( 'NONE', #487, #979 ) ;
#261 = CARTESIAN_POINT ( 'NONE',  ( -0.1250000000000000600, -0.2599999999999999000, 0.1100000000000000000 ) ) ;
#262 = FACE_OUTER_BOUND ( 'NONE', #578, .T. ) ;
#263 = ORIENTED_EDGE ( 'NONE', *, *, #1090, .F. ) ;
#264 = PLANE ( 'NONE',  #161 ) ;
#265 = ORIENTED_EDGE ( 'NONE', *, *, #124, .F. ) ;
#266 = AXIS2_PLACEMENT_3D ( 'NONE', #315, #133, #84 ) ;
#267 = DIRECTION ( 'NONE',  ( -1.000000000000000000, 3.614007241618347800E-016, 0.0000000000000000000 ) ) ;
#268 = ORIENTED_EDGE ( 'NONE', *, *, #398, .T. ) ;
#269 = DIRECTION ( 'NONE',  ( -0.0000000000000000000, -0.0000000000000000000, -1.000000000000000000 ) ) ;
#270 = CARTESIAN_POINT ( 'NONE',  ( 0.07500000000000006700, 0.3099999999999998900, 0.1100000000000000000 ) ) ;
#271 = CARTESIAN_POINT ( 'NONE',  ( -0.1250000000000000600, -0.2599999999999999000, 0.1100000000000000000 ) ) ;
#272 = ADVANCED_FACE ( 'NONE', ( #889 ), #628, .F. ) ;
#273 = CARTESIAN_POINT ( 'NONE',  ( -0.07500000000000003900, -0.3099999999999999400, 0.1100000000000000000 ) ) ;
#274 = ADVANCED_FACE ( 'NONE', ( #207 ), #681, .T. ) ;
#275 = ADVANCED_FACE ( 'NONE', ( #421 ), #502, .T. ) ;
#276 = CARTESIAN_POINT ( 'NONE',  ( -0.07499999999999995600, 0.3099999999999999400, 0.1100000000000000000 ) ) ;
#277 = EDGE_CURVE ( 'NONE', #524, #853, #1079, .T. ) ;
#278 = LINE ( 'NONE', #969, #47 ) ;
#279 = AXIS2_PLACEMENT_3D ( 'NONE', #982, #912, #563 ) ;
#280 = CARTESIAN_POINT ( 'NONE',  ( 0.1530158461016505000, 2.006856202840126200E-017, 0.3000000000000000400 ) ) ;
#281 = LINE ( 'NONE', #656, #48 ) ;
#282 = PLANE ( 'NONE',  #655 ) ;
#283 = DIRECTION ( 'NONE',  ( -0.0000000000000000000, -0.0000000000000000000, -1.000000000000000000 ) ) ;
#284 = LINE ( 'NONE', #671, #1099 ) ;
#285 = ADVANCED_FACE ( 'NONE', ( #173 ), #138, .T. ) ;
#286 = ADVANCED_FACE ( 'NONE', ( #864 ), #253, .T. ) ;
#287 = PLANE ( 'NONE',  #768 ) ;
#288 = CARTESIAN_POINT ( 'NONE',  ( 0.07499999999999998300, -0.3099999999999998900, 0.1100000000000000000 ) ) ;
#289 = EDGE_LOOP ( 'NONE', ( #268, #144, #891, #691 ) ) ;
#290 = ADVANCED_FACE ( 'NONE', ( #397 ), #1075, .T. ) ;
#291 = CARTESIAN_POINT ( 'NONE',  ( -0.1600000000000000600, 0.3100000000000000000, 0.01000000000000000000 ) ) ;
#292 = DIRECTION ( 'NONE',  ( 0.7071067811865471300, -0.7071067811865479100, 0.0000000000000000000 ) ) ;
#293 = ADVANCED_FACE ( 'NONE', ( #142 ), #1093, .F. ) ;
#294 = VERTEX_POINT ( 'NONE', #41 ) ;
#295 = ORIENTED_EDGE ( 'NONE', *, *, #508, .F. ) ;
#296 = ORIENTED_EDGE ( 'NONE', *, *, #868, .F. ) ;
#297 = FACE_OUTER_BOUND ( 'NONE', #540, .T. ) ;
#298 = ADVANCED_FACE ( 'NONE', ( #652 ), #1061, .T. ) ;
#299 = VECTOR ( 'NONE', #359, 1000.000000000000000 ) ;
#300 = ADVANCED_FACE ( 'NONE', ( #1055 ), #1029, .F. ) ;
#301 = ADVANCED_FACE ( 'NONE', ( #600 ), #1013, .T. ) ;
#302 = FACE_OUTER_BOUND ( 'NONE', #402, .T. ) ;
#303 = EDGE_CURVE ( 'NONE', #44, #939, #119, .T. ) ;
#304 = VERTEX_POINT ( 'NONE', #942 ) ;
#305 = SURFACE_STYLE_USAGE ( .BOTH. , #1011 ) ;
#306 = CARTESIAN_POINT ( 'NONE',  ( -0.1250000000000000600, -0.2599999999999999000, 0.1100000000000000000 ) ) ;
#307 = ADVANCED_FACE ( 'NONE', ( #808 ), #924, .T. ) ;
#308 = VERTEX_POINT ( 'NONE', #948 ) ;
#309 = ADVANCED_FACE ( 'NONE', ( #334 ), #903, .T. ) ;
#310 = ORIENTED_EDGE ( 'NONE', *, *, #252, .F. ) ;
#311 = ORIENTED_EDGE ( 'NONE', *, *, #861, .F. ) ;
#312 = CARTESIAN_POINT ( 'NONE',  ( 0.1250000000000000000, -0.07499999999999999700, 0.1100000000000000000 ) ) ;
#313 = EDGE_CURVE ( 'NONE', #411, #121, #1031, .T. ) ;
#314 = LINE ( 'NONE', #1119, #994 ) ;
#315 = CARTESIAN_POINT ( 'NONE',  ( -0.1250000000000000600, -0.2599999999999999000, 0.1100000000000000000 ) ) ;
#316 = CARTESIAN_POINT ( 'NONE',  ( 0.1250000000000000600, 0.2599999999999999000, 0.01000000000000000000 ) ) ;
#317 = VECTOR ( 'NONE', #703, 1000.000000000000000 ) ;
#318 = VECTOR ( 'NONE', #82, 1000.000000000000000 ) ;
#319 = ORIENTED_EDGE ( 'NONE', *, *, #1022, .F. ) ;
#320 = DIRECTION ( 'NONE',  ( 1.000000000000000000, 3.614007241618347800E-016, 0.0000000000000000000 ) ) ;
#321 = FILL_AREA_STYLE ('',( #573 ) ) ;
#322 = DIRECTION ( 'NONE',  ( 0.0000000000000000000, 0.0000000000000000000, -1.000000000000000000 ) ) ;
#323 = EDGE_CURVE ( 'NONE', #54, #121, #364, .T. ) ;
#324 = CARTESIAN_POINT ( 'NONE',  ( 0.0000000000000000000, 0.0000000000000000000, 0.1100000000000000000 ) ) ;
#325 = EDGE_CURVE ( 'NONE', #667, #836, #92, .T. ) ;
#326 = ORIENTED_EDGE ( 'NONE', *, *, #800, .T. ) ;
#327 = DIRECTION ( 'NONE',  ( 3.614007241618347800E-016, -1.000000000000000000, 0.0000000000000000000 ) ) ;
#328 = EDGE_CURVE ( 'NONE', #99, #258, #622, .T. ) ;
#329 = CARTESIAN_POINT ( 'NONE',  ( -0.1250000000000000000, 0.2599999999999999000, 0.0000000000000000000 ) ) ;
#330 = EDGE_LOOP ( 'NONE', ( #209, #427, #199, #814 ) ) ;
#331 = SHAPE_DEFINITION_REPRESENTATION ( #472, #692 ) ;
#332 = CARTESIAN_POINT ( 'NONE',  ( -0.1250000000000000600, -0.2599999999999999000, 0.0000000000000000000 ) ) ;
#333 = VECTOR ( 'NONE', #396, 1000.000000000000100 ) ;
#334 = FACE_OUTER_BOUND ( 'NONE', #213, .T. ) ;
#335 = VERTEX_POINT ( 'NONE', #1071 ) ;
#336 = STYLED_ITEM ( 'NONE', ( #848 ), #692 ) ;
#337 = CARTESIAN_POINT ( 'NONE',  ( -0.07499999999999995600, 0.3099999999999999400, 0.1100000000000000000 ) ) ;
#338 = VERTEX_POINT ( 'NONE', #587 ) ;
#339 = CARTESIAN_POINT ( 'NONE',  ( 0.1250000000000000000, -0.07499999999999999700, 0.1100000000000000000 ) ) ;
#340 = CARTESIAN_POINT ( 'NONE',  ( -0.1250000000000000000, 0.07499999999999999700, 0.1100000000000000000 ) ) ;
#341 = DIRECTION ( 'NONE',  ( -0.0000000000000000000, 1.000000000000000000, -0.0000000000000000000 ) ) ;
#342 = LINE ( 'NONE', #712, #244 ) ;
#343 = VECTOR ( 'NONE', #666, 1000.000000000000000 ) ;
#344 = CARTESIAN_POINT ( 'NONE',  ( 0.07500000000000006700, 0.3099999999999998900, 0.1100000000000000000 ) ) ;
#345 = LINE ( 'NONE', #821, #106 ) ;
#346 = FACE_OUTER_BOUND ( 'NONE', #43, .T. ) ;
#347 = ORIENTED_EDGE ( 'NONE', *, *, #454, .F. ) ;
#348 = EDGE_CURVE ( 'NONE', #1034, #746, #745, .T. ) ;
#349 = DIRECTION ( 'NONE',  ( 0.7071067811865477900, -0.7071067811865473500, 0.0000000000000000000 ) ) ;
#350 = CARTESIAN_POINT ( 'NONE',  ( -0.1600000000000000600, 0.3100000000000000000, 0.01000000000000000000 ) ) ;
#351 = ORIENTED_EDGE ( 'NONE', *, *, #923, .T. ) ;
#352 = ADVANCED_FACE ( 'NONE', ( #981 ), #595, .F. ) ;
#353 = CARTESIAN_POINT ( 'NONE',  ( 0.0000000000000000000, 0.0000000000000000000, 0.0000000000000000000 ) ) ;
#354 = ADVANCED_FACE ( 'NONE', ( #262 ), #825, .F. ) ;
#355 = CARTESIAN_POINT ( 'NONE',  ( -0.07499999999999995600, 0.3099999999999999400, 0.1100000000000000000 ) ) ;
#356 = ADVANCED_FACE ( 'NONE', ( #38 ), #558, .F. ) ;
#357 = ORIENTED_EDGE ( 'NONE', *, *, #868, .T. ) ;
#358 = ORIENTED_EDGE ( 'NONE', *, *, #186, .T. ) ;
#359 = DIRECTION ( 'NONE',  ( -1.000000000000000000, -0.0000000000000000000, -0.0000000000000000000 ) ) ;
#360 = DIRECTION ( 'NONE',  ( 0.0000000000000000000, 0.0000000000000000000, -1.000000000000000000 ) ) ;
#361 = CARTESIAN_POINT ( 'NONE',  ( 0.07499999999999998300, -0.3099999999999998900, 0.1100000000000000000 ) ) ;
#362 = LINE ( 'NONE', #812, #116 ) ;
#363 = LINE ( 'NONE', #435, #419 ) ;
#364 = LINE ( 'NONE', #855, #1009 ) ;
#365 = ADVANCED_FACE ( 'NONE', ( #302 ), #532, .F. ) ;
#366 = DIRECTION ( 'NONE',  ( 1.000000000000000000, -0.0000000000000000000, 0.0000000000000000000 ) ) ;
#367 = VERTEX_POINT ( 'NONE', #127 ) ;
#368 = CARTESIAN_POINT ( 'NONE',  ( 0.07500000000000006700, 0.3099999999999998900, 0.0000000000000000000 ) ) ;
#369 = DIRECTION ( 'NONE',  ( 3.614007241618347800E-016, 1.000000000000000000, 0.0000000000000000000 ) ) ;
#370 = EDGE_CURVE ( 'NONE', #985, #749, #947, .T. ) ;
#371 = ORIENTED_EDGE ( 'NONE', *, *, #62, .F. ) ;
#372 = DIRECTION ( 'NONE',  ( 0.7071067811865476800, 0.7071067811865473500, -0.0000000000000000000 ) ) ;
#373 = EDGE_LOOP ( 'NONE', ( #1006, #371, #263, #715, #736, #229, #485, #1049, #123, #295, #1110, #187, #149, #108, #658, #450 ) ) ;
#374 = ORIENTED_EDGE ( 'NONE', *, *, #930, .F. ) ;
#375 = CARTESIAN_POINT ( 'NONE',  ( -0.1600000000000000600, 0.3100000000000000000, 0.01000000000000000000 ) ) ;
#376 =( NAMED_UNIT ( * ) PLANE_ANGLE_UNIT ( ) SI_UNIT ( $, .RADIAN. ) );
#377 = UNCERTAINTY_MEASURE_WITH_UNIT (LENGTH_MEASURE( 1.000000000000000100E-005 ), #26, 'distance_accuracy_value', 'NONE');
#378 = AXIS2_PLACEMENT_3D ( 'NONE', #601, #169, #158 ) ;
#379 = LINE ( 'NONE', #350, #588 ) ;
#380 = VECTOR ( 'NONE', #783, 1000.000000000000100 ) ;
#381 = EDGE_CURVE ( 'NONE', #182, #1056, #773, .T. ) ;
#382 = FILL_AREA_STYLE_COLOUR ( '', #535 ) ;
#383 = EDGE_LOOP ( 'NONE', ( #214, #530, #720, #528, #357, #990 ) ) ;
#384 = CARTESIAN_POINT ( 'NONE',  ( 0.1250000000000000600, 0.2599999999999999000, 0.01000000000000000000 ) ) ;
#385 = ORIENTED_EDGE ( 'NONE', *, *, #964, .T. ) ;
#386 = CARTESIAN_POINT ( 'NONE',  ( -0.07500000000000003900, -0.3099999999999999400, 0.1100000000000000000 ) ) ;
#387 = DIRECTION ( 'NONE',  ( 2.930276141852715400E-016, 1.000000000000000000, 0.0000000000000000000 ) ) ;
#388 = EDGE_CURVE ( 'NONE', #929, #470, #18, .T. ) ;
#389 = CARTESIAN_POINT ( 'NONE',  ( 0.1599999999999999800, 0.3100000000000000000, 0.01000000000000000000 ) ) ;
#390 = ORIENTED_EDGE ( 'NONE', *, *, #70, .T. ) ;
#391 = DIRECTION ( 'NONE',  ( 1.084202172485504400E-016, 1.000000000000000000, 0.0000000000000000000 ) ) ;
#392 = DIRECTION ( 'NONE',  ( -2.930276141852715400E-016, -1.000000000000000000, 0.0000000000000000000 ) ) ;
#393 = LINE ( 'NONE', #722, #137 ) ;
#394 = VECTOR ( 'NONE', #481, 1000.000000000000100 ) ;
#395 = EDGE_CURVE ( 'NONE', #11, #1057, #493, .T. ) ;
#396 = DIRECTION ( 'NONE',  ( 0.03489949670249751400, 0.0000000000000000000, 0.9993908270190957600 ) ) ;
#397 = FACE_OUTER_BOUND ( 'NONE', #330, .T. ) ;
#398 = EDGE_CURVE ( 'NONE', #308, #367, #464, .T. ) ;
#399 = ORIENTED_EDGE ( 'NONE', *, *, #1041, .F. ) ;
#400 = EDGE_LOOP ( 'NONE', ( #423, #33, #813, #971 ) ) ;
#401 = VERTEX_POINT ( 'NONE', #136 ) ;
#402 = EDGE_LOOP ( 'NONE', ( #818, #1012, #1063, #562 ) ) ;
#403 = PRESENTATION_LAYER_ASSIGNMENT (  '', '', ( #336 ) ) ;
#404 = ORIENTED_EDGE ( 'NONE', *, *, #738, .F. ) ;
#405 = CARTESIAN_POINT ( 'NONE',  ( -0.1530158461016505300, 0.3100000000000000000, 0.3000000000000000400 ) ) ;
#406 = AXIS2_PLACEMENT_3D ( 'NONE', #353, #45, #1096 ) ;
#407 = LINE ( 'NONE', #920, #1088 ) ;
#408 = VECTOR ( 'NONE', #1100, 1000.000000000000000 ) ;
#409 = ORIENTED_EDGE ( 'NONE', *, *, #1083, .T. ) ;
#410 = UNCERTAINTY_MEASURE_WITH_UNIT (LENGTH_MEASURE( 1.000000000000000100E-005 ), #143, 'distance_accuracy_value', 'NONE');
#411 = VERTEX_POINT ( 'NONE', #576 ) ;
#412 = DIRECTION ( 'NONE',  ( -1.000000000000000000, -3.614007241618347800E-016, -0.0000000000000000000 ) ) ;
#413 = EDGE_CURVE ( 'NONE', #667, #641, #434, .T. ) ;
#414 = AXIS2_PLACEMENT_3D ( 'NONE', #529, #896, #2 ) ;
#415 = CARTESIAN_POINT ( 'NONE',  ( 0.07500000000000006700, 0.3099999999999998900, 0.01000000000000000000 ) ) ;
#416 = DIRECTION ( 'NONE',  ( -0.7071067811865476800, -0.7071067811865474600, 0.0000000000000000000 ) ) ;
#417 = ADVANCED_FACE ( 'NONE', ( #664 ), #96, .F. ) ;
#418 = DIRECTION ( 'NONE',  ( 1.000000000000000000, -1.084202172485504400E-016, 0.0000000000000000000 ) ) ;
#419 = VECTOR ( 'NONE', #412, 1000.000000000000000 ) ;
#420 = AXIS2_PLACEMENT_3D ( 'NONE', #471, #443, #255 ) ;
#421 = FACE_OUTER_BOUND ( 'NONE', #811, .T. ) ;
#422 = ORIENTED_EDGE ( 'NONE', *, *, #581, .T. ) ;
#423 = ORIENTED_EDGE ( 'NONE', *, *, #614, .T. ) ;
#424 = DIRECTION ( 'NONE',  ( -0.7071067811865474600, 0.7071067811865476800, 0.0000000000000000000 ) ) ;
#425 = DIRECTION ( 'NONE',  ( 1.311534886071175000E-016, -1.000000000000000000, 0.0000000000000000000 ) ) ;
#426 = ORIENTED_EDGE ( 'NONE', *, *, #577, .T. ) ;
#427 = ORIENTED_EDGE ( 'NONE', *, *, #790, .F. ) ;
#428 = CARTESIAN_POINT ( 'NONE',  ( -0.07500000000000003900, -0.3099999999999999400, 0.1100000000000000000 ) ) ;
#429 =( NAMED_UNIT ( * ) PLANE_ANGLE_UNIT ( ) SI_UNIT ( $, .RADIAN. ) );
#430 = EDGE_CURVE ( 'NONE', #643, #571, #1114, .T. ) ;
#431 = DIRECTION ( 'NONE',  ( 0.7071067811865479100, 0.7071067811865471300, 0.0000000000000000000 ) ) ;
#432 = PLANE ( 'NONE',  #945 ) ;
#433 = FACE_OUTER_BOUND ( 'NONE', #841, .T. ) ;
#434 = LINE ( 'NONE', #101, #192 ) ;
#435 = CARTESIAN_POINT ( 'NONE',  ( -0.07500000000000003900, -0.3099999999999999400, 0.1100000000000000000 ) ) ;
#436 = COLOUR_RGB ( '',0.0000000000000000000, 0.0000000000000000000, 1.000000000000000000 ) ;
#437 =( NAMED_UNIT ( * ) SI_UNIT ( $, .STERADIAN. ) SOLID_ANGLE_UNIT ( ) );
#438 = EDGE_LOOP ( 'NONE', ( #866, #653, #1021, #190 ) ) ;
#439 = ORIENTED_EDGE ( 'NONE', *, *, #809, .T. ) ;
#440 = APPLICATION_PROTOCOL_DEFINITION ( 'draft international standard', 'automotive_design', 1998, #881 ) ;
#441 = FILL_AREA_STYLE ('',( #382 ) ) ;
#442 = EDGE_CURVE ( 'NONE', #746, #1010, #877, .T. ) ;
#443 = DIRECTION ( 'NONE',  ( -0.0000000000000000000, 0.0000000000000000000, 1.000000000000000000 ) ) ;
#444 = DIRECTION ( 'NONE',  ( -2.930276141852715400E-016, -1.000000000000000000, 0.0000000000000000000 ) ) ;
#445 = DIRECTION ( 'NONE',  ( -1.748713181428233300E-016, 1.000000000000000000, 0.0000000000000000000 ) ) ;
#446 = PLANE ( 'NONE',  #420 ) ;
#447 = DIRECTION ( 'NONE',  ( -0.0000000000000000000, 1.000000000000000000, -0.0000000000000000000 ) ) ;
#448 = EDGE_CURVE ( 'NONE', #63, #827, #640, .T. ) ;
#449 = VECTOR ( 'NONE', #168, 1000.000000000000000 ) ;
#450 = ORIENTED_EDGE ( 'NONE', *, *, #869, .F. ) ;
#451 = CARTESIAN_POINT ( 'NONE',  ( -0.07500000000000003900, -0.3099999999999999400, 0.1100000000000000000 ) ) ;
#452 = CARTESIAN_POINT ( 'NONE',  ( -0.1530158461016505300, 0.3100000000000000000, 0.3000000000000000400 ) ) ;
#453 = PLANE ( 'NONE',  #414 ) ;
#454 = EDGE_CURVE ( 'NONE', #497, #338, #927, .T. ) ;
#455 = DIRECTION ( 'NONE',  ( -1.000000000000000000, 0.0000000000000000000, -0.0000000000000000000 ) ) ;
#456 = EDGE_CURVE ( 'NONE', #676, #574, #157, .T. ) ;
#457 = DIRECTION ( 'NONE',  ( -0.0000000000000000000, -0.0000000000000000000, -1.000000000000000000 ) ) ;
#458 = PLANE ( 'NONE',  #840 ) ;
#459 = CARTESIAN_POINT ( 'NONE',  ( -0.1250000000000000000, 0.07499999999999999700, 0.0000000000000000000 ) ) ;
#460 = MECHANICAL_DESIGN_GEOMETRIC_PRESENTATION_REPRESENTATION (  '', ( #336 ), #522 ) ;
#461 = PLANE ( 'NONE',  #887 ) ;
#462 = CARTESIAN_POINT ( 'NONE',  ( 0.07500000000000006700, 0.3099999999999998900, 0.1100000000000000000 ) ) ;
#463 = LINE ( 'NONE', #154, #236 ) ;
#464 = LINE ( 'NONE', #645, #901 ) ;
#465 = DIRECTION ( 'NONE',  ( -0.0000000000000000000, 1.000000000000000000, -0.0000000000000000000 ) ) ;
#466 = VECTOR ( 'NONE', #684, 1000.000000000000000 ) ;
#467 = DIRECTION ( 'NONE',  ( -1.311534886071175000E-016, 1.000000000000000000, -0.0000000000000000000 ) ) ;
#468 = ORIENTED_EDGE ( 'NONE', *, *, #627, .F. ) ;
#469 = CARTESIAN_POINT ( 'NONE',  ( -0.1600000000000000600, 0.3100000000000000000, 0.09999999999998010500 ) ) ;
#470 = VERTEX_POINT ( 'NONE', #837 ) ;
#471 = CARTESIAN_POINT ( 'NONE',  ( 0.0000000000000000000, 0.0000000000000000000, 0.01000000000000000000 ) ) ;
#473 = ORIENTED_EDGE ( 'NONE', *, *, #845, .T. ) ;
#472 = PRODUCT_DEFINITION_SHAPE ( 'NONE', 'NONE',  #747 ) ;
#474 = DIRECTION ( 'NONE',  ( -1.000000000000000000, 1.084202172485504400E-016, -0.0000000000000000000 ) ) ;
#475 = CARTESIAN_POINT ( 'NONE',  ( -0.07500000000000003900, -0.3099999999999999400, 0.1100000000000000000 ) ) ;
#476 = STYLED_ITEM ( 'NONE', ( #914 ), #1014 ) ;
#477 = DIRECTION ( 'NONE',  ( -0.0000000000000000000, -0.0000000000000000000, -1.000000000000000000 ) ) ;
#478 = LINE ( 'NONE', #899, #224 ) ;
#479 = DIRECTION ( 'NONE',  ( 0.7071067811865474600, -0.7071067811865474600, 0.0000000000000000000 ) ) ;
#480 = VECTOR ( 'NONE', #758, 1000.000000000000000 ) ;
#481 = DIRECTION ( 'NONE',  ( 0.7071067811865476800, 0.7071067811865473500, -0.0000000000000000000 ) ) ;
#482 = EDGE_LOOP ( 'NONE', ( #22, #1081, #810, #9, #32, #880 ) ) ;
#483 = CARTESIAN_POINT ( 'NONE',  ( 0.07499999999999998300, -0.3099999999999998900, 0.1100000000000000000 ) ) ;
#484 = DIRECTION ( 'NONE',  ( -1.000000000000000000, 1.084202172485504400E-016, -0.0000000000000000000 ) ) ;
#485 = ORIENTED_EDGE ( 'NONE', *, *, #733, .F. ) ;
#486 = CARTESIAN_POINT ( 'NONE',  ( -0.1250000000000000000, -0.07499999999999996900, 0.01000000000000000000 ) ) ;
#487 = CARTESIAN_POINT ( 'NONE',  ( -0.1600000000000000600, 0.3100000000000000000, 0.09999999999998013300 ) ) ;
#488 = ORIENTED_EDGE ( 'NONE', *, *, #515, .F. ) ;
#489 = COLOUR_RGB ( '',1.000000000000000000, 1.000000000000000000, 1.000000000000000000 ) ;
#490 = LINE ( 'NONE', #1076, #191 ) ;
#491 = EDGE_CURVE ( 'NONE', #335, #1087, #851, .T. ) ;
#492 = CARTESIAN_POINT ( 'NONE',  ( 0.1250000000000000600, 0.2599999999999999000, 0.1100000000000000000 ) ) ;
#493 = LINE ( 'NONE', #312, #218 ) ;
#494 = LINE ( 'NONE', #512, #238 ) ;
#495 = ORIENTED_EDGE ( 'NONE', *, *, #618, .T. ) ;
#496 = SURFACE_SIDE_STYLE ('',( #996 ) ) ;
#497 = VERTEX_POINT ( 'NONE', #799 ) ;
#498 = AXIS2_PLACEMENT_3D ( 'NONE', #177, #292, #431 ) ;
#499 = CARTESIAN_POINT ( 'NONE',  ( -0.07499999999999995600, 0.3099999999999999400, 0.1100000000000000000 ) ) ;
#500 = ORIENTED_EDGE ( 'NONE', *, *, #129, .T. ) ;
#501 = EDGE_CURVE ( 'NONE', #338, #182, #345, .T. ) ;
#502 = PLANE ( 'NONE',  #153 ) ;
#503 = LINE ( 'NONE', #909, #933 ) ;
#504 = DIRECTION ( 'NONE',  ( 1.000000000000000000, -1.084202172485504400E-016, 0.0000000000000000000 ) ) ;
#505 = VECTOR ( 'NONE', #1052, 1000.000000000000000 ) ;
#506 = CARTESIAN_POINT ( 'NONE',  ( 0.1600000000000000600, -0.3099999999999999400, 0.09999999999998013300 ) ) ;
#507 = ORIENTED_EDGE ( 'NONE', *, *, #381, .T. ) ;
#508 = EDGE_CURVE ( 'NONE', #939, #613, #591, .T. ) ;
#509 = CARTESIAN_POINT ( 'NONE',  ( -0.1250000000000000600, -0.2599999999999999000, 0.1100000000000000000 ) ) ;
#510 = DIRECTION ( 'NONE',  ( -1.084202172485504400E-016, -1.000000000000000000, 0.0000000000000000000 ) ) ;
#511 = DIRECTION ( 'NONE',  ( 1.311534886071175000E-016, -1.000000000000000000, 0.0000000000000000000 ) ) ;
#512 = CARTESIAN_POINT ( 'NONE',  ( 0.1250000000000000000, -0.2599999999999999000, 0.1100000000000000000 ) ) ;
#513 = EDGE_CURVE ( 'NONE', #52, #11, #1017, .T. ) ;
#514 = CARTESIAN_POINT ( 'NONE',  ( -0.07499999999999995600, 0.3099999999999999400, 0.1100000000000000000 ) ) ;
#515 = EDGE_CURVE ( 'NONE', #886, #667, #1045, .T. ) ;
#516 = ORIENTED_EDGE ( 'NONE', *, *, #501, .T. ) ;
#517 = ORIENTED_EDGE ( 'NONE', *, *, #678, .T. ) ;
#518 = ORIENTED_EDGE ( 'NONE', *, *, #930, .T. ) ;
#519 = FACE_OUTER_BOUND ( 'NONE', #679, .T. ) ;
#520 = CARTESIAN_POINT ( 'NONE',  ( 0.1250000000000000000, 0.07499999999999996900, 0.1100000000000000000 ) ) ;
#521 = VECTOR ( 'NONE', #269, 1000.000000000000000 ) ;
#522 =( GEOMETRIC_REPRESENTATION_CONTEXT ( 3 ) GLOBAL_UNCERTAINTY_ASSIGNED_CONTEXT ( ( #904 ) ) GLOBAL_UNIT_ASSIGNED_CONTEXT ( ( #126, #854, #140 ) ) REPRESENTATION_CONTEXT ( 'NONE', 'WORKASPACE' ) );
#523 = VECTOR ( 'NONE', #789, 1000.000000000000100 ) ;
#524 = VERTEX_POINT ( 'NONE', #469 ) ;
#525 = AXIS2_PLACEMENT_3D ( 'NONE', #1074, #1065, #1122 ) ;
#526 = ORIENTED_EDGE ( 'NONE', *, *, #1084, .T. ) ;
#527 = DIRECTION ( 'NONE',  ( -0.7071067811865474600, 0.7071067811865474600, 0.0000000000000000000 ) ) ;
#528 = ORIENTED_EDGE ( 'NONE', *, *, #556, .T. ) ;
#529 = CARTESIAN_POINT ( 'NONE',  ( 0.07499999999999998300, -0.3099999999999998900, 0.1100000000000000000 ) ) ;
#530 = ORIENTED_EDGE ( 'NONE', *, *, #1032, .T. ) ;
#531 = ORIENTED_EDGE ( 'NONE', *, *, #313, .F. ) ;
#532 = PLANE ( 'NONE',  #610 ) ;
#533 = DIRECTION ( 'NONE',  ( -1.000000000000000000, 1.084202172485504400E-016, 0.0000000000000000000 ) ) ;
#534 = VECTOR ( 'NONE', #1050, 1000.000000000000000 ) ;
#535 = COLOUR_RGB ( '',1.000000000000000000, 1.000000000000000000, 1.000000000000000000 ) ;
#536 = CARTESIAN_POINT ( 'NONE',  ( 0.1599999999999999800, 0.3100000000000000000, 0.09999999999998053500 ) ) ;
#537 = VECTOR ( 'NONE', #547, 1000.000000000000000 ) ;
#538 = AXIS2_PLACEMENT_3D ( 'NONE', #270, #1051, #916 ) ;
#539 = CARTESIAN_POINT ( 'NONE',  ( 0.1530158461016504500, 0.3100000000000000000, 0.3000000000000000400 ) ) ;
#540 = EDGE_LOOP ( 'NONE', ( #1103, #702, #940, #526, #1094, #857, #931, #557, #987, #351 ) ) ;
#541 = ORIENTED_EDGE ( 'NONE', *, *, #413, .F. ) ;
#542 = ORIENTED_EDGE ( 'NONE', *, *, #674, .T. ) ;
#543 = CARTESIAN_POINT ( 'NONE',  ( -0.07500000000000003900, -0.3099999999999999400, 0.01000000000000000000 ) ) ;
#544 = AXIS2_PLACEMENT_3D ( 'NONE', #832, #366, #360 ) ;
#545 = CARTESIAN_POINT ( 'NONE',  ( -0.1250000000000000000, -0.07499999999999996900, 0.1100000000000000000 ) ) ;
#546 = DIRECTION ( 'NONE',  ( -0.7071067811865477900, 0.7071067811865473500, 0.0000000000000000000 ) ) ;
#547 = DIRECTION ( 'NONE',  ( 0.0000000000000000000, 0.0000000000000000000, -1.000000000000000000 ) ) ;
#548 = ORIENTED_EDGE ( 'NONE', *, *, #733, .T. ) ;
#549 = VECTOR ( 'NONE', #465, 1000.000000000000000 ) ;
#550 = VECTOR ( 'NONE', #349, 999.9999999999998900 ) ;
#551 = CARTESIAN_POINT ( 'NONE',  ( 0.1250000000000000000, -0.2599999999999999000, 0.1100000000000000000 ) ) ;
#552 = DIRECTION ( 'NONE',  ( 0.0000000000000000000, 0.0000000000000000000, -1.000000000000000000 ) ) ;
#553 = VECTOR ( 'NONE', #726, 1000.000000000000000 ) ;
#554 = VERTEX_POINT ( 'NONE', #764 ) ;
#555 = PLANE ( 'NONE',  #215 ) ;
#556 = EDGE_CURVE ( 'NONE', #929, #895, #823, .T. ) ;
#557 = ORIENTED_EDGE ( 'NONE', *, *, #184, .T. ) ;
#558 = PLANE ( 'NONE',  #498 ) ;
#559 = CARTESIAN_POINT ( 'NONE',  ( -0.1599999999999999500, -0.3099999999999999400, 0.3000000000000000400 ) ) ;
#560 = VERTEX_POINT ( 'NONE', #739 ) ;
#561 = CARTESIAN_POINT ( 'NONE',  ( 0.1250000000000000000, 0.07499999999999996900, 0.01000000000000000000 ) ) ;
#562 = ORIENTED_EDGE ( 'NONE', *, *, #388, .T. ) ;
#563 = DIRECTION ( 'NONE',  ( 2.930276141852715400E-016, 1.000000000000000000, 0.0000000000000000000 ) ) ;
#564 = VECTOR ( 'NONE', #1082, 1000.000000000000000 ) ;
#565 = EDGE_CURVE ( 'NONE', #401, #174, #105, .T. ) ;
#566 = DIRECTION ( 'NONE',  ( 1.000000000000000000, -1.084202172485504400E-016, 0.0000000000000000000 ) ) ;
#567 = LINE ( 'NONE', #723, #317 ) ;
#568 = VECTOR ( 'NONE', #754, 1000.000000000000000 ) ;
#569 = DIRECTION ( 'NONE',  ( 1.000000000000000000, 0.0000000000000000000, 0.0000000000000000000 ) ) ;
#570 = FACE_OUTER_BOUND ( 'NONE', #383, .T. ) ;
#571 = VERTEX_POINT ( 'NONE', #716 ) ;
#572 = CARTESIAN_POINT ( 'NONE',  ( 0.1600000000000000600, -0.3099999999999999400, 0.09999999999998053500 ) ) ;
#573 = FILL_AREA_STYLE_COLOUR ( '', #489 ) ;
#574 = VERTEX_POINT ( 'NONE', #865 ) ;
#575 = EDGE_CURVE ( 'NONE', #174, #63, #567, .T. ) ;
#576 = CARTESIAN_POINT ( 'NONE',  ( -0.1250000000000000000, 0.07499999999999999700, 0.1100000000000000000 ) ) ;
#577 = EDGE_CURVE ( 'NONE', #1087, #907, #788, .T. ) ;
#578 = EDGE_LOOP ( 'NONE', ( #775, #85, #246, #1086, #1026, #548, #770, #943, #257, #802 ) ) ;
#579 = LINE ( 'NONE', #344, #804 ) ;
#580 = DIRECTION ( 'NONE',  ( -0.7071067811865475700, -0.7071067811865475700, 0.0000000000000000000 ) ) ;
#581 = EDGE_CURVE ( 'NONE', #66, #335, #75, .T. ) ;
#582 = LINE ( 'NONE', #384, #1008 ) ;
#583 = VECTOR ( 'NONE', #870, 1000.000000000000000 ) ;
#584 = EDGE_LOOP ( 'NONE', ( #165, #531, #311, #843 ) ) ;
#585 = DIRECTION ( 'NONE',  ( -1.000000000000000000, 0.0000000000000000000, -0.0000000000000000000 ) ) ;
#586 = DIRECTION ( 'NONE',  ( 0.7071067811865477900, -0.7071067811865473500, 0.0000000000000000000 ) ) ;
#587 = CARTESIAN_POINT ( 'NONE',  ( 0.1250000000000000000, 0.07499999999999996900, 0.1100000000000000000 ) ) ;
#588 = VECTOR ( 'NONE', #205, 1000.000000000000000 ) ;
#589 = DIRECTION ( 'NONE',  ( 0.0000000000000000000, 0.0000000000000000000, -1.000000000000000000 ) ) ;
#590 = VECTOR ( 'NONE', #729, 1000.000000000000100 ) ;
#591 = LINE ( 'NONE', #795, #380 ) ;
#592 = ORIENTED_EDGE ( 'NONE', *, *, #303, .F. ) ;
#593 = CARTESIAN_POINT ( 'NONE',  ( -0.1599999999999999500, -0.3099999999999999400, 0.01000000000000000000 ) ) ;
#594 = PRESENTATION_LAYER_ASSIGNMENT (  '', '', ( #476 ) ) ;
#595 = PLANE ( 'NONE',  #198 ) ;
#596 = ORIENTED_EDGE ( 'NONE', *, *, #670, .T. ) ;
#597 = LINE ( 'NONE', #608, #89 ) ;
#598 = LINE ( 'NONE', #375, #299 ) ;
#599 = CARTESIAN_POINT ( 'NONE',  ( -0.1250000000000000000, 0.07499999999999999700, 0.1100000000000000000 ) ) ;
#600 = FACE_OUTER_BOUND ( 'NONE', #97, .T. ) ;
#601 = CARTESIAN_POINT ( 'NONE',  ( -0.1600000000000000600, 0.3100000000000000000, 0.3000000000000000400 ) ) ;
#602 = ORIENTED_EDGE ( 'NONE', *, *, #856, .F. ) ;
#603 = VERTEX_POINT ( 'NONE', #644 ) ;
#604 = CARTESIAN_POINT ( 'NONE',  ( -0.07499999999999995600, 0.3099999999999999400, 0.01000000000000000000 ) ) ;
#605 = PLANE ( 'NONE',  #707 ) ;
#606 = EDGE_CURVE ( 'NONE', #304, #1002, #281, .T. ) ;
#607 = CARTESIAN_POINT ( 'NONE',  ( -0.1250000000000000000, -0.07499999999999996900, 0.1100000000000000000 ) ) ;
#608 = CARTESIAN_POINT ( 'NONE',  ( -0.1599999999999999500, -0.3099999999999999400, 0.01000000000000000000 ) ) ;
#609 = VECTOR ( 'NONE', #718, 1000.000000000000000 ) ;
#610 = AXIS2_PLACEMENT_3D ( 'NONE', #842, #580, #479 ) ;
#611 = VECTOR ( 'NONE', #974, 1000.000000000000000 ) ;
#612 = MANIFOLD_SOLID_BREP ( 'Lead1', #950 ) ;
#613 = VERTEX_POINT ( 'NONE', #672 ) ;
#614 = EDGE_CURVE ( 'NONE', #554, #749, #1098, .T. ) ;
#615 = CARTESIAN_POINT ( 'NONE',  ( -0.1250000000000000000, 0.2599999999999999000, 0.01000000000000000000 ) ) ;
#616 = CARTESIAN_POINT ( 'NONE',  ( 0.1530158461016505000, -0.3099999999999999400, 0.3000000000000000400 ) ) ;
#617 =( NAMED_UNIT ( * ) PLANE_ANGLE_UNIT ( ) SI_UNIT ( $, .RADIAN. ) );
#618 = EDGE_CURVE ( 'NONE', #1010, #66, #1044, .T. ) ;
#619 = VECTOR ( 'NONE', #511, 1000.000000000000000 ) ;
#620 = DIRECTION ( 'NONE',  ( -0.0000000000000000000, -0.0000000000000000000, -1.000000000000000000 ) ) ;
#621 =( LENGTH_UNIT ( ) NAMED_UNIT ( * ) SI_UNIT ( .MILLI., .METRE. ) );
#622 = LINE ( 'NONE', #677, #61 ) ;
#623 = CARTESIAN_POINT ( 'NONE',  ( 0.1250000000000000000, -0.07499999999999999700, 0.01000000000000000000 ) ) ;
#624 = EDGE_CURVE ( 'NONE', #470, #304, #649, .T. ) ;
#625 = ORIENTED_EDGE ( 'NONE', *, *, #910, .T. ) ;
#626 = VERTEX_POINT ( 'NONE', #536 ) ;
#627 = EDGE_CURVE ( 'NONE', #626, #643, #862, .T. ) ;
#628 = PLANE ( 'NONE',  #1062 ) ;
#629 = SURFACE_STYLE_USAGE ( .BOTH. , #496 ) ;
#630 = DIRECTION ( 'NONE',  ( -0.0000000000000000000, -1.000000000000000000, -0.0000000000000000000 ) ) ;
#631 = ORIENTED_EDGE ( 'NONE', *, *, #861, .T. ) ;
#632 = ORIENTED_EDGE ( 'NONE', *, *, #13, .F. ) ;
#633 = EDGE_LOOP ( 'NONE', ( #517, #247, #742, #518 ) ) ;
#634 = CARTESIAN_POINT ( 'NONE',  ( 0.07500000000000006700, 0.3099999999999998900, 0.1100000000000000000 ) ) ;
#635 = ORIENTED_EDGE ( 'NONE', *, *, #750, .F. ) ;
#636 = CARTESIAN_POINT ( 'NONE',  ( -0.1250000000000000000, 0.07499999999999999700, 0.1100000000000000000 ) ) ;
#637 = AXIS2_PLACEMENT_3D ( 'NONE', #1077, #1048, #941 ) ;
#638 = FACE_OUTER_BOUND ( 'NONE', #400, .T. ) ;
#639 = CARTESIAN_POINT ( 'NONE',  ( -0.1250000000000000000, 0.07499999999999999700, 0.1100000000000000000 ) ) ;
#640 = LINE ( 'NONE', #859, #1069 ) ;
#641 = VERTEX_POINT ( 'NONE', #604 ) ;
#642 = FILL_AREA_STYLE_COLOUR ( '', #695 ) ;
#643 = VERTEX_POINT ( 'NONE', #506 ) ;
#644 = CARTESIAN_POINT ( 'NONE',  ( -0.1250000000000000000, 0.2599999999999999000, 0.0000000000000000000 ) ) ;
#645 = CARTESIAN_POINT ( 'NONE',  ( 0.07500000000000006700, 0.3099999999999998900, 0.1100000000000000000 ) ) ;
#646 = MECHANICAL_DESIGN_GEOMETRIC_PRESENTATION_REPRESENTATION (  '', ( #476 ), #696 ) ;
#647 = CARTESIAN_POINT ( 'NONE',  ( 0.1250000000000000600, 0.2599999999999999000, 0.0000000000000000000 ) ) ;
#648 = DIRECTION ( 'NONE',  ( -1.000000000000000000, -0.0000000000000000000, -0.0000000000000000000 ) ) ;
#649 = LINE ( 'NONE', #543, #170 ) ;
#650 = DIRECTION ( 'NONE',  ( 1.000000000000000000, -3.614007241618347800E-016, 0.0000000000000000000 ) ) ;
#651 = DIRECTION ( 'NONE',  ( -0.0000000000000000000, -1.000000000000000000, -0.0000000000000000000 ) ) ;
#652 = FACE_OUTER_BOUND ( 'NONE', #139, .T. ) ;
#653 = ORIENTED_EDGE ( 'NONE', *, *, #565, .F. ) ;
#654 = ORIENTED_EDGE ( 'NONE', *, *, #660, .F. ) ;
#655 = AXIS2_PLACEMENT_3D ( 'NONE', #355, #369, #267 ) ;
#656 = CARTESIAN_POINT ( 'NONE',  ( -0.1250000000000000600, -0.2599999999999999000, 0.01000000000000000000 ) ) ;
#657 = EDGE_LOOP ( 'NONE', ( #662, #541, #488, #326 ) ) ;
#658 = ORIENTED_EDGE ( 'NONE', *, *, #1084, .F. ) ;
#659 = CARTESIAN_POINT ( 'NONE',  ( 0.1250000000000000000, -0.2599999999999999000, 0.1100000000000000000 ) ) ;
#660 = EDGE_CURVE ( 'NONE', #242, #54, #1078, .T. ) ;
#661 = DIRECTION ( 'NONE',  ( -0.0000000000000000000, -0.0000000000000000000, -1.000000000000000000 ) ) ;
#662 = ORIENTED_EDGE ( 'NONE', *, *, #62, .T. ) ;
#663 = VECTOR ( 'NONE', #648, 1000.000000000000000 ) ;
#664 = FACE_OUTER_BOUND ( 'NONE', #776, .T. ) ;
#665 = PRESENTATION_STYLE_ASSIGNMENT (( #973 ) ) ;
#666 = DIRECTION ( 'NONE',  ( 0.0000000000000000000, 0.0000000000000000000, -1.000000000000000000 ) ) ;
#667 = VERTEX_POINT ( 'NONE', #700 ) ;
#668 = STYLED_ITEM ( 'NONE', ( #727 ), #612 ) ;
#669 = ORIENTED_EDGE ( 'NONE', *, *, #456, .T. ) ;
#670 = EDGE_CURVE ( 'NONE', #338, #294, #1054, .T. ) ;
#671 = CARTESIAN_POINT ( 'NONE',  ( 0.1599999999999999800, 0.3100000000000000000, 0.3000000000000000400 ) ) ;
#672 = CARTESIAN_POINT ( 'NONE',  ( 0.07499999999999998300, -0.3099999999999998900, 0.01000000000000000000 ) ) ;
#673 = DIRECTION ( 'NONE',  ( -0.7071067811865479100, -0.7071067811865471300, -0.0000000000000000000 ) ) ;
#674 = EDGE_CURVE ( 'NONE', #560, #25, #141, .T. ) ;
#675 = VECTOR ( 'NONE', #705, 1000.000000000000000 ) ;
#676 = VERTEX_POINT ( 'NONE', #452 ) ;
#677 = CARTESIAN_POINT ( 'NONE',  ( -0.1599999999999999500, -0.3099999999999999400, 0.3000000000000000400 ) ) ;
#678 = EDGE_CURVE ( 'NONE', #1002, #1057, #117, .T. ) ;
#679 = EDGE_LOOP ( 'NONE', ( #439, #669, #241, #741 ) ) ;
#680 = ORIENTED_EDGE ( 'NONE', *, *, #975, .T. ) ;
#681 = PLANE ( 'NONE',  #39 ) ;
#682 = EDGE_CURVE ( 'NONE', #68, #929, #363, .T. ) ;
#683 = CARTESIAN_POINT ( 'NONE',  ( 0.07499999999999998300, -0.3099999999999998900, 0.1100000000000000000 ) ) ;
#684 = DIRECTION ( 'NONE',  ( 0.0000000000000000000, 0.0000000000000000000, -1.000000000000000000 ) ) ;
#685 = ORIENTED_EDGE ( 'NONE', *, *, #800, .F. ) ;
#686 = AXIS2_PLACEMENT_3D ( 'NONE', #86, #1106, #872 ) ;
#687 = LINE ( 'NONE', #196, #1111 ) ;
#688 = VECTOR ( 'NONE', #283, 1000.000000000000000 ) ;
#689 = LINE ( 'NONE', #147, #466 ) ;
#690 = CARTESIAN_POINT ( 'NONE',  ( -0.07500000000000003900, -0.3099999999999999400, 0.1100000000000000000 ) ) ;
#691 = ORIENTED_EDGE ( 'NONE', *, *, #925, .T. ) ;
#692 = ADVANCED_BREP_SHAPE_REPRESENTATION ( 'SL2', ( #71, #612, #1014, #686 ), #146 ) ;
#693 = ORIENTED_EDGE ( 'NONE', *, *, #989, .F. ) ;
#694 = DIRECTION ( 'NONE',  ( 0.0000000000000000000, 1.000000000000000000, 0.0000000000000000000 ) ) ;
#695 = COLOUR_RGB ( '',1.000000000000000000, 1.000000000000000000, 1.000000000000000000 ) ;
#696 =( GEOMETRIC_REPRESENTATION_CONTEXT ( 3 ) GLOBAL_UNCERTAINTY_ASSIGNED_CONTEXT ( ( #822 ) ) GLOBAL_UNIT_ASSIGNED_CONTEXT ( ( #792, #376, #737 ) ) REPRESENTATION_CONTEXT ( 'NONE', 'WORKASPACE' ) );
#697 = DIRECTION ( 'NONE',  ( -0.7071067811865479100, -0.7071067811865471300, -0.0000000000000000000 ) ) ;
#698 = VECTOR ( 'NONE', #673, 1000.000000000000100 ) ;
#699 = ORIENTED_EDGE ( 'NONE', *, *, #738, .T. ) ;
#700 = CARTESIAN_POINT ( 'NONE',  ( -0.07499999999999995600, 0.3099999999999999400, 0.1100000000000000000 ) ) ;
#701 = DIRECTION ( 'NONE',  ( -0.0000000000000000000, -1.000000000000000000, -0.0000000000000000000 ) ) ;
#702 = ORIENTED_EDGE ( 'NONE', *, *, #978, .T. ) ;
#703 = DIRECTION ( 'NONE',  ( 2.930276141852715400E-016, 1.000000000000000000, 0.0000000000000000000 ) ) ;
#704 = CARTESIAN_POINT ( 'NONE',  ( 0.1530158461016504800, 0.3100000000000000000, 0.3000000000000000400 ) ) ;
#705 = DIRECTION ( 'NONE',  ( 0.0000000000000000000, 0.0000000000000000000, -1.000000000000000000 ) ) ;
#706 = DIRECTION ( 'NONE',  ( -0.7071067811865474600, 0.7071067811865474600, 0.0000000000000000000 ) ) ;
#707 = AXIS2_PLACEMENT_3D ( 'NONE', #271, #251, #256 ) ;
#708 = EDGE_LOOP ( 'NONE', ( #114, #1064, #960, #596 ) ) ;
#709 = FACE_OUTER_BOUND ( 'NONE', #249, .T. ) ;
#710 = FACE_OUTER_BOUND ( 'NONE', #793, .T. ) ;
#711 = VECTOR ( 'NONE', #474, 1000.000000000000000 ) ;
#712 = CARTESIAN_POINT ( 'NONE',  ( -0.07500000000000003900, -0.3099999999999999400, 0.1100000000000000000 ) ) ;
#713 = EDGE_CURVE ( 'NONE', #524, #676, #805, .T. ) ;
#714 = LINE ( 'NONE', #970, #879 ) ;
#715 = ORIENTED_EDGE ( 'NONE', *, *, #323, .F. ) ;
#716 = CARTESIAN_POINT ( 'NONE',  ( 0.1600000000000000600, -0.3099999999999999400, 0.01000000000000000000 ) ) ;
#717 = ORIENTED_EDGE ( 'NONE', *, *, #60, .F. ) ;
#718 = DIRECTION ( 'NONE',  ( -0.0000000000000000000, -1.000000000000000000, -0.0000000000000000000 ) ) ;
#719 = ORIENTED_EDGE ( 'NONE', *, *, #328, .F. ) ;
#720 = ORIENTED_EDGE ( 'NONE', *, *, #682, .T. ) ;
#721 = AXIS2_PLACEMENT_3D ( 'NONE', #131, #51, #5 ) ;
#722 = CARTESIAN_POINT ( 'NONE',  ( 0.1250000000000000000, -0.2599999999999999000, 0.0000000000000000000 ) ) ;
#723 = CARTESIAN_POINT ( 'NONE',  ( -0.1250000000000000600, -0.2599999999999999000, 0.0000000000000000000 ) ) ;
#724 = EDGE_CURVE ( 'NONE', #749, #54, #582, .T. ) ;
#725 = SURFACE_STYLE_FILL_AREA ( #806 ) ;
#726 = DIRECTION ( 'NONE',  ( 1.000000000000000000, -3.614007241618347800E-016, 0.0000000000000000000 ) ) ;
#727 = PRESENTATION_STYLE_ASSIGNMENT (( #629 ) ) ;
#728 = LINE ( 'NONE', #1095, #30 ) ;
#729 = DIRECTION ( 'NONE',  ( -0.7071067811865474600, 0.7071067811865474600, 0.0000000000000000000 ) ) ;
#730 = VERTEX_POINT ( 'NONE', #389 ) ;
#731 = DIRECTION ( 'NONE',  ( 0.0000000000000000000, -0.0000000000000000000, 1.000000000000000000 ) ) ;
#732 = CARTESIAN_POINT ( 'NONE',  ( -0.07500000000000003900, -0.3099999999999999400, 0.0000000000000000000 ) ) ;
#733 = EDGE_CURVE ( 'NONE', #730, #554, #598, .T. ) ;
#734 = ORIENTED_EDGE ( 'NONE', *, *, #70, .F. ) ;
#735 = CARTESIAN_POINT ( 'NONE',  ( -0.07500000000000003900, -0.3099999999999999400, 0.1100000000000000000 ) ) ;
#736 = ORIENTED_EDGE ( 'NONE', *, *, #724, .F. ) ;
#737 =( NAMED_UNIT ( * ) SI_UNIT ( $, .STERADIAN. ) SOLID_ANGLE_UNIT ( ) );
#738 = EDGE_CURVE ( 'NONE', #367, #1047, #90, .T. ) ;
#739 = CARTESIAN_POINT ( 'NONE',  ( -0.1250000000000000000, 0.2599999999999999000, 0.1100000000000000000 ) ) ;
#740 = EDGE_CURVE ( 'NONE', #25, #111, #772, .T. ) ;
#741 = ORIENTED_EDGE ( 'NONE', *, *, #876, .T. ) ;
#742 = ORIENTED_EDGE ( 'NONE', *, *, #513, .F. ) ;
#743 = FACE_OUTER_BOUND ( 'NONE', #657, .T. ) ;
#744 = VECTOR ( 'NONE', #322, 1000.000000000000000 ) ;
#745 = LINE ( 'NONE', #428, #523 ) ;
#746 = VERTEX_POINT ( 'NONE', #306 ) ;
#747 = PRODUCT_DEFINITION ( 'Î´Öª', '', #816, #1040 ) ;
#748 = DIRECTION ( 'NONE',  ( 0.7071067811865476800, 0.7071067811865473500, -0.0000000000000000000 ) ) ;
#749 = VERTEX_POINT ( 'NONE', #316 ) ;
#750 = EDGE_CURVE ( 'NONE', #1056, #603, #37, .T. ) ;
#751 = EDGE_LOOP ( 'NONE', ( #55, #685, #265, #753 ) ) ;
#752 = AXIS2_PLACEMENT_3D ( 'NONE', #1036, #1024, #1020 ) ;
#753 = ORIENTED_EDGE ( 'NONE', *, *, #313, .T. ) ;
#754 = DIRECTION ( 'NONE',  ( 1.000000000000000000, -1.084202172485504400E-016, 0.0000000000000000000 ) ) ;
#755 = ORIENTED_EDGE ( 'NONE', *, *, #674, .F. ) ;
#756 = LINE ( 'NONE', #1046, #963 ) ;
#757 = VECTOR ( 'NONE', #651, 1000.000000000000000 ) ;
#758 = DIRECTION ( 'NONE',  ( -1.000000000000000000, -3.614007241618347800E-016, -0.0000000000000000000 ) ) ;
#759 = LINE ( 'NONE', #593, #50 ) ;
#760 =( NAMED_UNIT ( * ) SI_UNIT ( $, .STERADIAN. ) SOLID_ANGLE_UNIT ( ) );
#761 = ORIENTED_EDGE ( 'NONE', *, *, #24, .T. ) ;
#762 = CARTESIAN_POINT ( 'NONE',  ( 0.1250000000000000000, 0.07499999999999996900, 0.1100000000000000000 ) ) ;
#763 = ORIENTED_EDGE ( 'NONE', *, *, #124, .T. ) ;
#764 = CARTESIAN_POINT ( 'NONE',  ( 0.07499999999999990000, 0.3100000000000000500, 0.01000000000000000000 ) ) ;
#765 = CARTESIAN_POINT ( 'NONE',  ( -0.07500000000000003900, -0.3099999999999999400, 0.0000000000000000000 ) ) ;
#766 = APPLICATION_PROTOCOL_DEFINITION ( 'draft international standard', 'automotive_design', 1998, #1019 ) ;
#767 = CARTESIAN_POINT ( 'NONE',  ( -0.1250000000000000000, -0.07499999999999996900, 0.1100000000000000000 ) ) ;
#768 = AXIS2_PLACEMENT_3D ( 'NONE', #276, #210, #189 ) ;
#769 = ORIENTED_EDGE ( 'NONE', *, *, #195, .F. ) ;
#770 = ORIENTED_EDGE ( 'NONE', *, *, #234, .F. ) ;
#771 = LINE ( 'NONE', #615, #549 ) ;
#772 = LINE ( 'NONE', #337, #744 ) ;
#773 = LINE ( 'NONE', #459, #711 ) ;
#774 = EDGE_LOOP ( 'NONE', ( #993, #654, #717, #176 ) ) ;
#775 = ORIENTED_EDGE ( 'NONE', *, *, #277, .F. ) ;
#776 = EDGE_LOOP ( 'NONE', ( #719, #839, #871, #778 ) ) ;
#777 = EDGE_CURVE ( 'NONE', #68, #613, #59, .T. ) ;
#778 = ORIENTED_EDGE ( 'NONE', *, *, #869, .T. ) ;
#779 = ADVANCED_FACE ( 'NONE', ( #710 ), #254, .T. ) ;
#780 = ORIENTED_EDGE ( 'NONE', *, *, #508, .T. ) ;
#781 = PLANE ( 'NONE',  #544 ) ;
#782 = ORIENTED_EDGE ( 'NONE', *, *, #581, .F. ) ;
#783 = DIRECTION ( 'NONE',  ( -0.7071067811865479100, -0.7071067811865471300, -0.0000000000000000000 ) ) ;
#784 = PRESENTATION_LAYER_ASSIGNMENT (  '', '', ( #668 ) ) ;
#785 = CARTESIAN_POINT ( 'NONE',  ( -0.1250000000000000600, -0.2599999999999999000, 0.1100000000000000000 ) ) ;
#786 = DIRECTION ( 'NONE',  ( -0.0000000000000000000, 1.000000000000000000, -0.0000000000000000000 ) ) ;
#787 = LINE ( 'NONE', #475, #564 ) ;
#788 = LINE ( 'NONE', #683, #343 ) ;
#789 = DIRECTION ( 'NONE',  ( -0.7071067811865474600, 0.7071067811865474600, 0.0000000000000000000 ) ) ;
#790 = EDGE_CURVE ( 'NONE', #99, #524, #260, .T. ) ;
#791 = LINE ( 'NONE', #509, #318 ) ;
#792 =( LENGTH_UNIT ( ) NAMED_UNIT ( * ) SI_UNIT ( .MILLI., .METRE. ) );
#793 = EDGE_LOOP ( 'NONE', ( #1080, #468, #399, #1101 ) ) ;
#794 = ADVANCED_FACE ( 'NONE', ( #926 ), #239, .F. ) ;
#795 = CARTESIAN_POINT ( 'NONE',  ( 0.07499999999999998300, -0.3099999999999998900, 0.01000000000000000000 ) ) ;
#796 = CLOSED_SHELL ( 'NONE', ( #1112, #274, #307, #1123, #301, #178, #798, #309 ) ) ;
#797 = SURFACE_STYLE_USAGE ( .BOTH. , #801 ) ;
#798 = ADVANCED_FACE ( 'NONE', ( #16 ), #264, .F. ) ;
#799 = CARTESIAN_POINT ( 'NONE',  ( 0.1250000000000000600, 0.2599999999999999000, 0.1100000000000000000 ) ) ;
#800 = EDGE_CURVE ( 'NONE', #886, #983, #463, .T. ) ;
#801 = SURFACE_SIDE_STYLE ('',( #725 ) ) ;
#802 = ORIENTED_EDGE ( 'NONE', *, *, #819, .T. ) ;
#803 = DIRECTION ( 'NONE',  ( 0.0000000000000000000, 0.0000000000000000000, -1.000000000000000000 ) ) ;
#804 = VECTOR ( 'NONE', #102, 999.9999999999998900 ) ;
#805 = LINE ( 'NONE', #405, #333 ) ;
#806 = FILL_AREA_STYLE ('',( #642 ) ) ;
#807 = EDGE_CURVE ( 'NONE', #836, #985, #687, .T. ) ;
#808 = FACE_OUTER_BOUND ( 'NONE', #937, .T. ) ;
#809 = EDGE_CURVE ( 'NONE', #132, #676, #217, .T. ) ;
#810 = ORIENTED_EDGE ( 'NONE', *, *, #250, .T. ) ;
#811 = EDGE_LOOP ( 'NONE', ( #625, #232, #846, #680 ) ) ;
#812 = CARTESIAN_POINT ( 'NONE',  ( 0.1250000000000000000, -0.2599999999999999000, 0.01000000000000000000 ) ) ;
#813 = ORIENTED_EDGE ( 'NONE', *, *, #807, .F. ) ;
#814 = ORIENTED_EDGE ( 'NONE', *, *, #456, .F. ) ;
#815 = CARTESIAN_POINT ( 'NONE',  ( -0.07499999999999995600, 0.3099999999999999400, 0.1100000000000000000 ) ) ;
#816 = PRODUCT_DEFINITION_FORMATION_WITH_SPECIFIED_SOURCE ( 'ÈÎºÎ', '', #202, .NOT_KNOWN. ) ;
#817 = DIRECTION ( 'NONE',  ( -0.03489949670249752100, 0.0000000000000000000, 0.9993908270190957600 ) ) ;
#818 = ORIENTED_EDGE ( 'NONE', *, *, #624, .T. ) ;
#819 = EDGE_CURVE ( 'NONE', #641, #853, #490, .T. ) ;
#820 = VECTOR ( 'NONE', #1073, 1000.000000000000000 ) ;
#821 = CARTESIAN_POINT ( 'NONE',  ( 0.1250000000000000000, 0.07499999999999996900, 0.1100000000000000000 ) ) ;
#822 = UNCERTAINTY_MEASURE_WITH_UNIT (LENGTH_MEASURE( 1.000000000000000100E-005 ), #792, 'distance_accuracy_value', 'NONE');
#823 = LINE ( 'NONE', #735, #590 ) ;
#824 = VECTOR ( 'NONE', #830, 1000.000000000000100 ) ;
#825 = PLANE ( 'NONE',  #378 ) ;
#826 = CARTESIAN_POINT ( 'NONE',  ( 0.07499999999999998300, -0.3099999999999998900, 0.1100000000000000000 ) ) ;
#827 = VERTEX_POINT ( 'NONE', #188 ) ;
#828 = CARTESIAN_POINT ( 'NONE',  ( 0.0000000000000000000, 0.0000000000000000000, 0.1100000000000000000 ) ) ;
#829 = CARTESIAN_POINT ( 'NONE',  ( -0.1250000000000000000, -0.07499999999999996900, 0.01000000000000000000 ) ) ;
#830 = DIRECTION ( 'NONE',  ( -0.7071067811865479100, -0.7071067811865471300, -0.0000000000000000000 ) ) ;
#831 = VECTOR ( 'NONE', #697, 1000.000000000000100 ) ;
#832 = CARTESIAN_POINT ( 'NONE',  ( 0.1250000000000000000, -0.2599999999999999000, 0.1100000000000000000 ) ) ;
#833 = VECTOR ( 'NONE', #484, 1000.000000000000000 ) ;
#834 = VECTOR ( 'NONE', #932, 1000.000000000000000 ) ;
#835 = ORIENTED_EDGE ( 'NONE', *, *, #15, .F. ) ;
#836 = VERTEX_POINT ( 'NONE', #634 ) ;
#837 = CARTESIAN_POINT ( 'NONE',  ( -0.07500000000000003900, -0.3099999999999999400, 0.01000000000000000000 ) ) ;
#838 = ADVANCED_FACE ( 'NONE', ( #898 ), #1004, .F. ) ;
#839 = ORIENTED_EDGE ( 'NONE', *, *, #790, .T. ) ;
#840 = AXIS2_PLACEMENT_3D ( 'NONE', #324, #552, #455 ) ;
#841 = EDGE_LOOP ( 'NONE', ( #426, #1060, #632, #134 ) ) ;
#842 = CARTESIAN_POINT ( 'NONE',  ( -0.07500000000000003900, -0.3099999999999999400, 0.1100000000000000000 ) ) ;
#843 = ORIENTED_EDGE ( 'NONE', *, *, #660, .T. ) ;
#844 = ADVANCED_FACE ( 'NONE', ( #433 ), #453, .T. ) ;
#845 = EDGE_CURVE ( 'NONE', #111, #367, #407, .T. ) ;
#846 = ORIENTED_EDGE ( 'NONE', *, *, #577, .F. ) ;
#847 = ADVANCED_FACE ( 'NONE', ( #638 ), #1066, .F. ) ;
#848 = PRESENTATION_STYLE_ASSIGNMENT (( #305 ) ) ;
#849 = LINE ( 'NONE', #785, #1043 ) ;
#850 = CARTESIAN_POINT ( 'NONE',  ( -0.07499999999999995600, 0.3099999999999999400, 0.1100000000000000000 ) ) ;
#851 = LINE ( 'NONE', #1058, #824 ) ;
#852 = MECHANICAL_DESIGN_GEOMETRIC_PRESENTATION_REPRESENTATION (  '', ( #668 ), #908 ) ;
#853 = VERTEX_POINT ( 'NONE', #291 ) ;
#854 =( NAMED_UNIT ( * ) PLANE_ANGLE_UNIT ( ) SI_UNIT ( $, .RADIAN. ) );
#855 = CARTESIAN_POINT ( 'NONE',  ( -0.1250000000000000000, 0.07499999999999999700, 0.01000000000000000000 ) ) ;
#856 = EDGE_CURVE ( 'NONE', #11, #44, #1068, .T. ) ;
#857 = ORIENTED_EDGE ( 'NONE', *, *, #682, .F. ) ;
#858 = DIRECTION ( 'NONE',  ( -0.0000000000000000000, -0.0000000000000000000, -1.000000000000000000 ) ) ;
#859 = CARTESIAN_POINT ( 'NONE',  ( -0.1250000000000000000, -0.07499999999999996900, 0.0000000000000000000 ) ) ;
#860 = CARTESIAN_POINT ( 'NONE',  ( -0.1250000000000000000, 0.07499999999999999700, 0.1100000000000000000 ) ) ;
#861 = EDGE_CURVE ( 'NONE', #242, #411, #875, .T. ) ;
#862 = LINE ( 'NONE', #572, #619 ) ;
#863 = CARTESIAN_POINT ( 'NONE',  ( 0.1250000000000000000, -0.07499999999999999700, 0.1100000000000000000 ) ) ;
#864 = FACE_OUTER_BOUND ( 'NONE', #482, .T. ) ;
#865 = CARTESIAN_POINT ( 'NONE',  ( -0.1530158461016504200, -0.3099999999999999400, 0.3000000000000000400 ) ) ;
#866 = ORIENTED_EDGE ( 'NONE', *, *, #195, .T. ) ;
#867 = ORIENTED_EDGE ( 'NONE', *, *, #208, .T. ) ;
#868 = EDGE_CURVE ( 'NONE', #895, #52, #849, .T. ) ;
#869 = EDGE_CURVE ( 'NONE', #853, #258, #379, .T. ) ;
#870 = DIRECTION ( 'NONE',  ( -0.0000000000000000000, -0.0000000000000000000, -1.000000000000000000 ) ) ;
#871 = ORIENTED_EDGE ( 'NONE', *, *, #277, .T. ) ;
#872 = DIRECTION ( 'NONE',  ( 1.000000000000000000, 0.0000000000000000000, 0.0000000000000000000 ) ) ;
#873 = PRODUCT_RELATED_PRODUCT_CATEGORY ( 'part', '', ( #202 ) ) ;
#874 = DIRECTION ( 'NONE',  ( -1.000000000000000000, 0.0000000000000000000, -0.0000000000000000000 ) ) ;
#875 = LINE ( 'NONE', #639, #156 ) ;
#876 = EDGE_CURVE ( 'NONE', #23, #132, #128, .T. ) ;
#877 = LINE ( 'NONE', #1102, #408 ) ;
#878 = AXIS2_PLACEMENT_3D ( 'NONE', #1038, #998, #995 ) ;
#879 = VECTOR ( 'NONE', #786, 1000.000000000000000 ) ;
#880 = ORIENTED_EDGE ( 'NONE', *, *, #448, .T. ) ;
#881 = APPLICATION_CONTEXT ( 'automotive_design' ) ;
#882 = DIRECTION ( 'NONE',  ( 0.0000000000000000000, 0.0000000000000000000, -1.000000000000000000 ) ) ;
#883 = ORIENTED_EDGE ( 'NONE', *, *, #60, .T. ) ;
#884 = ORIENTED_EDGE ( 'NONE', *, *, #430, .T. ) ;
#885 = DIRECTION ( 'NONE',  ( 2.930276141852715400E-016, 1.000000000000000000, 0.0000000000000000000 ) ) ;
#886 = VERTEX_POINT ( 'NONE', #76 ) ;
#887 = AXIS2_PLACEMENT_3D ( 'NONE', #559, #694, #731 ) ;
#888 = VECTOR ( 'NONE', #586, 999.9999999999998900 ) ;
#889 = FACE_OUTER_BOUND ( 'NONE', #584, .T. ) ;
#890 = DIRECTION ( 'NONE',  ( -0.03489949670249751400, 0.0000000000000000000, -0.9993908270190957600 ) ) ;
#891 = ORIENTED_EDGE ( 'NONE', *, *, #740, .F. ) ;
#892 = DIRECTION ( 'NONE',  ( 0.0000000000000000000, 0.0000000000000000000, -1.000000000000000000 ) ) ;
#893 = AXIS2_PLACEMENT_3D ( 'NONE', #179, #240, #160 ) ;
#894 = CARTESIAN_POINT ( 'NONE',  ( -0.1250000000000000000, 0.2599999999999999000, 0.01000000000000000000 ) ) ;
#895 = VERTEX_POINT ( 'NONE', #261 ) ;
#896 = DIRECTION ( 'NONE',  ( 0.7071067811865471300, -0.7071067811865479100, 0.0000000000000000000 ) ) ;
#897 = CARTESIAN_POINT ( 'NONE',  ( -0.1599999999999999500, -0.3099999999999999400, 0.09999999999998014600 ) ) ;
#898 = FACE_OUTER_BOUND ( 'NONE', #774, .T. ) ;
#899 = CARTESIAN_POINT ( 'NONE',  ( -0.1250000000000000000, 0.07499999999999999700, 0.1100000000000000000 ) ) ;
#900 = CARTESIAN_POINT ( 'NONE',  ( 0.1250000000000000000, 0.07499999999999996900, 0.0000000000000000000 ) ) ;
#901 = VECTOR ( 'NONE', #235, 1000.000000000000000 ) ;
#902 = VECTOR ( 'NONE', #372, 1000.000000000000100 ) ;
#903 = PLANE ( 'NONE',  #73 ) ;
#904 = UNCERTAINTY_MEASURE_WITH_UNIT (LENGTH_MEASURE( 1.000000000000000100E-005 ), #126, 'distance_accuracy_value', 'NONE');
#905 = ORIENTED_EDGE ( 'NONE', *, *, #243, .T. ) ;
#906 = ORIENTED_EDGE ( 'NONE', *, *, #325, .T. ) ;
#907 = VERTEX_POINT ( 'NONE', #72 ) ;
#908 =( GEOMETRIC_REPRESENTATION_CONTEXT ( 3 ) GLOBAL_UNCERTAINTY_ASSIGNED_CONTEXT ( ( #200 ) ) GLOBAL_UNIT_ASSIGNED_CONTEXT ( ( #621, #617, #760 ) ) REPRESENTATION_CONTEXT ( 'NONE', 'WORKASPACE' ) );
#909 = CARTESIAN_POINT ( 'NONE',  ( -0.1530158461016504200, -0.3099999999999999400, 0.3000000000000000400 ) ) ;
#910 = EDGE_CURVE ( 'NONE', #1034, #401, #787, .T. ) ;
#911 = DIRECTION ( 'NONE',  ( -1.000000000000000000, 1.084202172485504400E-016, -0.0000000000000000000 ) ) ;
#912 = DIRECTION ( 'NONE',  ( 1.000000000000000000, -2.930276141852715400E-016, 0.0000000000000000000 ) ) ;
#913 = DIRECTION ( 'NONE',  ( -0.0000000000000000000, 0.0000000000000000000, 1.000000000000000000 ) ) ;
#914 = PRESENTATION_STYLE_ASSIGNMENT (( #797 ) ) ;
#915 = DIRECTION ( 'NONE',  ( -1.000000000000000000, 0.0000000000000000000, -0.0000000000000000000 ) ) ;
#916 = DIRECTION ( 'NONE',  ( -0.7071067811865477900, 0.7071067811865473500, 0.0000000000000000000 ) ) ;
#917 = LINE ( 'NONE', #863, #675 ) ;
#918 = ORIENTED_EDGE ( 'NONE', *, *, #1035, .T. ) ;
#919 = EDGE_CURVE ( 'NONE', #574, #23, #1015, .T. ) ;
#920 = CARTESIAN_POINT ( 'NONE',  ( -0.07499999999999995600, 0.3099999999999999400, 0.0000000000000000000 ) ) ;
#921 = DIRECTION ( 'NONE',  ( 1.000000000000000000, -1.084202172485504400E-016, 0.0000000000000000000 ) ) ;
#922 = ORIENTED_EDGE ( 'NONE', *, *, #627, .T. ) ;
#923 = EDGE_CURVE ( 'NONE', #643, #23, #314, .T. ) ;
#924 = PLANE ( 'NONE',  #1092 ) ;
#925 = EDGE_CURVE ( 'NONE', #25, #308, #74, .T. ) ;
#926 = FACE_OUTER_BOUND ( 'NONE', #1001, .T. ) ;
#927 = LINE ( 'NONE', #8, #611 ) ;
#928 = VECTOR ( 'NONE', #444, 1000.000000000000000 ) ;
#929 = VERTEX_POINT ( 'NONE', #386 ) ;
#930 = EDGE_CURVE ( 'NONE', #52, #1002, #756, .T. ) ;
#931 = ORIENTED_EDGE ( 'NONE', *, *, #777, .T. ) ;
#932 = DIRECTION ( 'NONE',  ( -0.0000000000000000000, -0.0000000000000000000, -1.000000000000000000 ) ) ;
#933 = VECTOR ( 'NONE', #890, 1000.000000000000100 ) ;
#934 = DIRECTION ( 'NONE',  ( -0.0000000000000000000, -0.0000000000000000000, -1.000000000000000000 ) ) ;
#935 = LINE ( 'NONE', #1028, #225 ) ;
#936 = CARTESIAN_POINT ( 'NONE',  ( 0.1599999999999999800, 0.3100000000000000000, 0.01000000000000000000 ) ) ;
#937 = EDGE_LOOP ( 'NONE', ( #358, #635, #693, #390 ) ) ;
#938 = CARTESIAN_POINT ( 'NONE',  ( 0.1250000000000000000, -0.2599999999999999000, 0.1100000000000000000 ) ) ;
#939 = VERTEX_POINT ( 'NONE', #1005 ) ;
#940 = ORIENTED_EDGE ( 'NONE', *, *, #328, .T. ) ;
#941 = DIRECTION ( 'NONE',  ( 0.0000000000000000000, 0.0000000000000000000, 1.000000000000000000 ) ) ;
#942 = CARTESIAN_POINT ( 'NONE',  ( -0.1250000000000000600, -0.2599999999999999000, 0.01000000000000000000 ) ) ;
#943 = ORIENTED_EDGE ( 'NONE', *, *, #325, .F. ) ;
#944 = FACE_OUTER_BOUND ( 'NONE', #708, .T. ) ;
#945 = AXIS2_PLACEMENT_3D ( 'NONE', #462, #951, #546 ) ;
#946 = VECTOR ( 'NONE', #341, 1000.000000000000000 ) ;
#947 = LINE ( 'NONE', #492, #237 ) ;
#948 = CARTESIAN_POINT ( 'NONE',  ( 0.07500000000000006700, 0.3099999999999998900, 0.1100000000000000000 ) ) ;
#949 = LINE ( 'NONE', #164, #40 ) ;
#950 = CLOSED_SHELL ( 'NONE', ( #1109, #1126, #285, #1120, #275, #844, #352, #286 ) ) ;
#951 = DIRECTION ( 'NONE',  ( 0.7071067811865473500, 0.7071067811865477900, 0.0000000000000000000 ) ) ;
#952 = ORIENTED_EDGE ( 'NONE', *, *, #122, .T. ) ;
#953 = CARTESIAN_POINT ( 'NONE',  ( -0.1250000000000000000, 0.2599999999999999000, 0.1100000000000000000 ) ) ;
#954 = ORIENTED_EDGE ( 'NONE', *, *, #515, .T. ) ;
#955 = DIRECTION ( 'NONE',  ( -1.000000000000000000, -3.614007241618347800E-016, -0.0000000000000000000 ) ) ;
#956 = ORIENTED_EDGE ( 'NONE', *, *, #1032, .F. ) ;
#957 = ORIENTED_EDGE ( 'NONE', *, *, #348, .F. ) ;
#958 = PRODUCT_CONTEXT ( 'NONE', #1019, 'mechanical' ) ;
#959 = DIRECTION ( 'NONE',  ( 2.930276141852715400E-016, 1.000000000000000000, 0.0000000000000000000 ) ) ;
#960 = ORIENTED_EDGE ( 'NONE', *, *, #501, .F. ) ;
#961 = CARTESIAN_POINT ( 'NONE',  ( -0.1250000000000000000, -0.07499999999999996900, 0.1100000000000000000 ) ) ;
#962 = DIRECTION ( 'NONE',  ( 1.000000000000000000, -2.930276141852715400E-016, 0.0000000000000000000 ) ) ;
#963 = VECTOR ( 'NONE', #986, 1000.000000000000000 ) ;
#964 = EDGE_CURVE ( 'NONE', #1047, #182, #278, .T. ) ;
#965 = VECTOR ( 'NONE', #661, 1000.000000000000000 ) ;
#966 = DIRECTION ( 'NONE',  ( 1.000000000000000000, -1.084202172485504400E-016, 0.0000000000000000000 ) ) ;
#967 = LINE ( 'NONE', #175, #505 ) ;
#968 = ORIENTED_EDGE ( 'NONE', *, *, #243, .F. ) ;
#969 = CARTESIAN_POINT ( 'NONE',  ( 0.1250000000000000600, 0.2599999999999999000, 0.0000000000000000000 ) ) ;
#970 = CARTESIAN_POINT ( 'NONE',  ( -0.1250000000000000000, 0.2599999999999999000, 0.1100000000000000000 ) ) ;
#971 = ORIENTED_EDGE ( 'NONE', *, *, #234, .T. ) ;
#972 = DIRECTION ( 'NONE',  ( -1.084202172485504400E-016, -1.000000000000000000, 0.0000000000000000000 ) ) ;
#973 = SURFACE_STYLE_USAGE ( .BOTH. , #12 ) ;
#974 = DIRECTION ( 'NONE',  ( -2.930276141852715400E-016, -1.000000000000000000, 0.0000000000000000000 ) ) ;
#975 = EDGE_CURVE ( 'NONE', #1087, #1034, #342, .T. ) ;
#976 = ORIENTED_EDGE ( 'NONE', *, *, #398, .F. ) ;
#977 = FACE_OUTER_BOUND ( 'NONE', #289, .T. ) ;
#978 = EDGE_CURVE ( 'NONE', #574, #99, #503, .T. ) ;
#979 = VECTOR ( 'NONE', #445, 1000.000000000000000 ) ;
#980 = CARTESIAN_POINT ( 'NONE',  ( 0.0000000000000000000, 0.0000000000000000000, 0.0000000000000000000 ) ) ;
#981 = FACE_OUTER_BOUND ( 'NONE', #1037, .T. ) ;
#982 = CARTESIAN_POINT ( 'NONE',  ( 0.1250000000000000600, 0.2599999999999999000, 0.1100000000000000000 ) ) ;
#983 = VERTEX_POINT ( 'NONE', #894 ) ;
#984 = CARTESIAN_POINT ( 'NONE',  ( -0.1250000000000000000, -0.07499999999999996900, 0.1100000000000000000 ) ) ;
#985 = VERTEX_POINT ( 'NONE', #1113 ) ;
#986 = DIRECTION ( 'NONE',  ( -0.0000000000000000000, -0.0000000000000000000, -1.000000000000000000 ) ) ;
#987 = ORIENTED_EDGE ( 'NONE', *, *, #430, .F. ) ;
#988 = CARTESIAN_POINT ( 'NONE',  ( 0.1530158461016504800, 0.3100000000000000000, 0.3000000000000000400 ) ) ;
#989 = EDGE_CURVE ( 'NONE', #294, #1056, #478, .T. ) ;
#990 = ORIENTED_EDGE ( 'NONE', *, *, #513, .T. ) ;
#991 = AXIS2_PLACEMENT_3D ( 'NONE', #1003, #962, #959 ) ;
#992 = DIRECTION ( 'NONE',  ( -1.000000000000000000, 1.084202172485504400E-016, -0.0000000000000000000 ) ) ;
#993 = ORIENTED_EDGE ( 'NONE', *, *, #724, .T. ) ;
#994 = VECTOR ( 'NONE', #817, 1000.000000000000100 ) ;
#995 = DIRECTION ( 'NONE',  ( -1.000000000000000000, 1.084202172485504400E-016, 0.0000000000000000000 ) ) ;
#996 = SURFACE_STYLE_FILL_AREA ( #441 ) ;
#997 = LINE ( 'NONE', #181, #537 ) ;
#998 = DIRECTION ( 'NONE',  ( 1.084202172485504400E-016, 1.000000000000000000, -0.0000000000000000000 ) ) ;
#999 = ORIENTED_EDGE ( 'NONE', *, *, #575, .F. ) ;
#1000 = DIRECTION ( 'NONE',  ( 1.748713181428233300E-016, -1.000000000000000000, 0.0000000000000000000 ) ) ;
#1001 = EDGE_LOOP ( 'NONE', ( #310, #922, #884, #952 ) ) ;
#1002 = VERTEX_POINT ( 'NONE', #829 ) ;
#1003 = CARTESIAN_POINT ( 'NONE',  ( 0.1250000000000000600, 0.2599999999999999000, 0.1100000000000000000 ) ) ;
#1004 = PLANE ( 'NONE',  #279 ) ;
#1005 = CARTESIAN_POINT ( 'NONE',  ( 0.1249999999999999400, -0.2599999999999999000, 0.01000000000000000000 ) ) ;
#1006 = ORIENTED_EDGE ( 'NONE', *, *, #819, .F. ) ;
#1007 = AXIS2_PLACEMENT_3D ( 'NONE', #163, #98, #93 ) ;
#1008 = VECTOR ( 'NONE', #392, 1000.000000000000000 ) ;
#1009 = VECTOR ( 'NONE', #911, 1000.000000000000000 ) ;
#1010 = VERTEX_POINT ( 'NONE', #545 ) ;
#1011 = SURFACE_SIDE_STYLE ('',( #1067 ) ) ;
#1012 = ORIENTED_EDGE ( 'NONE', *, *, #129, .F. ) ;
#1013 = PLANE ( 'NONE',  #991 ) ;
#1014 = MANIFOLD_SOLID_BREP ( 'Lead2', #796 ) ;
#1015 = LINE ( 'NONE', #1124, #820 ) ;
#1016 = VECTOR ( 'NONE', #706, 1000.000000000000100 ) ;
#1017 = LINE ( 'NONE', #767, #568 ) ;
#1018 = VECTOR ( 'NONE', #467, 1000.000000000000000 ) ;
#1019 = APPLICATION_CONTEXT ( 'automotive_design' ) ;
#1020 = DIRECTION ( 'NONE',  ( -1.000000000000000000, 0.0000000000000000000, -0.0000000000000000000 ) ) ;
#1021 = ORIENTED_EDGE ( 'NONE', *, *, #910, .F. ) ;
#1022 = EDGE_CURVE ( 'NONE', #827, #145, #393, .T. ) ;
#1023 = DIRECTION ( 'NONE',  ( 1.000000000000000000, 0.0000000000000000000, 0.0000000000000000000 ) ) ;
#1024 = DIRECTION ( 'NONE',  ( 0.0000000000000000000, 0.0000000000000000000, -1.000000000000000000 ) ) ;
#1025 = CARTESIAN_POINT ( 'NONE',  ( 0.07499999999999998300, -0.3099999999999998900, 0.0000000000000000000 ) ) ;
#1026 = ORIENTED_EDGE ( 'NONE', *, *, #252, .T. ) ;
#1027 = FACE_OUTER_BOUND ( 'NONE', #373, .T. ) ;
#1028 = CARTESIAN_POINT ( 'NONE',  ( 0.07500000000000006700, 0.3099999999999998900, 0.1100000000000000000 ) ) ;
#1029 = PLANE ( 'NONE',  #878 ) ;
#1030 = VECTOR ( 'NONE', #418, 1000.000000000000000 ) ;
#1031 = LINE ( 'NONE', #860, #583 ) ;
#1032 = EDGE_CURVE ( 'NONE', #44, #68, #28, .T. ) ;
#1033 = ORIENTED_EDGE ( 'NONE', *, *, #186, .F. ) ;
#1034 = VERTEX_POINT ( 'NONE', #690 ) ;
#1035 = EDGE_CURVE ( 'NONE', #1057, #939, #362, .T. ) ;
#1036 = CARTESIAN_POINT ( 'NONE',  ( 0.0000000000000000000, 0.0000000000000000000, 0.1100000000000000000 ) ) ;
#1037 = EDGE_LOOP ( 'NONE', ( #782, #135, #201, #957, #1125, #83 ) ) ;
#1038 = CARTESIAN_POINT ( 'NONE',  ( -0.1250000000000000000, -0.07499999999999996900, 0.1100000000000000000 ) ) ;
#1039 = DIRECTION ( 'NONE',  ( -1.000000000000000000, -0.0000000000000000000, -0.0000000000000000000 ) ) ;
#1040 = PRODUCT_DEFINITION_CONTEXT ( 'detailed design', #881, 'design' ) ;
#1041 = EDGE_CURVE ( 'NONE', #132, #626, #1053, .T. ) ;
#1042 = DIRECTION ( 'NONE',  ( -2.930276141852715400E-016, -1.000000000000000000, 0.0000000000000000000 ) ) ;
#1043 = VECTOR ( 'NONE', #885, 1000.000000000000000 ) ;
#1044 = LINE ( 'NONE', #607, #206 ) ;
#1045 = LINE ( 'NONE', #815, #77 ) ;
#1046 = CARTESIAN_POINT ( 'NONE',  ( -0.1250000000000000000, -0.07499999999999996900, 0.1100000000000000000 ) ) ;
#1047 = VERTEX_POINT ( 'NONE', #647 ) ;
#1048 = DIRECTION ( 'NONE',  ( -1.000000000000000000, 0.0000000000000000000, 0.0000000000000000000 ) ) ;
#1049 = ORIENTED_EDGE ( 'NONE', *, *, #122, .F. ) ;
#1050 = DIRECTION ( 'NONE',  ( 1.000000000000000000, -3.614007241618347800E-016, 0.0000000000000000000 ) ) ;
#1051 = DIRECTION ( 'NONE',  ( 0.7071067811865473500, 0.7071067811865477900, -0.0000000000000000000 ) ) ;
#1052 = DIRECTION ( 'NONE',  ( 0.0000000000000000000, 0.0000000000000000000, -1.000000000000000000 ) ) ;
#1053 = LINE ( 'NONE', #704, #4 ) ;
#1054 = LINE ( 'NONE', #636, #833 ) ;
#1055 = FACE_OUTER_BOUND ( 'NONE', #633, .T. ) ;
#1056 = VERTEX_POINT ( 'NONE', #112 ) ;
#1057 = VERTEX_POINT ( 'NONE', #623 ) ;
#1058 = CARTESIAN_POINT ( 'NONE',  ( 0.07499999999999998300, -0.3099999999999998900, 0.1100000000000000000 ) ) ;
#1059 = CARTESIAN_POINT ( 'NONE',  ( -0.07499999999999995600, 0.3099999999999999400, 0.1100000000000000000 ) ) ;
#1060 = ORIENTED_EDGE ( 'NONE', *, *, #233, .F. ) ;
#1061 = PLANE ( 'NONE',  #752 ) ;
#1062 = AXIS2_PLACEMENT_3D ( 'NONE', #599, #510, #504 ) ;
#1063 = ORIENTED_EDGE ( 'NONE', *, *, #556, .F. ) ;
#1064 = ORIENTED_EDGE ( 'NONE', *, *, #381, .F. ) ;
#1065 = DIRECTION ( 'NONE',  ( -0.9993908270190958700, -1.747647912606756300E-016, 0.03489949670249751400 ) ) ;
#1066 = PLANE ( 'NONE',  #538 ) ;
#1067 = SURFACE_STYLE_FILL_AREA ( #321 ) ;
#1068 = LINE ( 'NONE', #551, #609 ) ;
#1069 = VECTOR ( 'NONE', #921, 1000.000000000000000 ) ;
#1070 = AXIS2_PLACEMENT_3D ( 'NONE', #280, #248, #425 ) ;
#1071 = CARTESIAN_POINT ( 'NONE',  ( 0.1250000000000000000, -0.2599999999999999000, 0.1100000000000000000 ) ) ;
#1072 = STYLED_ITEM ( 'NONE', ( #665 ), #71 ) ;
#1073 = DIRECTION ( 'NONE',  ( 1.000000000000000000, 0.0000000000000000000, 0.0000000000000000000 ) ) ;
#1074 = CARTESIAN_POINT ( 'NONE',  ( -0.1530158461016504800, -2.675808270453501400E-017, 0.3000000000000000400 ) ) ;
#1075 = PLANE ( 'NONE',  #525 ) ;
#1076 = CARTESIAN_POINT ( 'NONE',  ( -0.1600000000000000600, 0.3100000000000000000, 0.01000000000000000000 ) ) ;
#1077 = CARTESIAN_POINT ( 'NONE',  ( -0.1250000000000000000, 0.2599999999999999000, 0.1100000000000000000 ) ) ;
#1078 = LINE ( 'NONE', #520, #965 ) ;
#1079 = LINE ( 'NONE', #222, #449 ) ;
#1080 = ORIENTED_EDGE ( 'NONE', *, *, #923, .F. ) ;
#1081 = ORIENTED_EDGE ( 'NONE', *, *, #233, .T. ) ;
#1082 = DIRECTION ( 'NONE',  ( 0.0000000000000000000, 0.0000000000000000000, -1.000000000000000000 ) ) ;
#1083 = EDGE_CURVE ( 'NONE', #308, #497, #579, .T. ) ;
#1084 = EDGE_CURVE ( 'NONE', #258, #470, #597, .T. ) ;
#1085 = ORIENTED_EDGE ( 'NONE', *, *, #777, .F. ) ;
#1086 = ORIENTED_EDGE ( 'NONE', *, *, #1041, .T. ) ;
#1087 = VERTEX_POINT ( 'NONE', #483 ) ;
#1088 = VECTOR ( 'NONE', #650, 1000.000000000000000 ) ;
#1089 = VECTOR ( 'NONE', #934, 1000.000000000000000 ) ;
#1090 = EDGE_CURVE ( 'NONE', #121, #983, #771, .T. ) ;
#1091 = VECTOR ( 'NONE', #447, 1000.000000000000000 ) ;
#1092 = AXIS2_PLACEMENT_3D ( 'NONE', #953, #915, #913 ) ;
#1093 = PLANE ( 'NONE',  #637 ) ;
#1094 = ORIENTED_EDGE ( 'NONE', *, *, #388, .F. ) ;
#1095 = CARTESIAN_POINT ( 'NONE',  ( 0.1250000000000000600, 0.2599999999999999000, 0.1100000000000000000 ) ) ;
#1096 = DIRECTION ( 'NONE',  ( -1.000000000000000000, 0.0000000000000000000, -0.0000000000000000000 ) ) ;
#1097 = DIRECTION ( 'NONE',  ( 0.0000000000000000000, 0.0000000000000000000, -1.000000000000000000 ) ) ;
#1098 = LINE ( 'NONE', #415, #888 ) ;
#1099 = VECTOR ( 'NONE', #620, 1000.000000000000000 ) ;
#1100 = DIRECTION ( 'NONE',  ( 2.930276141852715400E-016, 1.000000000000000000, 0.0000000000000000000 ) ) ;
#1101 = ORIENTED_EDGE ( 'NONE', *, *, #876, .F. ) ;
#1102 = CARTESIAN_POINT ( 'NONE',  ( -0.1250000000000000600, -0.2599999999999999000, 0.1100000000000000000 ) ) ;
#1103 = ORIENTED_EDGE ( 'NONE', *, *, #919, .F. ) ;
#1104 = AXIS2_PLACEMENT_3D ( 'NONE', #104, #29, #20 ) ;
#1105 = ADVANCED_FACE ( 'NONE', ( #297 ), #461, .F. ) ;
#1106 = DIRECTION ( 'NONE',  ( 0.0000000000000000000, 0.0000000000000000000, 1.000000000000000000 ) ) ;
#1107 = CARTESIAN_POINT ( 'NONE',  ( 0.1600000000000000600, -0.3099999999999999400, 0.3000000000000000400 ) ) ;
#1108 = ADVANCED_FACE ( 'NONE', ( #1027 ), #446, .F. ) ;
#1109 = ADVANCED_FACE ( 'NONE', ( #58 ), #781, .T. ) ;
#1110 = ORIENTED_EDGE ( 'NONE', *, *, #1035, .F. ) ;
#1111 = VECTOR ( 'NONE', #216, 999.9999999999998900 ) ;
#1112 = ADVANCED_FACE ( 'NONE', ( #977 ), #282, .T. ) ;
#1113 = CARTESIAN_POINT ( 'NONE',  ( 0.1250000000000000600, 0.2599999999999999000, 0.1100000000000000000 ) ) ;
#1114 = LINE ( 'NONE', #1107, #1089 ) ;
#1115 = ADVANCED_FACE ( 'NONE', ( #743 ), #287, .F. ) ;
#1116 = SURFACE_STYLE_FILL_AREA ( #7 ) ;
#1117 = ORIENTED_EDGE ( 'NONE', *, *, #1083, .F. ) ;
#1118 = ADVANCED_FACE ( 'NONE', ( #519 ), #167, .T. ) ;
#1119 = CARTESIAN_POINT ( 'NONE',  ( 0.1530158461016505300, -0.3099999999999999400, 0.3000000000000000400 ) ) ;
#1120 = ADVANCED_FACE ( 'NONE', ( #259 ), #171, .T. ) ;
#1121 = ADVANCED_FACE ( 'NONE', ( #36 ), #155, .F. ) ;
#1122 = DIRECTION ( 'NONE',  ( -1.748713181428233300E-016, 1.000000000000000000, 0.0000000000000000000 ) ) ;
#1123 = ADVANCED_FACE ( 'NONE', ( #944 ), #81, .T. ) ;
#1124 = CARTESIAN_POINT ( 'NONE',  ( -0.1599999999999999500, -0.3099999999999999400, 0.3000000000000000400 ) ) ;
#1125 = ORIENTED_EDGE ( 'NONE', *, *, #975, .F. ) ;
#1126 = ADVANCED_FACE ( 'NONE', ( #709 ), #555, .T. ) ;
ENDSEC;
END-ISO-10303-21;
